<svg width="1547" height="994" viewBox="0 0 1547 994" fill="none" xmlns="http://www.w3.org/2000/svg">
<path d="M425.511 701.886C426.339 701.886 427.011 701.227 427.011 700.414V697.471C427.011 696.658 426.339 696 425.511 696H374.5C373.671 696 373 696.658 373 697.471V700.414C373 701.227 373.671 701.886 374.5 701.886H375.999V737.201H374.5C373.671 737.201 373 737.859 373 738.672V741.615C373 742.428 373.671 743.086 374.5 743.086H397.005V735.729C397.005 734.92 397.68 734.258 398.505 734.258H401.506C402.331 734.258 403.006 734.92 403.006 735.729V743.086H425.511C426.339 743.086 427.011 742.428 427.011 741.615V738.672C427.011 737.859 426.339 737.201 425.511 737.201H424.01V701.886H425.511ZM397.005 706.006C397.005 705.417 397.605 704.829 398.205 704.829H401.806C402.406 704.829 403.006 705.417 403.006 706.006V709.537C403.006 710.126 402.406 710.714 401.806 710.714H398.205C397.605 710.714 397.005 710.126 397.005 709.537V706.006ZM397.005 714.835C397.005 714.246 397.605 713.657 398.205 713.657H401.806C402.406 713.657 403.006 714.246 403.006 714.835V718.366C403.006 718.955 402.406 719.543 401.806 719.543H398.205C397.605 719.543 397.005 718.955 397.005 718.366V714.835ZM385.002 706.006C385.002 705.417 385.603 704.829 386.203 704.829H389.803C390.403 704.829 391.004 705.417 391.004 706.006V709.537C391.004 710.126 390.403 710.714 389.803 710.714H386.203C385.603 710.714 385.002 710.126 385.002 709.537V706.006ZM389.803 719.543H386.203C385.603 719.543 385.002 718.955 385.002 718.366V714.835C385.002 714.246 385.603 713.657 386.203 713.657H389.803C390.403 713.657 391.004 714.246 391.004 714.835V718.366C391.004 718.955 390.403 719.543 389.803 719.543ZM391.004 731.315C391.004 726.439 395.034 722.486 400.005 722.486C404.977 722.486 409.007 726.439 409.007 731.315H391.004ZM415.008 718.366C415.008 718.955 414.408 719.543 413.808 719.543H410.207C409.607 719.543 409.007 718.955 409.007 718.366V714.835C409.007 714.246 409.607 713.657 410.207 713.657H413.808C414.408 713.657 415.008 714.246 415.008 714.835V718.366ZM415.008 709.537C415.008 710.126 414.408 710.714 413.808 710.714H410.207C409.607 710.714 409.007 710.126 409.007 709.537V706.006C409.007 705.417 409.607 704.829 410.207 704.829H413.808C414.408 704.829 415.008 705.417 415.008 706.006V709.537Z" fill="white"/>
<path d="M1112.09 197H1069V223.159C1069 228.94 1073.82 233.623 1079.77 233.623H1095.93C1101.88 233.623 1106.7 228.94 1106.7 223.159V215.311H1112.09C1115.07 215.311 1117.47 212.957 1117.47 210.08V202.232C1117.47 199.328 1115.07 197 1112.09 197ZM1112.09 210.08H1106.7V202.232H1112.09V210.08ZM1069 238.855H1112.09V244.086H1069V238.855Z" fill="white"/>
<path d="M659.622 862.475C664.325 862.475 668.48 863.6 671.856 865.072C674.972 866.457 676.934 869.573 676.934 872.948V877.622H642.311V872.977C642.311 869.573 644.273 866.457 647.389 865.101C650.765 863.6 654.919 862.475 659.622 862.475ZM636.541 863.196C639.714 863.196 642.311 860.6 642.311 857.426C642.311 854.252 639.714 851.656 636.541 851.656C633.367 851.656 630.77 854.252 630.77 857.426C630.77 860.6 633.367 863.196 636.541 863.196ZM639.801 866.37C638.734 866.197 637.666 866.082 636.541 866.082C633.684 866.082 630.972 866.687 628.52 867.755C626.385 868.678 625 870.756 625 873.093V877.622H637.983V872.977C637.983 870.582 638.647 868.332 639.801 866.37ZM682.704 863.196C685.878 863.196 688.474 860.6 688.474 857.426C688.474 854.252 685.878 851.656 682.704 851.656C679.53 851.656 676.934 854.252 676.934 857.426C676.934 860.6 679.53 863.196 682.704 863.196ZM694.245 873.093C694.245 870.756 692.86 868.678 690.725 867.755C688.272 866.687 685.56 866.082 682.704 866.082C681.579 866.082 680.511 866.197 679.444 866.37C680.598 868.332 681.261 870.582 681.261 872.977V877.622H694.245V873.093ZM659.622 843C664.412 843 668.278 846.866 668.278 851.656C668.278 856.445 664.412 860.311 659.622 860.311C654.833 860.311 650.967 856.445 650.967 851.656C650.967 846.866 654.833 843 659.622 843Z" fill="white"/>
<circle cx="11.0791" cy="23.542" r="9.00181" stroke="#4BBCD4" stroke-width="4.15468"/>
<path d="M65.6312 15.54L78.2793 22.7577L79.8603 19.905L67.2809 12.9279C68.1058 11.2782 68.7245 9.45655 69.0682 7.5662L65.5624 7.01628C64.2907 13.959 58.3104 19.5957 51.9863 19.5613V22.7921C57.348 22.7577 62.366 19.9738 65.6312 15.54ZM80.6165 25.8854H51.2989V29.0475H64.1876V37.2619H67.659V29.0475H80.6165V25.8854ZM108.35 24.7512H111.753V7.2225H108.35V24.7512ZM93.9491 23.8232C99.5514 23.8232 103.16 20.3518 103.16 15.6775C103.16 11.0032 99.5514 7.53183 93.9491 7.53183C88.3124 7.53183 84.7036 11.0032 84.7036 15.6775C84.7036 20.3518 88.3124 23.8232 93.9491 23.8232ZM93.9491 20.9705C90.5465 20.9705 88.1062 18.9427 88.1062 15.6775C88.1062 12.4124 90.5465 10.3845 93.9491 10.3845C97.3173 10.3845 99.7576 12.4124 99.7576 15.6775C99.7576 18.9427 97.3173 20.9705 93.9491 20.9705ZM108.316 36.5745H111.753V26.3666H86.9376V29.3224H108.316V36.5745ZM141.652 23.7201H145.054V7.2225H141.652V11.9999H134.571V15.0245H141.652V23.7201ZM127.251 16.7774L135.637 22.5515L137.527 20.1456L128.591 14.0278C129.313 12.103 129.691 9.9721 129.691 7.70368L126.288 7.49746C126.22 13.7528 122.989 19.0114 117.49 20.0425V23.1358C121.786 22.5515 125.154 20.18 127.251 16.7774ZM132.612 24.6825C125.498 24.6825 119.93 26.3322 119.93 30.6285C119.93 34.9247 125.498 36.5745 132.612 36.5745C139.727 36.5745 145.295 34.9247 145.295 30.6285C145.295 26.3322 139.727 24.6825 132.612 24.6825ZM132.612 33.7905C127.56 33.7905 123.539 32.7938 123.539 30.6285C123.539 28.4632 127.56 27.4664 132.612 27.4664C137.665 27.4664 141.686 28.4632 141.686 30.6285C141.686 32.7938 137.665 33.7905 132.612 33.7905Z" fill="white"/>
<path d="M198.491 337.088L200.741 332.622L188.727 327.671C189.281 326.632 189.662 325.49 189.904 324.312L183.984 323.343C183.049 328.432 177.475 331.722 171.831 331.929V336.915C177.336 336.811 182.391 334.803 185.784 331.583L198.491 337.088ZM170.966 338.438V343.251H182.98V347.267H188.866V343.251H200.88V338.438H170.966ZM178.652 344.982H172.697V353.741H199.495V348.894H178.652V344.982ZM231.136 324.174H225.285V353.741H231.136V324.174ZM212.717 324.52C207.143 324.52 203.404 328.883 203.404 338.611C203.404 348.34 207.143 352.703 212.717 352.703C218.292 352.703 221.996 348.34 221.996 338.611C221.996 328.883 218.292 324.52 212.717 324.52ZM212.717 329.887C214.656 329.887 216.214 331.999 216.214 338.611C216.214 345.259 214.656 347.336 212.717 347.336C210.744 347.336 209.186 345.259 209.186 338.611C209.186 331.999 210.744 329.887 212.717 329.887ZM262.709 324.174H256.858V341.762H262.709V324.174ZM243.736 324.208C237.989 324.208 234.076 327.74 234.076 332.691C234.076 337.677 237.989 341.173 243.736 341.173C249.483 341.173 253.396 337.677 253.396 332.691C253.396 327.74 249.483 324.208 243.736 324.208ZM243.736 329.021C245.952 329.021 247.579 330.406 247.579 332.691C247.579 334.976 245.952 336.361 243.736 336.361C241.486 336.361 239.893 334.976 239.893 332.691C239.893 330.406 241.486 329.021 243.736 329.021ZM262.709 342.801H236.465V347.821H256.754V354.088H262.709V342.801ZM283.247 324.278C277.465 324.278 273.414 328.155 273.414 333.522H279.611C279.611 331.514 280.754 329.54 283.212 329.54C285.566 329.54 286.951 330.821 286.951 332.899C286.951 335.045 285.428 336.43 282.866 336.43H280.061V341.554H282.866C285.809 341.554 287.782 342.801 287.782 345.155C287.782 347.232 286.051 348.652 283.454 348.652C280.823 348.652 279.404 347.302 279.161 345.051H272.964C273.414 350.487 277.257 353.949 283.454 353.949C289.306 353.949 293.91 350.556 293.91 345.12C293.91 341.485 291.002 339.235 288.405 338.819C290.76 338.404 293.149 336.015 293.149 332.76C293.149 327.705 289.098 324.278 283.247 324.278ZM316.029 345.57C316.029 341.658 312.844 339.165 310.316 338.646C312.463 337.988 314.99 335.565 314.99 332.345C314.99 327.982 311.078 324.278 305.296 324.278C299.549 324.278 295.532 327.913 295.532 332.345C295.532 335.565 298.094 337.988 300.276 338.646C297.783 339.165 294.563 341.658 294.563 345.57C294.563 350.695 299.306 353.949 305.296 353.949C311.286 353.949 316.029 350.695 316.029 345.57ZM309.104 332.587C309.104 334.491 307.477 335.807 305.296 335.807C303.184 335.807 301.487 334.422 301.487 332.449C301.487 330.648 303.115 329.402 305.296 329.402C307.546 329.402 309.104 330.787 309.104 332.587ZM309.97 345.19C309.97 347.232 308.066 348.756 305.296 348.756C302.526 348.756 300.622 347.232 300.622 345.19C300.622 343.078 302.595 341.52 305.296 341.52C307.996 341.52 309.97 343.078 309.97 345.19ZM323.635 324.52C319.549 324.52 316.71 327.325 316.71 331.202C316.71 335.045 319.549 337.85 323.635 337.85C327.755 337.85 330.594 335.045 330.594 331.202C330.594 327.325 327.755 324.52 323.635 324.52ZM343.75 325.039H339.007L320.311 353.257H325.054L343.75 325.039ZM323.635 328.536C325.193 328.536 326.301 329.679 326.301 331.202C326.301 332.726 325.193 333.868 323.635 333.868C322.077 333.868 320.969 332.726 320.969 331.202C320.969 329.679 322.077 328.536 323.635 328.536ZM340.392 340.412C336.307 340.412 333.468 343.216 333.468 347.094C333.468 350.937 336.307 353.741 340.392 353.741C344.512 353.741 347.351 350.937 347.351 347.094C347.351 343.216 344.512 340.412 340.392 340.412ZM340.392 344.428C341.95 344.428 343.058 345.57 343.058 347.094C343.058 348.617 341.95 349.76 340.392 349.76C338.834 349.76 337.726 348.617 337.726 347.094C337.726 345.57 338.834 344.428 340.392 344.428Z" fill="#8FD7ED"/>
<path d="M191.267 365.452H182.265V369.829H186.253V388.026H191.267V365.452ZM211.317 365.452H195.806V369.829H205.445L197.662 388.026H202.924L211.317 368.444V365.452ZM216.16 383.068H211.756L210.759 390.242H214.443L216.16 383.068ZM225.793 365.452H216.791V369.829H220.779V388.026H225.793V365.452ZM239.409 364.843C234.479 364.843 230.768 368.804 230.768 376.725C230.768 384.619 234.479 388.58 239.409 388.58C244.339 388.58 248.051 384.619 248.051 376.725C248.051 368.804 244.339 364.843 239.409 364.843ZM239.409 369.247C241.625 369.247 243.287 371.573 243.287 376.725C243.287 381.849 241.625 384.176 239.409 384.176C237.193 384.176 235.532 381.849 235.532 376.725C235.532 371.573 237.193 369.247 239.409 369.247ZM259.465 364.843C254.535 364.843 250.824 368.804 250.824 376.725C250.824 384.619 254.535 388.58 259.465 388.58C264.396 388.58 268.107 384.619 268.107 376.725C268.107 368.804 264.396 364.843 259.465 364.843ZM259.465 369.247C261.681 369.247 263.343 371.573 263.343 376.725C263.343 381.849 261.681 384.176 259.465 384.176C257.249 384.176 255.588 381.849 255.588 376.725C255.588 371.573 257.249 369.247 259.465 369.247ZM274.908 383.068H270.504L269.507 390.242H273.19L274.908 383.068ZM285.701 364.843C280.771 364.843 277.06 368.804 277.06 376.725C277.06 384.619 280.771 388.58 285.701 388.58C290.632 388.58 294.343 384.619 294.343 376.725C294.343 368.804 290.632 364.843 285.701 364.843ZM285.701 369.247C287.917 369.247 289.579 371.573 289.579 376.725C289.579 381.849 287.917 384.176 285.701 384.176C283.486 384.176 281.824 381.849 281.824 376.725C281.824 371.573 283.486 369.247 285.701 369.247ZM305.758 364.843C300.827 364.843 297.116 368.804 297.116 376.725C297.116 384.619 300.827 388.58 305.758 388.58C310.688 388.58 314.399 384.619 314.399 376.725C314.399 368.804 310.688 364.843 305.758 364.843ZM305.758 369.247C307.973 369.247 309.635 371.573 309.635 376.725C309.635 381.849 307.973 384.176 305.758 384.176C303.542 384.176 301.88 381.849 301.88 376.725C301.88 371.573 303.542 369.247 305.758 369.247ZM325.814 364.843C320.883 364.843 317.172 368.804 317.172 376.725C317.172 384.619 320.883 388.58 325.814 388.58C330.744 388.58 334.455 384.619 334.455 376.725C334.455 368.804 330.744 364.843 325.814 364.843ZM325.814 369.247C328.029 369.247 329.691 371.573 329.691 376.725C329.691 381.849 328.029 384.176 325.814 384.176C323.598 384.176 321.936 381.849 321.936 376.725C321.936 371.573 323.598 369.247 325.814 369.247Z" fill="#C7C7C7"/>
<path d="M1042.74 265.047V274.575H1038.89V265.185H1036.29V288.285H1038.89V277.179H1042.74V288.701H1045.34V265.047H1042.74ZM1030.17 268.398H1034.29V265.906H1023.16V268.398H1027.53C1027.48 277.483 1025.93 283.743 1022.8 284.602V287.288C1025.82 286.762 1027.89 284.103 1029.06 279.311L1033.27 286.956L1035.51 285.682L1029.75 275.544C1030 273.439 1030.14 271.057 1030.17 268.398ZM1065.59 285.072V280.475H1070.3V278.037H1052.18V274.353H1069.94V265.906H1049.44V268.343H1067.22V271.999H1049.44V280.475H1053.76V285.072H1047.86V287.565H1071.49V285.072H1065.59ZM1056.5 280.475H1062.85V285.072H1056.5V280.475ZM1092.45 265.047V288.701H1095.2V265.047H1092.45ZM1085.17 273.883H1077.19V265.739H1074.48V287.288H1087.88V265.739H1085.17V273.883ZM1077.19 284.768V276.403H1085.17V284.768H1077.19ZM1112.29 288.618C1116.94 288.618 1120.1 285.793 1120.1 282.081C1120.1 279.007 1117.8 277.262 1115.56 276.846C1117.61 276.348 1119.52 274.464 1119.52 271.75C1119.52 268.26 1116.56 265.407 1111.99 265.407C1107.44 265.407 1104.45 268.454 1104.45 272.359H1107.36C1107.36 270.005 1108.99 267.9 1111.99 267.9C1114.92 267.9 1116.64 269.672 1116.64 271.833C1116.64 274.132 1114.73 275.738 1111.9 275.738H1109.46V278.148H1111.9C1115.25 278.148 1117.25 279.616 1117.25 282.109C1117.25 284.325 1115.39 286.097 1112.29 286.097C1109.16 286.097 1107.39 284.242 1107.3 281.86H1104.42C1104.59 285.737 1107.53 288.618 1112.29 288.618ZM1129.14 288.618C1133.79 288.618 1136.95 285.793 1136.95 282.081C1136.95 279.007 1134.65 277.262 1132.4 276.846C1134.45 276.348 1136.37 274.464 1136.37 271.75C1136.37 268.26 1133.4 265.407 1128.83 265.407C1124.29 265.407 1121.3 268.454 1121.3 272.359H1124.21C1124.21 270.005 1125.84 267.9 1128.83 267.9C1131.77 267.9 1133.48 269.672 1133.48 271.833C1133.48 274.132 1131.57 275.738 1128.75 275.738H1126.31V278.148H1128.75C1132.1 278.148 1134.09 279.616 1134.09 282.109C1134.09 284.325 1132.24 286.097 1129.14 286.097C1126.01 286.097 1124.23 284.242 1124.15 281.86H1121.27C1121.44 285.737 1124.37 288.618 1129.14 288.618ZM1143.71 275.932C1146.9 275.932 1149.19 273.661 1149.19 270.642C1149.19 267.623 1146.9 265.352 1143.71 265.352C1140.53 265.352 1138.23 267.623 1138.23 270.642C1138.23 273.661 1140.53 275.932 1143.71 275.932ZM1141.74 288.119H1144.46L1159.11 265.933H1156.4L1141.74 288.119ZM1143.71 273.606C1141.94 273.606 1140.69 272.359 1140.69 270.642C1140.69 268.925 1141.94 267.706 1143.71 267.706C1145.48 267.706 1146.7 268.925 1146.7 270.642C1146.7 272.359 1145.48 273.606 1143.71 273.606ZM1157.14 288.673C1160.3 288.673 1162.63 286.402 1162.63 283.383C1162.63 280.364 1160.3 278.093 1157.14 278.093C1153.96 278.093 1151.66 280.364 1151.66 283.383C1151.66 286.402 1153.96 288.673 1157.14 288.673ZM1157.14 286.347C1155.37 286.347 1154.13 285.1 1154.13 283.383C1154.13 281.666 1155.37 280.419 1157.14 280.419C1158.89 280.419 1160.14 281.666 1160.14 283.383C1160.14 285.1 1158.89 286.347 1157.14 286.347Z" fill="white"/>
<path d="M301.155 776.701H303.897V763.85H301.155V776.701ZM289.577 776.12C294.092 776.12 296.972 773.682 296.972 770.109C296.972 766.564 294.092 764.099 289.577 764.099C285.035 764.099 282.154 766.564 282.154 770.109C282.154 773.682 285.035 776.12 289.577 776.12ZM289.577 773.849C286.807 773.849 284.896 772.464 284.896 770.109C284.896 767.755 286.807 766.37 289.577 766.37C292.319 766.37 294.23 767.755 294.23 770.109C294.23 772.464 292.319 773.849 289.577 773.849ZM284.121 787.199H303.897V778.003H284.121V787.199ZM286.863 784.872V780.33H301.155V784.872H286.863ZM327.216 763.85V773.378H323.366V763.988H320.762V787.088H323.366V775.954H327.216V787.504H329.82V763.85H327.216ZM310.487 783.654V767.146H318.02V764.708H307.8V786.091H313.229C315.361 786.091 317.633 785.759 319.045 785.149V782.74C317.605 783.321 315.555 783.654 313.533 783.654H310.487ZM350.064 783.875V779.277H354.773V776.84H336.659V773.156H354.413V764.708H333.917V767.146H351.699V770.802H333.917V779.277H338.237V783.875H332.338V786.368H355.964V783.875H350.064ZM340.98 779.277H347.322V783.875H340.98V779.277ZM386.049 763.85H383.307V776.757H386.049V763.85ZM379.125 764.431H365.054V774.846H379.125V764.431ZM376.41 772.547H367.769V766.73H376.41V772.547ZM386.963 785.288L377.103 782.13C377.352 781.687 377.518 781.189 377.657 780.69H386.382V778.419H377.518V776.092H374.721V778.419H365.83V780.69H374.887C373.89 783.349 369.735 784.872 365.664 784.872V787.199C369.514 787.199 373.391 786.119 375.69 783.958L386.16 787.531L386.963 785.288ZM417.076 770.248V763.85H414.334V781.826H417.076V772.824H420.344V770.248H417.076ZM407.354 773.405H410.096V764.237H396.746V766.619H407.354V773.405ZM412.367 776.978V774.624C410.733 775.317 407.853 775.538 404.612 775.538H402.95V769.915H400.236V775.538H395.61V777.892H404.529C407.908 777.892 410.872 777.643 412.367 776.978ZM400.042 780.247H397.272V787.199H417.713V784.817H400.042V780.247ZM440.201 787.504H442.943V763.85H440.201V787.504ZM422.225 786.091H431.809C434.108 786.091 436.573 785.676 438.013 784.955V782.435C436.573 783.127 434.135 783.571 431.892 783.571H424.968V776.48H435.548V764.708H422.17V767.229H432.806V773.959H422.225V786.091ZM465.459 763.85V787.504H468.201V763.85H465.459ZM458.175 772.685H450.198V764.542H447.483V786.091H460.889V764.542H458.175V772.685ZM450.198 783.571V775.206H458.175V783.571H450.198ZM488.149 786.922H490.919V781.909H494.547V779.444H490.919V764.736H487.484L476.959 779.444V781.909H488.149V786.922ZM479.951 779.444L488.149 767.921V779.444H479.951ZM500.493 774.735C503.678 774.735 505.977 772.464 505.977 769.445C505.977 766.426 503.678 764.154 500.493 764.154C497.308 764.154 495.009 766.426 495.009 769.445C495.009 772.464 497.308 774.735 500.493 774.735ZM498.527 786.922H501.241L515.893 764.736H513.179L498.527 786.922ZM500.493 772.408C498.72 772.408 497.474 771.162 497.474 769.445C497.474 767.727 498.72 766.509 500.493 766.509C502.266 766.509 503.484 767.727 503.484 769.445C503.484 771.162 502.266 772.408 500.493 772.408ZM513.927 787.476C517.084 787.476 519.411 785.205 519.411 782.186C519.411 779.167 517.084 776.895 513.927 776.895C510.741 776.895 508.442 779.167 508.442 782.186C508.442 785.205 510.741 787.476 513.927 787.476ZM513.927 785.149C512.154 785.149 510.908 783.903 510.908 782.186C510.908 780.468 512.154 779.222 513.927 779.222C515.672 779.222 516.918 780.468 516.918 782.186C516.918 783.903 515.672 785.149 513.927 785.149Z" fill="white"/>
<path d="M611.304 915.947H614.046V898.387H611.304V915.947ZM599.698 912.374C604.324 912.374 607.177 909.466 607.177 905.505C607.177 901.544 604.324 898.636 599.698 898.636C595.073 898.636 592.192 901.544 592.192 905.505C592.192 909.466 595.073 912.374 599.698 912.374ZM599.698 910.048C596.873 910.048 594.934 908.303 594.934 905.505C594.934 902.708 596.873 900.935 599.698 900.935C602.496 900.935 604.435 902.708 604.435 905.505C604.435 908.303 602.496 910.048 599.698 910.048ZM594.27 921.736H614.683V919.243H597.067V914.008H594.27V921.736ZM630.579 906.585H636.756V915.975H639.498V898.387H636.756V904.037H631.438C631.549 903.428 631.604 902.791 631.604 902.126V898.968H617.977V901.378H628.834V902.486C628.834 907.084 624.596 909.743 617.977 909.771V912.236C624.015 912.236 628.613 910.325 630.579 906.585ZM622.159 919.271V914.202H619.362V921.736H639.996V919.271H622.159ZM661.82 898.387V922.041H664.562V898.387H661.82ZM654.535 907.222H646.558V899.079H643.844V920.628H657.25V899.079H654.535V907.222ZM646.558 918.108V909.743H654.535V918.108H646.558ZM678.444 921.459H681.352V899.273H673.846V901.821H678.444V921.459ZM693.35 921.958C698.003 921.958 701.52 918.108 701.52 910.352C701.52 902.597 698.003 898.747 693.35 898.747C688.669 898.747 685.151 902.597 685.151 910.352C685.151 918.108 688.669 921.958 693.35 921.958ZM693.35 919.382C690.33 919.382 687.948 916.39 687.948 910.352C687.948 904.342 690.33 901.323 693.35 901.323C696.341 901.323 698.723 904.342 698.723 910.352C698.723 916.39 696.341 919.382 693.35 919.382ZM708.344 909.272C711.529 909.272 713.828 907.001 713.828 903.982C713.828 900.963 711.529 898.691 708.344 898.691C705.159 898.691 702.86 900.963 702.86 903.982C702.86 907.001 705.159 909.272 708.344 909.272ZM706.377 921.459H709.092L723.744 899.273H721.03L706.377 921.459ZM708.344 906.945C706.571 906.945 705.325 905.699 705.325 903.982C705.325 902.264 706.571 901.046 708.344 901.046C710.117 901.046 711.335 902.264 711.335 903.982C711.335 905.699 710.117 906.945 708.344 906.945ZM721.777 922.013C724.935 922.013 727.262 919.742 727.262 916.723C727.262 913.704 724.935 911.432 721.777 911.432C718.592 911.432 716.293 913.704 716.293 916.723C716.293 919.742 718.592 922.013 721.777 922.013ZM721.777 919.686C720.005 919.686 718.758 918.44 718.758 916.723C718.758 915.005 720.005 913.759 721.777 913.759C723.522 913.759 724.769 915.005 724.769 916.723C724.769 918.44 723.522 919.686 721.777 919.686Z" fill="white"/>
<path d="M1003.84 734.699V744.227H999.986V734.838H997.382V757.938H999.986V746.803H1003.84V758.353H1006.44V734.699H1003.84ZM992.009 743.59H986.968V735.392H984.42V756.941H994.557V735.392H992.009V743.59ZM986.968 754.448V746.055H992.009V754.448H986.968ZM1030.37 738.937V734.699H1027.63V746.277H1030.37V741.458H1033.69V738.937H1030.37ZM1025.91 744.366V742.095C1024.39 742.732 1021.67 743.119 1018.46 743.119H1012.53V737.608H1024.22V735.281H1009.79V745.418H1018.29C1021.64 745.418 1024.47 745.031 1025.91 744.366ZM1013.33 753.838H1030.37V747.579H1010.56V749.739H1027.65V751.789H1010.62V758.049H1030.95V755.888H1013.33V753.838ZM1045.77 741.402L1055.96 747.219L1057.23 744.92L1047.1 739.297C1047.76 737.968 1048.26 736.5 1048.54 734.976L1045.71 734.533C1044.69 740.128 1039.87 744.67 1034.77 744.643V747.246C1039.09 747.219 1043.13 744.975 1045.77 741.402ZM1057.84 749.739H1034.22V752.287H1044.6V758.907H1047.4V752.287H1057.84V749.739ZM1071.02 741.402L1081.22 747.219L1082.49 744.92L1072.35 739.297C1073.02 737.968 1073.52 736.5 1073.79 734.976L1070.97 734.533C1069.94 740.128 1065.12 744.67 1060.03 744.643V747.246C1064.35 747.219 1068.39 744.975 1071.02 741.402ZM1083.1 749.739H1059.47V752.287H1069.86V758.907H1072.66V752.287H1083.1V749.739ZM1102.46 754.725V750.127H1107.17V747.69H1089.05V744.006H1106.81V735.558H1086.31V737.995H1104.09V741.651H1086.31V750.127H1090.63V754.725H1084.73V757.218H1108.36V754.725H1102.46ZM1093.37 750.127H1099.72V754.725H1093.37V750.127ZM1120.69 757.772H1123.6V735.586H1116.09V738.134H1120.69V757.772ZM1135.01 758.27C1139.67 758.27 1142.85 755.085 1142.85 750.681C1142.85 746.249 1139.75 743.23 1135.54 743.23C1132.99 743.23 1131.36 744.338 1130.53 745.363L1130.91 738.106H1141.72V735.586H1128.25L1127.62 748.354H1130.47C1131.22 746.969 1132.63 745.723 1135.07 745.723C1138 745.723 1140 747.828 1140 750.681C1140 753.589 1138.09 755.75 1135.01 755.75C1131.88 755.75 1130.14 753.894 1130.05 751.512H1127.17C1127.34 755.362 1130.22 758.27 1135.01 758.27ZM1149.62 745.585C1152.8 745.585 1155.1 743.313 1155.1 740.294C1155.1 737.275 1152.8 735.004 1149.62 735.004C1146.43 735.004 1144.13 737.275 1144.13 740.294C1144.13 743.313 1146.43 745.585 1149.62 745.585ZM1147.65 757.772H1150.36L1165.02 735.586H1162.3L1147.65 757.772ZM1149.62 743.258C1147.84 743.258 1146.6 742.011 1146.6 740.294C1146.6 738.577 1147.84 737.358 1149.62 737.358C1151.39 737.358 1152.61 738.577 1152.61 740.294C1152.61 742.011 1151.39 743.258 1149.62 743.258ZM1163.05 758.326C1166.21 758.326 1168.53 756.054 1168.53 753.035C1168.53 750.016 1166.21 747.745 1163.05 747.745C1159.86 747.745 1157.56 750.016 1157.56 753.035C1157.56 756.054 1159.86 758.326 1163.05 758.326ZM1163.05 755.999C1161.28 755.999 1160.03 754.753 1160.03 753.035C1160.03 751.318 1161.28 750.072 1163.05 750.072C1164.79 750.072 1166.04 751.318 1166.04 753.035C1166.04 754.753 1164.79 755.999 1163.05 755.999Z" fill="white"/>
<path d="M1331.02 417.454L1338.79 421.235L1339.6 419.677L1332.06 416.041C1332.52 415.273 1332.83 414.442 1333 413.569L1330.94 413.237C1330.25 416.748 1326.43 419.199 1323 419.324V421.131C1326 421.068 1329.07 419.677 1331.02 417.454ZM1322.38 422.71V424.455H1330.17V427.55H1332.25V424.455H1340.1V422.71H1322.38ZM1325.68 426.137H1323.59V431.185H1339.17V429.419H1325.68V426.137ZM1356.84 431.393H1358.92V413.652H1356.84V431.393ZM1348.47 430.562C1351.61 430.562 1353.83 427.944 1353.83 422.315C1353.83 416.685 1351.61 414.068 1348.47 414.068C1345.31 414.068 1343.09 416.685 1343.09 422.315C1343.09 427.944 1345.31 430.562 1348.47 430.562ZM1348.47 428.672C1346.58 428.672 1345.15 426.823 1345.15 422.315C1345.15 417.828 1346.58 415.958 1348.47 415.958C1350.32 415.958 1351.77 417.828 1351.77 422.315C1351.77 426.823 1350.32 428.672 1348.47 428.672ZM1376.82 424.247H1378.88V413.652H1376.82V424.247ZM1368.12 423.686C1371.51 423.686 1373.69 421.588 1373.69 418.763C1373.69 415.937 1371.51 413.839 1368.12 413.839C1364.71 413.839 1362.53 415.937 1362.53 418.763C1362.53 421.588 1364.71 423.686 1368.12 423.686ZM1368.12 421.962C1366.06 421.962 1364.59 420.736 1364.59 418.763C1364.59 416.789 1366.06 415.564 1368.12 415.564C1370.16 415.564 1371.63 416.789 1371.63 418.763C1371.63 420.736 1370.16 421.962 1368.12 421.962ZM1376.8 431.393H1378.88V425.223H1363.88V427.01H1376.8V431.393Z" fill="white"/>
<path d="M1337.46 452.432V459.578H1334.58V452.536H1332.62V469.861H1334.58V461.53H1337.46V470.172H1339.42V452.432H1337.46ZM1328.03 454.945H1331.13V453.076H1322.78V454.945H1326.06C1326.02 461.759 1324.85 466.454 1322.51 467.098V469.113C1324.77 468.718 1326.33 466.724 1327.2 463.13L1330.36 468.863L1332.04 467.908L1327.72 460.305C1327.91 458.726 1328.01 456.939 1328.03 454.945ZM1355.64 467.451V464.002H1359.17V462.174H1345.58V459.412H1358.9V453.076H1343.53V454.904H1356.86V457.646H1343.53V464.002H1346.77V467.451H1342.34V469.32H1360.06V467.451H1355.64ZM1348.82 464.002H1353.58V467.451H1348.82V464.002ZM1376.82 452.432V470.172H1378.88V452.432H1376.82ZM1371.36 459.058H1365.38V452.951H1363.34V469.113H1373.4V452.951H1371.36V459.058ZM1365.38 467.222V460.949H1371.36V467.222H1365.38Z" fill="white"/>
<path d="M1336.48 491.207V498.353H1333.59V491.311H1331.64V508.636H1333.59V500.285H1336.48V508.948H1338.43V491.207H1336.48ZM1327.61 497.875H1323.83V491.726H1321.92V507.888H1329.52V491.726H1327.61V497.875ZM1323.83 506.018V499.724H1327.61V506.018H1323.83ZM1357.42 494.385V491.207H1355.36V499.89H1357.42V496.276H1359.91V494.385H1357.42ZM1354.07 498.457V496.754C1352.93 497.231 1350.9 497.522 1348.49 497.522H1344.04V493.388H1352.81V491.643H1341.98V499.246H1348.36C1350.87 499.246 1352.99 498.956 1354.07 498.457ZM1344.64 505.561H1357.42V500.867H1342.57V502.487H1355.38V504.024H1342.61V508.719H1357.85V507.099H1344.64V505.561ZM1370.01 496.234L1377.65 500.597L1378.61 498.872L1371 494.655C1371.5 493.658 1371.87 492.557 1372.08 491.415L1369.96 491.082C1369.2 495.279 1365.58 498.685 1361.76 498.665V500.617C1365 500.597 1368.03 498.914 1370.01 496.234ZM1379.06 502.487H1361.34V504.398H1369.13V509.363H1371.23V504.398H1379.06V502.487ZM1389.99 496.234L1397.63 500.597L1398.59 498.872L1390.98 494.655C1391.48 493.658 1391.86 492.557 1392.06 491.415L1389.95 491.082C1389.18 495.279 1385.56 498.685 1381.74 498.665V500.617C1384.98 500.597 1388.01 498.914 1389.99 496.234ZM1399.04 502.487H1381.33V504.398H1389.12V509.363H1391.21V504.398H1399.04V502.487ZM1414.6 506.226V502.778H1418.13V500.95H1404.55V498.187H1417.86V491.851H1402.49V493.679H1415.83V496.421H1402.49V502.778H1405.73V506.226H1401.31V508.096H1419.03V506.226H1414.6ZM1407.79 502.778H1412.55V506.226H1407.79V502.778Z" fill="white"/>
<path d="M1336.86 543.157H1338.92V529.986H1336.86V543.157ZM1328.16 540.477C1331.63 540.477 1333.77 538.296 1333.77 535.325C1333.77 532.355 1331.63 530.173 1328.16 530.173C1324.69 530.173 1322.53 532.355 1322.53 535.325C1322.53 538.296 1324.69 540.477 1328.16 540.477ZM1328.16 538.732C1326.04 538.732 1324.58 537.423 1324.58 535.325C1324.58 533.227 1326.04 531.898 1328.16 531.898C1330.25 531.898 1331.71 533.227 1331.71 535.325C1331.71 537.423 1330.25 538.732 1328.16 538.732ZM1324.08 547.498H1339.39V545.629H1326.18V541.703H1324.08V547.498ZM1352.36 536.135H1356.99V543.177H1359.04V529.986H1356.99V534.224H1353C1353.08 533.767 1353.12 533.289 1353.12 532.791V530.423H1342.9V532.23H1351.05V533.061C1351.05 536.509 1347.87 538.503 1342.9 538.524V540.373C1347.43 540.373 1350.88 538.94 1352.36 536.135ZM1346.04 545.649V541.848H1343.94V547.498H1359.42V545.649H1346.04ZM1376.82 529.986V547.727H1378.88V529.986H1376.82ZM1371.36 536.613H1365.38V530.506H1363.34V546.667H1373.4V530.506H1371.36V536.613ZM1365.38 544.777V538.503H1371.36V544.777H1365.38Z" fill="white"/>
<path d="M1336.9 578.401H1338.95V568.762H1336.9V578.401ZM1328.21 577.964C1331.6 577.964 1333.76 576.136 1333.76 573.457C1333.76 570.798 1331.6 568.949 1328.21 568.949C1324.81 568.949 1322.65 570.798 1322.65 573.457C1322.65 576.136 1324.81 577.964 1328.21 577.964ZM1328.21 576.261C1326.14 576.261 1324.7 575.222 1324.7 573.457C1324.7 571.691 1326.14 570.652 1328.21 570.652C1330.27 570.652 1331.7 571.691 1331.7 573.457C1331.7 575.222 1330.27 576.261 1328.21 576.261ZM1324.12 586.274H1338.95V579.377H1324.12V586.274ZM1326.18 584.529V581.122H1336.9V584.529H1326.18ZM1357.48 568.762V575.908H1354.59V568.866H1352.64V586.191H1354.59V577.84H1357.48V586.502H1359.43V568.762H1357.48ZM1344.93 583.615V571.234H1350.58V569.406H1342.92V585.443H1346.99C1348.59 585.443 1350.29 585.194 1351.35 584.736V582.929C1350.27 583.365 1348.74 583.615 1347.22 583.615H1344.93ZM1375.66 583.781V580.333H1379.19V578.504H1365.6V575.742H1378.92V569.406H1363.54V571.234H1376.88V573.976H1363.54V580.333H1366.79V583.781H1362.36V585.651H1380.08V583.781H1375.66ZM1368.84 580.333H1373.6V583.781H1368.84V580.333ZM1398.9 568.762H1396.84V578.442H1398.9V568.762ZM1393.71 569.198H1383.15V577.009H1393.71V569.198ZM1391.67 575.285H1385.19V570.922H1391.67V575.285ZM1399.58 584.84L1392.19 582.472C1392.38 582.14 1392.5 581.766 1392.6 581.392H1399.15V579.689H1392.5V577.944H1390.4V579.689H1383.73V581.392H1390.53C1389.78 583.386 1386.66 584.529 1383.61 584.529V586.274C1386.5 586.274 1389.41 585.464 1391.13 583.843L1398.98 586.523L1399.58 584.84ZM1418.42 573.56V568.762H1416.37V582.244H1418.42V575.492H1420.88V573.56H1418.42ZM1411.13 575.929H1413.19V569.053H1403.18V570.839H1411.13V575.929ZM1414.89 578.608V576.843C1413.67 577.362 1411.51 577.528 1409.08 577.528H1407.83V573.311H1405.79V577.528H1402.33V579.294H1409.01C1411.55 579.294 1413.77 579.107 1414.89 578.608ZM1405.65 581.06H1403.57V586.274H1418.9V584.487H1405.65V581.06ZM1436.81 586.502H1438.86V568.762H1436.81V586.502ZM1423.33 585.443H1430.51C1432.24 585.443 1434.09 585.131 1435.17 584.591V582.701C1434.09 583.22 1432.26 583.552 1430.58 583.552H1425.38V578.234H1433.32V569.406H1423.28V571.296H1431.26V576.344H1423.33V585.443ZM1456.79 568.762V586.502H1458.85V568.762H1456.79ZM1451.33 575.388H1445.34V569.281H1443.31V585.443H1453.36V569.281H1451.33V575.388ZM1445.34 583.552V577.279H1451.33V583.552H1445.34Z" fill="white"/>
<path d="M1077.74 961.483L1076.66 959.599L1073.67 961.732L1074.03 958.048H1071.82L1072.18 961.732L1069.21 959.572L1068.11 961.483L1071.46 963.006L1068.11 964.502L1069.19 966.413L1072.18 964.28L1071.82 967.936H1074.03L1073.67 964.252L1076.64 966.413L1077.74 964.502L1074.39 963.006L1077.74 961.483ZM1098.94 957.494V967.022H1095.09V957.633H1092.48V980.733H1095.09V969.626H1098.94V981.148H1101.54V957.494H1098.94ZM1079.52 979.736H1089.66V958.353H1079.52V979.736ZM1082.12 960.846H1087.08V977.243H1082.12V960.846ZM1125.47 962.009V957.494H1122.73V970.568H1125.47V964.613H1128.79V962.009H1125.47ZM1112.34 965.277L1119.18 969.57L1120.54 967.521L1113.34 963.089C1113.58 962.258 1113.75 961.372 1113.81 960.458H1119.79V958.104H1104.69V960.458H1111.06C1110.7 964.225 1108.29 967.105 1104.39 967.632V970.097C1107.93 969.737 1110.73 967.909 1112.34 965.277ZM1115.69 971.343C1110.04 971.343 1105.55 972.7 1105.55 976.246C1105.55 979.791 1110.04 981.148 1115.69 981.148C1121.37 981.148 1125.83 979.791 1125.83 976.246C1125.83 972.7 1121.37 971.343 1115.69 971.343ZM1115.69 978.877C1111.67 978.877 1108.49 978.074 1108.49 976.246C1108.49 974.445 1111.67 973.614 1115.69 973.614C1119.73 973.614 1122.89 974.445 1122.89 976.246C1122.89 978.074 1119.73 978.877 1115.69 978.877ZM1147.49 967.576C1153.23 967.576 1157.99 965.97 1157.99 962.452C1157.99 958.962 1153.23 957.356 1147.49 957.356C1141.76 957.356 1136.99 958.962 1136.99 962.452C1136.99 965.97 1141.76 967.576 1147.49 967.576ZM1147.49 959.572C1151.62 959.572 1155.08 960.541 1155.08 962.452C1155.08 964.391 1151.62 965.36 1147.49 965.36C1143.37 965.36 1139.9 964.391 1139.9 962.452C1139.9 960.541 1143.37 959.572 1147.49 959.572ZM1135.69 969.626V971.952H1146.11V976.024H1148.88V971.952H1159.32V969.626H1135.69ZM1140.12 974.141H1137.33V980.871H1158.1V978.517H1140.12V974.141ZM1176.55 965.471L1176.38 967.825H1180.51V970.568H1183.22V957.494H1180.51V959.599H1176.38L1176.55 961.954H1180.51V965.471H1176.55ZM1175.74 963.754C1175.74 960.209 1172.94 957.743 1168.46 957.743C1164 957.743 1161.2 960.209 1161.2 963.754C1161.2 967.327 1164 969.764 1168.46 969.764C1172.94 969.764 1175.74 967.327 1175.74 963.754ZM1163.91 963.754C1163.91 961.4 1165.74 960.042 1168.46 960.042C1171.17 960.042 1173 961.4 1173 963.754C1173 966.108 1171.17 967.465 1168.46 967.465C1165.74 967.465 1163.91 966.108 1163.91 963.754ZM1173.33 971.343C1167.68 971.343 1163.25 972.7 1163.25 976.246C1163.25 979.791 1167.68 981.148 1173.33 981.148C1178.98 981.148 1183.44 979.791 1183.44 976.246C1183.44 972.7 1178.98 971.343 1173.33 971.343ZM1173.33 978.877C1169.34 978.877 1166.16 978.074 1166.16 976.246C1166.16 974.445 1169.34 973.614 1173.33 973.614C1177.32 973.614 1180.51 974.445 1180.51 976.246C1180.51 978.074 1177.32 978.877 1173.33 978.877ZM1214 962.48V957.494H1211.26V970.983H1214V965.111H1217.32V962.48H1214ZM1207.24 957.91H1204.55V961.316H1196.1V957.91H1193.42V969.598H1207.24V957.91ZM1196.1 967.327V963.56H1204.55V967.327H1196.1ZM1204.22 971.731C1198.57 971.731 1194.08 973.033 1194.08 976.44C1194.08 979.846 1198.57 981.148 1204.22 981.148C1209.9 981.148 1214.36 979.846 1214.36 976.44C1214.36 973.033 1209.9 971.731 1204.22 971.731ZM1204.22 978.905C1200.2 978.905 1196.99 978.157 1196.99 976.44C1196.99 974.75 1200.2 973.974 1204.22 973.974C1208.26 973.974 1211.45 974.75 1211.45 976.44C1211.45 978.157 1208.26 978.905 1204.22 978.905ZM1237.18 957.494V971.62H1239.92V957.494H1237.18ZM1226.15 965.61L1233.22 970.595L1234.77 968.601L1227.26 963.394C1227.93 961.704 1228.29 959.821 1228.29 957.882L1225.55 957.716C1225.49 963.006 1222.69 967.576 1218.21 968.379V970.928C1221.61 970.484 1224.38 968.463 1226.15 965.61ZM1219.65 975.304H1237.15V981.148H1239.92V972.922H1219.65V975.304ZM1263.24 957.494V981.148H1265.84V957.494H1263.24ZM1257.53 967.355H1254.38C1254.1 960.901 1252.22 958.048 1248.92 958.048C1245.35 958.048 1243.41 961.4 1243.41 969.044C1243.41 976.689 1245.35 980.04 1248.92 980.04C1252.35 980.04 1254.24 976.966 1254.4 969.958H1257.53V980.733H1260.11V957.633H1257.53V967.355ZM1248.92 977.547C1246.95 977.547 1246.01 974.861 1246.01 969.044C1246.01 963.228 1246.95 960.541 1248.92 960.541C1250.89 960.541 1251.8 963.228 1251.8 969.044C1251.8 974.861 1250.89 977.547 1248.92 977.547ZM1299.47 967.078H1296.32V957.494H1293.63V981.148H1296.32V969.709H1299.47V967.078ZM1278.26 977.243V960.846H1282.66V958.353H1275.57V979.736H1278.59C1279.97 979.736 1281.66 979.542 1282.77 979.154V976.716C1281.83 977.104 1280.45 977.243 1279.39 977.243H1278.26ZM1286.48 977.243V960.846H1291.03V958.353H1283.8V979.736H1287.23C1288.87 979.736 1290.44 979.486 1291.64 978.96V976.467C1290.53 977.021 1289.06 977.243 1287.76 977.243H1286.48ZM1324.73 967.078H1321.41V957.494H1318.67V981.148H1321.41V969.709H1324.73V967.078ZM1303.82 977.215V970.124H1314.18V958.353H1301.05V960.873H1311.44V967.604H1301.11V979.736H1310.44C1312.71 979.736 1315.18 979.32 1316.62 978.6V976.107C1315.18 976.8 1312.74 977.215 1310.5 977.215H1303.82ZM1353.04 961.732V957.494H1350.3V969.072H1353.04V964.252H1356.37V961.732H1353.04ZM1348.58 967.161V964.89C1347.06 965.527 1344.35 965.914 1341.13 965.914H1335.21V960.402H1346.9V958.076H1332.46V968.213H1340.97C1344.32 968.213 1347.14 967.825 1348.58 967.161ZM1336.01 976.633H1353.04V970.374H1333.24V972.534H1350.33V974.584H1333.3V980.843H1353.63V978.683H1336.01V976.633ZM1381.63 967.078H1378.3V957.494H1375.56V981.148H1378.3V969.709H1381.63V967.078ZM1360.71 977.215V970.124H1371.07V958.353H1357.94V960.873H1368.33V967.604H1358V979.736H1367.33C1369.61 979.736 1372.07 979.32 1373.51 978.6V976.107C1372.07 976.8 1369.63 977.215 1367.39 977.215H1360.71ZM1404.23 957.494H1401.48V969.072H1404.23V957.494ZM1390.49 964.751L1397.91 968.546L1399.13 966.551L1391.62 962.812C1391.93 962.037 1392.12 961.233 1392.2 960.375H1398.35V958.104H1383.04V960.375H1389.49C1389.1 963.671 1386.61 966.053 1382.73 966.551V968.823C1386.11 968.463 1388.83 966.939 1390.49 964.751ZM1386.91 978.683V976.633H1404.23V970.374H1384.14V972.534H1401.51V974.584H1384.2V980.843H1404.81V978.683H1386.91ZM1425.34 964.197L1435.53 970.014L1436.8 967.715L1426.67 962.092C1427.33 960.763 1427.83 959.295 1428.11 957.771L1425.28 957.328C1424.26 962.923 1419.44 967.465 1414.34 967.438V970.041C1418.66 970.014 1422.7 967.77 1425.34 964.197ZM1437.41 972.534H1413.79V975.082H1424.17V981.702H1426.97V975.082H1437.41V972.534ZM1467.5 957.494H1464.76V970.651H1467.5V957.494ZM1460.57 963.892C1460.57 960.264 1457.69 957.743 1453.18 957.743C1448.64 957.743 1445.75 960.264 1445.75 963.892C1445.75 967.549 1448.64 970.041 1453.18 970.041C1457.69 970.041 1460.57 967.549 1460.57 963.892ZM1448.5 963.892C1448.5 961.455 1450.41 960.015 1453.18 960.015C1455.92 960.015 1457.83 961.455 1457.83 963.892C1457.83 966.33 1455.92 967.77 1453.18 967.77C1450.41 967.77 1448.5 966.33 1448.5 963.892ZM1469.41 979.015L1464.31 975.055C1464.7 974.03 1464.95 972.95 1465.06 971.759L1462.4 971.371C1462.15 974.695 1460.3 977.52 1458.08 978.212L1454.45 975.221C1454.9 974.168 1455.2 973.005 1455.34 971.731L1452.68 971.371C1452.37 975.027 1450.08 978.101 1447.47 978.351V980.843C1449.74 980.677 1451.85 979.375 1453.32 977.298L1457.33 980.843C1459.66 980.705 1461.79 979.348 1463.23 977.16L1467.77 980.954L1469.41 979.015ZM1492.64 966.081L1493.56 964.003L1483.75 960.125C1484.28 959.295 1484.67 958.381 1484.86 957.411L1482.12 956.94C1481.21 960.984 1476.11 963.615 1471.54 963.782V966.053C1475.56 965.97 1479.68 964.446 1482.29 961.898L1492.64 966.081ZM1470.68 967.909V970.097H1494.31V967.909H1470.68ZM1489.96 974.085H1475.03V971.869H1472.31V980.871H1492.64V971.869H1489.96V974.085ZM1475.03 978.711V976.218H1489.96V978.711H1475.03ZM1515.27 981.176L1518.01 981.148V957.494H1515.27V981.176ZM1497.3 979.736H1506.96C1509.23 979.736 1511.64 979.292 1513.08 978.572V976.052C1511.64 976.744 1509.21 977.215 1506.96 977.215H1500.09V958.214H1497.3V979.736ZM1545.93 967.078H1542.61V957.494H1539.86V981.148H1542.61V969.709H1545.93V967.078ZM1525.1 977.243V960.846H1535.96V958.353H1522.3V979.736H1531.56C1533.83 979.736 1536.38 979.32 1537.82 978.6V976.107C1536.38 976.8 1533.94 977.243 1531.69 977.243H1525.1Z" fill="white"/>
<path d="M1024.92 326.782H1027.68V305.705H1020.55V308.126H1024.92V326.782ZM1042.58 326.782H1045.21V322.019H1048.66V319.677H1045.21V305.705H1041.95L1031.95 319.677V322.019H1042.58V326.782ZM1034.79 319.677L1042.58 308.731V319.677H1034.79ZM1053.58 323.493H1050.95L1050.11 329.439H1052.27L1053.58 323.493ZM1063.69 327.255C1068.08 327.255 1071.14 324.782 1071.14 321.256C1071.14 318.072 1068.64 316.309 1066.72 315.862C1068.35 315.362 1070.4 313.651 1070.4 310.968C1070.4 307.836 1067.69 305.205 1063.69 305.205C1059.66 305.205 1056.95 307.81 1056.95 310.968C1056.95 313.651 1059.01 315.362 1060.64 315.862C1058.74 316.309 1056.22 318.072 1056.22 321.256C1056.22 324.782 1059.27 327.255 1063.69 327.255ZM1063.69 314.625C1061.3 314.625 1059.61 313.02 1059.61 310.994C1059.61 309.047 1061.22 307.521 1063.69 307.521C1066.16 307.521 1067.77 309.099 1067.77 311.046C1067.77 313.046 1066.09 314.625 1063.69 314.625ZM1063.69 324.94C1060.77 324.94 1058.9 323.282 1058.9 321.098C1058.9 318.888 1060.93 317.177 1063.69 317.177C1066.43 317.177 1068.45 318.888 1068.45 321.098C1068.45 323.282 1066.59 324.94 1063.69 324.94ZM1080.91 327.255C1085.33 327.255 1088.35 324.229 1088.35 320.046C1088.35 315.835 1085.4 312.967 1081.41 312.967C1078.98 312.967 1077.43 314.02 1076.64 314.993L1077.01 308.099H1087.27V305.705H1074.49L1073.88 317.835H1076.59C1077.3 316.52 1078.64 315.335 1080.96 315.335C1083.75 315.335 1085.64 317.335 1085.64 320.046C1085.64 322.808 1083.83 324.861 1080.91 324.861C1077.93 324.861 1076.27 323.098 1076.2 320.835H1073.46C1073.62 324.492 1076.35 327.255 1080.91 327.255ZM1098.78 327.255C1103.2 327.255 1106.54 323.598 1106.54 316.23C1106.54 308.862 1103.2 305.205 1098.78 305.205C1094.33 305.205 1090.99 308.862 1090.99 316.23C1090.99 323.598 1094.33 327.255 1098.78 327.255ZM1098.78 324.808C1095.91 324.808 1093.65 321.966 1093.65 316.23C1093.65 310.52 1095.91 307.652 1098.78 307.652C1101.62 307.652 1103.88 310.52 1103.88 316.23C1103.88 321.966 1101.62 324.808 1098.78 324.808ZM1111.24 323.493H1108.61L1107.77 329.439H1109.93L1111.24 323.493ZM1121.03 327.255C1125.45 327.255 1128.79 323.598 1128.79 316.23C1128.79 308.862 1125.45 305.205 1121.03 305.205C1116.58 305.205 1113.24 308.862 1113.24 316.23C1113.24 323.598 1116.58 327.255 1121.03 327.255ZM1121.03 324.808C1118.16 324.808 1115.9 321.966 1115.9 316.23C1115.9 310.52 1118.16 307.652 1121.03 307.652C1123.87 307.652 1126.13 310.52 1126.13 316.23C1126.13 321.966 1123.87 324.808 1121.03 324.808ZM1139.27 327.255C1143.7 327.255 1147.04 323.598 1147.04 316.23C1147.04 308.862 1143.7 305.205 1139.27 305.205C1134.83 305.205 1131.49 308.862 1131.49 316.23C1131.49 323.598 1134.83 327.255 1139.27 327.255ZM1139.27 324.808C1136.41 324.808 1134.14 321.966 1134.14 316.23C1134.14 310.52 1136.41 307.652 1139.27 307.652C1142.12 307.652 1144.38 310.52 1144.38 316.23C1144.38 321.966 1142.12 324.808 1139.27 324.808ZM1157.52 327.255C1161.94 327.255 1165.28 323.598 1165.28 316.23C1165.28 308.862 1161.94 305.205 1157.52 305.205C1153.07 305.205 1149.73 308.862 1149.73 316.23C1149.73 323.598 1153.07 327.255 1157.52 327.255ZM1157.52 324.808C1154.65 324.808 1152.39 321.966 1152.39 316.23C1152.39 310.52 1154.65 307.652 1157.52 307.652C1160.36 307.652 1162.62 310.52 1162.62 316.23C1162.62 321.966 1160.36 324.808 1157.52 324.808Z" fill="#C7C7C7"/>
<path d="M340.912 826.969H343.675V805.892H336.544V808.313H340.912V826.969ZM351.664 823.68H349.033L348.191 829.627H350.348L351.664 823.68ZM361.773 827.443C366.167 827.443 369.22 824.969 369.22 821.443C369.22 818.26 366.72 816.497 364.799 816.049C366.43 815.549 368.483 813.839 368.483 811.155C368.483 808.024 365.773 805.392 361.773 805.392C357.747 805.392 355.037 807.997 355.037 811.155C355.037 813.839 357.089 815.549 358.721 816.049C356.826 816.497 354.3 818.26 354.3 821.443C354.3 824.969 357.352 827.443 361.773 827.443ZM361.773 814.813C359.379 814.813 357.695 813.207 357.695 811.181C357.695 809.234 359.3 807.708 361.773 807.708C364.246 807.708 365.852 809.287 365.852 811.234C365.852 813.234 364.168 814.813 361.773 814.813ZM361.773 825.127C358.852 825.127 356.984 823.47 356.984 821.286C356.984 819.075 359.01 817.365 361.773 817.365C364.51 817.365 366.536 819.075 366.536 821.286C366.536 823.47 364.667 825.127 361.773 825.127ZM379.54 827.443C383.961 827.443 387.303 823.785 387.303 816.418C387.303 809.05 383.961 805.392 379.54 805.392C375.093 805.392 371.752 809.05 371.752 816.418C371.752 823.785 375.093 827.443 379.54 827.443ZM379.54 824.996C376.672 824.996 374.409 822.154 374.409 816.418C374.409 810.708 376.672 807.84 379.54 807.84C382.382 807.84 384.645 810.708 384.645 816.418C384.645 822.154 382.382 824.996 379.54 824.996ZM397.785 827.443C402.205 827.443 405.547 823.785 405.547 816.418C405.547 809.05 402.205 805.392 397.785 805.392C393.338 805.392 389.996 809.05 389.996 816.418C389.996 823.785 393.338 827.443 397.785 827.443ZM397.785 824.996C394.917 824.996 392.654 822.154 392.654 816.418C392.654 810.708 394.917 807.84 397.785 807.84C400.626 807.84 402.889 810.708 402.889 816.418C402.889 822.154 400.626 824.996 397.785 824.996ZM410.251 823.68H407.62L406.778 829.627H408.936L410.251 823.68ZM420.038 827.443C424.458 827.443 427.8 823.785 427.8 816.418C427.8 809.05 424.458 805.392 420.038 805.392C415.591 805.392 412.249 809.05 412.249 816.418C412.249 823.785 415.591 827.443 420.038 827.443ZM420.038 824.996C417.169 824.996 414.907 822.154 414.907 816.418C414.907 810.708 417.169 807.84 420.038 807.84C422.879 807.84 425.142 810.708 425.142 816.418C425.142 822.154 422.879 824.996 420.038 824.996ZM438.282 827.443C442.703 827.443 446.044 823.785 446.044 816.418C446.044 809.05 442.703 805.392 438.282 805.392C433.835 805.392 430.493 809.05 430.493 816.418C430.493 823.785 433.835 827.443 438.282 827.443ZM438.282 824.996C435.414 824.996 433.151 822.154 433.151 816.418C433.151 810.708 435.414 807.84 438.282 807.84C441.124 807.84 443.387 810.708 443.387 816.418C443.387 822.154 441.124 824.996 438.282 824.996ZM456.526 827.443C460.947 827.443 464.289 823.785 464.289 816.418C464.289 809.05 460.947 805.392 456.526 805.392C452.079 805.392 448.738 809.05 448.738 816.418C448.738 823.785 452.079 827.443 456.526 827.443ZM456.526 824.996C453.658 824.996 451.395 822.154 451.395 816.418C451.395 810.708 453.658 807.84 456.526 807.84C459.368 807.84 461.631 810.708 461.631 816.418C461.631 822.154 459.368 824.996 456.526 824.996Z" fill="#C7C7C7"/>
<path d="M602.655 960.121H605.287V955.359H608.734V953.017H605.287V939.045H602.024L592.025 953.017V955.359H602.655V960.121ZM594.867 953.017L602.655 942.071V953.017H594.867ZM613.658 956.832H611.026L610.184 962.779H612.342L613.658 956.832ZM623.688 960.595C628.108 960.595 631.134 957.569 631.134 953.385C631.134 949.175 628.187 946.307 624.188 946.307C621.767 946.307 620.214 947.36 619.425 948.333L619.793 941.439H630.055V939.045H617.267L616.662 951.175H619.372C620.083 949.859 621.425 948.675 623.74 948.675C626.53 948.675 628.424 950.675 628.424 953.385C628.424 956.148 626.608 958.201 623.688 958.201C620.714 958.201 619.057 956.438 618.978 954.175H616.241C616.399 957.832 619.136 960.595 623.688 960.595ZM641.56 960.595C645.98 960.595 649.322 956.938 649.322 949.57C649.322 942.202 645.98 938.545 641.56 938.545C637.113 938.545 633.771 942.202 633.771 949.57C633.771 956.938 637.113 960.595 641.56 960.595ZM641.56 958.148C638.691 958.148 636.429 955.306 636.429 949.57C636.429 943.86 638.691 940.992 641.56 940.992C644.401 940.992 646.664 943.86 646.664 949.57C646.664 955.306 644.401 958.148 641.56 958.148ZM659.804 960.595C664.225 960.595 667.566 956.938 667.566 949.57C667.566 942.202 664.225 938.545 659.804 938.545C655.357 938.545 652.015 942.202 652.015 949.57C652.015 956.938 655.357 960.595 659.804 960.595ZM659.804 958.148C656.936 958.148 654.673 955.306 654.673 949.57C654.673 943.86 656.936 940.992 659.804 940.992C662.646 940.992 664.909 943.86 664.909 949.57C664.909 955.306 662.646 958.148 659.804 958.148ZM672.271 956.832H669.639L668.797 962.779H670.955L672.271 956.832ZM682.057 960.595C686.477 960.595 689.819 956.938 689.819 949.57C689.819 942.202 686.477 938.545 682.057 938.545C677.61 938.545 674.268 942.202 674.268 949.57C674.268 956.938 677.61 960.595 682.057 960.595ZM682.057 958.148C679.189 958.148 676.926 955.306 676.926 949.57C676.926 943.86 679.189 940.992 682.057 940.992C684.899 940.992 687.162 943.86 687.162 949.57C687.162 955.306 684.899 958.148 682.057 958.148ZM700.301 960.595C704.722 960.595 708.064 956.938 708.064 949.57C708.064 942.202 704.722 938.545 700.301 938.545C695.854 938.545 692.513 942.202 692.513 949.57C692.513 956.938 695.854 960.595 700.301 960.595ZM700.301 958.148C697.433 958.148 695.17 955.306 695.17 949.57C695.17 943.86 697.433 940.992 700.301 940.992C703.143 940.992 705.406 943.86 705.406 949.57C705.406 955.306 703.143 958.148 700.301 958.148ZM718.546 960.595C722.966 960.595 726.308 956.938 726.308 949.57C726.308 942.202 722.966 938.545 718.546 938.545C714.099 938.545 710.757 942.202 710.757 949.57C710.757 956.938 714.099 960.595 718.546 960.595ZM718.546 958.148C715.677 958.148 713.415 955.306 713.415 949.57C713.415 943.86 715.677 940.992 718.546 940.992C721.387 940.992 723.65 943.86 723.65 949.57C723.65 955.306 721.387 958.148 718.546 958.148Z" fill="#C7C7C7"/>
<path d="M1016.09 783.093L1021.41 775.357H1018.25L1012.54 783.909C1011.22 785.856 1010.49 787.54 1010.49 789.698C1010.49 794.092 1013.88 796.908 1018.15 796.908C1022.38 796.908 1025.78 794.092 1025.78 789.698C1025.78 785.409 1022.46 782.593 1018.36 782.593C1017.43 782.593 1016.59 782.856 1016.09 783.093ZM1018.15 794.513C1015.09 794.513 1013.2 792.408 1013.2 789.724C1013.2 787.04 1015.09 784.909 1018.15 784.909C1021.17 784.909 1023.07 787.014 1023.07 789.724C1023.07 792.408 1021.17 794.513 1018.15 794.513ZM1030.7 793.145H1028.07L1027.22 799.092H1029.38L1030.7 793.145ZM1035.7 796.434H1038.62L1047.46 777.199V775.357H1033.02V777.778H1044.28L1035.7 796.434ZM1056.92 796.908C1061.34 796.908 1064.36 793.882 1064.36 789.698C1064.36 785.488 1061.42 782.62 1057.42 782.62C1055 782.62 1053.44 783.672 1052.65 784.646L1053.02 777.752H1063.28V775.357H1050.5L1049.89 787.488H1052.6C1053.31 786.172 1054.65 784.988 1056.97 784.988C1059.76 784.988 1061.65 786.988 1061.65 789.698C1061.65 792.461 1059.84 794.513 1056.92 794.513C1053.94 794.513 1052.28 792.75 1052.21 790.487H1049.47C1049.63 794.145 1052.36 796.908 1056.92 796.908ZM1074.79 796.908C1079.21 796.908 1082.55 793.25 1082.55 785.882C1082.55 778.515 1079.21 774.857 1074.79 774.857C1070.34 774.857 1067 778.515 1067 785.882C1067 793.25 1070.34 796.908 1074.79 796.908ZM1074.79 794.461C1071.92 794.461 1069.66 791.619 1069.66 785.882C1069.66 780.173 1071.92 777.304 1074.79 777.304C1077.63 777.304 1079.89 780.173 1079.89 785.882C1079.89 791.619 1077.63 794.461 1074.79 794.461ZM1087.25 793.145H1084.62L1083.78 799.092H1085.94L1087.25 793.145ZM1097.04 796.908C1101.46 796.908 1104.8 793.25 1104.8 785.882C1104.8 778.515 1101.46 774.857 1097.04 774.857C1092.59 774.857 1089.25 778.515 1089.25 785.882C1089.25 793.25 1092.59 796.908 1097.04 796.908ZM1097.04 794.461C1094.17 794.461 1091.91 791.619 1091.91 785.882C1091.91 780.173 1094.17 777.304 1097.04 777.304C1099.88 777.304 1102.15 780.173 1102.15 785.882C1102.15 791.619 1099.88 794.461 1097.04 794.461ZM1115.29 796.908C1119.71 796.908 1123.05 793.25 1123.05 785.882C1123.05 778.515 1119.71 774.857 1115.29 774.857C1110.84 774.857 1107.5 778.515 1107.5 785.882C1107.5 793.25 1110.84 796.908 1115.29 796.908ZM1115.29 794.461C1112.42 794.461 1110.15 791.619 1110.15 785.882C1110.15 780.173 1112.42 777.304 1115.29 777.304C1118.13 777.304 1120.39 780.173 1120.39 785.882C1120.39 791.619 1118.13 794.461 1115.29 794.461ZM1133.53 796.908C1137.95 796.908 1141.29 793.25 1141.29 785.882C1141.29 778.515 1137.95 774.857 1133.53 774.857C1129.08 774.857 1125.74 778.515 1125.74 785.882C1125.74 793.25 1129.08 796.908 1133.53 796.908ZM1133.53 794.461C1130.66 794.461 1128.4 791.619 1128.4 785.882C1128.4 780.173 1130.66 777.304 1133.53 777.304C1136.37 777.304 1138.63 780.173 1138.63 785.882C1138.63 791.619 1136.37 794.461 1133.53 794.461Z" fill="#C7C7C7"/>
<rect x="1272.33" y="376.307" width="272.209" height="247.281" rx="11.464" fill="white" fill-opacity="0.1" stroke="white" stroke-width="2"/>
<rect x="1297.65" y="418.238" width="11.0791" height="11.0791" fill="#0B637B"/>
<rect x="1297.65" y="495.793" width="11.0791" height="11.0791" fill="#1886A5"/>
<rect x="1297.65" y="457.014" width="11.0791" height="11.0791" fill="#107D9C"/>
<rect x="1297.65" y="534.568" width="11.0791" height="11.0791" fill="#32B8DD"/>
<rect x="1297.65" y="573.346" width="11.0791" height="11.0791" fill="#85D7EC"/>
<g opacity="0.8" filter="url(#filter0_d_174_345)">
<mask id="mask0_174_345" style="mask-type:alpha" maskUnits="userSpaceOnUse" x="391" y="180" width="305" height="537">
<path d="M393.149 498.771L493.696 713.638C493.909 714.092 494.518 714.177 494.846 713.799L693.403 484.907C693.513 484.781 693.573 484.62 693.573 484.453V183.685C693.573 183.237 693.153 182.906 692.717 183.012L448.177 242.253C447.919 242.315 447.719 242.521 447.663 242.781L393.099 498.333C393.068 498.481 393.085 498.634 393.149 498.771Z" fill="#0B637B" stroke="black" stroke-width="4.15468"/>
</mask>
<g mask="url(#mask0_174_345)">
<path d="M970.553 472.939C970.553 626.292 846.236 750.61 692.882 750.61C539.529 750.61 415.211 626.292 415.211 472.939C415.211 319.585 539.529 195.268 692.882 195.268C846.236 195.268 970.553 319.585 970.553 472.939Z" fill="#0B637B"/>
</g>
</g>
<g opacity="0.5" filter="url(#filter1_d_174_345)">
<mask id="mask1_174_345" style="mask-type:alpha" maskUnits="userSpaceOnUse" x="356" y="147" width="341" height="597">
<path d="M359.099 501.192L471.244 740.846C471.457 741.3 472.066 741.384 472.394 741.006L693.831 485.739C693.94 485.613 694 485.452 694 485.285V149.88C694 149.432 693.58 149.102 693.145 149.207L420.402 215.28C420.144 215.343 419.944 215.548 419.888 215.808L359.049 500.754C359.017 500.902 359.035 501.056 359.099 501.192Z" fill="#0B637B" stroke="black" stroke-width="4.15468"/>
</mask>
<g mask="url(#mask1_174_345)">
<path d="M1002.75 472.42C1002.75 643.368 864.174 781.948 693.227 781.948C522.279 781.948 383.699 643.368 383.699 472.42C383.699 301.473 522.279 162.893 693.227 162.893C864.174 162.893 1002.75 301.473 1002.75 472.42Z" fill="#0B637B"/>
</g>
</g>
<g opacity="0.8" filter="url(#filter2_d_174_345)">
<mask id="mask2_174_345" style="mask-type:alpha" maskUnits="userSpaceOnUse" x="716" y="180" width="315" height="401">
<path d="M718.5 183.683V489.739C718.5 490.043 718.699 490.312 718.99 490.401L1007.98 578.684C1008.34 578.795 1008.73 578.592 1008.84 578.229L1027.98 517.406C1028.01 517.308 1028.02 517.203 1028 517.101L990.005 248.361C989.965 248.08 989.757 247.851 989.481 247.785L719.354 183.009C718.919 182.905 718.5 183.235 718.5 183.683Z" fill="#107D9C" stroke="black" stroke-width="4.15468"/>
</mask>
<g mask="url(#mask2_174_345)">
<path d="M995.479 477.786C995.479 631.14 871.161 755.458 717.808 755.458C564.454 755.458 440.137 631.14 440.137 477.786C440.137 324.433 564.454 200.115 717.808 200.115C871.161 200.115 995.479 324.433 995.479 477.786Z" fill="#107D9C"/>
</g>
</g>
<g opacity="0.5" filter="url(#filter3_d_174_345)">
<mask id="mask3_174_345" style="mask-type:alpha" maskUnits="userSpaceOnUse" x="704" y="145" width="365" height="464">
<path d="M707 147.878V503.612C707 503.917 707.199 504.185 707.49 504.274L1043.36 606.879C1043.72 606.99 1044.11 606.787 1044.22 606.424L1066.49 535.643C1066.52 535.545 1066.53 535.441 1066.52 535.339L1022.37 223.074C1022.33 222.792 1022.12 222.564 1021.84 222.498L707.854 147.205C707.419 147.1 707 147.43 707 147.878Z" fill="#107D9C" stroke="black" stroke-width="4.15468"/>
</mask>
<g mask="url(#mask3_174_345)">
<path d="M1028.73 489.646C1028.73 667.779 884.327 812.184 706.195 812.184C528.062 812.184 383.656 667.779 383.656 489.646C383.656 311.513 528.062 167.107 706.195 167.107C884.327 167.107 1028.73 311.513 1028.73 489.646Z" fill="#107D9C"/>
</g>
</g>
<g opacity="0.8" filter="url(#filter4_d_174_345)">
<mask id="mask4_174_345" style="mask-type:alpha" maskUnits="userSpaceOnUse" x="726" y="510" width="319" height="267">
<path d="M1041.48 608.326L729.873 512.924C729.272 512.74 728.757 513.387 729.07 513.931L878.694 774.057C878.923 774.454 879.467 774.524 879.788 774.197L1041.77 609.474C1042.13 609.103 1041.97 608.478 1041.48 608.326Z" fill="#19A3C8" stroke="black" stroke-width="4.15468"/>
</mask>
<g mask="url(#mask4_174_345)">
<path d="M1005.87 499.947C1005.87 653.3 881.548 777.618 728.195 777.618C574.841 777.618 450.523 653.3 450.523 499.947C450.523 346.593 574.841 222.275 728.195 222.275C881.548 222.275 1005.87 346.593 1005.87 499.947Z" fill="#19A3C8"/>
</g>
</g>
<g opacity="0.5" filter="url(#filter5_d_174_345)">
<mask id="mask5_174_345" style="mask-type:alpha" maskUnits="userSpaceOnUse" x="743" y="516" width="318" height="267">
<path d="M1058.28 613.916L746.678 518.514C746.077 518.33 745.562 518.977 745.875 519.521L895.499 779.647C895.727 780.044 896.271 780.114 896.593 779.787L1058.57 615.064C1058.94 614.693 1058.78 614.068 1058.28 613.916Z" fill="#19A3C8" stroke="black" stroke-width="4.15468"/>
</mask>
<g mask="url(#mask5_174_345)">
<path d="M1022.67 505.536C1022.67 658.89 898.353 783.208 744.999 783.208C591.646 783.208 467.328 658.89 467.328 505.536C467.328 352.183 591.646 227.865 744.999 227.865C898.353 227.865 1022.67 352.183 1022.67 505.536Z" fill="#19A3C8"/>
</g>
</g>
<g opacity="0.8" filter="url(#filter6_d_174_345)">
<mask id="mask6_174_345" style="mask-type:alpha" maskUnits="userSpaceOnUse" x="633" y="523" width="243" height="297">
<path d="M873.742 804.337L715.177 526.334C714.871 525.797 714.068 525.9 713.907 526.496L635.655 816.168C635.532 816.622 635.888 817.064 636.357 817.041L873.174 805.371C873.69 805.346 873.998 804.785 873.742 804.337Z" fill="#32B8DD" stroke="black" stroke-width="4.15468"/>
</mask>
<g mask="url(#mask6_174_345)">
<path d="M991.327 512.411C991.327 665.765 867.009 790.083 713.656 790.083C560.302 790.083 435.984 665.765 435.984 512.411C435.984 359.058 560.302 234.74 713.656 234.74C867.009 234.74 991.327 359.058 991.327 512.411Z" fill="#32B8DD"/>
</g>
</g>
<g opacity="0.5" filter="url(#filter7_d_174_345)">
<mask id="mask7_174_345" style="mask-type:alpha" maskUnits="userSpaceOnUse" x="636" y="545" width="243" height="296">
<path d="M876.336 825.462L717.771 547.459C717.465 546.922 716.662 547.025 716.501 547.621L638.248 837.293C638.126 837.747 638.481 838.189 638.951 838.166L875.768 826.496C876.284 826.471 876.591 825.91 876.336 825.462Z" fill="#32B8DD" stroke="black" stroke-width="4.15468"/>
</mask>
<g mask="url(#mask7_174_345)">
<path d="M993.92 533.536C993.92 686.89 869.603 811.208 716.249 811.208C562.896 811.208 438.578 686.89 438.578 533.536C438.578 380.183 562.896 255.865 716.249 255.865C869.603 255.865 993.92 380.183 993.92 533.536Z" fill="#32B8DD"/>
</g>
</g>
<g opacity="0.8" filter="url(#filter8_d_174_345)">
<mask id="mask8_174_345" style="mask-type:alpha" maskUnits="userSpaceOnUse" x="493" y="510" width="202" height="287">
<path d="M691.614 513.302L496.15 740.204C495.845 740.558 495.971 741.106 496.4 741.292L618.052 793.917C618.441 794.085 618.888 793.867 618.996 793.458L692.808 513.931C692.995 513.221 692.093 512.746 691.614 513.302Z" fill="#85D7EC" stroke="black" stroke-width="4.15468"/>
</mask>
<g mask="url(#mask8_174_345)">
<path d="M971.245 499.253C971.245 652.607 846.927 776.924 693.573 776.924C540.22 776.924 415.902 652.607 415.902 499.253C415.902 345.9 540.22 221.582 693.573 221.582C846.927 221.582 971.245 345.9 971.245 499.253Z" fill="#85D7EC"/>
</g>
</g>
<g opacity="0.5" filter="url(#filter9_d_174_345)">
<mask id="mask9_174_345" style="mask-type:alpha" maskUnits="userSpaceOnUse" x="467" y="505" width="214" height="298">
<path d="M676.786 507.852L469.779 743.288C469.471 743.639 469.591 744.188 470.018 744.378L596.799 800.753C597.186 800.925 597.635 800.712 597.748 800.303L677.974 508.493C678.169 507.784 677.271 507.3 676.786 507.852Z" fill="#85D7EC" stroke="black" stroke-width="4.15468"/>
</mask>
<g mask="url(#mask9_174_345)">
<path d="M969.373 496.224C967.747 656.652 836.376 785.388 675.948 783.763C515.519 782.137 386.783 650.766 388.409 490.338C390.034 329.909 521.405 201.173 681.834 202.798C842.262 204.424 970.998 335.795 969.373 496.224Z" fill="#85D7EC"/>
</g>
</g>
<g filter="url(#filter10_d_174_345)">
<circle cx="704.655" cy="488.868" r="110.791" fill="white"/>
</g>
<path d="M652.177 524.983H658.132V519.305H661.836V514.112H658.132V496.766H650.411L639.505 514.112V519.305H652.177V524.983ZM645.529 514.112L652.177 503.24V514.112H645.529ZM674.663 525.641C680.48 525.641 684.911 521.763 684.911 515.808C684.911 509.819 681.172 506.253 675.633 506.253C673.832 506.253 672.309 506.703 671.097 507.43L671.409 502.132H683.527V496.766H665.696L664.865 513.246H670.578C671.339 512.208 672.586 511.342 674.559 511.342C677.26 511.342 678.783 513.177 678.783 515.808C678.783 518.405 677.225 520.309 674.663 520.309C672.067 520.309 670.785 518.994 670.543 516.743H664.346C664.796 522.179 668.535 525.641 674.663 525.641ZM694.862 518.786H689.357L688.111 527.753H692.716L694.862 518.786ZM708.355 496.004C702.192 496.004 697.552 500.955 697.552 510.857C697.552 520.725 702.192 525.676 708.355 525.676C714.517 525.676 719.157 520.725 719.157 510.857C719.157 500.955 714.517 496.004 708.355 496.004ZM708.355 501.509C711.124 501.509 713.202 504.418 713.202 510.857C713.202 517.262 711.124 520.171 708.355 520.171C705.585 520.171 703.507 517.262 703.507 510.857C703.507 504.418 705.585 501.509 708.355 501.509ZM733.425 496.004C727.262 496.004 722.622 500.955 722.622 510.857C722.622 520.725 727.262 525.676 733.425 525.676C739.587 525.676 744.227 520.725 744.227 510.857C744.227 500.955 739.587 496.004 733.425 496.004ZM733.425 501.509C736.194 501.509 738.272 504.418 738.272 510.857C738.272 517.262 736.194 520.171 733.425 520.171C730.655 520.171 728.577 517.262 728.577 510.857C728.577 504.418 730.655 501.509 733.425 501.509ZM758.495 496.004C752.332 496.004 747.693 500.955 747.693 510.857C747.693 520.725 752.332 525.676 758.495 525.676C764.657 525.676 769.297 520.725 769.297 510.857C769.297 500.955 764.657 496.004 758.495 496.004ZM758.495 501.509C761.264 501.509 763.342 504.418 763.342 510.857C763.342 517.262 761.264 520.171 758.495 520.171C755.725 520.171 753.648 517.262 753.648 510.857C753.648 504.418 755.725 501.509 758.495 501.509Z" fill="#285259"/>
<path d="M678.476 449.083V461.259H675.723V449.238H669.674V481.617H675.723V467.464H678.476V482.199H684.603V449.083H678.476ZM652.224 480.648H667.27V449.859H652.224V480.648ZM658.312 455.792H661.221V474.715H658.312V455.792ZM718.219 462.112L719.46 457.575L707.168 455.249C707.284 455.055 707.362 454.861 707.439 454.628H718.801V450.091H707.09V447.765H700.421V450.091H688.71V454.628H700.149C698.094 456.257 692.937 457.188 688.128 457.304V461.957C693.674 461.88 699.102 460.833 702.825 458.971L718.219 462.112ZM720.507 467.386V462.849H687.004V467.386H700.421V468.782H688.904V472.66H712.17V473.784H688.982V482.199H718.917V478.282H695.38V477.158H718.568V468.782H707.09V467.386H720.507ZM738.574 458.971C738.574 452.573 735.472 449.083 730.508 449.083C725.545 449.083 722.443 452.573 722.443 458.971C722.443 465.37 725.545 468.898 730.508 468.898C735.472 468.898 738.574 465.37 738.574 458.971ZM749.199 449.083V455.637H746.446V449.238H740.397V469.053H746.446V461.763H749.199V469.402H755.326V449.083H749.199ZM728.453 458.971C728.453 455.908 729.112 454.396 730.508 454.396C731.943 454.396 732.564 455.908 732.564 458.971C732.564 462.035 731.943 463.586 730.508 463.586C729.112 463.586 728.453 462.035 728.453 458.971ZM725.08 476.111H748.85V482.587H755.326V470.566H725.08V476.111Z" fill="#285259"/>
<path d="M1051.64 681.157C1053.51 681.144 1055.29 681.447 1056.96 682.028L1061.09 675.098H1050.75C1049.08 675.098 1047.74 673.747 1047.74 672.069V668.029C1047.74 666.351 1049.08 665 1050.75 665H1056.43C1057.28 665 1058.1 665.366 1058.66 665.997L1063.37 671.261L1066.23 666.464C1066.78 665.555 1067.76 665 1068.82 665H1078.85C1079.96 665 1080.86 665.909 1080.86 667.02V669.039C1080.86 670.15 1079.96 671.059 1078.85 671.059H1070.52L1068.11 675.098H1087.4C1089.62 672.182 1093.03 670.049 1099.93 670.049H1106.9C1108.59 670.049 1110.01 671.437 1109.97 673.142C1109.95 674.782 1108.61 676.108 1106.96 676.108H1099.93C1096.86 676.108 1095.08 677.484 1093.94 679.238L1095.35 681.826C1096.99 681.334 1098.73 681.106 1100.54 681.169C1108.98 681.472 1115.8 688.427 1116 696.935C1116.2 706.036 1108.93 713.47 1099.93 713.47C1092.46 713.47 1086.17 708.32 1084.38 701.353H1073.81C1072.09 701.353 1070.72 699.914 1070.8 698.185C1071.06 692.239 1068.6 686.357 1063.75 682.406L1062.18 685.032C1065.64 688.023 1067.84 692.467 1067.8 697.427C1067.74 706.213 1060.62 713.395 1051.89 713.47C1042.9 713.559 1035.6 706.213 1035.68 697.175C1035.76 688.39 1042.9 681.22 1051.64 681.157V681.157ZM1099.93 707.412C1105.47 707.412 1109.97 702.88 1109.97 697.314C1109.97 691.747 1105.47 687.216 1099.93 687.216C1099.41 687.216 1098.88 687.254 1098.37 687.342L1103.57 696.859C1104.68 698.879 1103.22 701.353 1100.94 701.353H1090.74C1092.29 704.912 1095.83 707.412 1099.93 707.412ZM1041.72 697.869C1042 702.994 1046.12 707.134 1051.2 707.399C1056.98 707.715 1061.79 703.07 1061.79 697.314C1061.79 694.612 1060.73 692.164 1059.02 690.359L1052.82 700.76C1052.25 701.719 1051.01 702.022 1050.06 701.454L1048.34 700.419C1047.38 699.851 1047.08 698.601 1047.65 697.642L1053.75 687.43C1053.09 687.291 1052.43 687.228 1051.75 687.228C1046.03 687.216 1041.42 692.05 1041.72 697.869Z" fill="white"/>
<path d="M281.562 285.772C281.562 281.964 279.242 278.951 273.461 277.567L273.01 277.463V271.335C274.499 271.923 275.399 273.135 275.642 274.797H281.458C281.216 270.434 277.788 267.145 273.01 266.418V263.441H268.51V266.418C263.559 267.076 260.304 269.846 260.304 273.758C260.304 278.19 263.282 280.821 268.51 281.998V288.611C266.675 287.919 265.532 286.499 265.29 284.664H259.508C259.715 289.546 263.316 292.8 268.51 293.597V296.574H273.01V293.631C277.892 293.043 281.562 290.204 281.562 285.772ZM266.051 273.654C266.051 272.373 266.917 271.473 268.51 271.092V276.216C266.778 275.593 266.051 274.901 266.051 273.654ZM273.01 288.923V283.106C274.984 283.764 275.78 284.595 275.78 286.014C275.78 287.469 274.672 288.507 273.01 288.923Z" fill="#8FD7ED"/>
<circle cx="270.856" cy="279.749" r="23.5432" stroke="#8FD7ED" stroke-width="5.53957"/>
<line x1="223.77" y1="256.205" x2="270.856" y2="256.205" stroke="#8FD7ED" stroke-width="5.53957" stroke-linecap="round"/>
<line x1="223.77" y1="268.67" x2="230.694" y2="268.67" stroke="#8FD7ED" stroke-width="5.53957" stroke-linecap="round"/>
<line x1="239.004" y1="268.67" x2="250.083" y2="268.67" stroke="#8FD7ED" stroke-width="5.53957" stroke-linecap="round"/>
<line x1="229.309" y1="279.748" x2="244.543" y2="279.748" stroke="#8FD7ED" stroke-width="5.53957" stroke-linecap="round"/>
<line x1="234.848" y1="290.828" x2="250.082" y2="290.828" stroke="#8FD7ED" stroke-width="5.53957" stroke-linecap="round"/>
<line x1="241.774" y1="303.291" x2="269.472" y2="303.291" stroke="#8FD7ED" stroke-width="5.53957" stroke-linecap="round"/>
<path d="M362.5 343H495.5" stroke="white" stroke-width="3" stroke-linecap="round"/>
<path d="M787 754V908.5C787 908.776 786.776 909 786.5 909H742" stroke="white" stroke-width="3" stroke-linecap="round"/>
<path d="M967.5 319.5L991.854 295.146C991.947 295.053 992.074 295 992.207 295H1184.5" stroke="white" stroke-width="3" stroke-linecap="round"/>
<path d="M902 701L972.61 767.863C972.703 767.951 972.826 768 972.954 768H1184" stroke="white" stroke-width="3" stroke-linecap="round"/>
<path d="M581 741.5L550.643 795.744C550.555 795.902 550.388 796 550.207 796H272" stroke="white" stroke-width="3" stroke-linecap="round"/>
<defs>
<filter id="filter0_d_174_345" x="405.211" y="190.807" width="300.438" height="540.848" filterUnits="userSpaceOnUse" color-interpolation-filters="sRGB">
<feFlood flood-opacity="0" result="BackgroundImageFix"/>
<feColorMatrix in="SourceAlpha" type="matrix" values="0 0 0 0 0 0 0 0 0 0 0 0 0 0 0 0 0 0 127 0" result="hardAlpha"/>
<feOffset dy="5.53957"/>
<feGaussianBlur stdDeviation="5"/>
<feComposite in2="hardAlpha" operator="out"/>
<feColorMatrix type="matrix" values="0 0 0 0 0.670833 0 0 0 0 0.670833 0 0 0 0 0.670833 0 0 0 0.25 0"/>
<feBlend mode="normal" in2="BackgroundImageFix" result="effect1_dropShadow_174_345"/>
<feBlend mode="normal" in="SourceGraphic" in2="effect1_dropShadow_174_345" result="shape"/>
</filter>
<filter id="filter1_d_174_345" x="373.699" y="158.432" width="332.379" height="600.43" filterUnits="userSpaceOnUse" color-interpolation-filters="sRGB">
<feFlood flood-opacity="0" result="BackgroundImageFix"/>
<feColorMatrix in="SourceAlpha" type="matrix" values="0 0 0 0 0 0 0 0 0 0 0 0 0 0 0 0 0 0 127 0" result="hardAlpha"/>
<feOffset dy="5.53957"/>
<feGaussianBlur stdDeviation="5"/>
<feComposite in2="hardAlpha" operator="out"/>
<feColorMatrix type="matrix" values="0 0 0 0 0.670833 0 0 0 0 0.670833 0 0 0 0 0.670833 0 0 0 0.25 0"/>
<feBlend mode="normal" in2="BackgroundImageFix" result="effect1_dropShadow_174_345"/>
<feBlend mode="normal" in="SourceGraphic" in2="effect1_dropShadow_174_345" result="shape"/>
</filter>
<filter id="filter2_d_174_345" x="702.573" y="191.806" width="306.756" height="408.375" filterUnits="userSpaceOnUse" color-interpolation-filters="sRGB">
<feFlood flood-opacity="0" result="BackgroundImageFix"/>
<feColorMatrix in="SourceAlpha" type="matrix" values="0 0 0 0 0 0 0 0 0 0 0 0 0 0 0 0 0 0 127 0" result="hardAlpha"/>
<feOffset dy="5.53957"/>
<feGaussianBlur stdDeviation="6.92447"/>
<feComposite in2="hardAlpha" operator="out"/>
<feColorMatrix type="matrix" values="0 0 0 0 1 0 0 0 0 1 0 0 0 0 1 0 0 0 0.25 0"/>
<feBlend mode="normal" in2="BackgroundImageFix" result="effect1_dropShadow_174_345"/>
<feBlend mode="normal" in="SourceGraphic" in2="effect1_dropShadow_174_345" result="shape"/>
</filter>
<filter id="filter3_d_174_345" x="691.073" y="158.798" width="351.51" height="469.578" filterUnits="userSpaceOnUse" color-interpolation-filters="sRGB">
<feFlood flood-opacity="0" result="BackgroundImageFix"/>
<feColorMatrix in="SourceAlpha" type="matrix" values="0 0 0 0 0 0 0 0 0 0 0 0 0 0 0 0 0 0 127 0" result="hardAlpha"/>
<feOffset dy="5.53957"/>
<feGaussianBlur stdDeviation="6.92447"/>
<feComposite in2="hardAlpha" operator="out"/>
<feColorMatrix type="matrix" values="0 0 0 0 1 0 0 0 0 1 0 0 0 0 1 0 0 0 0.25 0"/>
<feBlend mode="normal" in2="BackgroundImageFix" result="effect1_dropShadow_174_345"/>
<feBlend mode="normal" in="SourceGraphic" in2="effect1_dropShadow_174_345" result="shape"/>
</filter>
<filter id="filter4_d_174_345" x="713.042" y="502.5" width="306.674" height="293.37" filterUnits="userSpaceOnUse" color-interpolation-filters="sRGB">
<feFlood flood-opacity="0" result="BackgroundImageFix"/>
<feColorMatrix in="SourceAlpha" type="matrix" values="0 0 0 0 0 0 0 0 0 0 0 0 0 0 0 0 0 0 127 0" result="hardAlpha"/>
<feOffset dy="5.53957"/>
<feGaussianBlur stdDeviation="6.92447"/>
<feComposite in2="hardAlpha" operator="out"/>
<feColorMatrix type="matrix" values="0 0 0 0 1 0 0 0 0 1 0 0 0 0 1 0 0 0 0.25 0"/>
<feBlend mode="normal" in2="BackgroundImageFix" result="effect1_dropShadow_174_345"/>
<feBlend mode="normal" in="SourceGraphic" in2="effect1_dropShadow_174_345" result="shape"/>
</filter>
<filter id="filter5_d_174_345" x="729.846" y="508.09" width="306.674" height="293.37" filterUnits="userSpaceOnUse" color-interpolation-filters="sRGB">
<feFlood flood-opacity="0" result="BackgroundImageFix"/>
<feColorMatrix in="SourceAlpha" type="matrix" values="0 0 0 0 0 0 0 0 0 0 0 0 0 0 0 0 0 0 127 0" result="hardAlpha"/>
<feOffset dy="5.53957"/>
<feGaussianBlur stdDeviation="6.92447"/>
<feComposite in2="hardAlpha" operator="out"/>
<feColorMatrix type="matrix" values="0 0 0 0 1 0 0 0 0 1 0 0 0 0 1 0 0 0 0.25 0"/>
<feBlend mode="normal" in2="BackgroundImageFix" result="effect1_dropShadow_174_345"/>
<feBlend mode="normal" in="SourceGraphic" in2="effect1_dropShadow_174_345" result="shape"/>
</filter>
<filter id="filter6_d_174_345" x="619.702" y="515.597" width="270.061" height="293.875" filterUnits="userSpaceOnUse" color-interpolation-filters="sRGB">
<feFlood flood-opacity="0" result="BackgroundImageFix"/>
<feColorMatrix in="SourceAlpha" type="matrix" values="0 0 0 0 0 0 0 0 0 0 0 0 0 0 0 0 0 0 127 0" result="hardAlpha"/>
<feOffset dy="5.53957"/>
<feGaussianBlur stdDeviation="6.92447"/>
<feComposite in2="hardAlpha" operator="out"/>
<feColorMatrix type="matrix" values="0 0 0 0 1 0 0 0 0 1 0 0 0 0 1 0 0 0 0.25 0"/>
<feBlend mode="normal" in2="BackgroundImageFix" result="effect1_dropShadow_174_345"/>
<feBlend mode="normal" in="SourceGraphic" in2="effect1_dropShadow_174_345" result="shape"/>
</filter>
<filter id="filter7_d_174_345" x="622.296" y="536.722" width="270.061" height="293.875" filterUnits="userSpaceOnUse" color-interpolation-filters="sRGB">
<feFlood flood-opacity="0" result="BackgroundImageFix"/>
<feColorMatrix in="SourceAlpha" type="matrix" values="0 0 0 0 0 0 0 0 0 0 0 0 0 0 0 0 0 0 127 0" result="hardAlpha"/>
<feOffset dy="5.53957"/>
<feGaussianBlur stdDeviation="6.92447"/>
<feComposite in2="hardAlpha" operator="out"/>
<feColorMatrix type="matrix" values="0 0 0 0 1 0 0 0 0 1 0 0 0 0 1 0 0 0 0.25 0"/>
<feBlend mode="normal" in2="BackgroundImageFix" result="effect1_dropShadow_174_345"/>
<feBlend mode="normal" in="SourceGraphic" in2="effect1_dropShadow_174_345" result="shape"/>
</filter>
<filter id="filter8_d_174_345" x="480.053" y="502.661" width="228.713" height="293.652" filterUnits="userSpaceOnUse" color-interpolation-filters="sRGB">
<feFlood flood-opacity="0" result="BackgroundImageFix"/>
<feColorMatrix in="SourceAlpha" type="matrix" values="0 0 0 0 0 0 0 0 0 0 0 0 0 0 0 0 0 0 127 0" result="hardAlpha"/>
<feOffset dy="5.53957"/>
<feGaussianBlur stdDeviation="6.92447"/>
<feComposite in2="hardAlpha" operator="out"/>
<feColorMatrix type="matrix" values="0 0 0 0 1 0 0 0 0 1 0 0 0 0 1 0 0 0 0.25 0"/>
<feBlend mode="normal" in2="BackgroundImageFix" result="effect1_dropShadow_174_345"/>
<feBlend mode="normal" in="SourceGraphic" in2="effect1_dropShadow_174_345" result="shape"/>
</filter>
<filter id="filter9_d_174_345" x="453.678" y="497.216" width="240.256" height="305.951" filterUnits="userSpaceOnUse" color-interpolation-filters="sRGB">
<feFlood flood-opacity="0" result="BackgroundImageFix"/>
<feColorMatrix in="SourceAlpha" type="matrix" values="0 0 0 0 0 0 0 0 0 0 0 0 0 0 0 0 0 0 127 0" result="hardAlpha"/>
<feOffset dy="5.53957"/>
<feGaussianBlur stdDeviation="6.92447"/>
<feComposite in2="hardAlpha" operator="out"/>
<feColorMatrix type="matrix" values="0 0 0 0 1 0 0 0 0 1 0 0 0 0 1 0 0 0 0.25 0"/>
<feBlend mode="normal" in2="BackgroundImageFix" result="effect1_dropShadow_174_345"/>
<feBlend mode="normal" in="SourceGraphic" in2="effect1_dropShadow_174_345" result="shape"/>
</filter>
<filter id="filter10_d_174_345" x="580.014" y="369.767" width="249.28" height="249.281" filterUnits="userSpaceOnUse" color-interpolation-filters="sRGB">
<feFlood flood-opacity="0" result="BackgroundImageFix"/>
<feColorMatrix in="SourceAlpha" type="matrix" values="0 0 0 0 0 0 0 0 0 0 0 0 0 0 0 0 0 0 127 0" result="hardAlpha"/>
<feOffset dy="5.53957"/>
<feGaussianBlur stdDeviation="6.92447"/>
<feComposite in2="hardAlpha" operator="out"/>
<feColorMatrix type="matrix" values="0 0 0 0 0 0 0 0 0 0 0 0 0 0 0 0 0 0 0.25 0"/>
<feBlend mode="normal" in2="BackgroundImageFix" result="effect1_dropShadow_174_345"/>
<feBlend mode="normal" in="SourceGraphic" in2="effect1_dropShadow_174_345" result="shape"/>
</filter>
</defs>
</svg>
