<svg width="658" height="216" viewBox="0 0 658 216" fill="none" xmlns="http://www.w3.org/2000/svg">
<path d="M118.936 62.13L126.496 66.63L127.906 64.38L120.106 59.85C120.406 59.07 120.616 58.23 120.736 57.39H127.456V54.9H120.766V52.05H117.766V54.9H110.986V57.39H117.706C117.106 61.05 114.616 63.81 110.716 64.38V66.96C114.286 66.57 117.166 64.74 118.936 62.13ZM133.546 58.17V52.5H130.576V67.71H133.546V61.02H137.146V58.17H133.546ZM122.956 68.46C116.836 68.46 111.976 69.72 111.976 73.29C111.976 76.86 116.836 78.12 122.956 78.12C129.106 78.12 133.936 76.86 133.936 73.29C133.936 69.72 129.106 68.46 122.956 68.46ZM122.956 75.75C118.576 75.75 115.126 75.06 115.126 73.29C115.126 71.52 118.576 70.83 122.956 70.83C127.336 70.83 130.786 71.52 130.786 73.29C130.786 75.06 127.336 75.75 122.956 75.75ZM158.564 52.5V57.63H153.284C152.564 54.72 149.714 52.8 145.574 52.8C140.714 52.8 137.654 55.41 137.654 59.13C137.654 62.85 140.714 65.46 145.574 65.46C149.834 65.46 152.714 63.42 153.344 60.39H158.564V65.64H161.534V52.5H158.564ZM145.574 63C142.634 63 140.624 61.53 140.624 59.13C140.624 56.73 142.634 55.26 145.574 55.26C148.514 55.26 150.494 56.73 150.494 59.13C150.494 61.53 148.514 63 145.574 63ZM158.594 69.75H142.934V67.05H140.024V77.79H161.534V67.05H158.594V69.75ZM142.934 75.36V72.12H158.594V75.36H142.934ZM192.229 66.66H195.199V52.5H192.229V55.26H187.759V57.87H192.229V61.26H186.769V63.87H192.229V66.66ZM186.499 55.92V53.13H171.889V55.65H183.499V56.43C183.499 61.02 179.059 63.24 171.889 63.27V65.85C180.739 65.85 186.499 62.88 186.499 55.92ZM184.399 67.5C178.279 67.5 173.239 68.91 173.239 72.81C173.239 76.68 178.279 78.12 184.399 78.12C190.519 78.12 195.559 76.68 195.559 72.81C195.559 68.91 190.519 67.5 184.399 67.5ZM184.399 75.66C180.079 75.66 176.389 74.82 176.389 72.81C176.389 70.8 180.079 69.96 184.399 69.96C188.749 69.96 192.409 70.8 192.409 72.81C192.409 74.82 188.749 75.66 184.399 75.66ZM215.597 54.66H208.397V52.05H205.397V54.66H198.197V56.97H215.597V54.66ZM219.287 52.5V60.27H215.267V62.91H219.287V67.74H222.257V52.5H219.287ZM206.897 67.56C211.067 67.56 214.337 65.91 214.337 62.97C214.337 60.06 211.067 58.38 206.897 58.38C202.727 58.38 199.427 60.06 199.427 62.97C199.427 65.91 202.727 67.56 206.897 67.56ZM206.897 60.6C209.747 60.6 211.517 61.62 211.517 62.97C211.517 64.32 209.747 65.37 206.897 65.37C204.047 65.37 202.247 64.32 202.247 62.97C202.247 61.62 204.047 60.6 206.897 60.6ZM200.447 77.79H222.167V69.18H200.447V77.79ZM203.387 71.55H219.227V75.42H203.387V71.55ZM246.134 78.12H249.134V52.5H246.134V78.12ZM234.044 76.92C238.574 76.92 241.784 73.14 241.784 65.01C241.784 56.88 238.574 53.1 234.044 53.1C229.484 53.1 226.274 56.88 226.274 65.01C226.274 73.14 229.484 76.92 234.044 76.92ZM234.044 74.19C231.314 74.19 229.244 71.52 229.244 65.01C229.244 58.53 231.314 55.83 234.044 55.83C236.714 55.83 238.814 58.53 238.814 65.01C238.814 71.52 236.714 74.19 234.044 74.19ZM274.79 60.39H280.01V65.82H282.98V52.5H280.01V57.63H274.73C274.01 54.75 271.16 52.8 267.02 52.8C262.16 52.8 259.1 55.44 259.1 59.13C259.1 62.85 262.16 65.46 267.02 65.46C271.28 65.46 274.16 63.42 274.79 60.39ZM262.07 59.13C262.07 56.73 264.08 55.26 267.02 55.26C269.96 55.26 271.94 56.73 271.94 59.13C271.94 61.53 269.96 63 267.02 63C264.08 63 262.07 61.53 262.07 59.13ZM285.62 75.84L280.25 71.22C280.67 69.99 280.97 68.58 281.06 67.05L278.21 66.84C277.88 71.79 275.54 74.85 272.9 75.18V77.79C275.45 77.61 277.7 76.11 279.17 73.62L283.79 77.82L285.62 75.84ZM269.15 69.93H263.81V66.93H261.14V77.79H271.85V66.93H269.15V69.93ZM263.81 75.42V72.24H269.15V75.42H263.81ZM287.747 62.43H309.917V59.79H290.747V52.5H287.747V62.43ZM285.917 67.89H311.507V65.25H285.917V67.89ZM287.687 77.82H310.187V75.18H290.717V70.17H287.687V77.82ZM328.163 62.13L335.723 66.63L337.133 64.38L329.333 59.85C329.633 59.07 329.843 58.23 329.963 57.39H336.683V54.9H329.993V52.05H326.993V54.9H320.213V57.39H326.933C326.333 61.05 323.843 63.81 319.943 64.38V66.96C323.513 66.57 326.393 64.74 328.163 62.13ZM342.773 58.17V52.5H339.803V67.71H342.773V61.02H346.373V58.17H342.773ZM332.183 68.46C326.063 68.46 321.203 69.72 321.203 73.29C321.203 76.86 326.063 78.12 332.183 78.12C338.333 78.12 343.163 76.86 343.163 73.29C343.163 69.72 338.333 68.46 332.183 68.46ZM332.183 75.75C327.803 75.75 324.353 75.06 324.353 73.29C324.353 71.52 327.803 70.83 332.183 70.83C336.563 70.83 340.013 71.52 340.013 73.29C340.013 75.06 336.563 75.75 332.183 75.75ZM367.79 52.5V57.63H362.51C361.79 54.72 358.94 52.8 354.8 52.8C349.94 52.8 346.88 55.41 346.88 59.13C346.88 62.85 349.94 65.46 354.8 65.46C359.06 65.46 361.94 63.42 362.57 60.39H367.79V65.64H370.76V52.5H367.79ZM354.8 63C351.86 63 349.85 61.53 349.85 59.13C349.85 56.73 351.86 55.26 354.8 55.26C357.74 55.26 359.72 56.73 359.72 59.13C359.72 61.53 357.74 63 354.8 63ZM367.82 69.75H352.16V67.05H349.25V77.79H370.76V67.05H367.82V69.75ZM352.16 75.36V72.12H367.82V75.36H352.16ZM392.696 63.18L403.886 68.97L405.176 66.54L393.986 60.9C394.316 60.03 394.556 59.13 394.706 58.17H404.486V55.44H394.556V52.17H391.496V55.44H381.686V58.17H391.556C390.686 62.7 386.396 65.7 381.026 66.12V68.85C386.036 68.55 390.296 66.51 392.696 63.18ZM394.556 74.13V68.25H391.586V74.13H380.306V76.89H405.896V74.13H394.556ZM421.643 74.1V68.34H431.243V53.25H428.303V57.84H411.983V53.25H409.043V68.34H418.613V74.1H407.363V76.89H432.953V74.1H421.643ZM411.983 60.51H428.303V65.67H411.983V60.51ZM461.211 62.88H457.611V52.5H454.641V78.12H457.611V65.73H461.211V62.88ZM444.981 56.16H451.431V53.43H435.321V56.16H441.981C441.891 65.67 439.251 72.81 434.721 73.65V76.59C438.591 76.14 441.591 72.96 443.331 67.65L450.081 76.38L452.421 74.61L444.201 64.29C444.681 61.89 444.951 59.16 444.981 56.16ZM475.758 74.13V67.92H485.688V65.16H466.188V56.19H485.388V53.43H463.158V67.92H472.728V74.13H461.478V76.89H487.068V74.13H475.758ZM333.915 121.12H336.915V95.5H333.915V121.12ZM321.825 119.92C326.355 119.92 329.565 116.14 329.565 108.01C329.565 99.88 326.355 96.1 321.825 96.1C317.265 96.1 314.055 99.88 314.055 108.01C314.055 116.14 317.265 119.92 321.825 119.92ZM321.825 117.19C319.095 117.19 317.025 114.52 317.025 108.01C317.025 101.53 319.095 98.83 321.825 98.83C324.495 98.83 326.595 101.53 326.595 108.01C326.595 114.52 324.495 117.19 321.825 117.19ZM364.002 95.5H361.032V109.24H364.002V95.5ZM358.902 107.89V105.58C357.132 106.33 354.012 106.6 350.502 106.6H350.382V104.05H356.652V101.83H344.412V98.2H356.352V95.98H341.532V104.05H347.442V106.6H340.032V108.88H350.412C354.072 108.88 357.282 108.61 358.902 107.89ZM345.222 118.57V116.77H364.002V110.62H342.252V112.84H361.092V114.64H342.312V120.79H364.662V118.57H345.222ZM386.208 102.76L397.248 109.06L398.628 106.57L387.648 100.48C388.368 99.04 388.908 97.45 389.208 95.8L386.148 95.32C385.038 101.38 379.818 106.3 374.298 106.27V109.09C378.978 109.06 383.358 106.63 386.208 102.76ZM399.288 111.79H373.698V114.55H384.948V121.72H387.978V114.55H399.288V111.79ZM431.273 95.5H428.303V109.75H431.273V95.5ZM423.773 102.43C423.773 98.5 420.653 95.77 415.763 95.77C410.843 95.77 407.723 98.5 407.723 102.43C407.723 106.39 410.843 109.09 415.763 109.09C420.653 109.09 423.773 106.39 423.773 102.43ZM410.693 102.43C410.693 99.79 412.763 98.23 415.763 98.23C418.733 98.23 420.803 99.79 420.803 102.43C420.803 105.07 418.733 106.63 415.763 106.63C412.763 106.63 410.693 105.07 410.693 102.43ZM433.343 118.81L427.823 114.52C428.243 113.41 428.513 112.24 428.633 110.95L425.753 110.53C425.483 114.13 423.473 117.19 421.073 117.94L417.143 114.7C417.623 113.56 417.953 112.3 418.103 110.92L415.223 110.53C414.893 114.49 412.403 117.82 409.583 118.09V120.79C412.043 120.61 414.323 119.2 415.913 116.95L420.263 120.79C422.783 120.64 425.093 119.17 426.653 116.8L431.573 120.91L433.343 118.81ZM448.701 117.13V110.92H458.631V108.16H439.131V99.19H458.331V96.43H436.101V110.92H445.671V117.13H434.421V119.89H460.011V117.13H448.701ZM475.728 109.63V107.11H485.598V104.8H466.248V102.49H485.238V95.8H463.338V98.11H482.328V100.3H463.338V107.11H472.788V109.63H461.478V112H487.068V109.63H475.728ZM463.038 116.62H482.268V121.15H485.268V114.22H463.038V116.62ZM319.315 148.88H315.865V138.5H312.985V164.12H315.865V151.73H319.315V148.88ZM293.095 142.13H297.565V145.49C297.565 153.26 296.485 158.42 293.095 158.87V161.63C298.555 161.39 300.445 154.85 300.445 145.22V139.43H293.095V142.13ZM301.765 142.13H306.175V145.88C306.175 154.4 304.555 159.35 300.955 159.77V162.53C306.595 162.26 309.055 155.9 309.055 145.61V139.43H301.765V142.13ZM340.523 138.5V164.12H343.493V138.5H340.523ZM330.533 142.16H337.103V139.43H320.753V142.16H327.533C327.413 151.67 324.713 158.81 320.153 159.65V162.59C324.023 162.14 327.083 158.96 328.853 153.59L335.753 162.38L338.093 160.61L329.723 150.26C330.203 147.86 330.503 145.13 330.533 142.16ZM374.368 138.5V144.41H369.418V146.99H374.368V154.1H377.338V138.5H374.368ZM362.248 147.98L369.598 153.14L371.188 150.95L363.328 145.52C363.688 144.35 363.928 143.06 363.988 141.71H370.438V139.16H354.088V141.71H360.988C360.688 146.57 358.048 150.02 353.758 150.65V153.35C357.508 152.96 360.478 150.98 362.248 147.98ZM355.318 158.09H374.308V164.12H377.338V155.51H355.318V158.09ZM401.006 147.89H404.006V138.8H382.076V141.38H401.006V147.89ZM380.306 152.06H405.896V149.45H380.306V152.06ZM401.096 164.15H404.096V155.24H381.866V157.82H401.096V164.15ZM434.911 138.5V164.12H437.881V138.5H434.911ZM424.921 142.16H431.491V139.43H415.141V142.16H421.921C421.801 151.67 419.101 158.81 414.541 159.65V162.59C418.411 162.14 421.471 158.96 423.241 153.59L430.141 162.38L432.481 160.61L424.111 150.26C424.591 147.86 424.891 145.13 424.921 142.16ZM454.409 154.58V156.98H462.179V158.57H465.149V138.5H462.179V154.58H454.409ZM450.149 148.55C454.619 148.55 457.739 146.78 457.739 143.54C457.739 140.33 454.619 138.56 450.149 138.56C445.709 138.56 442.559 140.33 442.559 143.54C442.559 146.78 445.709 148.55 450.149 148.55ZM450.149 140.9C452.849 140.9 454.829 141.77 454.829 143.54C454.829 145.31 452.849 146.21 450.149 146.21C447.449 146.21 445.469 145.31 445.469 143.54C445.469 141.77 447.449 140.9 450.149 140.9ZM448.109 157.4H451.079V152.81H451.529C455.189 152.81 458.399 152.51 460.019 151.79V149.33C458.249 150.08 455.129 150.35 451.619 150.35H441.029V152.81H448.109V157.4ZM446.369 161.27V156.02H443.399V163.79H465.809V161.27H446.369ZM475.826 138.44H472.886V142.49H467.516V145.16H481.196V142.49H475.826V138.44ZM489.956 138.5V148.82H485.846V138.65H483.086V163.67H485.846V151.61H489.956V164.12H492.716V138.5H489.956ZM474.476 147.17C471.056 147.17 468.536 149.93 468.536 155.03C468.536 160.13 471.056 162.89 474.476 162.89C477.926 162.89 480.446 160.13 480.446 155.03C480.446 149.93 477.926 147.17 474.476 147.17ZM474.476 160.28C472.646 160.28 471.296 158.39 471.296 155.03C471.296 151.67 472.646 149.78 474.476 149.78C476.336 149.78 477.716 151.67 477.716 155.03C477.716 158.39 476.336 160.28 474.476 160.28ZM496.824 154.55H519.354V151.79H499.854V142.19H519.054V139.43H496.824V154.55ZM495.144 162.89H520.734V160.1H495.144V162.89ZM543.141 138.5V152.66H546.111V138.5H543.141ZM523.371 144.53V152.3H532.941C536.571 152.3 539.571 151.85 541.131 151.16V148.73C539.481 149.48 536.541 149.9 533.061 149.9H526.311V146.87H538.521V139.13H523.311V141.53H535.581V144.53H523.371ZM543.171 156.41H527.331V154.07H524.391V163.79H546.111V154.07H543.171V156.41ZM527.331 161.39V158.75H543.171V161.39H527.331ZM570.199 164.15L573.169 164.12V138.5H570.199V164.15ZM550.729 162.59H561.199C563.659 162.59 566.269 162.11 567.829 161.33V158.6C566.269 159.35 563.629 159.86 561.199 159.86H553.759V139.28H550.729V162.59ZM603.106 148.88H599.506V138.5H596.536V164.12H599.506V151.73H603.106V148.88ZM580.546 159.89V142.13H592.306V139.43H577.516V162.59H587.536C589.996 162.59 592.756 162.14 594.316 161.36V158.66C592.756 159.41 590.116 159.89 587.686 159.89H580.546Z" fill="white"/>
<path d="M137.146 105.88H134.176V95.5H131.386V121.12H134.176V108.73H137.146V105.88ZM116.686 105.22H113.716V96.25H111.016V119.59H119.266V96.25H116.686V105.22ZM126.316 105.22H123.346V96.25H120.766V119.59H128.986V96.25H126.316V105.22ZM113.716 116.98V107.8H116.686V116.98H113.716ZM123.346 116.98V107.8H126.316V116.98H123.346ZM139.124 112.81H161.714V110.14H142.064V105.88H161.324V96.43H139.124V99.1H158.384V103.27H139.124V112.81ZM137.414 119.89H163.004V117.16H137.414V119.89ZM185.261 113.32H188.351V96.4H166.031V99.19H185.261V113.32ZM177.071 117.1V105.67H174.011V117.1H164.471V119.89H190.061V117.1H177.071ZM219.167 95.5V121.12H222.137V95.5H219.167ZM206.957 103.81L214.337 108.82L215.957 106.57L208.157 101.38C208.757 99.73 209.087 97.9 209.117 96.04L206.147 95.86C205.997 100.84 203.507 105.55 198.797 106.27V109C202.457 108.64 205.217 106.66 206.957 103.81ZM198.137 111.49V114.19H205.427V121.12H208.397V114.19H208.637C212.147 114.19 215.177 113.89 217.007 113.2V110.5C215.177 111.22 212.057 111.49 208.607 111.49H198.137ZM237.974 106.42C244.184 106.42 249.344 104.68 249.344 100.87C249.344 97.09 244.184 95.35 237.974 95.35C231.764 95.35 226.604 97.09 226.604 100.87C226.604 104.68 231.764 106.42 237.974 106.42ZM237.974 97.75C242.444 97.75 246.194 98.8 246.194 100.87C246.194 102.97 242.444 104.02 237.974 104.02C233.504 104.02 229.754 102.97 229.754 100.87C229.754 98.8 233.504 97.75 237.974 97.75ZM225.194 108.64V111.16H236.474V115.57H239.474V111.16H250.784V108.64H225.194ZM229.994 113.53H226.964V120.82H249.464V118.27H229.994V113.53ZM267.44 105.13L275 109.63L276.41 107.38L268.61 102.85C268.91 102.07 269.12 101.23 269.24 100.39H275.96V97.9H269.27V95.05H266.27V97.9H259.49V100.39H266.21C265.61 104.05 263.12 106.81 259.22 107.38V109.96C262.79 109.57 265.67 107.74 267.44 105.13ZM282.05 101.17V95.5H279.08V110.71H282.05V104.02H285.65V101.17H282.05ZM271.46 111.46C265.34 111.46 260.48 112.72 260.48 116.29C260.48 119.86 265.34 121.12 271.46 121.12C277.61 121.12 282.44 119.86 282.44 116.29C282.44 112.72 277.61 111.46 271.46 111.46ZM271.46 118.75C267.08 118.75 263.63 118.06 263.63 116.29C263.63 114.52 267.08 113.83 271.46 113.83C275.84 113.83 279.29 114.52 279.29 116.29C279.29 118.06 275.84 118.75 271.46 118.75ZM307.067 95.5V100.63H301.787C301.067 97.72 298.217 95.8 294.077 95.8C289.217 95.8 286.157 98.41 286.157 102.13C286.157 105.85 289.217 108.46 294.077 108.46C298.337 108.46 301.217 106.42 301.847 103.39H307.067V108.64H310.037V95.5H307.067ZM294.077 106C291.137 106 289.127 104.53 289.127 102.13C289.127 99.73 291.137 98.26 294.077 98.26C297.017 98.26 298.997 99.73 298.997 102.13C298.997 104.53 297.017 106 294.077 106ZM307.097 112.75H291.437V110.05H288.527V120.79H310.037V110.05H307.097V112.75ZM291.437 118.36V115.12H307.097V118.36H291.437Z" fill="#8FD7ED"/>
<path d="M28.9166 148.88H25.3166V138.5H22.3466V164.12H25.3166V151.73H28.9166V148.88ZM3.05656 142.16H13.9766V145.67C13.9766 154.25 10.0166 159.68 3.05656 159.71V162.53C11.7566 162.53 17.0066 155.81 17.0066 145.61V139.43H3.05656V142.16ZM46.824 146.45H50.994V153.47H53.814V138.5H50.994V143.72H46.824V138.65H44.004V152.63H46.824V146.45ZM41.064 139.13H29.964V151.64H41.064V139.13ZM38.304 149.15H32.724V141.62H38.304V149.15ZM42.744 153.98C36.624 153.98 31.284 155.27 31.284 159.05C31.284 162.83 36.624 164.12 42.744 164.12C48.864 164.12 54.204 162.83 54.204 159.05C54.204 155.27 48.864 153.98 42.744 153.98ZM42.744 161.69C38.544 161.69 34.434 161 34.434 159.05C34.434 157.1 38.544 156.38 42.744 156.38C46.944 156.38 51.054 157.1 51.054 159.05C51.054 161 46.944 161.69 42.744 161.69ZM86.0396 143.39V138.5H83.0696V152.66H86.0396V146.21H89.6396V143.39H86.0396ZM71.5796 146.54L79.1396 151.55L80.6696 149.36L72.7196 144.2C73.3196 142.58 73.6496 140.81 73.6496 138.92L70.6796 138.74C70.6196 144.14 67.7696 148.58 62.9096 149.45V152.15C66.7196 151.64 69.7196 149.54 71.5796 146.54ZM75.4496 153.5C69.3296 153.5 64.4696 154.97 64.4696 158.81C64.4696 162.65 69.3296 164.12 75.4496 164.12C81.5996 164.12 86.4296 162.65 86.4296 158.81C86.4296 154.97 81.5996 153.5 75.4496 153.5ZM75.4496 161.66C71.0996 161.66 67.6496 160.79 67.6496 158.81C67.6496 156.86 71.0996 155.96 75.4496 155.96C79.8296 155.96 83.2496 156.86 83.2496 158.81C83.2496 160.79 79.8296 161.66 75.4496 161.66ZM116.697 143.75H113.097V138.5H110.127V152.42H113.097V146.6H116.697V143.75ZM108.267 150.05V147.53C106.617 148.25 103.677 148.67 100.197 148.67H93.777V141.65H106.437V139.13H90.807V151.19H100.017C103.647 151.19 106.707 150.74 108.267 150.05ZM91.677 163.79H113.097V153.83H91.677V163.79ZM94.647 156.35H110.127V161.27H94.647V156.35ZM140.754 138.95H137.814V142.55H121.674V138.95H118.734V152.09H140.754V138.95ZM121.674 149.45V145.19H137.814V149.45H121.674ZM142.554 154.82H116.964V157.58H128.214V164.72H131.274V157.58H142.554V154.82ZM165.142 138.5V148.94H160.402V151.73H165.142V164.12H168.142V138.5H165.142ZM148.342 159.86V152.18H158.572V149.45H148.342V142.16H160.012V139.43H145.372V162.59H155.182C157.642 162.59 160.252 162.14 161.812 161.36V158.63C160.252 159.38 157.612 159.86 155.182 159.86H148.342ZM191.968 160.1V154.64C198.088 154.22 202.018 151.19 202.018 146.84C202.018 142.1 197.428 138.95 190.468 138.95C183.508 138.95 178.918 142.1 178.918 146.84C178.918 151.19 182.848 154.22 188.938 154.64V160.1H177.688V162.89H203.278V160.1H191.968ZM182.068 146.84C182.068 143.72 185.428 141.65 190.468 141.65C195.538 141.65 198.898 143.72 198.898 146.84C198.898 149.93 195.538 152 190.468 152C185.428 152 182.068 149.93 182.068 146.84ZM228.835 147.2H224.305V141.23H228.565V138.8H206.485V141.23H210.745V147.2H206.215V149.63H228.835V147.2ZM213.715 141.23H221.335V147.2H213.715V141.23ZM204.745 152.24V154.76H230.335V152.24H204.745ZM209.545 156.89H206.515V163.82H229.015V161.3H209.545V156.89ZM265.201 148.64H261.661V138.5H258.691V164.12H261.661V151.49H265.201V148.64ZM251.011 155.81H254.011V139.49H239.341V142.25H251.011V155.81ZM245.881 159.8V148.94H242.881V159.8H238.411V162.59H248.191C251.701 162.59 254.731 162.26 256.561 161.51V158.72C254.731 159.5 251.611 159.8 248.161 159.8H245.881ZM281.638 143.33V145.91H286.618V152.9H289.588V138.5H286.618V143.33H281.638ZM274.498 147.08L282.028 151.91L283.498 149.69L275.608 144.71C275.908 143.75 276.118 142.76 276.178 141.71H282.658V139.16H266.308V141.71H273.208C272.848 145.88 270.208 148.91 265.978 149.48V152.15C269.758 151.79 272.728 149.87 274.498 147.08ZM278.728 153.74C272.518 153.74 267.658 155.18 267.658 158.93C267.658 162.68 272.518 164.12 278.728 164.12C284.938 164.12 289.798 162.68 289.798 158.93C289.798 155.18 284.938 153.74 278.728 153.74ZM278.728 161.69C274.318 161.69 270.808 160.82 270.808 158.93C270.808 157.04 274.318 156.17 278.728 156.17C283.138 156.17 286.648 157.04 286.648 158.93C286.648 160.82 283.138 161.69 278.728 161.69Z" fill="#91D6EE"/>
<path d="M10.365 42.68C6.205 42.68 4.125 40.9733 4.125 37.56C4.125 34.04 5.59167 30.4667 8.525 26.84C11.4583 23.2133 14.7917 21.4 18.525 21.4C19.2717 21.4 20.0717 21.56 20.925 21.88C21.7783 22.1467 22.205 22.68 22.205 23.48C22.205 24.28 21.9117 24.8933 21.325 25.32C20.7917 25.7467 20.1517 26.1733 19.405 26.6C18.6583 26.9733 17.9117 27.4267 17.165 27.96C16.4717 28.4933 15.9383 29.2667 15.565 30.28C17.3783 31.4533 18.285 33.32 18.285 35.88C18.285 37.64 17.4317 39.2133 15.725 40.6C14.0717 41.9867 12.285 42.68 10.365 42.68ZM32.445 29.48C34.2583 30.6533 35.165 32.4933 35.165 35C35.165 37.4533 34.2317 39.48 32.365 41.08C30.4983 42.68 28.2583 43.48 25.645 43.48C24.205 43.48 22.925 43.08 21.805 42.28C20.7383 41.48 20.205 40.12 20.205 38.2C20.205 34.1467 21.7783 30.2 24.925 26.36C28.0717 22.52 31.565 20.6 35.405 20.6C36.1517 20.6 36.9517 20.76 37.805 21.08C38.6583 21.3467 39.085 21.88 39.085 22.68C39.085 23.48 38.7917 24.0933 38.205 24.52C37.6717 24.9467 37.0317 25.3733 36.285 25.8C35.5383 26.1733 34.7917 26.6267 34.045 27.16C33.3517 27.6933 32.8183 28.4667 32.445 29.48Z" fill="white"/>
<path d="M647.635 173.32C651.795 173.32 653.875 175.027 653.875 178.44C653.875 181.96 652.408 185.533 649.475 189.16C646.542 192.787 643.208 194.6 639.475 194.6C638.728 194.6 637.928 194.44 637.075 194.12C636.222 193.853 635.795 193.32 635.795 192.52C635.795 191.72 636.088 191.107 636.675 190.68C637.208 190.253 637.848 189.827 638.595 189.4C639.342 189.027 640.088 188.573 640.835 188.04C641.528 187.507 642.062 186.733 642.435 185.72C640.622 184.547 639.715 182.68 639.715 180.12C639.715 178.36 640.568 176.787 642.275 175.4C643.928 174.013 645.715 173.32 647.635 173.32ZM625.555 186.52C623.742 185.347 622.835 183.507 622.835 181C622.835 178.547 623.768 176.52 625.635 174.92C627.502 173.32 629.742 172.52 632.355 172.52C633.795 172.52 635.075 172.92 636.195 173.72C637.262 174.52 637.795 175.88 637.795 177.8C637.795 181.853 636.222 185.8 633.075 189.64C629.928 193.48 626.435 195.4 622.595 195.4C621.848 195.4 621.048 195.24 620.195 194.92C619.342 194.653 618.915 194.12 618.915 193.32C618.915 192.52 619.208 191.907 619.795 191.48C620.328 191.053 620.968 190.627 621.715 190.2C622.462 189.827 623.208 189.373 623.955 188.84C624.648 188.307 625.182 187.533 625.555 186.52Z" fill="white"/>
</svg>
