<svg width="887" height="602" viewBox="0 0 887 602" fill="none" xmlns="http://www.w3.org/2000/svg">
<path d="M202.393 100.725C199.842 100.725 197.818 101.945 197.818 103.984C197.818 106.105 199.149 107.117 201.603 107.575C203.614 107.949 204.376 108.309 204.376 109.211C204.376 109.945 203.614 110.458 202.588 110.458C201.146 110.458 200.203 109.738 200.064 108.656H197.471C197.582 111.069 199.62 112.58 202.407 112.58C204.931 112.58 206.969 111.263 206.969 109.1C206.969 107.408 206.082 106.119 203.475 105.578C201.27 105.12 200.397 104.829 200.397 103.984C200.397 103.304 201.049 102.833 202.227 102.833C203.433 102.833 204.168 103.429 204.321 104.413H206.927C206.803 102.264 204.917 100.725 202.393 100.725ZM216.704 101.003H206.833V103.235H210.507V112.303H213.03V103.235H216.704V101.003ZM217.227 112.303H225.754V110.112H219.75V107.685H225.144V105.495H219.75V103.193H225.629V101.003H217.227V112.303ZM226.618 112.303H229.141V109.294H230.957C233.897 109.294 235.616 107.658 235.616 105.134C235.616 102.639 233.897 101.003 230.957 101.003H226.618V112.303ZM229.141 107.062V103.235H230.846C232.247 103.235 233.093 103.886 233.093 105.134C233.093 106.396 232.247 107.062 230.846 107.062H229.141ZM243.08 100.698C240.612 100.698 238.754 102.68 238.754 106.646C238.754 110.597 240.612 112.58 243.08 112.58C245.548 112.58 247.406 110.597 247.406 106.646C247.406 102.68 245.548 100.698 243.08 100.698ZM243.08 102.902C244.189 102.902 245.021 104.067 245.021 106.646C245.021 109.211 244.189 110.375 243.08 110.375C241.971 110.375 241.139 109.211 241.139 106.646C241.139 104.067 241.971 102.902 243.08 102.902ZM252.052 101.003H247.546V103.193H249.543V112.303H252.052V101.003Z" fill="white"/>
<path d="M635.393 323.725C632.842 323.725 630.818 324.945 630.818 326.984C630.818 329.105 632.149 330.117 634.603 330.575C636.614 330.949 637.376 331.309 637.376 332.211C637.376 332.945 636.614 333.458 635.588 333.458C634.146 333.458 633.203 332.738 633.064 331.656H630.471C630.582 334.069 632.62 335.58 635.407 335.58C637.931 335.58 639.969 334.263 639.969 332.1C639.969 330.408 639.082 329.119 636.475 328.578C634.27 328.12 633.397 327.829 633.397 326.984C633.397 326.304 634.049 325.833 635.227 325.833C636.433 325.833 637.168 326.429 637.321 327.413H639.927C639.803 325.264 637.917 323.725 635.393 323.725ZM649.704 324.003H639.833V326.235H643.507V335.303H646.03V326.235H649.704V324.003ZM650.227 335.303H658.754V333.112H652.75V330.685H658.144V328.495H652.75V326.193H658.629V324.003H650.227V335.303ZM659.618 335.303H662.141V332.294H663.957C666.897 332.294 668.616 330.658 668.616 328.134C668.616 325.639 666.897 324.003 663.957 324.003H659.618V335.303ZM662.141 330.062V326.235H663.846C665.247 326.235 666.093 326.886 666.093 328.134C666.093 329.396 665.247 330.062 663.846 330.062H662.141ZM676.08 323.698C673.612 323.698 671.754 325.68 671.754 329.646C671.754 333.597 673.612 335.58 676.08 335.58C678.548 335.58 680.406 333.597 680.406 329.646C680.406 325.68 678.548 323.698 676.08 323.698ZM676.08 325.902C677.189 325.902 678.021 327.067 678.021 329.646C678.021 332.211 677.189 333.375 676.08 333.375C674.971 333.375 674.139 332.211 674.139 329.646C674.139 327.067 674.971 325.902 676.08 325.902ZM685.538 335.303H687.922V333.029H689.406V330.949H687.922V324.003H684.83L680.463 330.949V333.029H685.538V335.303ZM682.875 330.949L685.538 326.595V330.949H682.875Z" fill="white"/>
<path d="M419.393 325.725C416.842 325.725 414.818 326.945 414.818 328.984C414.818 331.105 416.149 332.117 418.603 332.575C420.614 332.949 421.376 333.309 421.376 334.211C421.376 334.945 420.614 335.458 419.588 335.458C418.146 335.458 417.203 334.738 417.064 333.656H414.471C414.582 336.069 416.62 337.58 419.407 337.58C421.931 337.58 423.969 336.263 423.969 334.1C423.969 332.408 423.082 331.119 420.475 330.578C418.27 330.12 417.397 329.829 417.397 328.984C417.397 328.304 418.049 327.833 419.227 327.833C420.433 327.833 421.168 328.429 421.321 329.413H423.927C423.803 327.264 421.917 325.725 419.393 325.725ZM433.704 326.003H423.833V328.235H427.507V337.303H430.03V328.235H433.704V326.003ZM434.227 337.303H442.754V335.112H436.75V332.685H442.144V330.495H436.75V328.193H442.629V326.003H434.227V337.303ZM443.618 337.303H446.141V334.294H447.957C450.897 334.294 452.616 332.658 452.616 330.134C452.616 327.639 450.897 326.003 447.957 326.003H443.618V337.303ZM446.141 332.062V328.235H447.846C449.247 328.235 450.093 328.886 450.093 330.134C450.093 331.396 449.247 332.062 447.846 332.062H446.141ZM460.08 325.698C457.612 325.698 455.754 327.68 455.754 331.646C455.754 335.597 457.612 337.58 460.08 337.58C462.548 337.58 464.406 335.597 464.406 331.646C464.406 327.68 462.548 325.698 460.08 325.698ZM460.08 327.902C461.189 327.902 462.021 329.067 462.021 331.646C462.021 334.211 461.189 335.375 460.08 335.375C458.971 335.375 458.139 334.211 458.139 331.646C458.139 329.067 458.971 327.902 460.08 327.902ZM468.719 337.566C471.049 337.566 472.824 336.013 472.824 333.628C472.824 331.23 471.326 329.802 469.108 329.802C468.387 329.802 467.777 329.982 467.291 330.273L467.416 328.152H472.269V326.003H465.128L464.796 332.602H467.083C467.388 332.186 467.888 331.84 468.678 331.84C469.759 331.84 470.369 332.575 470.369 333.628C470.369 334.668 469.745 335.431 468.719 335.431C467.68 335.431 467.167 334.904 467.07 334.003H464.588C464.768 336.179 466.265 337.566 468.719 337.566Z" fill="white"/>
<path d="M418.393 545.671C415.842 545.671 413.818 546.891 413.818 548.929C413.818 551.05 415.149 552.062 417.603 552.52C419.614 552.894 420.376 553.255 420.376 554.156C420.376 554.891 419.614 555.404 418.588 555.404C417.146 555.404 416.203 554.683 416.064 553.601H413.471C413.582 556.014 415.62 557.525 418.407 557.525C420.931 557.525 422.969 556.208 422.969 554.045C422.969 552.354 422.082 551.064 419.475 550.523C417.27 550.066 416.397 549.775 416.397 548.929C416.397 548.249 417.049 547.778 418.227 547.778C419.433 547.778 420.168 548.374 420.321 549.359H422.927C422.803 547.21 420.917 545.671 418.393 545.671ZM432.704 545.948H422.833V548.18H426.507V557.248H429.03V548.18H432.704V545.948ZM433.227 557.248H441.754V555.057H435.75V552.631H441.144V550.44H435.75V548.139H441.629V545.948H433.227V557.248ZM442.618 557.248H445.141V554.239H446.957C449.897 554.239 451.616 552.603 451.616 550.08C451.616 547.584 449.897 545.948 446.957 545.948H442.618V557.248ZM445.141 552.007V548.18H446.846C448.247 548.18 449.093 548.832 449.093 550.08C449.093 551.341 448.247 552.007 446.846 552.007H445.141ZM459.08 545.643C456.612 545.643 454.754 547.626 454.754 551.591C454.754 555.542 456.612 557.525 459.08 557.525C461.548 557.525 463.406 555.542 463.406 551.591C463.406 547.626 461.548 545.643 459.08 545.643ZM459.08 547.847C460.189 547.847 461.021 549.012 461.021 551.591C461.021 554.156 460.189 555.321 459.08 555.321C457.971 555.321 457.139 554.156 457.139 551.591C457.139 549.012 457.971 547.847 459.08 547.847ZM472.142 554.17C472.142 552.603 470.867 551.605 469.855 551.397C470.714 551.133 471.726 550.163 471.726 548.873C471.726 547.126 470.16 545.643 467.844 545.643C465.543 545.643 463.934 547.099 463.934 548.873C463.934 550.163 464.96 551.133 465.834 551.397C464.836 551.605 463.546 552.603 463.546 554.17C463.546 556.222 465.446 557.525 467.844 557.525C470.243 557.525 472.142 556.222 472.142 554.17ZM469.369 548.97C469.369 549.733 468.718 550.26 467.844 550.26C466.998 550.26 466.319 549.705 466.319 548.915C466.319 548.194 466.971 547.695 467.844 547.695C468.745 547.695 469.369 548.249 469.369 548.97ZM469.716 554.017C469.716 554.835 468.953 555.445 467.844 555.445C466.735 555.445 465.972 554.835 465.972 554.017C465.972 553.172 466.763 552.548 467.844 552.548C468.926 552.548 469.716 553.172 469.716 554.017Z" fill="white"/>
<path d="M199.976 136.056H197.665V128.846H193.76V148.581H197.665V139.846H199.976V136.056ZM179.687 132.867H186.874V134.647C186.874 140.424 184.424 143.913 179.687 143.959V147.657C186.527 147.657 190.848 142.665 190.848 134.647V129.309H179.687V132.867ZM215.711 135.756H217.352V140.331H221.003V128.846H217.352V132.197H215.711V128.939H212.106V139.684H215.711V135.756ZM210.766 129.078H201.707V139.291H210.766V129.078ZM207.207 136.126H205.266V132.243H207.207V136.126ZM211.921 140.354C206.745 140.354 202.655 141.464 202.655 144.583C202.655 147.703 206.745 148.812 211.921 148.812C217.097 148.812 221.188 147.703 221.188 144.583C221.188 141.464 217.097 140.354 211.921 140.354ZM211.921 145.739C209.125 145.739 206.814 145.461 206.814 144.583C206.814 143.728 209.125 143.428 211.921 143.428C214.717 143.428 217.028 143.728 217.028 144.583C217.028 145.461 214.717 145.739 211.921 145.739ZM248.598 131.874V128.846H244.693V139.707H248.598V135.594H250.909V131.874H248.598ZM237.044 135.848L241.989 139.107L243.977 136.287L238.616 132.89C239.032 131.712 239.239 130.464 239.239 129.17L235.311 128.939C235.242 132.867 233.185 135.756 230.065 136.126V139.615C232.954 139.453 235.404 138.02 237.044 135.848ZM239.887 139.985C234.918 139.985 230.99 141.117 230.99 144.398C230.99 147.68 234.918 148.812 239.887 148.812C244.855 148.812 248.783 147.68 248.783 144.398C248.783 141.117 244.855 139.985 239.887 139.985ZM239.887 145.692C237.275 145.692 235.196 145.346 235.196 144.398C235.196 143.474 237.275 143.104 239.887 143.104C242.498 143.104 244.578 143.474 244.578 144.398C244.578 145.346 242.498 145.692 239.887 145.692ZM273.137 132.128H270.827V128.846H266.921V139.523H270.827V135.918H273.137V132.128ZM265.997 138.228V135.063C264.957 135.479 263.224 135.71 261.445 135.71H256.638V132.29H264.865V129.078H252.733V138.922H261.283C263.132 138.922 264.98 138.668 265.997 138.228ZM253.403 148.581H270.827V140.216H253.403V148.581ZM257.308 143.428H266.921V145.369H257.308V143.428Z" fill="white"/>
<path d="M633.976 359.056H631.665V351.846H627.76V371.581H631.665V362.846H633.976V359.056ZM613.687 355.867H620.874V357.647C620.874 363.424 618.424 366.913 613.687 366.959V370.657C620.527 370.657 624.848 365.665 624.848 357.647V352.309H613.687V355.867ZM649.711 358.756H651.352V363.331H655.003V351.846H651.352V355.197H649.711V351.939H646.106V362.684H649.711V358.756ZM644.766 352.078H635.707V362.291H644.766V352.078ZM641.207 359.126H639.266V355.243H641.207V359.126ZM645.921 363.354C640.745 363.354 636.655 364.464 636.655 367.583C636.655 370.703 640.745 371.812 645.921 371.812C651.097 371.812 655.188 370.703 655.188 367.583C655.188 364.464 651.097 363.354 645.921 363.354ZM645.921 368.739C643.125 368.739 640.814 368.461 640.814 367.583C640.814 366.728 643.125 366.428 645.921 366.428C648.717 366.428 651.028 366.728 651.028 367.583C651.028 368.461 648.717 368.739 645.921 368.739ZM680.08 351.846V371.581H683.708V351.846H680.08ZM675.042 356.029H672.916V352.309H664.343V355.821H669.196V358.34C669.196 363.886 667.278 366.774 664.343 367.006V370.657C667.208 370.61 669.819 369.039 671.391 365.873H675.042V371.234H678.624V351.939H675.042V356.029ZM672.569 362.245C672.708 361.436 672.824 360.581 672.87 359.657H675.042V362.245H672.569ZM707.137 356.699V353.395H704.827V351.846H700.921V363.586H704.827V361.46H707.137V358.155H704.827V356.699H707.137ZM692.417 363.193C696.207 363.193 698.772 360.859 698.772 357.531C698.772 354.227 696.207 351.87 692.417 351.87C688.628 351.87 686.063 354.227 686.063 357.531C686.063 360.859 688.628 363.193 692.417 363.193ZM692.417 355.082C693.873 355.082 694.89 356.006 694.89 357.531C694.89 359.056 693.873 359.981 692.417 359.981C690.939 359.981 689.945 359.056 689.945 357.531C689.945 356.006 690.939 355.082 692.417 355.082ZM687.542 367.629H700.852V371.812H704.827V364.279H687.542V367.629Z" fill="white"/>
<path d="M391.22 353.846H387.315V368.451H391.22V353.846ZM378.556 353.87C374.697 353.87 372.063 356.227 372.063 359.785C372.063 363.367 374.697 365.701 378.556 365.701C382.416 365.701 385.05 363.367 385.05 359.785C385.05 356.227 382.416 353.87 378.556 353.87ZM378.556 357.128C380.058 357.128 381.168 358.075 381.168 359.785C381.168 361.495 380.058 362.443 378.556 362.443C377.054 362.443 375.945 361.495 375.945 359.785C375.945 358.075 377.054 357.128 378.556 357.128ZM377.771 366.672H373.796V373.581H391.497V370.069H377.771V366.672ZM410.352 353.846V373.581H414.003V353.846H410.352ZM405.383 361.426H403.627V365.1H405.383V373.234H408.988V353.939H405.383V361.426ZM398.381 369.329V365.054H402.633V361.726H398.381V357.636H403.442V354.309H394.707V372.657H399.468C401.108 372.657 403.234 372.449 404.413 371.963V368.682C403.211 369.121 401.362 369.329 399.814 369.329H398.381ZM435.676 353.846H431.771V373.581H435.676V353.846ZM428.906 354.309H417.421V357.821H425.023V361.703H417.467V372.657H425.462C427.427 372.657 429.529 372.31 430.731 371.709V368.197C429.529 368.751 427.496 369.144 425.624 369.144H421.349V365.17H428.906V354.309ZM454.092 353.846V361.287H451.434C450.926 356.319 448.661 354.078 445.426 354.078C441.752 354.078 439.302 356.989 439.302 363.483C439.302 369.976 441.752 372.888 445.426 372.888C448.823 372.888 451.134 370.415 451.48 364.938H454.092V373.581H457.997V353.846H454.092ZM445.426 369.306C444.132 369.306 443.161 367.919 443.161 363.483C443.161 359.069 444.132 357.659 445.426 357.659C446.697 357.659 447.668 359.069 447.668 363.483C447.668 367.919 446.697 369.306 445.426 369.306ZM486.609 353.846H482.704V364.453H486.609V353.846ZM480.416 354.078H468.169V363.321H480.416V354.078ZM476.557 360.155H472.028V357.243H476.557V360.155ZM487.28 370.669L479.769 369.006L479.977 368.52H486.609V365.378H479.769V364.037H475.795V365.378H468.978V368.52H475.702C474.431 369.837 471.658 370.392 468.77 370.392V373.581C472.051 373.581 475.333 373.003 477.551 371.524L486.286 373.812L487.28 370.669ZM387.315 387.846V398.06H391.22V387.846H387.315ZM379.319 395.149L384.518 397.945L386.275 395.056L381.006 392.353C381.098 391.983 381.191 391.636 381.237 391.29H385.604V388.078H372.849V391.29H377.262C376.8 392.953 375.113 394.617 372.571 394.756V398.153C375.391 398.083 377.771 396.836 379.319 395.149ZM387.384 400.048H377.401V398.754H373.565V407.581H391.22V398.754H387.384V400.048ZM377.401 404.484V403.075H387.384V404.484H377.401ZM413.448 387.846H409.543V407.581H413.448V387.846ZM406.492 388.309H395.123V391.867H402.495V393.647C402.495 399.354 399.907 402.913 395.123 402.959V406.657C402.033 406.657 406.492 401.665 406.492 393.647V388.309ZM439.08 387.846V407.581H442.708V387.846H439.08ZM434.042 392.029H431.916V388.309H423.343V391.821H428.196V394.34C428.196 399.886 426.278 402.774 423.343 403.006V406.657C426.208 406.61 428.819 405.039 430.391 401.873H434.042V407.234H437.624V387.939H434.042V392.029ZM431.569 398.245C431.708 397.436 431.824 396.581 431.87 395.657H434.042V398.245H431.569ZM466.137 392.699V389.395H463.827V387.846H459.921V399.586H463.827V397.46H466.137V394.155H463.827V392.699H466.137ZM451.417 399.193C455.207 399.193 457.772 396.859 457.772 393.531C457.772 390.227 455.207 387.87 451.417 387.87C447.628 387.87 445.063 390.227 445.063 393.531C445.063 396.859 447.628 399.193 451.417 399.193ZM451.417 391.082C452.873 391.082 453.89 392.006 453.89 393.531C453.89 395.056 452.873 395.981 451.417 395.981C449.939 395.981 448.945 395.056 448.945 393.531C448.945 392.006 449.939 391.082 451.417 391.082ZM446.542 403.629H459.852V407.812H463.827V400.279H446.542V403.629ZM485.021 395.357H482.872V399.031H485.021V404.531L480.631 397.436C480.793 396.258 480.862 394.964 480.885 393.577H483.75V390.088H480.885V387.777H477.188V390.088H474.299V393.577H477.188C477.118 399.123 475.917 402.705 473.999 402.936V406.657C476.494 406.564 478.343 405.039 479.498 402.174L481.994 406.426L485.021 404.692V407.234H488.626V387.939H485.021V395.357ZM489.99 387.846V407.581H493.641V387.846H489.99ZM511.571 397.506H515.407V387.846H511.571V389.141H509.26V392.306H511.571V393.439H508.497V396.605H511.571V397.506ZM508.336 390.643V388.078H496.689V391.22H504.407V391.428C504.407 393.161 501.288 394.294 496.689 394.34V397.506C503.275 397.506 508.336 395.773 508.336 390.643ZM501.634 404.877V404.092H515.407V398.199H497.729V400.903H511.548V401.688H497.775V407.581H515.615V404.877H501.634Z" fill="white"/>
<path d="M394.102 589.059V586.286C398.493 585.731 401.335 583.328 401.335 580.047C401.335 576.303 397.615 573.692 392.115 573.692C386.615 573.692 382.895 576.303 382.895 580.047C382.895 583.328 385.737 585.731 390.128 586.286V589.059H382.132V592.71H402.098V589.059H394.102ZM387.031 580.047C387.031 578.337 389.111 577.204 392.115 577.204C395.119 577.204 397.199 578.337 397.199 580.047C397.199 581.734 395.119 582.889 392.115 582.889C389.111 582.889 387.031 581.734 387.031 580.047ZM423.309 579.469H420.305V576.742H423.101V573.669H405.585V576.742H408.381V579.469H405.377V582.542H423.309V579.469ZM412.287 576.742H416.4V579.469H412.287V576.742ZM404.361 583.721V586.933H424.326V583.721H404.361ZM409.491 587.834H405.516V593.403H423.402V590.191H409.491V587.834ZM445.706 577.874V581.271H448.34V588.296H452.245V573.669H448.34V577.874H445.706ZM440.114 582.173L444.92 585.616L447.115 582.843L441.662 579.076C441.847 578.475 441.962 577.851 442.008 577.227H446.26V573.9H433.689V577.227H438.08C437.733 579.746 436.07 582.034 433.412 582.242V585.778C436.231 585.708 438.588 584.229 440.114 582.173ZM438.565 589.914V586.494H434.591V593.403H452.523V589.914H438.565ZM476.698 587.141H480.696V574.131H462.787V577.713H476.698V587.141ZM474.711 589.128V582.265H470.783V589.128H468.726V582.265H464.798V589.128H461.77V592.71H481.736V589.128H474.711ZM493.981 581.988C499.181 581.988 503.04 580.671 503.04 577.666C503.04 574.662 499.181 573.345 493.981 573.345C488.782 573.345 484.923 574.662 484.923 577.666C484.923 580.671 488.782 581.988 493.981 581.988ZM493.981 576.326C496.939 576.326 498.88 576.811 498.88 577.666C498.88 578.545 496.939 579.007 493.981 579.007C491.024 579.007 489.082 578.545 489.082 577.666C489.082 576.811 491.024 576.326 493.981 576.326ZM503.964 585.778V582.681H483.999V585.778H488.343V587.256H485.062V590.33H498.857V593.634H502.809V587.256H499.62V585.778H503.964ZM495.784 587.256H492.179V585.778H495.784V587.256Z" fill="white"/>
<path d="M415.665 131.874V128.846H411.76V139.707H415.665V135.594H417.976V131.874H415.665ZM404.111 135.848L409.056 139.107L411.044 136.287L405.682 132.89C406.098 131.712 406.306 130.464 406.306 129.17L402.378 128.939C402.309 132.867 400.252 135.756 397.132 136.126V139.615C400.021 139.453 402.47 138.02 404.111 135.848ZM406.953 139.985C401.985 139.985 398.057 141.117 398.057 144.398C398.057 147.68 401.985 148.812 406.953 148.812C411.922 148.812 415.85 147.68 415.85 144.398C415.85 141.117 411.922 139.985 406.953 139.985ZM406.953 145.692C404.342 145.692 402.262 145.346 402.262 144.398C402.262 143.474 404.342 143.104 406.953 143.104C409.565 143.104 411.644 143.474 411.644 144.398C411.644 145.346 409.565 145.692 406.953 145.692ZM429.621 140.239V143.312H434.681V144.121H438.587V128.846H434.681V140.239H429.621ZM428.096 135.224H431.978V128.985H420.608V132.174H428.096V135.224ZM424.86 145.277V142.804H427.911V139.245H428.165C430.129 139.245 432.324 139.06 433.549 138.529V135.409C432.324 135.918 430.268 136.079 428.442 136.079H419.361V139.245H424.028V141.718H420.932V148.581H438.864V145.277H424.86ZM466.829 128.846H463.017V130.325H453.08V128.846H449.267V137.605H466.829V128.846ZM453.08 134.67V133.191H463.017V134.67H453.08ZM448.065 138.737V141.926H456.084V144.283H460.012V141.926H468.031V138.737H448.065ZM453.196 143.035H449.221V148.581H467.107V145.369H453.196V143.035ZM485.545 128.846V131.273H481.987V134.808H485.545V140.817H489.451V128.846H485.545ZM477.041 136.611L481.825 140.308L484.136 137.697L478.636 133.537C479.121 132.174 479.375 130.695 479.375 129.17L475.447 128.939C475.378 133.214 473.275 136.588 470.224 136.957V140.539C473.021 140.378 475.401 138.852 477.041 136.611ZM471.703 144.861H485.476V148.812H489.451V141.51H471.703V144.861Z" fill="white"/>
<path d="M628.407 128.846V131.897H626.327V129.078H613.756V132.313H618.101C617.708 134.184 616.021 136.056 613.479 136.195V139.615C616.298 139.546 618.655 138.228 620.203 136.426L625.195 139.407L627.067 136.542L621.798 133.537C621.937 133.122 622.006 132.729 622.052 132.313H625.773V135.224H628.407V139.707H632.312V128.846H628.407ZM614.657 148.581H632.312V140.401H614.657V148.581ZM618.563 143.59H628.407V145.392H618.563V143.59ZM647.308 144.283V141.186H654.425V137.628H651.421V132.89H654.217V129.309H636.47V132.89H639.266V137.628H636.262V141.186H643.379V144.283H635.361V147.888H655.326V144.283H647.308ZM643.171 132.89H647.516V137.628H643.171V132.89ZM679.34 143.474H683.245V128.846H679.34V131.411H675.781V134.993H679.34V143.474ZM670.859 136.911L675.527 140.793L677.93 138.136L672.408 133.769C672.916 132.336 673.17 130.764 673.17 129.17L669.242 128.939C669.172 133.353 667.093 137.004 664.019 137.373V141.001C666.838 140.84 669.219 139.245 670.859 136.911ZM669.565 145.092V141.672H665.591V148.581H683.523V145.092H669.565ZM693.365 136.426L698.356 139.407L700.228 136.542L694.959 133.537C695.098 133.122 695.167 132.729 695.214 132.313H698.934V135.224H701.568V139.892H705.474V128.846H701.568V131.897H699.489V129.078H686.918V132.313H691.262C690.869 134.184 689.182 136.056 686.64 136.195V139.615C689.46 139.546 691.817 138.228 693.365 136.426ZM696.646 140.17C691.609 140.17 687.634 141.279 687.634 144.491C687.634 147.703 691.609 148.812 696.646 148.812C701.684 148.812 705.659 147.703 705.659 144.491C705.659 141.279 701.684 140.17 696.646 140.17ZM696.646 145.739C693.989 145.739 691.84 145.392 691.84 144.491C691.84 143.613 693.989 143.243 696.646 143.243C699.304 143.243 701.453 143.613 701.453 144.491C701.453 145.392 699.304 145.739 696.646 145.739Z" fill="white"/>
<path d="M187.22 352.846H183.315V367.451H187.22V352.846ZM174.556 352.87C170.697 352.87 168.063 355.227 168.063 358.785C168.063 362.367 170.697 364.701 174.556 364.701C178.416 364.701 181.05 362.367 181.05 358.785C181.05 355.227 178.416 352.87 174.556 352.87ZM174.556 356.128C176.058 356.128 177.168 357.075 177.168 358.785C177.168 360.495 176.058 361.443 174.556 361.443C173.054 361.443 171.945 360.495 171.945 358.785C171.945 357.075 173.054 356.128 174.556 356.128ZM173.771 365.672H169.796V372.581H187.497V369.069H173.771V365.672ZM203.694 355.227H199.303V352.754H195.306V355.227H190.892V358.785H203.694V355.227ZM205.635 352.846V360.403H203.324V364.123H205.635V372.581H209.541V352.846H205.635ZM197.293 359.594C193.734 359.594 191.562 362.252 191.562 365.741C191.562 369.253 193.734 371.888 197.293 371.888C200.852 371.888 203.024 369.253 203.024 365.741C203.024 362.252 200.852 359.594 197.293 359.594ZM197.293 368.537C196.022 368.537 195.283 367.428 195.283 365.741C195.283 364.054 196.022 362.945 197.293 362.945C198.564 362.945 199.303 364.054 199.303 365.741C199.303 367.428 198.564 368.537 197.293 368.537ZM233.433 360.056H231.122V352.846H227.216V372.581H231.122V363.846H233.433V360.056ZM213.143 356.867H220.33V358.647C220.33 364.424 217.881 367.913 213.143 367.959V371.657C219.983 371.657 224.305 366.665 224.305 358.647V353.309H213.143V356.867ZM256.568 352.846V356.082H253.518C252.709 354.094 250.514 352.87 247.556 352.87C243.766 352.87 241.224 354.88 241.224 357.953C241.224 361.05 243.766 363.037 247.556 363.037C250.56 363.037 252.779 361.789 253.564 359.733H256.568V363.06H260.474V352.846H256.568ZM247.556 359.895C246.054 359.895 245.107 359.132 245.107 357.953C245.107 356.775 246.054 356.012 247.556 356.012C249.058 356.012 250.006 356.775 250.006 357.953C250.006 359.132 249.058 359.895 247.556 359.895ZM256.638 365.048H246.886V363.754H243.05V372.581H260.474V363.754H256.638V365.048ZM246.886 369.484V368.075H256.638V369.484H246.886ZM282.332 353.078H264.677V363.361H282.332V353.078ZM278.473 359.802H268.537V356.659H278.473V359.802ZM283.488 365.001H263.522V368.606H271.494V373.043H275.515V368.606H283.488V365.001Z" fill="white"/>
<path d="M155.077 573.669V580.925H153.298V573.761H149.647V593.057H153.298V584.622H155.077V593.403H158.774V573.669H155.077ZM139.41 577.643H144.332V580.162C144.332 585.708 142.391 588.597 139.41 588.828V592.479C144.077 592.41 148.075 588.389 148.075 580.024V574.131H139.41V577.643ZM176.635 573.669V576.719H174.555V573.9H161.984V577.135H166.329C165.936 579.007 164.249 580.879 161.707 581.017V584.437C164.526 584.368 166.883 583.051 168.432 581.248L173.423 584.229L175.295 581.364L170.026 578.36C170.165 577.944 170.234 577.551 170.28 577.135H174.001V580.047H176.635V584.53H180.541V573.669H176.635ZM162.886 593.403H180.541V585.223H162.886V593.403ZM166.791 588.412H176.635V590.214H166.791V588.412ZM209.153 573.669H205.248V584.275H209.153V573.669ZM202.96 573.9H190.713V583.143H202.96V573.9ZM199.101 579.977H194.572V577.066H199.101V579.977ZM209.823 590.492L202.313 588.828L202.521 588.343H209.153V585.2H202.313V583.86H198.338V585.2H191.521V588.343H198.246C196.975 589.66 194.202 590.214 191.313 590.214V593.403C194.595 593.403 197.876 592.826 200.095 591.347L208.829 593.634L209.823 590.492ZM237.858 573.669H233.953V583.328H237.858V573.669ZM225.241 573.692C221.359 573.692 218.886 575.633 218.886 578.475C218.886 581.341 221.359 583.259 225.241 583.259C229.123 583.259 231.596 581.341 231.596 578.475C231.596 575.633 229.123 573.692 225.241 573.692ZM225.241 576.765C226.743 576.765 227.736 577.435 227.736 578.475C227.736 579.515 226.743 580.185 225.241 580.185C223.739 580.185 222.745 579.515 222.745 578.475C222.745 577.435 223.739 576.765 225.241 576.765ZM237.858 584.021H220.411V586.725H233.999V587.511H220.457V593.403H238.066V590.7H224.316V589.914H237.858V584.021ZM248.07 581.248L253.061 584.229L254.933 581.364L249.664 578.36C249.803 577.944 249.872 577.551 249.918 577.135H253.639V580.047H256.273V584.715H260.179V573.669H256.273V576.719H254.194V573.9H241.623V577.135H245.967C245.574 579.007 243.887 580.879 241.345 581.017V584.437C244.164 584.368 246.522 583.051 248.07 581.248ZM251.351 584.992C246.314 584.992 242.339 586.101 242.339 589.313C242.339 592.525 246.314 593.634 251.351 593.634C256.389 593.634 260.363 592.525 260.363 589.313C260.363 586.101 256.389 584.992 251.351 584.992ZM251.351 590.561C248.694 590.561 246.545 590.214 246.545 589.313C246.545 588.435 248.694 588.065 251.351 588.065C254.009 588.065 256.158 588.435 256.158 589.313C256.158 590.214 254.009 590.561 251.351 590.561ZM282.829 574.385H278.231V573.068H274.21V574.385H269.657V577.089H282.829V574.385ZM290.547 577.99H288.283V573.669H284.377V587.256H288.283V581.618H290.547V577.99ZM283.245 586.471V583.628C282.02 584.16 279.987 584.345 278.161 584.345V583.605C280.541 583.259 282.136 582.265 282.136 580.624C282.136 578.591 279.663 577.528 276.266 577.528C272.869 577.528 270.397 578.591 270.397 580.624C270.397 582.265 271.968 583.259 274.325 583.582V584.345H269.704V587.187H278.069C280.033 587.187 282.02 587.002 283.245 586.471ZM274.025 580.624C274.025 580.232 274.903 580.047 276.266 580.047C277.63 580.047 278.508 580.232 278.508 580.624C278.508 581.017 277.63 581.202 276.266 581.202C274.903 581.202 274.025 581.017 274.025 580.624ZM270.767 590.838H284.354V593.634H288.283V587.95H270.767V590.838ZM299.003 581.248L303.994 584.229L305.866 581.364L300.597 578.36C300.736 577.944 300.805 577.551 300.852 577.135H304.572V580.047H307.206V584.715H311.112V573.669H307.206V576.719H305.127V573.9H292.556V577.135H296.9C296.507 579.007 294.82 580.879 292.278 581.017V584.437C295.098 584.368 297.455 583.051 299.003 581.248ZM302.284 584.992C297.247 584.992 293.272 586.101 293.272 589.313C293.272 592.525 297.247 593.634 302.284 593.634C307.322 593.634 311.297 592.525 311.297 589.313C311.297 586.101 307.322 584.992 302.284 584.992ZM302.284 590.561C299.627 590.561 297.478 590.214 297.478 589.313C297.478 588.435 299.627 588.065 302.284 588.065C304.942 588.065 307.091 588.435 307.091 589.313C307.091 590.214 304.942 590.561 302.284 590.561Z" fill="white"/>
<path d="M650.102 589.059V586.286C654.493 585.731 657.335 583.328 657.335 580.047C657.335 576.303 653.615 573.692 648.115 573.692C642.615 573.692 638.895 576.303 638.895 580.047C638.895 583.328 641.737 585.731 646.128 586.286V589.059H638.132V592.71H658.098V589.059H650.102ZM643.031 580.047C643.031 578.337 645.111 577.204 648.115 577.204C651.119 577.204 653.199 578.337 653.199 580.047C653.199 581.734 651.119 582.889 648.115 582.889C645.111 582.889 643.031 581.734 643.031 580.047ZM679.309 579.469H676.305V576.742H679.101V573.669H661.585V576.742H664.381V579.469H661.377V582.542H679.309V579.469ZM668.287 576.742H672.4V579.469H668.287V576.742ZM660.361 583.721V586.933H680.326V583.721H660.361ZM665.491 587.834H661.516V593.403H679.402V590.191H665.491V587.834Z" fill="white"/>
<path d="M419.393 100.725C416.842 100.725 414.818 101.945 414.818 103.984C414.818 106.105 416.149 107.117 418.603 107.575C420.614 107.949 421.376 108.309 421.376 109.211C421.376 109.945 420.614 110.458 419.588 110.458C418.146 110.458 417.203 109.738 417.064 108.656H414.471C414.582 111.069 416.62 112.58 419.407 112.58C421.931 112.58 423.969 111.263 423.969 109.1C423.969 107.408 423.082 106.119 420.475 105.578C418.27 105.12 417.397 104.829 417.397 103.984C417.397 103.304 418.049 102.833 419.227 102.833C420.433 102.833 421.168 103.429 421.321 104.413H423.927C423.803 102.264 421.917 100.725 419.393 100.725ZM433.704 101.003H423.833V103.235H427.507V112.303H430.03V103.235H433.704V101.003ZM434.227 112.303H442.754V110.112H436.75V107.685H442.144V105.495H436.75V103.193H442.629V101.003H434.227V112.303ZM443.618 112.303H446.141V109.294H447.957C450.897 109.294 452.616 107.658 452.616 105.134C452.616 102.639 450.897 101.003 447.957 101.003H443.618V112.303ZM446.141 107.062V103.235H447.846C449.247 103.235 450.093 103.886 450.093 105.134C450.093 106.396 449.247 107.062 447.846 107.062H446.141ZM460.08 100.698C457.612 100.698 455.754 102.68 455.754 106.646C455.754 110.597 457.612 112.58 460.08 112.58C462.548 112.58 464.406 110.597 464.406 106.646C464.406 102.68 462.548 100.698 460.08 100.698ZM460.08 102.902C461.189 102.902 462.021 104.067 462.021 106.646C462.021 109.211 461.189 110.375 460.08 110.375C458.971 110.375 458.139 109.211 458.139 106.646C458.139 104.067 458.971 102.902 460.08 102.902ZM468.595 100.698C466.21 100.698 464.532 102.361 464.532 104.58H467.014C467.014 103.72 467.569 102.888 468.595 102.888C469.69 102.888 470.148 103.443 470.148 104.275C470.148 104.912 469.829 105.647 468.47 107.048L464.768 110.861V112.303H472.851V110.167H468.456L470.078 108.49C472.061 106.438 472.629 105.425 472.629 104.247C472.629 102.195 471.132 100.698 468.595 100.698Z" fill="white"/>
<path d="M635.393 100.725C632.842 100.725 630.818 101.945 630.818 103.984C630.818 106.105 632.149 107.117 634.603 107.575C636.614 107.949 637.376 108.309 637.376 109.211C637.376 109.945 636.614 110.458 635.588 110.458C634.146 110.458 633.203 109.738 633.064 108.656H630.471C630.582 111.069 632.62 112.58 635.407 112.58C637.931 112.58 639.969 111.263 639.969 109.1C639.969 107.408 639.082 106.119 636.475 105.578C634.27 105.12 633.397 104.829 633.397 103.984C633.397 103.304 634.049 102.833 635.227 102.833C636.433 102.833 637.168 103.429 637.321 104.413H639.927C639.803 102.264 637.917 100.725 635.393 100.725ZM649.704 101.003H639.833V103.235H643.507V112.303H646.03V103.235H649.704V101.003ZM650.227 112.303H658.754V110.112H652.75V107.685H658.144V105.495H652.75V103.193H658.629V101.003H650.227V112.303ZM659.618 112.303H662.141V109.294H663.957C666.897 109.294 668.616 107.658 668.616 105.134C668.616 102.639 666.897 101.003 663.957 101.003H659.618V112.303ZM662.141 107.062V103.235H663.846C665.247 103.235 666.093 103.886 666.093 105.134C666.093 106.396 665.247 107.062 663.846 107.062H662.141ZM676.08 100.698C673.612 100.698 671.754 102.68 671.754 106.646C671.754 110.597 673.612 112.58 676.08 112.58C678.548 112.58 680.406 110.597 680.406 106.646C680.406 102.68 678.548 100.698 676.08 100.698ZM676.08 102.902C677.189 102.902 678.021 104.067 678.021 106.646C678.021 109.211 677.189 110.375 676.08 110.375C674.971 110.375 674.139 109.211 674.139 106.646C674.139 104.067 674.971 102.902 676.08 102.902ZM684.65 100.698C682.335 100.698 680.712 102.25 680.712 104.399H683.194C683.194 103.595 683.652 102.805 684.636 102.805C685.579 102.805 686.134 103.318 686.134 104.15C686.134 105.01 685.524 105.564 684.498 105.564H683.375V107.616H684.498C685.676 107.616 686.466 108.115 686.466 109.058C686.466 109.89 685.773 110.458 684.733 110.458C683.68 110.458 683.111 109.918 683.014 109.017H680.532C680.712 111.193 682.252 112.58 684.733 112.58C687.077 112.58 688.921 111.221 688.921 109.044C688.921 107.588 687.756 106.687 686.716 106.521C687.659 106.354 688.616 105.398 688.616 104.094C688.616 102.07 686.993 100.698 684.65 100.698Z" fill="white"/>
<path d="M201.393 324.725C198.842 324.725 196.818 325.945 196.818 327.984C196.818 330.105 198.149 331.117 200.603 331.575C202.614 331.949 203.376 332.309 203.376 333.211C203.376 333.945 202.614 334.458 201.588 334.458C200.146 334.458 199.203 333.738 199.064 332.656H196.471C196.582 335.069 198.62 336.58 201.407 336.58C203.931 336.58 205.969 335.263 205.969 333.1C205.969 331.408 205.082 330.119 202.475 329.578C200.27 329.12 199.397 328.829 199.397 327.984C199.397 327.304 200.049 326.833 201.227 326.833C202.433 326.833 203.168 327.429 203.321 328.413H205.927C205.803 326.264 203.917 324.725 201.393 324.725ZM215.704 325.003H205.833V327.235H209.507V336.303H212.03V327.235H215.704V325.003ZM216.227 336.303H224.754V334.112H218.75V331.685H224.144V329.495H218.75V327.193H224.629V325.003H216.227V336.303ZM225.618 336.303H228.141V333.294H229.957C232.897 333.294 234.616 331.658 234.616 329.134C234.616 326.639 232.897 325.003 229.957 325.003H225.618V336.303ZM228.141 331.062V327.235H229.846C231.247 327.235 232.093 327.886 232.093 329.134C232.093 330.396 231.247 331.062 229.846 331.062H228.141ZM242.08 324.698C239.612 324.698 237.754 326.68 237.754 330.646C237.754 334.597 239.612 336.58 242.08 336.58C244.548 336.58 246.406 334.597 246.406 330.646C246.406 326.68 244.548 324.698 242.08 324.698ZM242.08 326.902C243.189 326.902 244.021 328.067 244.021 330.646C244.021 333.211 243.189 334.375 242.08 334.375C240.971 334.375 240.139 333.211 240.139 330.646C240.139 328.067 240.971 326.902 242.08 326.902ZM250.858 336.566C253.229 336.566 255.142 334.916 255.142 332.601C255.142 330.313 253.326 328.774 251.122 328.774C250.997 328.774 250.872 328.802 250.803 328.829L253.368 325.003H250.511L247.6 329.62C246.934 330.673 246.574 331.519 246.574 332.614C246.574 335.027 248.501 336.566 250.858 336.566ZM250.858 334.431C249.735 334.431 249.028 333.64 249.028 332.628C249.028 331.616 249.735 330.826 250.858 330.826C251.981 330.826 252.688 331.616 252.688 332.628C252.688 333.64 251.981 334.431 250.858 334.431Z" fill="white"/>
<path d="M201.393 545.671C198.842 545.671 196.818 546.891 196.818 548.929C196.818 551.05 198.149 552.062 200.603 552.52C202.614 552.894 203.376 553.255 203.376 554.156C203.376 554.891 202.614 555.404 201.588 555.404C200.146 555.404 199.203 554.683 199.064 553.601H196.471C196.582 556.014 198.62 557.525 201.407 557.525C203.931 557.525 205.969 556.208 205.969 554.045C205.969 552.354 205.082 551.064 202.475 550.523C200.27 550.066 199.397 549.775 199.397 548.929C199.397 548.249 200.049 547.778 201.227 547.778C202.433 547.778 203.168 548.374 203.321 549.359H205.927C205.803 547.21 203.917 545.671 201.393 545.671ZM215.704 545.948H205.833V548.18H209.507V557.248H212.03V548.18H215.704V545.948ZM216.227 557.248H224.754V555.057H218.75V552.631H224.144V550.44H218.75V548.139H224.629V545.948H216.227V557.248ZM225.618 557.248H228.141V554.239H229.957C232.897 554.239 234.616 552.603 234.616 550.08C234.616 547.584 232.897 545.948 229.957 545.948H225.618V557.248ZM228.141 552.007V548.18H229.846C231.247 548.18 232.093 548.832 232.093 550.08C232.093 551.341 231.247 552.007 229.846 552.007H228.141ZM242.08 545.643C239.612 545.643 237.754 547.626 237.754 551.591C237.754 555.542 239.612 557.525 242.08 557.525C244.548 557.525 246.406 555.542 246.406 551.591C246.406 547.626 244.548 545.643 242.08 545.643ZM242.08 547.847C243.189 547.847 244.021 549.012 244.021 551.591C244.021 554.156 243.189 555.321 242.08 555.321C240.971 555.321 240.139 554.156 240.139 551.591C240.139 549.012 240.971 547.847 242.08 547.847ZM254.082 545.948H246.318V548.139H251.143L247.247 557.248H249.881L254.082 547.445V545.948Z" fill="white"/>
<path d="M635.393 545.671C632.842 545.671 630.818 546.891 630.818 548.929C630.818 551.05 632.149 552.062 634.603 552.52C636.614 552.894 637.376 553.255 637.376 554.156C637.376 554.891 636.614 555.404 635.588 555.404C634.146 555.404 633.203 554.683 633.064 553.601H630.471C630.582 556.014 632.62 557.525 635.407 557.525C637.931 557.525 639.969 556.208 639.969 554.045C639.969 552.354 639.082 551.064 636.475 550.523C634.27 550.066 633.397 549.775 633.397 548.929C633.397 548.249 634.049 547.778 635.227 547.778C636.433 547.778 637.168 548.374 637.321 549.359H639.927C639.803 547.21 637.917 545.671 635.393 545.671ZM649.704 545.948H639.833V548.18H643.507V557.248H646.03V548.18H649.704V545.948ZM650.227 557.248H658.754V555.057H652.75V552.631H658.144V550.44H652.75V548.139H658.629V545.948H650.227V557.248ZM659.618 557.248H662.141V554.239H663.957C666.897 554.239 668.616 552.603 668.616 550.08C668.616 547.584 666.897 545.948 663.957 545.948H659.618V557.248ZM662.141 552.007V548.18H663.846C665.247 548.18 666.093 548.832 666.093 550.08C666.093 551.341 665.247 552.007 663.846 552.007H662.141ZM676.08 545.643C673.612 545.643 671.754 547.626 671.754 551.591C671.754 555.542 673.612 557.525 676.08 557.525C678.548 557.525 680.406 555.542 680.406 551.591C680.406 547.626 678.548 545.643 676.08 545.643ZM676.08 547.847C677.189 547.847 678.021 549.012 678.021 551.591C678.021 554.156 677.189 555.321 676.08 555.321C674.971 555.321 674.139 554.156 674.139 551.591C674.139 549.012 674.971 547.847 676.08 547.847ZM682.168 557.248H685.025L687.936 552.631C688.602 551.577 688.962 550.731 688.962 549.636C688.962 547.223 687.035 545.684 684.678 545.684C682.321 545.684 680.394 547.237 680.394 549.65C680.394 551.938 682.21 553.477 684.414 553.477C684.539 553.477 684.664 553.449 684.733 553.421L682.168 557.248ZM684.678 551.425C683.555 551.425 682.848 550.634 682.848 549.622C682.848 548.61 683.555 547.82 684.678 547.82C685.801 547.82 686.508 548.61 686.508 549.622C686.508 550.634 685.801 551.425 684.678 551.425Z" fill="white"/>
<path d="M2 75H861.892C874.654 75 885 85.346 885 98.1084V275.517C885 288.279 874.654 298.625 861.892 298.625H25.1083C12.3459 298.625 2 308.971 2 321.734V499.142C2 511.904 12.0776 522.25 24.84 522.25C135.339 522.25 611.207 522.25 661.5 522.25" stroke="white" stroke-width="2.31084"/>
<circle cx="9.24334" cy="75.2433" r="9.24334" fill="white"/>
<circle cx="9.24501" cy="75.2431" r="6.93251" fill="black"/>
<circle cx="226.243" cy="75.2433" r="9.24334" fill="white"/>
<circle cx="226.245" cy="75.2431" r="6.93251" fill="black"/>
<circle cx="660.243" cy="522.243" r="9.24334" fill="white"/>
<circle cx="660.245" cy="522.243" r="6.93251" fill="black"/>
<circle cx="660.243" cy="298.243" r="9.24334" fill="white"/>
<circle cx="660.245" cy="298.243" r="6.93251" fill="black"/>
<circle cx="443.243" cy="300.243" r="9.24334" fill="white"/>
<circle cx="443.245" cy="300.243" r="6.93251" fill="black"/>
<circle cx="443.243" cy="522.243" r="9.24334" fill="white"/>
<circle cx="443.245" cy="522.243" r="6.93251" fill="black"/>
<circle cx="443.243" cy="75.2433" r="9.24334" fill="white"/>
<circle cx="443.245" cy="75.2431" r="6.93251" fill="black"/>
<circle cx="660.243" cy="75.2433" r="9.24334" fill="white"/>
<circle cx="660.245" cy="75.2431" r="6.93251" fill="black"/>
<circle cx="226.243" cy="299.243" r="9.24334" fill="white"/>
<circle cx="226.245" cy="299.243" r="6.93251" fill="black"/>
<circle cx="226.243" cy="522.243" r="9.24334" fill="white"/>
<circle cx="226.245" cy="522.243" r="6.93251" fill="black"/>
<path d="M210.074 219C212.925 219 215.259 221.333 215.259 224.185C215.259 227.037 212.925 229.37 210.074 229.37C207.222 229.37 204.889 227.037 204.889 224.185C204.889 221.333 207.222 219 210.074 219Z" fill="white"/>
<path d="M213.988 231.962H206.185C203.333 231.962 201 234.296 201 237.147V250.758C201 251.832 201.871 252.702 202.944 252.702V252.702C204.018 252.702 204.889 253.573 204.889 254.646V265.849C204.889 268.611 207.127 270.849 209.889 270.849H210.259C213.02 270.849 215.259 268.611 215.259 265.849V252.702V237.471V237.471C215.259 237.292 215.404 237.147 215.583 237.147H226.925C228.356 237.147 229.517 235.987 229.517 234.555V234.555V234.555C229.517 233.123 228.356 231.962 226.925 231.962H213.988Z" fill="white"/>
<path d="M233.408 233.258C243.233 234.233 250.907 242.523 250.907 252.605C250.907 263.344 242.202 272.049 231.463 272.049C227.373 272.049 223.577 270.786 220.445 268.628" stroke="white" stroke-width="3"/>
<path d="M223.665 250.539L223.491 250.372L223.317 250.539L221.565 252.232L221.378 252.412L221.565 252.592L228.576 259.363L228.75 259.531L228.923 259.363L243.948 244.853L244.134 244.673L243.948 244.493L242.195 242.801L242.021 242.633L241.848 242.801L228.75 255.45L223.665 250.539Z" fill="white" stroke="white" stroke-width="0.5"/>
<path d="M663 235.484V223H644.25C643.003 223 642 223.982 642 225.203V267.797C642 269.018 643.003 270 644.25 270H675.75C676.997 270 678 269.018 678 267.797V237.688H665.25C664.013 237.688 663 236.696 663 235.484ZM669 257.148C669 257.754 668.494 258.25 667.875 258.25H652.125C651.506 258.25 651 257.754 651 257.148V256.414C651 255.808 651.506 255.312 652.125 255.312H667.875C668.494 255.312 669 255.808 669 256.414V257.148ZM669 251.273C669 251.879 668.494 252.375 667.875 252.375H652.125C651.506 252.375 651 251.879 651 251.273V250.539C651 249.933 651.506 249.438 652.125 249.438H667.875C668.494 249.438 669 249.933 669 250.539V251.273ZM669 244.664V245.398C669 246.004 668.494 246.5 667.875 246.5H652.125C651.506 246.5 651 246.004 651 245.398V244.664C651 244.058 651.506 243.562 652.125 243.562H667.875C668.494 243.562 669 244.058 669 244.664ZM678 234.19V234.75H666V223H666.572C667.172 223 667.744 223.229 668.166 223.643L677.344 232.639C677.766 233.052 678 233.612 678 234.19Z" fill="white"/>
<path d="M461.889 0H426.111C423.3 0 421 2.35 421 5.22222V41.7778C421 44.65 423.3 47 426.111 47H461.889C464.7 47 467 44.65 467 41.7778V5.22222C467 2.35 464.7 0 461.889 0ZM436.333 36.5556H431.222V18.2778H436.333V36.5556ZM446.556 36.5556H441.444V10.4444H446.556V36.5556ZM456.778 36.5556H451.667V26.1111H456.778V36.5556Z" fill="white"/>
<path d="M217.667 463.4H212.444V468.6H217.667V463.4ZM228.111 463.4H222.889V468.6H228.111V463.4ZM238.556 463.4H233.333V468.6H238.556V463.4ZM243.778 445.2H241.167V440H235.944V445.2H215.056V440H209.833V445.2H207.222C204.324 445.2 202.026 447.54 202.026 450.4L202 486.8C202 489.66 204.324 492 207.222 492H243.778C246.65 492 249 489.66 249 486.8V450.4C249 447.54 246.65 445.2 243.778 445.2ZM243.778 486.8H207.222V458.2H243.778V486.8Z" fill="white"/>
<path d="M681.778 443H640V468.556C640 474.203 644.674 478.778 650.444 478.778H666.111C671.882 478.778 676.556 474.203 676.556 468.556V460.889H681.778C684.676 460.889 687 458.589 687 455.778V448.111C687 445.274 684.676 443 681.778 443ZM681.778 455.778H676.556V448.111H681.778V455.778ZM640 483.889H681.778V489H640V483.889Z" fill="white"/>
<path d="M469.993 264.513L456.253 250.772H453.686L447.102 257.357V259.924L460.842 273.664C461.853 274.675 463.486 274.675 464.497 273.664L469.993 268.168C471.004 267.183 471.004 265.524 469.993 264.513Z" fill="white"/>
<path d="M458.769 243.825L462.424 240.169L467.92 245.665C470.953 242.632 470.953 237.707 467.92 234.673L458.743 225.496L455.087 229.151V221.841L453.272 220L444.095 229.177L445.936 231.018H453.272L449.617 234.673L452.365 237.421L444.873 244.914L434.166 234.207V230.525L426.337 222.696L419 230.033L426.855 237.888H430.511L441.217 248.595L439.014 250.799H433.518L419.778 264.539C418.767 265.55 418.767 267.183 419.778 268.194L425.274 273.69C426.285 274.701 427.918 274.701 428.929 273.69L442.669 259.95V254.454L456.02 241.103L458.769 243.825Z" fill="white"/>
<path d="M685.576 15.2697L682.854 3.94056C682.284 1.60733 680.262 0 677.903 0H641.893C639.56 0 637.512 1.63326 636.967 3.94056L634.245 15.2697C633.623 17.914 634.193 20.6101 635.853 22.736C636.06 23.0211 636.345 23.2285 636.579 23.4878V41.4795C636.579 44.3313 638.912 46.6645 641.764 46.6645H678.058C680.91 46.6645 683.243 44.3313 683.243 41.4795V23.4878C683.476 23.2545 683.762 23.0211 683.969 22.7619C685.628 20.6361 686.224 17.914 685.576 15.2697ZM677.825 5.15902L680.547 16.4881C680.806 17.577 680.573 18.6658 679.899 19.5213C679.536 19.988 678.758 20.7398 677.462 20.7398C675.88 20.7398 674.506 19.4695 674.325 17.7844L672.821 5.18494L677.825 5.15902ZM662.503 5.18494H667.585L668.984 16.9029C669.114 17.914 668.803 18.925 668.129 19.6769C667.559 20.3509 666.729 20.7398 665.666 20.7398C663.929 20.7398 662.503 19.2102 662.503 17.3436V5.18494ZM650.811 16.9029L652.237 5.18494H657.318V17.3436C657.318 19.2102 655.892 20.7398 653.974 20.7398C653.093 20.7398 652.289 20.3509 651.667 19.6769C651.019 18.925 650.708 17.914 650.811 16.9029ZM639.275 16.4881L641.893 5.18494H647L645.497 17.7844C645.289 19.4695 643.941 20.7398 642.36 20.7398C641.089 20.7398 640.286 19.988 639.949 19.5213C639.249 18.6917 639.015 17.577 639.275 16.4881ZM641.764 41.4795V25.8469C641.971 25.8729 642.152 25.9247 642.36 25.9247C644.615 25.9247 646.663 24.9914 648.167 23.4619C649.722 25.0173 651.796 25.9247 654.156 25.9247C656.411 25.9247 658.433 24.9914 659.937 23.5137C661.466 24.9914 663.54 25.9247 665.873 25.9247C668.051 25.9247 670.125 25.0173 671.681 23.4619C673.184 24.9914 675.232 25.9247 677.488 25.9247C677.695 25.9247 677.877 25.8729 678.084 25.8469V41.4795H641.764Z" fill="white"/>
<path d="M225.89 24.6102C230.358 24.6102 234.305 25.6791 237.512 27.077C240.472 28.3926 242.336 31.3527 242.336 34.5595V38.9997H209.445V34.5869C209.445 31.3527 211.309 28.3926 214.269 27.1044C217.476 25.6791 221.423 24.6102 225.89 24.6102ZM203.963 25.2954C206.978 25.2954 209.445 22.8286 209.445 19.8137C209.445 16.7987 206.978 14.332 203.963 14.332C200.948 14.332 198.482 16.7987 198.482 19.8137C198.482 22.8286 200.948 25.2954 203.963 25.2954ZM207.061 28.3104C206.047 28.1459 205.032 28.0363 203.963 28.0363C201.25 28.0363 198.674 28.6119 196.344 29.626C194.316 30.503 193 32.4765 193 34.6966V38.9997H205.334V34.5869C205.334 32.312 205.964 30.1741 207.061 28.3104ZM247.817 25.2954C250.832 25.2954 253.299 22.8286 253.299 19.8137C253.299 16.7987 250.832 14.332 247.817 14.332C244.802 14.332 242.336 16.7987 242.336 19.8137C242.336 22.8286 244.802 25.2954 247.817 25.2954ZM258.781 34.6966C258.781 32.4765 257.465 30.503 255.437 29.626C253.107 28.6119 250.531 28.0363 247.817 28.0363C246.748 28.0363 245.734 28.1459 244.72 28.3104C245.816 30.1741 246.447 32.312 246.447 34.5869V38.9997H258.781V34.6966ZM225.89 6.10938C230.44 6.10938 234.113 9.78213 234.113 14.332C234.113 18.8818 230.44 22.5545 225.89 22.5545C221.341 22.5545 217.668 18.8818 217.668 14.332C217.668 9.78213 221.341 6.10938 225.89 6.10938Z" fill="white"/>
<path d="M431.674 458.259C428.811 458.259 426.489 455.937 426.489 453.074C426.489 450.21 428.811 447.889 431.674 447.889C434.538 447.889 436.859 450.21 436.859 453.074C436.859 455.937 434.538 458.259 431.674 458.259Z" fill="white"/>
<path d="M421.59 463.729C422.601 462.718 424.338 460.851 427.708 460.851C428.252 460.851 431.389 460.851 434.293 460.851C441.422 460.825 447.229 455.018 447.229 447.889H452.414C452.414 456.081 446.944 463.029 439.452 465.284V499.738H434.267V484.183H429.082V499.738H423.897V468.758L413.657 478.998L410.001 475.343L421.59 463.729Z" fill="white"/>
<mask id="path-53-inside-1_174_191" fill="white">
<rect x="441.754" y="444" width="34.9984" height="34.3502" rx="2"/>
</mask>
<rect x="441.754" y="444" width="34.9984" height="34.3502" rx="2" stroke="white" stroke-width="6" mask="url(#path-53-inside-1_174_191)"/>
<path d="M452.125 489.367L459.443 478.353C459.645 478.049 460.095 478.057 460.286 478.369L467.032 489.367" stroke="white" stroke-width="3"/>
<line x1="455" y1="469.5" x2="472" y2="469.5" stroke="white" stroke-width="3"/>
<line x1="452" y1="458.5" x2="472" y2="458.5" stroke="white" stroke-width="3"/>
<line x1="454" y1="452.5" x2="472" y2="452.5" stroke="white" stroke-width="3"/>
<line x1="447" y1="463.5" x2="472" y2="463.5" stroke="white" stroke-width="3"/>
<line x1="447" y1="469.5" x2="454" y2="469.5" stroke="white" stroke-width="3"/>
</svg>
