<svg width="660" height="724" viewBox="0 0 660 724" fill="none" xmlns="http://www.w3.org/2000/svg">
<circle cx="240" cy="23" r="8.93749" stroke="#4BBCD4" stroke-width="4.125"/>
<path d="M289.809 18.2531L298.472 23.4094L300.087 20.8313L291.15 15.6406C291.493 14.7469 291.734 13.7844 291.872 12.8219H299.572V9.96876H291.906V6.70314H288.468V9.96876H280.7V12.8219H288.4C287.712 17.0156 284.859 20.1781 280.39 20.8313V23.7875C284.481 23.3406 287.781 21.2438 289.809 18.2531ZM306.55 13.7156V7.21876H303.147V24.6469H306.55V16.9813H310.675V13.7156H306.55ZM294.415 25.5063C287.403 25.5063 281.834 26.95 281.834 31.0406C281.834 35.1312 287.403 36.575 294.415 36.575C301.462 36.575 306.997 35.1312 306.997 31.0406C306.997 26.95 301.462 25.5063 294.415 25.5063ZM294.415 33.8594C289.397 33.8594 285.443 33.0687 285.443 31.0406C285.443 29.0125 289.397 28.2219 294.415 28.2219C299.434 28.2219 303.387 29.0125 303.387 31.0406C303.387 33.0687 299.434 33.8594 294.415 33.8594ZM335.215 7.21876V13.0969H329.165C328.34 9.76251 325.075 7.56251 320.331 7.56251C314.762 7.56251 311.256 10.5531 311.256 14.8156C311.256 19.0781 314.762 22.0688 320.331 22.0688C325.212 22.0688 328.512 19.7313 329.234 16.2594H335.215V22.275H338.619V7.21876H335.215ZM320.331 19.25C316.962 19.25 314.659 17.5656 314.659 14.8156C314.659 12.0656 316.962 10.3813 320.331 10.3813C323.7 10.3813 325.969 12.0656 325.969 14.8156C325.969 17.5656 323.7 19.25 320.331 19.25ZM335.25 26.9844H317.306V23.8906H313.972V36.1969H338.619V23.8906H335.25V26.9844ZM317.306 33.4125V29.7H335.25V33.4125H317.306ZM365.978 7.21876V36.575H369.381V7.21876H365.978ZM356.937 18.1844H347.038V8.07814H343.669V34.8219H360.306V8.07814H356.937V18.1844ZM347.038 31.6938V21.3125H356.937V31.6938H347.038ZM395.847 20.9688V17.2906C398.735 16.4313 400.591 14.9188 400.591 12.65C400.591 8.66251 394.747 7.04689 387.631 7.04689C380.516 7.04689 374.672 8.66251 374.672 12.65C374.672 14.9188 376.528 16.4313 379.416 17.2906V20.9688H372.988V23.7188H402.31V20.9688H395.847ZM378.281 12.65C378.281 10.6219 382.51 9.72814 387.631 9.72814C392.753 9.72814 396.981 10.6219 396.981 12.65C396.981 14.7125 392.753 15.6063 387.631 15.6063C382.51 15.6063 378.281 14.7125 378.281 12.65ZM382.785 18.0125C384.297 18.1844 385.913 18.2875 387.631 18.2875C389.35 18.2875 390.966 18.1844 392.478 18.0125V20.9688H382.785V18.0125ZM387.631 25.9875C380.619 25.9875 374.741 27.2594 374.741 31.2813C374.741 35.3031 380.619 36.6437 387.631 36.6437C394.644 36.6437 400.522 35.3031 400.522 31.2813C400.522 27.2594 394.644 25.9875 387.631 25.9875ZM387.631 33.9625C382.888 33.9625 378.35 33.3094 378.35 31.2813C378.35 29.2875 382.888 28.6688 387.631 28.6688C392.375 28.6688 396.947 29.2875 396.947 31.2813C396.947 33.3094 392.375 33.9625 387.631 33.9625Z" fill="white"/>
<rect y="147" width="660" height="65" fill="black"/>
<rect y="536" width="330" height="65" fill="black"/>
<line y1="212.313" x2="660" y2="212.312" stroke="#EEEEEE" stroke-width="1.375"/>
<line y1="277.313" x2="660" y2="277.312" stroke="#D9D9D9" stroke-width="1.375"/>
<line y1="341.313" x2="660" y2="341.312" stroke="#D9D9D9" stroke-width="1.375"/>
<line y1="406.313" x2="660" y2="406.312" stroke="#D9D9D9" stroke-width="1.375"/>
<line y1="471.313" x2="660" y2="471.312" stroke="#D9D9D9" stroke-width="1.375"/>
<line y1="535.313" x2="660" y2="535.312" stroke="#D9D9D9" stroke-width="1.375"/>
<line y1="600.313" x2="660" y2="600.312" stroke="#D9D9D9" stroke-width="1.375"/>
<line y1="145.625" x2="660" y2="145.625" stroke="white" stroke-width="2.75"/>
<path d="M130.678 176.437L136.222 179.737L137.256 178.087L131.536 174.765C131.756 174.193 131.91 173.577 131.998 172.961H136.926V171.135H132.02V169.045H129.82V171.135H124.848V172.961H129.776C129.336 175.645 127.51 177.669 124.65 178.087V179.979C127.268 179.693 129.38 178.351 130.678 176.437ZM141.392 173.533V169.375H139.214V180.529H141.392V175.623H144.032V173.533H141.392ZM133.626 181.079C129.138 181.079 125.574 182.003 125.574 184.621C125.574 187.239 129.138 188.163 133.626 188.163C138.136 188.163 141.678 187.239 141.678 184.621C141.678 182.003 138.136 181.079 133.626 181.079ZM133.626 186.425C130.414 186.425 127.884 185.919 127.884 184.621C127.884 183.323 130.414 182.817 133.626 182.817C136.838 182.817 139.368 183.323 139.368 184.621C139.368 185.919 136.838 186.425 133.626 186.425ZM161.058 169.375V173.137H157.186C156.658 171.003 154.568 169.595 151.532 169.595C147.968 169.595 145.724 171.509 145.724 174.237C145.724 176.965 147.968 178.879 151.532 178.879C154.656 178.879 156.768 177.383 157.23 175.161H161.058V179.011H163.236V169.375H161.058ZM151.532 177.075C149.376 177.075 147.902 175.997 147.902 174.237C147.902 172.477 149.376 171.399 151.532 171.399C153.688 171.399 155.14 172.477 155.14 174.237C155.14 175.997 153.688 177.075 151.532 177.075ZM161.08 182.025H149.596V180.045H147.462V187.921H163.236V180.045H161.08V182.025ZM149.596 186.139V183.763H161.08V186.139H149.596ZM181.868 178.395H184.134V169.815H167.942V171.861H181.868V178.395ZM185.476 179.957H166.71V182.025H174.85V188.603H177.094V182.025H185.476V179.957ZM205.274 169.485H203.14V171.751H191.37V169.485H189.214V177.493H205.274V169.485ZM191.37 175.755V173.423H203.14V175.755H191.37ZM187.872 179.341V181.189H196.144V184.115H198.344V181.189H206.638V179.341H187.872ZM191.392 182.883H189.17V187.943H205.67V186.095H191.392V182.883Z" fill="white"/>
<path d="M160.904 234.375V244.143H163.082V234.375H160.904ZM152.302 240.447L158 243.769L159.034 242.141L153.138 238.775C153.38 238.137 153.534 237.433 153.578 236.707H158.418V234.859H146.252V236.707H151.378C151.092 239.523 149.112 241.591 146.01 242.009V243.945C148.782 243.681 150.982 242.383 152.302 240.447ZM160.948 247.047H149.288V244.957H147.154V252.921H163.082V244.957H160.948V247.047ZM149.288 251.139V248.807H160.948V251.139H149.288ZM182.066 253.163H184.244V234.375H182.066V253.163ZM167.59 251.997C174.014 251.997 178.018 247.113 178.018 239.589V235.057H167.59V237.059H175.796V239.633C175.796 245.925 172.716 249.907 167.59 249.929V251.997Z" fill="white"/>
<path d="M472.072 252.326H474.382V234.704H468.42V236.728H472.072V252.326ZM484.615 252.722C488.289 252.722 490.841 250.654 490.841 247.706C490.841 245.044 488.751 243.57 487.145 243.196C488.509 242.778 490.225 241.348 490.225 239.104C490.225 236.486 487.959 234.286 484.615 234.286C481.249 234.286 478.983 236.464 478.983 239.104C478.983 241.348 480.699 242.778 482.063 243.196C480.479 243.57 478.367 245.044 478.367 247.706C478.367 250.654 480.919 252.722 484.615 252.722ZM484.615 242.162C482.613 242.162 481.205 240.82 481.205 239.126C481.205 237.498 482.547 236.222 484.615 236.222C486.683 236.222 488.025 237.542 488.025 239.17C488.025 240.842 486.617 242.162 484.615 242.162ZM484.615 250.786C482.173 250.786 480.611 249.4 480.611 247.574C480.611 245.726 482.305 244.296 484.615 244.296C486.903 244.296 488.597 245.726 488.597 247.574C488.597 249.4 487.035 250.786 484.615 250.786ZM499.008 252.722C502.704 252.722 505.234 250.192 505.234 246.694C505.234 243.174 502.77 240.776 499.426 240.776C497.402 240.776 496.104 241.656 495.444 242.47L495.752 236.706H504.332V234.704H493.64L493.134 244.846H495.4C495.994 243.746 497.116 242.756 499.052 242.756C501.384 242.756 502.968 244.428 502.968 246.694C502.968 249.004 501.45 250.72 499.008 250.72C496.522 250.72 495.136 249.246 495.07 247.354H492.782C492.914 250.412 495.202 252.722 499.008 252.722ZM513.95 252.722C517.646 252.722 520.44 249.664 520.44 243.504C520.44 237.344 517.646 234.286 513.95 234.286C510.232 234.286 507.438 237.344 507.438 243.504C507.438 249.664 510.232 252.722 513.95 252.722ZM513.95 250.676C511.552 250.676 509.66 248.3 509.66 243.504C509.66 238.73 511.552 236.332 513.95 236.332C516.326 236.332 518.218 238.73 518.218 243.504C518.218 248.3 516.326 250.676 513.95 250.676Z" fill="white"/>
<path d="M529.87 121.826H532.18V104.204H526.218V106.228H529.87V121.826ZM541.709 122.222C545.405 122.222 548.199 119.164 548.199 113.004C548.199 106.844 545.405 103.786 541.709 103.786C537.991 103.786 535.197 106.844 535.197 113.004C535.197 119.164 537.991 122.222 541.709 122.222ZM541.709 120.176C539.311 120.176 537.419 117.8 537.419 113.004C537.419 108.23 539.311 105.832 541.709 105.832C544.085 105.832 545.977 108.23 545.977 113.004C545.977 117.8 544.085 120.176 541.709 120.176ZM564.971 114.346H567.127V103.5H564.971V105.546H562.199V107.328H564.971V109.396H562.199V111.2H564.971V114.346ZM562.111 112.806V111.024C561.429 111.266 560.527 111.442 559.427 111.574V105.766H561.605V103.962H549.637V105.766H551.771V111.706H549.571V113.51H556.039C558.767 113.51 560.923 113.224 562.111 112.806ZM553.861 105.766H557.337V111.684C556.963 111.706 556.589 111.706 556.193 111.706H553.861V105.766ZM559.163 114.94C554.609 114.94 551.045 115.952 551.045 118.614C551.045 121.276 554.609 122.288 559.163 122.288C563.717 122.288 567.281 121.276 567.281 118.614C567.281 115.952 563.717 114.94 559.163 114.94ZM559.163 120.528C555.929 120.528 553.377 119.934 553.377 118.614C553.377 117.294 555.929 116.7 559.163 116.7C562.397 116.7 564.949 117.294 564.949 118.614C564.949 119.934 562.397 120.528 559.163 120.528ZM589.923 122.288H592.101V103.5H589.923V122.288ZM575.447 121.122C581.871 121.122 585.875 116.238 585.875 108.714V104.182H575.447V106.184H583.653V108.758C583.653 115.05 580.573 119.032 575.447 119.054V121.122ZM611.944 111.684L612.604 109.946L604.838 107.306C605.124 106.778 605.344 106.206 605.432 105.568H612.098V103.72H595.906V105.568H603.232C602.594 108.23 598.854 109.66 595.598 109.748V111.596C598.59 111.53 601.714 110.606 603.65 108.802L611.944 111.684ZM594.63 113.136V114.984H602.902V118.218H605.102V114.984H613.396V113.136H594.63ZM598.15 116.722H595.928V122.068H612.428V120.198H598.15V116.722ZM634.938 110.034H637.138V103.72H621.012V105.568H634.938V110.034ZM619.758 112.982H638.524V111.156H619.758V112.982ZM621.056 122.068H637.204V114.896H621.056V122.068ZM623.234 120.286V116.678H635.048V120.286H623.234ZM655.814 103.5V107.812H652.756V103.61H650.688V114.874H652.756V109.858H655.814V115.072H657.882V103.5H655.814ZM644.462 114.588C647.278 114.588 648.796 112.432 648.796 109.11C648.796 105.788 647.278 103.654 644.462 103.654C641.646 103.654 640.106 105.788 640.106 109.11C640.106 112.432 641.646 114.588 644.462 114.588ZM644.462 105.48C645.936 105.48 646.75 106.756 646.75 109.11C646.75 111.442 645.936 112.762 644.462 112.762C642.966 112.762 642.152 111.442 642.152 109.11C642.152 106.756 642.966 105.48 644.462 105.48ZM641.514 117.976H655.726V122.288H657.882V116.106H641.514V117.976Z" fill="white"/>
<path d="M139.742 313.323H141.92V299.375H139.742V313.323ZM130.524 310.485C134.198 310.485 136.464 308.175 136.464 305.029C136.464 301.883 134.198 299.573 130.524 299.573C126.85 299.573 124.562 301.883 124.562 305.029C124.562 308.175 126.85 310.485 130.524 310.485ZM130.524 308.637C128.28 308.637 126.74 307.251 126.74 305.029C126.74 302.807 128.28 301.399 130.524 301.399C132.746 301.399 134.286 302.807 134.286 305.029C134.286 307.251 132.746 308.637 130.524 308.637ZM126.212 317.921H142.426V315.941H128.434V311.783H126.212V317.921ZM161.542 299.375V318.163H163.61V299.375H161.542ZM157.01 307.207H154.414V309.209H157.01V317.833H159.078V299.485H157.01V307.207ZM148.21 315.105V309.363H153.424V307.427H148.21V301.993H154.348V300.057H146.12V317.041H149.728C152.038 317.041 154.04 316.755 155.272 316.205V314.247C153.886 314.841 152.104 315.105 149.838 315.105H148.21ZM182.066 318.163H184.244V299.375H182.066V318.163ZM167.788 317.041H175.4C177.226 317.041 179.184 316.711 180.328 316.139V314.137C179.184 314.687 177.248 315.039 175.466 315.039H169.966V309.407H178.37V300.057H167.744V302.059H176.192V307.405H167.788V317.041ZM203.382 299.375V307.163H199.73C199.4 302.147 197.2 299.815 194.186 299.815C190.886 299.815 188.576 302.587 188.576 308.549C188.576 314.511 190.886 317.283 194.186 317.283C197.332 317.283 199.598 314.709 199.774 309.209H203.382V318.163H205.56V299.375H203.382ZM194.186 315.281C192.228 315.281 190.754 313.323 190.754 308.549C190.754 303.797 192.228 301.817 194.186 301.817C196.122 301.817 197.596 303.797 197.596 308.549C197.596 313.323 196.122 315.281 194.186 315.281Z" fill="white"/>
<path d="M471.674 316.951H473.984V299.329H468.022V301.353H471.674V316.951ZM484.151 317.347C487.847 317.347 490.377 314.817 490.377 311.319C490.377 307.799 487.913 305.401 484.569 305.401C482.546 305.401 481.248 306.281 480.588 307.095L480.896 301.331H489.475V299.329H478.784L478.278 309.471H480.544C481.138 308.371 482.26 307.381 484.195 307.381C486.527 307.381 488.111 309.053 488.111 311.319C488.111 313.629 486.593 315.345 484.151 315.345C481.666 315.345 480.28 313.871 480.214 311.979H477.926C478.058 315.037 480.346 317.347 484.151 317.347ZM499.094 317.347C502.79 317.347 505.584 314.289 505.584 308.129C505.584 301.969 502.79 298.911 499.094 298.911C495.376 298.911 492.582 301.969 492.582 308.129C492.582 314.289 495.376 317.347 499.094 317.347ZM499.094 315.301C496.696 315.301 494.804 312.925 494.804 308.129C494.804 303.355 496.696 300.957 499.094 300.957C501.47 300.957 503.362 303.355 503.362 308.129C503.362 312.925 501.47 315.301 499.094 315.301ZM514.348 317.347C518.044 317.347 520.838 314.289 520.838 308.129C520.838 301.969 518.044 298.911 514.348 298.911C510.63 298.911 507.836 301.969 507.836 308.129C507.836 314.289 510.63 317.347 514.348 317.347ZM514.348 315.301C511.95 315.301 510.058 312.925 510.058 308.129C510.058 303.355 511.95 300.957 514.348 300.957C516.724 300.957 518.616 303.355 518.616 308.129C518.616 312.925 516.724 315.301 514.348 315.301Z" fill="white"/>
<path d="M162.554 368.841V364.375H160.376V378.323H162.554V370.931H165.194V368.841H162.554ZM156.856 367.389V364.837H146.032V366.751H154.656V367.653C154.656 371.393 151.29 373.395 146.032 373.417V375.375C152.478 375.375 156.856 372.735 156.856 367.389ZM149.046 377.003H146.846V382.921H163.06V380.941H149.046V377.003ZM183.716 368.907V364.375H181.538V378.323H183.716V370.997H186.356V368.907H183.716ZM180.152 374.385V372.559C179.382 372.889 178.348 373.131 177.05 373.263V366.685H179.338V364.837H166.798V366.685H169.086V373.395H166.732V375.243H173.992C176.72 375.243 178.986 374.891 180.152 374.385ZM171.198 366.685H174.938V373.395H174.256H171.198V366.685ZM170.208 376.915H168.008V382.921H184.222V380.941H170.208V376.915Z" fill="white"/>
<path d="M473.492 381.576H485.746V379.574H476.814L481.434 375.042C484.074 372.336 485.152 370.73 485.152 368.838C485.152 365.67 482.82 363.536 479.278 363.536C475.604 363.536 473.294 366.154 473.294 369.344H475.604C475.604 367.386 476.88 365.582 479.256 365.582C481.456 365.582 482.864 366.792 482.864 368.86C482.864 370.114 481.984 371.544 479.74 373.81L473.492 380.08V381.576ZM494.024 381.972C497.72 381.972 500.25 379.442 500.25 375.944C500.25 372.424 497.786 370.026 494.442 370.026C492.418 370.026 491.12 370.906 490.46 371.72L490.768 365.956H499.348V363.954H488.656L488.15 374.096H490.416C491.01 372.996 492.132 372.006 494.068 372.006C496.4 372.006 497.984 373.678 497.984 375.944C497.984 378.254 496.466 379.97 494.024 379.97C491.538 379.97 490.152 378.496 490.086 376.604H487.798C487.93 379.662 490.218 381.972 494.024 381.972ZM508.966 381.972C512.662 381.972 515.456 378.914 515.456 372.754C515.456 366.594 512.662 363.536 508.966 363.536C505.248 363.536 502.454 366.594 502.454 372.754C502.454 378.914 505.248 381.972 508.966 381.972ZM508.966 379.926C506.568 379.926 504.676 377.55 504.676 372.754C504.676 367.98 506.568 365.582 508.966 365.582C511.342 365.582 513.234 367.98 513.234 372.754C513.234 377.55 511.342 379.926 508.966 379.926Z" fill="white"/>
<path d="M154.113 436.987H151.473V429.375H149.295V448.163H151.473V439.077H154.113V436.987ZM135.149 432.059H143.157V434.633C143.157 440.925 140.253 444.907 135.149 444.929V446.997C141.529 446.997 145.379 442.069 145.379 434.589V430.057H135.149V432.059ZM168.565 435.205H171.623V440.353H173.691V429.375H171.623V433.203H168.565V429.485H166.497V439.737H168.565V435.205ZM164.341 429.837H156.201V439.011H164.341V429.837ZM162.317 437.185H158.225V431.663H162.317V437.185ZM165.573 440.727C161.085 440.727 157.169 441.673 157.169 444.445C157.169 447.217 161.085 448.163 165.573 448.163C170.061 448.163 173.977 447.217 173.977 444.445C173.977 441.673 170.061 440.727 165.573 440.727ZM165.573 446.381C162.493 446.381 159.479 445.875 159.479 444.445C159.479 443.015 162.493 442.487 165.573 442.487C168.653 442.487 171.667 443.015 171.667 444.445C171.667 445.875 168.653 446.381 165.573 446.381ZM192.147 429.375V448.163H194.325V429.375H192.147ZM186.361 436.393H180.025V429.925H177.869V447.041H188.517V429.925H186.361V436.393ZM180.025 445.039V438.395H186.361V445.039H180.025Z" fill="white"/>
<path d="M479.178 446.597C482.874 446.597 485.404 444.067 485.404 440.569C485.404 437.049 482.94 434.651 479.596 434.651C477.572 434.651 476.274 435.531 475.614 436.345L475.922 430.581H484.502V428.579H473.81L473.304 438.721H475.57C476.164 437.621 477.286 436.631 479.222 436.631C481.554 436.631 483.138 438.303 483.138 440.569C483.138 442.879 481.62 444.595 479.178 444.595C476.692 444.595 475.306 443.121 475.24 441.229H472.952C473.084 444.287 475.372 446.597 479.178 446.597ZM494.12 446.597C497.816 446.597 500.61 443.539 500.61 437.379C500.61 431.219 497.816 428.161 494.12 428.161C490.402 428.161 487.608 431.219 487.608 437.379C487.608 443.539 490.402 446.597 494.12 446.597ZM494.12 444.551C491.722 444.551 489.83 442.175 489.83 437.379C489.83 432.605 491.722 430.207 494.12 430.207C496.496 430.207 498.388 432.605 498.388 437.379C498.388 442.175 496.496 444.551 494.12 444.551ZM509.374 446.597C513.07 446.597 515.864 443.539 515.864 437.379C515.864 431.219 513.07 428.161 509.374 428.161C505.656 428.161 502.862 431.219 502.862 437.379C502.862 443.539 505.656 446.597 509.374 446.597ZM509.374 444.551C506.976 444.551 505.084 442.175 505.084 437.379C505.084 432.605 506.976 430.207 509.374 430.207C511.75 430.207 513.642 432.605 513.642 437.379C513.642 442.175 511.75 444.551 509.374 444.551Z" fill="white"/>
<path d="M149.801 507.443H152.023V495.035H135.589V497.059H149.801V507.443ZM146.193 510.259V502.713H143.993V510.259H140.297V502.713H138.119V510.259H134.467V512.261H153.233V510.259H146.193ZM165.001 502.075C169.555 502.075 173.339 500.887 173.339 498.159C173.339 495.453 169.555 494.265 165.001 494.265C160.447 494.265 156.663 495.453 156.663 498.159C156.663 500.887 160.447 502.075 165.001 502.075ZM165.001 496.003C168.279 496.003 171.029 496.729 171.029 498.159C171.029 499.611 168.279 500.337 165.001 500.337C161.723 500.337 158.973 499.611 158.973 498.159C158.973 496.729 161.723 496.003 165.001 496.003ZM174.395 505.309V503.505H155.629V505.309H160.381V507.641H156.773V509.445H170.875V513.185H173.075V507.641H169.621V505.309H174.395ZM167.465 507.641H162.537V505.309H167.465V507.641ZM192.147 494.375V513.163H194.325V494.375H192.147ZM186.361 501.393H180.025V494.925H177.869V512.041H188.517V494.925H186.361V501.393ZM180.025 510.039V503.395H186.361V510.039H180.025Z" fill="white"/>
<path d="M473.105 510.826H485.359V508.824H476.427L481.047 504.292C483.687 501.586 484.765 499.98 484.765 498.088C484.765 494.92 482.433 492.786 478.891 492.786C475.217 492.786 472.907 495.404 472.907 498.594H475.217C475.217 496.636 476.493 494.832 478.869 494.832C481.069 494.832 482.477 496.042 482.477 498.11C482.477 499.364 481.597 500.794 479.353 503.06L473.105 509.33V510.826ZM494.099 511.222C497.795 511.222 500.589 508.164 500.589 502.004C500.589 495.844 497.795 492.786 494.099 492.786C490.381 492.786 487.587 495.844 487.587 502.004C487.587 508.164 490.381 511.222 494.099 511.222ZM494.099 509.176C491.701 509.176 489.809 506.8 489.809 502.004C489.809 497.23 491.701 494.832 494.099 494.832C496.475 494.832 498.367 497.23 498.367 502.004C498.367 506.8 496.475 509.176 494.099 509.176ZM509.353 511.222C513.049 511.222 515.843 508.164 515.843 502.004C515.843 495.844 513.049 492.786 509.353 492.786C505.635 492.786 502.841 495.844 502.841 502.004C502.841 508.164 505.635 511.222 509.353 511.222ZM509.353 509.176C506.955 509.176 505.063 506.8 505.063 502.004C505.063 497.23 506.955 494.832 509.353 494.832C511.729 494.832 513.621 497.23 513.621 502.004C513.621 506.8 511.729 509.176 509.353 509.176Z" fill="white"/>
<path d="M158.242 560.937H152.962V559.045H150.762V560.937H145.482V562.609H158.242V560.937ZM165.194 563.313H162.554V559.375H160.376V569.935H162.554V565.337H165.194V563.313ZM151.862 570.177C154.964 570.177 157.362 568.945 157.362 566.877C157.362 564.831 154.964 563.577 151.862 563.577C148.738 563.577 146.34 564.831 146.34 566.877C146.34 568.945 148.738 570.177 151.862 570.177ZM151.862 565.161C153.952 565.161 155.294 565.909 155.294 566.877C155.294 567.845 153.952 568.593 151.862 568.593C149.75 568.593 148.43 567.845 148.43 566.877C148.43 565.909 149.75 565.161 151.862 565.161ZM160.442 572.641H148.958V570.947H146.846V577.921H162.554V570.947H160.442V572.641ZM148.958 576.205V574.313H160.442V576.205H148.958ZM182.726 559.375V578.163H184.772V559.375H182.726ZM178.106 564.083H174.894V560.057H167.128V562.037H172.782V565.227C172.782 571.035 170.626 574.841 167.128 574.951V576.997C169.988 576.975 172.32 575.171 173.662 572.025H178.106V577.833H180.152V559.485H178.106V564.083ZM174.322 570.001C174.63 568.835 174.806 567.515 174.872 566.107H178.106V570.001H174.322Z" fill="white"/>
<path d="M473.479 575.449H475.679V571.467H478.561V569.509H475.679V557.827H472.951L464.591 569.509V571.467H473.479V575.449ZM466.967 569.509L473.479 560.357V569.509H466.967ZM486.187 575.845C489.883 575.845 492.391 573.601 492.391 570.653C492.391 568.211 490.565 566.825 488.783 566.495C490.411 566.099 491.929 564.603 491.929 562.447C491.929 559.675 489.575 557.409 485.945 557.409C482.337 557.409 479.961 559.829 479.961 562.931H482.271C482.271 561.061 483.569 559.389 485.945 559.389C488.277 559.389 489.641 560.797 489.641 562.513C489.641 564.339 488.123 565.615 485.879 565.615H483.943V567.529H485.879C488.541 567.529 490.125 568.695 490.125 570.675C490.125 572.435 488.651 573.843 486.187 573.843C483.701 573.843 482.293 572.369 482.227 570.477H479.939C480.071 573.557 482.403 575.845 486.187 575.845ZM501.108 575.845C504.804 575.845 507.598 572.787 507.598 566.627C507.598 560.467 504.804 557.409 501.108 557.409C497.39 557.409 494.596 560.467 494.596 566.627C494.596 572.787 497.39 575.845 501.108 575.845ZM501.108 573.799C498.71 573.799 496.818 571.423 496.818 566.627C496.818 561.853 498.71 559.455 501.108 559.455C503.484 559.455 505.376 561.853 505.376 566.627C505.376 571.423 503.484 573.799 501.108 573.799ZM516.362 575.845C520.058 575.845 522.852 572.787 522.852 566.627C522.852 560.467 520.058 557.409 516.362 557.409C512.644 557.409 509.85 560.467 509.85 566.627C509.85 572.787 512.644 575.845 516.362 575.845ZM516.362 573.799C513.964 573.799 512.072 571.423 512.072 566.627C512.072 561.853 513.964 559.455 516.362 559.455C518.738 559.455 520.63 561.853 520.63 566.627C520.63 571.423 518.738 573.799 516.362 573.799Z" fill="white"/>
<path d="M460.681 175.909H462.881V169.595H446.755V171.443H460.681V175.909ZM445.501 178.857H464.267V177.031H445.501V178.857ZM446.799 187.943H462.947V180.771H446.799V187.943ZM448.977 186.161V182.553H460.791V186.161H448.977ZM482.657 169.375V173.687H479.599V169.485H477.531V180.749H479.599V175.733H482.657V180.947H484.725V169.375H482.657ZM471.305 180.463C474.121 180.463 475.639 178.307 475.639 174.985C475.639 171.663 474.121 169.529 471.305 169.529C468.489 169.529 466.949 171.663 466.949 174.985C466.949 178.307 468.489 180.463 471.305 180.463ZM471.305 171.355C472.779 171.355 473.593 172.631 473.593 174.985C473.593 177.317 472.779 178.637 471.305 178.637C469.809 178.637 468.995 177.317 468.995 174.985C468.995 172.631 469.809 171.355 471.305 171.355ZM468.357 183.851H482.569V188.163H484.725V181.981H468.357V183.851ZM491.565 188.559H494.007C491.477 185.985 489.717 182.641 489.717 178.747C489.717 174.853 491.477 171.509 494.007 168.935H491.565C489.123 171.575 487.473 174.743 487.473 178.747C487.473 182.751 489.123 185.919 491.565 188.559ZM512.716 173.841V169.375H510.538V183.323H512.716V175.931H515.356V173.841H512.716ZM507.348 169.837H496.37V179.979H507.348V169.837ZM505.192 178.087H498.526V171.729H505.192V178.087ZM499.208 181.827H497.008V187.921H513.222V185.941H499.208V181.827ZM526.684 181.167V182.927H532.382V184.093H534.56V169.375H532.382V181.167H526.684ZM523.56 176.745C526.838 176.745 529.126 175.447 529.126 173.071C529.126 170.717 526.838 169.419 523.56 169.419C520.304 169.419 517.994 170.717 517.994 173.071C517.994 175.447 520.304 176.745 523.56 176.745ZM523.56 171.135C525.54 171.135 526.992 171.773 526.992 173.071C526.992 174.369 525.54 175.029 523.56 175.029C521.58 175.029 520.128 174.369 520.128 173.071C520.128 171.773 521.58 171.135 523.56 171.135ZM522.064 183.235H524.242V179.869H524.572C527.256 179.869 529.61 179.649 530.798 179.121V177.317C529.5 177.867 527.212 178.065 524.638 178.065H516.872V179.869H522.064V183.235ZM520.788 186.073V182.223H518.61V187.921H535.044V186.073H520.788ZM537.33 188.559H539.75C542.214 185.919 543.842 182.751 543.842 178.747C543.842 174.743 542.214 171.575 539.75 168.935H537.33C539.86 171.509 541.598 174.853 541.598 178.747C541.598 182.641 539.86 185.985 537.33 188.559Z" fill="white"/>
<line x1="329.687" y1="147.25" x2="329.687" y2="601" stroke="#D9D9D9" stroke-width="1.375"/>
<path d="M44.4 671.17H45.885V664.75H44.4V665.905H42.315V667.135H44.4V668.485H42.315V669.715H44.4V671.17ZM41.655 664.975H40.215V666.565H35.805V664.975H34.35V670.705H41.655V664.975ZM35.805 669.505V667.75H40.215V669.505H35.805ZM36.45 676.24V675.175H45.885V671.875H34.95V673.03H44.415V674.08H34.98V677.395H46.2V676.24H36.45ZM54.6437 675.565V672.46H59.6087V671.08H49.8587V666.595H59.4587V665.215H48.3437V672.46H53.1287V675.565H47.5037V676.945H60.2987V675.565H54.6437ZM69.0165 669.1L72.8415 671.125L73.4415 670.045L69.6165 668.05C69.7515 667.72 69.8415 667.39 69.8865 667.03H73.2615V665.83H69.9165V664.525H68.4165V665.83H65.0265V667.03H68.3715C68.1315 668.605 66.8565 669.715 64.8915 670V671.215C66.6915 671.02 68.1465 670.225 69.0165 669.1ZM72.7515 667.555V668.8H75.2115V671.32H76.6965V664.75H75.2115V667.555H72.7515ZM67.2615 676.255V675.25H76.6965V672.025H65.7615V673.165H75.2265V674.155H65.7915V677.395H77.0115V676.255H67.2615ZM88.8902 664.75V669.955H85.7252C85.8002 669.43 85.8302 668.875 85.8302 668.305V665.215H78.8552V666.58H84.3152V668.335C84.3152 672.625 82.3352 675.34 78.8552 675.355V676.765C82.2602 676.765 84.6152 674.695 85.4702 671.35H88.8902V677.56H90.3752V664.75H88.8902ZM93.9739 675.37H92.4739L91.9939 678.76H93.2239L93.9739 675.37ZM109.236 664.75V677.56H110.646V664.75H109.236ZM106.146 670.09H104.376V671.455H106.146V677.335H107.556V664.825H106.146V670.09ZM100.146 675.475V671.56H103.701V670.24H100.146V666.535H104.331V665.215H98.7209V676.795H101.181C102.756 676.795 104.121 676.6 104.961 676.225V674.89C104.016 675.295 102.801 675.475 101.256 675.475H100.146ZM125.405 669.94H123.605V664.75H122.12V677.56H123.605V671.365H125.405V669.94ZM114.08 675.43V671.59H119.69V665.215H112.58V666.58H118.205V670.225H112.61V676.795H117.665C118.895 676.795 120.23 676.57 121.01 676.18V674.83C120.23 675.205 118.91 675.43 117.695 675.43H114.08ZM131.913 669.055L137.388 672.85L138.198 671.665L132.558 667.87C132.978 667.015 133.278 666.07 133.458 665.08L131.928 664.81C131.268 668.395 128.718 671.395 125.943 671.395V672.805C128.298 672.805 130.473 671.32 131.913 669.055ZM125.688 675.55V676.945H138.483V675.55H125.688ZM141.347 675.37H139.847L139.367 678.76H140.597L141.347 675.37ZM156.204 664.75V677.56H157.689V664.75H156.204ZM150.819 675.4V672.79C152.739 672.49 154.059 670.975 154.059 668.935C154.059 666.64 152.394 665.02 150.099 665.02C147.789 665.02 146.139 666.64 146.139 668.935C146.139 670.975 147.444 672.475 149.349 672.79V675.4H145.704V676.795H150.954C152.709 676.795 154.224 676.63 155.139 676.255V674.86C154.224 675.25 152.664 675.4 150.939 675.4H150.819ZM147.594 668.935C147.594 667.48 148.569 666.355 150.099 666.355C151.614 666.355 152.604 667.48 152.604 668.935C152.604 670.39 151.614 671.5 150.099 671.5C148.569 671.5 147.594 670.39 147.594 668.935ZM171.278 664.975H169.808V666.775H161.738V664.975H160.268V671.545H171.278V664.975ZM161.738 670.225V668.095H169.808V670.225H161.738ZM172.178 672.91H159.383V674.29H165.008V677.86H166.538V674.29H172.178V672.91ZM186.456 667.585H184.656V664.75H183.171V672.4H184.656V669.01H186.456V667.585ZM182.241 671.125V669.85C181.416 670.21 179.946 670.42 178.206 670.42H175.011V666.325H181.326V665.065H173.511V671.695H178.116C179.931 671.695 181.461 671.47 182.241 671.125ZM173.826 674.395H183.156V677.56H184.656V673.105H173.826V674.395ZM198.89 672.07H189.08V669.955H198.53V668.65H189.08V666.55H198.695V665.215H187.595V673.405H198.89V672.07ZM186.74 675.58V676.945H199.535V675.58H186.74ZM202.399 675.37H200.899L200.419 678.76H201.649L202.399 675.37ZM215.576 668.68H217.661V672.13H219.071V664.75H217.661V667.3H215.576V664.825H214.166V671.665H215.576V668.68ZM213.416 670.63V669.37C212.516 669.715 211.256 669.85 209.891 669.85H208.586V665.02H207.146V671.11H209.741C211.166 671.11 212.531 670.975 213.416 670.63ZM213.536 672.34C210.476 672.34 207.806 673.015 207.806 674.95C207.806 676.885 210.476 677.56 213.536 677.56C216.596 677.56 219.266 676.885 219.266 674.95C219.266 673.015 216.596 672.34 213.536 672.34ZM213.536 676.33C211.436 676.33 209.381 675.97 209.381 674.95C209.381 673.93 211.436 673.555 213.536 673.555C215.636 673.555 217.691 673.93 217.691 674.95C217.691 675.97 215.636 676.33 213.536 676.33ZM232.029 667.51V664.75H230.544V674.26H232.029V668.935H233.829V667.51H232.029ZM229.614 671.275V669.97C228.789 670.33 227.319 670.54 225.579 670.54H222.399V664.99H220.884V671.845H225.489C227.304 671.845 228.834 671.62 229.614 671.275ZM222.819 673.09H221.319V677.395H232.374V676.045H222.819V673.09ZM245.708 667.45V664.75H244.223V672.055H245.708V668.875H247.508V667.45H245.708ZM242.048 664.975H240.593V666.82H236.018V664.975H234.563V671.305H242.048V664.975ZM236.018 670.075V668.035H240.593V670.075H236.018ZM240.413 672.46C237.353 672.46 234.923 673.165 234.923 675.01C234.923 676.855 237.353 677.56 240.413 677.56C243.488 677.56 245.903 676.855 245.903 675.01C245.903 673.165 243.488 672.46 240.413 672.46ZM240.413 676.345C238.238 676.345 236.498 675.94 236.498 675.01C236.498 674.095 238.238 673.675 240.413 673.675C242.603 673.675 244.328 674.095 244.328 675.01C244.328 675.94 242.603 676.345 240.413 676.345ZM258.262 677.56H259.747V664.75H258.262V677.56ZM248.392 676.765C252.772 676.765 255.502 673.435 255.502 668.305V665.215H248.392V666.58H253.987V668.335C253.987 672.625 251.887 675.34 248.392 675.355V676.765ZM263.451 675.37H261.951L261.471 678.76H262.701L263.451 675.37ZM278.307 664.75V677.56H279.792V664.75H278.307ZM272.922 675.4V672.79C274.842 672.49 276.162 670.975 276.162 668.935C276.162 666.64 274.497 665.02 272.202 665.02C269.892 665.02 268.242 666.64 268.242 668.935C268.242 670.975 269.547 672.475 271.452 672.79V675.4H267.807V676.795H273.057C274.812 676.795 276.327 676.63 277.242 676.255V674.86C276.327 675.25 274.767 675.4 273.042 675.4H272.922ZM269.697 668.935C269.697 667.48 270.672 666.355 272.202 666.355C273.717 666.355 274.707 667.48 274.707 668.935C274.707 670.39 273.717 671.5 272.202 671.5C270.672 671.5 269.697 670.39 269.697 668.935ZM293.381 664.975H291.911V666.775H283.841V664.975H282.371V671.545H293.381V664.975ZM283.841 670.225V668.095H291.911V670.225H283.841ZM294.281 672.91H281.486V674.29H287.111V677.86H288.641V674.29H294.281V672.91ZM308.56 667.51V666.22H306.76V664.75H305.275V673.525H306.76V670.555H308.56V669.265H306.76V667.51H308.56ZM299.44 669.16L303.205 671.845L304.045 670.78L300.025 667.945C300.385 667.03 300.565 666.01 300.565 664.96L299.08 664.87C299.05 667.735 297.625 670.21 295.195 670.645V672.025C297.04 671.785 298.51 670.69 299.44 669.16ZM302.65 672.655L301.15 672.385C300.625 674.635 298.27 675.97 295.885 676V677.395C297.94 677.38 299.995 676.57 301.33 675.13L306.76 677.56L307.345 676.285L302.11 674.065C302.35 673.63 302.53 673.165 302.65 672.655ZM319.314 664.75V677.56H320.799V664.75H319.314ZM314.574 665.125L313.059 665.065C313.044 670.45 311.634 674.89 309.069 675.295V676.795C311.094 676.645 312.654 674.935 313.599 672.115L317.004 676.765L318.204 675.91L314.064 670.39C314.394 668.86 314.559 667.09 314.574 665.125ZM324.502 675.37H323.002L322.522 678.76H323.752L324.502 675.37ZM336.944 667.78V669.085H339.434V674.275H340.919V664.75H339.434V667.78H336.944ZM333.374 669.595L336.989 672.34L337.829 671.26L333.899 668.335C334.079 667.72 334.199 667.06 334.229 666.37H337.454V665.08H329.279V666.37H332.729C332.594 668.935 331.259 670.78 329.114 671.08V672.445C331.004 672.25 332.504 671.2 333.374 669.595ZM331.529 676.06V673.315H330.014V677.395H341.189V676.06H331.529ZM353.008 677.56H354.493V664.75H353.008V677.56ZM343.138 676.765C347.518 676.765 350.248 673.435 350.248 668.305V665.215H343.138V666.58H348.733V668.335C348.733 672.625 346.633 675.34 343.138 675.355V676.765ZM362.532 667.18L368.112 669.58L368.637 668.455L363.312 666.19C363.582 665.74 363.792 665.23 363.897 664.705L362.412 664.45C361.917 666.7 359.157 668.215 356.682 668.305V669.55C358.872 669.505 361.122 668.62 362.532 667.18ZM356.217 670.615V671.815H369.012V670.615H356.217ZM362.607 672.94C359.547 672.94 356.982 673.495 356.982 675.25C356.982 677.005 359.547 677.59 362.607 677.59C365.667 677.59 368.232 677.005 368.232 675.25C368.232 673.495 365.667 672.94 362.607 672.94ZM362.607 676.42C360.537 676.42 358.557 676.135 358.557 675.25C358.557 674.38 360.537 674.11 362.607 674.11C364.677 674.11 366.672 674.38 366.672 675.25C366.672 676.135 364.677 676.42 362.607 676.42ZM378.55 665.815H374.95V664.525H373.45V665.815H369.85V666.955H378.55V665.815ZM383.29 667.435H381.49V664.75H380.005V671.95H381.49V668.815H383.29V667.435ZM374.2 672.115C376.315 672.115 377.95 671.275 377.95 669.865C377.95 668.47 376.315 667.615 374.2 667.615C372.07 667.615 370.435 668.47 370.435 669.865C370.435 671.275 372.07 672.115 374.2 672.115ZM374.2 668.695C375.625 668.695 376.54 669.205 376.54 669.865C376.54 670.525 375.625 671.035 374.2 671.035C372.76 671.035 371.86 670.525 371.86 669.865C371.86 669.205 372.76 668.695 374.2 668.695ZM380.05 673.795H372.22V672.64H370.78V677.395H381.49V672.64H380.05V673.795ZM372.22 676.225V674.935H380.05V676.225H372.22ZM385.554 675.37H384.054L383.574 678.76H384.804L385.554 675.37ZM397.996 667.165V668.455H400.486V671.95H401.971V664.75H400.486V667.165H397.996ZM394.426 669.04L398.191 671.455L398.926 670.345L394.981 667.855C395.131 667.375 395.236 666.88 395.266 666.355H398.506V665.08H390.331V666.355H393.781C393.601 668.44 392.281 669.955 390.166 670.24V671.575C392.056 671.395 393.541 670.435 394.426 669.04ZM396.541 672.37C393.436 672.37 391.006 673.09 391.006 674.965C391.006 676.84 393.436 677.56 396.541 677.56C399.646 677.56 402.076 676.84 402.076 674.965C402.076 673.09 399.646 672.37 396.541 672.37ZM396.541 676.345C394.336 676.345 392.581 675.91 392.581 674.965C392.581 674.02 394.336 673.585 396.541 673.585C398.746 673.585 400.501 674.02 400.501 674.965C400.501 675.91 398.746 676.345 396.541 676.345ZM412.215 666.235H408.63V664.615H407.115V666.235H403.53V667.54H412.215V666.235ZM416.985 669.82H415.215V664.75H413.73V677.56H415.215V671.245H416.985V669.82ZM408.615 673.585C410.46 673.39 411.6 672.43 411.6 670.975C411.6 669.34 410.16 668.32 407.895 668.32C405.63 668.32 404.19 669.34 404.19 670.975C404.19 672.415 405.315 673.375 407.13 673.57V675.475H403.59V676.795H408.48C410.28 676.795 411.855 676.615 412.665 676.255V674.905C411.78 675.31 410.31 675.46 408.615 675.475V673.585ZM405.6 670.975C405.6 670.165 406.38 669.535 407.895 669.535C409.41 669.535 410.19 670.165 410.19 670.975C410.19 671.785 409.41 672.4 407.895 672.4C406.38 672.4 405.6 671.785 405.6 670.975ZM423.478 669.565L429.058 672.685L429.763 671.485L424.183 668.38C424.438 667.84 424.633 667.24 424.753 666.595H429.343V665.23H417.928V666.595H423.178C422.548 669.37 420.313 670.99 417.643 671.215V672.595C420.013 672.445 422.158 671.38 423.478 669.565ZM424.393 675.55V672.295H422.908V675.55H417.268V676.945H430.063V675.55H424.393ZM432.927 675.37H431.427L430.947 678.76H432.177L432.927 675.37ZM445.909 666.235H442.324V664.615H440.809V666.235H437.224V667.54H445.909V666.235ZM450.679 669.82H448.909V664.75H447.424V677.56H448.909V671.245H450.679V669.82ZM442.309 673.585C444.154 673.39 445.294 672.43 445.294 670.975C445.294 669.34 443.854 668.32 441.589 668.32C439.324 668.32 437.884 669.34 437.884 670.975C437.884 672.415 439.009 673.375 440.824 673.57V675.475H437.284V676.795H442.174C443.974 676.795 445.549 676.615 446.359 676.255V674.905C445.474 675.31 444.004 675.46 442.309 675.475V673.585ZM439.294 670.975C439.294 670.165 440.074 669.535 441.589 669.535C443.104 669.535 443.884 670.165 443.884 670.975C443.884 671.785 443.104 672.4 441.589 672.4C440.074 672.4 439.294 671.785 439.294 670.975ZM462.558 667.195V664.75H461.073V671.83H462.558V668.605H464.358V667.195H462.558ZM455.448 668.965L459.153 671.29L459.888 670.18L455.988 667.78C456.123 667.33 456.213 666.85 456.243 666.355H459.483V665.08H451.308V666.355H454.758C454.563 668.395 453.258 669.955 451.143 670.24V671.575C453.063 671.38 454.578 670.39 455.448 668.965ZM457.263 672.25C454.203 672.25 451.773 672.985 451.773 674.905C451.773 676.825 454.203 677.56 457.263 677.56C460.338 677.56 462.753 676.825 462.753 674.905C462.753 672.985 460.338 672.25 457.263 672.25ZM457.263 676.33C455.088 676.33 453.363 675.895 453.363 674.905C453.363 673.93 455.088 673.48 457.263 673.48C459.453 673.48 461.163 673.93 461.163 674.905C461.163 675.895 459.453 676.33 457.263 676.33ZM476.596 664.75H475.111V671.02H476.596V664.75ZM469.156 668.44L473.146 670.69L473.866 669.565L469.801 667.33C470.116 666.61 470.281 665.8 470.281 664.96L468.796 664.87C468.781 667.195 467.266 669.145 464.836 669.58V670.9C466.696 670.66 468.196 669.745 469.156 668.44ZM467.221 676.225V675.115H476.596V671.725H465.721V672.895H475.126V674.005H465.751V677.395H476.911V676.225H467.221ZM480.3 675.37H478.8L478.32 678.76H479.55L480.3 675.37ZM495.232 664.75V667.165H492.742V668.455H495.232V671.83H496.717V664.75H495.232ZM489.172 669.04L492.937 671.455L493.672 670.345L489.727 667.855C489.892 667.39 489.982 666.88 490.012 666.355H493.252V665.08H485.077V666.355H488.527C488.347 668.44 487.027 669.955 484.912 670.24V671.575C486.802 671.395 488.302 670.45 489.172 669.04ZM485.812 677.395H496.717V672.535H485.812V677.395ZM487.297 673.78H495.232V676.135H487.297V673.78ZM505.476 675.55V672.655H510.456V671.29H508.191V666.67H510.321V665.29H499.131V666.67H501.261V671.29H498.996V672.655H503.961V675.55H498.336V676.945H511.131V675.55H505.476ZM502.761 666.67H506.691V671.29H502.761V666.67ZM522.514 664.75V677.56H523.999V664.75H522.514ZM517.129 675.4V672.79C519.049 672.49 520.369 670.975 520.369 668.935C520.369 666.64 518.704 665.02 516.409 665.02C514.099 665.02 512.449 666.64 512.449 668.935C512.449 670.975 513.754 672.475 515.659 672.79V675.4H512.014V676.795H517.264C519.019 676.795 520.534 676.63 521.449 676.255V674.86C520.534 675.25 518.974 675.4 517.249 675.4H517.129ZM513.904 668.935C513.904 667.48 514.879 666.355 516.409 666.355C517.924 666.355 518.914 667.48 518.914 668.935C518.914 670.39 517.924 671.5 516.409 671.5C514.879 671.5 513.904 670.39 513.904 668.935ZM537.588 664.975H536.118V666.775H528.048V664.975H526.578V671.545H537.588V664.975ZM528.048 670.225V668.095H536.118V670.225H528.048ZM538.488 672.91H525.693V674.29H531.318V677.86H532.848V674.29H538.488V672.91ZM549.737 669.25H551.222V664.9H540.227V666.16H549.737V669.25ZM545.672 670.15V667.645H544.172V670.15H539.372V671.38H552.167V670.15H545.672ZM545.762 672.58C542.702 672.58 540.137 673.225 540.137 675.07C540.137 676.87 542.702 677.575 545.762 677.575C548.822 677.575 551.387 676.87 551.387 675.07C551.387 673.285 548.822 672.58 545.762 672.58ZM545.762 676.39C543.692 676.39 541.697 675.985 541.697 675.07C541.697 674.125 543.692 673.765 545.762 673.765C547.832 673.765 549.827 674.17 549.827 675.07C549.827 675.985 547.832 676.39 545.762 676.39ZM566.446 669.94H564.646V664.75H563.161V677.56H564.646V671.365H566.446V669.94ZM558.586 665.125L557.071 665.065C557.056 670.45 555.721 674.89 553.156 675.295V676.795C555.151 676.645 556.696 674.98 557.611 672.19L560.911 676.765L562.111 675.91L558.076 670.45C558.406 668.905 558.571 667.12 558.586 665.125ZM581.778 667V664.75H580.293V671.02H581.778V668.395H583.578V667H581.778ZM577.893 666.37V665.065H570.513V666.31H576.408V666.61C576.408 668.68 574.113 669.565 570.513 669.58V670.825C574.923 670.825 577.893 669.505 577.893 666.37ZM572.553 675.115H581.598V674.005H572.553V672.895H581.778V671.725H571.083V677.395H581.913V676.225H572.553V675.115ZM590.252 670.27C593.357 670.27 595.937 669.37 595.937 667.465C595.937 665.575 593.357 664.675 590.252 664.675C587.147 664.675 584.567 665.575 584.567 667.465C584.567 669.37 587.147 670.27 590.252 670.27ZM590.252 669.07C588.017 669.07 586.142 668.515 586.142 667.465C586.142 666.43 588.017 665.875 590.252 665.875C592.487 665.875 594.362 666.43 594.362 667.465C594.362 668.515 592.487 669.07 590.252 669.07ZM583.862 672.67H596.657V671.41H583.862V672.67ZM584.747 677.41H595.997V676.135H586.262V673.765H584.747V677.41ZM611.585 672.145H613.055V664.75H611.585V666.145H609.695V667.36H611.585V668.77H609.695V670H611.585V672.145ZM609.635 671.095V669.88C609.17 670.045 608.555 670.165 607.805 670.255V666.295H609.29V665.065H601.13V666.295H602.585V670.345H601.085V671.575H605.495C607.355 671.575 608.825 671.38 609.635 671.095ZM604.01 666.295H606.38V670.33C606.125 670.345 605.87 670.345 605.6 670.345H604.01V666.295ZM607.625 672.55C604.52 672.55 602.09 673.24 602.09 675.055C602.09 676.87 604.52 677.56 607.625 677.56C610.73 677.56 613.16 676.87 613.16 675.055C613.16 673.24 610.73 672.55 607.625 672.55ZM607.625 676.36C605.42 676.36 603.68 675.955 603.68 675.055C603.68 674.155 605.42 673.75 607.625 673.75C609.83 673.75 611.57 674.155 611.57 675.055C611.57 675.955 609.83 676.36 607.625 676.36ZM620.929 668.38L626.449 671.53L627.139 670.285L621.649 667.24C622.009 666.52 622.279 665.725 622.429 664.9L620.899 664.66C620.344 667.69 617.734 670.15 614.974 670.135V671.545C617.314 671.53 619.504 670.315 620.929 668.38ZM627.469 672.895H614.674V674.275H620.299V677.86H621.814V674.275H627.469V672.895ZM641.747 669.94H639.947V664.75H638.462V677.56H639.947V671.365H641.747V669.94ZM630.422 675.43V671.59H636.032V665.215H628.922V666.58H634.547V670.225H628.952V676.795H634.007C635.237 676.795 636.572 676.57 637.352 676.18V674.83C636.572 675.205 635.252 675.43 634.037 675.43H630.422ZM649.171 675.565V672.46H654.136V671.08H644.386V666.595H653.986V665.215H642.871V672.46H647.656V675.565H642.031V676.945H654.826V675.565H649.171ZM44.4 699.75V702.165H41.91V703.455H44.4V706.83H45.885V699.75H44.4ZM38.34 704.04L42.105 706.455L42.84 705.345L38.895 702.855C39.06 702.39 39.15 701.88 39.18 701.355H42.42V700.08H34.245V701.355H37.695C37.515 703.44 36.195 704.955 34.08 705.24V706.575C35.97 706.395 37.47 705.45 38.34 704.04ZM34.98 712.395H45.885V707.535H34.98V712.395ZM36.465 708.78H44.4V711.135H36.465V708.78ZM54.6437 710.55V707.655H59.6237V706.29H57.3587V701.67H59.4887V700.29H48.2987V701.67H50.4287V706.29H48.1637V707.655H53.1287V710.55H47.5037V711.945H60.2987V710.55H54.6437ZM51.9287 701.67H55.8587V706.29H51.9287V701.67ZM71.6974 712.56H73.1824V699.75H71.6974V712.56ZM65.5774 708.09C67.8724 708.09 69.5374 706.44 69.5374 704.055C69.5374 701.67 67.8724 700.02 65.5774 700.02C63.2674 700.02 61.6174 701.67 61.6174 704.055C61.6174 706.44 63.2674 708.09 65.5774 708.09ZM65.5774 706.74C64.0474 706.74 63.0724 705.585 63.0724 704.055C63.0724 702.525 64.0474 701.355 65.5774 701.355C67.0924 701.355 68.0824 702.525 68.0824 704.055C68.0824 705.585 67.0924 706.74 65.5774 706.74ZM61.1824 711.795H66.3274C68.1724 711.795 69.7624 711.57 70.6174 711.18V709.8C69.7474 710.205 68.1724 710.4 66.4174 710.4H61.1824V711.795ZM86.6102 700.815H83.4002V699.525H81.9002V700.815H78.3452V701.97H86.6102V700.815ZM88.9052 707.565H90.3752V699.75H88.9052V701.97H86.9702V703.23H88.9052V704.715H86.9702V705.975H88.9052V707.565ZM82.6502 707.295C84.7952 707.295 86.3252 706.485 86.3252 704.985C86.3252 703.485 84.7952 702.675 82.6502 702.675C80.5052 702.675 78.9602 703.485 78.9602 704.985C78.9602 706.485 80.5052 707.295 82.6502 707.295ZM82.6502 703.8C84.1352 703.8 84.9152 704.31 84.9152 704.985C84.9152 705.66 84.1352 706.185 82.6502 706.185C81.1502 706.185 80.3702 705.66 80.3702 704.985C80.3702 704.31 81.1502 703.8 82.6502 703.8ZM84.9902 707.91C81.8852 707.91 79.4402 708.51 79.4402 710.235C79.4402 711.945 81.8852 712.56 84.9902 712.56C88.0802 712.56 90.5102 711.945 90.5102 710.235C90.5102 708.51 88.0802 707.91 84.9902 707.91ZM84.9902 711.405C82.7702 711.405 81.0152 711.06 81.0152 710.235C81.0152 709.41 82.7702 709.065 84.9902 709.065C87.1952 709.065 88.9502 709.41 88.9502 710.235C88.9502 711.06 87.1952 711.405 84.9902 711.405ZM102.899 699.75V704.91H100.814V699.825H99.4039V712.335H100.814V706.29H102.899V712.56H104.309V699.75H102.899ZM93.8089 710.475V706.56H97.8139V705.24H93.8089V701.535H97.9939V700.215H92.3839V711.795H94.7089C96.2839 711.795 97.6489 711.6 98.4889 711.225V709.89C97.5439 710.295 96.3289 710.475 94.7839 710.475H93.8089ZM107.653 710.37H106.153L105.673 713.76H106.903L107.653 710.37ZM119.165 710.55V707.22H124.01V705.825H114.38V700.05H112.85V707.22H117.65V710.55H112.01V711.945H124.805V710.55H119.165ZM137.988 701.025H132.828V699.435H131.298V701.025H126.168V702.315H137.988V701.025ZM126.768 705.555C126.768 707.205 129.048 707.955 132.078 707.955C135.108 707.955 137.388 707.205 137.388 705.555C137.388 703.89 135.108 703.14 132.078 703.14C129.048 703.14 126.768 703.89 126.768 705.555ZM135.873 705.555C135.873 706.35 134.253 706.725 132.078 706.725C129.918 706.725 128.283 706.35 128.283 705.555C128.283 704.745 129.918 704.37 132.078 704.37C134.253 704.37 135.873 704.745 135.873 705.555ZM138.483 708.84H125.688V710.16H131.313V712.86H132.828V710.16H138.483V708.84ZM147.452 702.165V703.455H149.942V706.95H151.427V699.75H149.942V702.165H147.452ZM143.882 704.04L147.647 706.455L148.382 705.345L144.437 702.855C144.587 702.375 144.692 701.88 144.722 701.355H147.962V700.08H139.787V701.355H143.237C143.057 703.44 141.737 704.955 139.622 705.24V706.575C141.512 706.395 142.997 705.435 143.882 704.04ZM145.997 707.37C142.892 707.37 140.462 708.09 140.462 709.965C140.462 711.84 142.892 712.56 145.997 712.56C149.102 712.56 151.532 711.84 151.532 709.965C151.532 708.09 149.102 707.37 145.997 707.37ZM145.997 711.345C143.792 711.345 142.037 710.91 142.037 709.965C142.037 709.02 143.792 708.585 145.997 708.585C148.202 708.585 149.957 709.02 149.957 709.965C149.957 710.91 148.202 711.345 145.997 711.345ZM160.186 710.565V707.46H165.151V706.08H155.401V701.595H165.001V700.215H153.886V707.46H158.671V710.565H153.046V711.945H165.841V710.565H160.186ZM168.704 710.37H167.204L166.724 713.76H167.954L168.704 710.37ZM183.396 705.9H184.941V700.05H173.901V701.445H183.396V705.9ZM185.856 706.965H173.061V708.375H178.611V712.86H180.141V708.375H185.856V706.965ZM192.95 704.565L198.53 707.685L199.235 706.485L193.655 703.38C193.91 702.84 194.105 702.24 194.225 701.595H198.815V700.23H187.4V701.595H192.65C192.02 704.37 189.785 705.99 187.115 706.215V707.595C189.485 707.445 191.63 706.38 192.95 704.565ZM193.865 710.55V707.295H192.38V710.55H186.74V711.945H199.535V710.55H193.865ZM204.788 704.325H215.903V703.125H206.273V701.1H215.753V699.9H204.788V704.325ZM203.873 706.77H216.668V705.57H203.873V706.77ZM210.263 712.605C213.323 712.605 215.903 712.005 215.903 710.25C215.903 708.495 213.323 707.91 210.263 707.91C207.203 707.91 204.623 708.495 204.623 710.25C204.623 712.005 207.203 712.605 210.263 712.605ZM210.263 711.435C208.178 711.435 206.183 711.135 206.183 710.25C206.183 709.38 208.178 709.08 210.263 709.08C212.348 709.08 214.343 709.38 214.343 710.25C214.343 711.135 212.348 711.435 210.263 711.435ZM228.457 699.75V712.56H229.867V699.75H228.457ZM225.367 705.09H223.657C223.507 701.595 222.487 700.05 220.702 700.05C218.767 700.05 217.717 701.865 217.717 706.005C217.717 710.145 218.767 711.96 220.702 711.96C222.562 711.96 223.582 710.295 223.672 706.5H225.367V712.335H226.762V699.825H225.367V705.09ZM220.702 710.61C219.637 710.61 219.127 709.155 219.127 706.005C219.127 702.855 219.637 701.4 220.702 701.4C221.767 701.4 222.262 702.855 222.262 706.005C222.262 709.155 221.767 710.61 220.702 710.61ZM248.079 704.94H246.369V699.75H244.914V712.56H246.369V706.365H248.079V704.94ZM236.589 710.445V701.565H238.974V700.215H235.134V711.795H236.769C237.519 711.795 238.434 711.69 239.034 711.48V710.16C238.524 710.37 237.774 710.445 237.204 710.445H236.589ZM241.044 710.445V701.565H243.504V700.215H239.589V711.795H241.449C242.334 711.795 243.189 711.66 243.834 711.375V710.025C243.234 710.325 242.439 710.445 241.734 710.445H241.044ZM261.758 704.94H259.958V699.75H258.473V712.56H259.958V706.365H261.758V704.94ZM250.433 710.43V706.59H256.043V700.215H248.933V701.58H254.558V705.225H248.963V711.795H254.018C255.248 711.795 256.583 711.57 257.363 711.18V709.83C256.583 710.205 255.263 710.43 254.048 710.43H250.433ZM277.091 702.195V699.75H275.606V706.83H277.091V703.605H278.891V702.195H277.091ZM269.861 703.77L273.641 706.275L274.406 705.18L270.431 702.6C270.731 701.79 270.896 700.905 270.896 699.96L269.411 699.87C269.381 702.57 267.956 704.79 265.526 705.225V706.575C267.431 706.32 268.931 705.27 269.861 703.77ZM271.796 707.25C268.736 707.25 266.306 707.985 266.306 709.905C266.306 711.825 268.736 712.56 271.796 712.56C274.871 712.56 277.286 711.825 277.286 709.905C277.286 707.985 274.871 707.25 271.796 707.25ZM271.796 711.33C269.621 711.33 267.896 710.895 267.896 709.905C267.896 708.93 269.621 708.48 271.796 708.48C273.986 708.48 275.696 708.93 275.696 709.905C275.696 710.895 273.986 711.33 271.796 711.33ZM289.645 712.56H291.13V699.75H289.645V712.56ZM279.775 711.765C284.155 711.765 286.885 708.435 286.885 703.305V700.215H279.775V701.58H285.37V703.335C285.37 707.625 283.27 710.34 279.775 710.355V711.765ZM303.368 712.56H304.853V699.75H303.368V712.56ZM297.248 708.09C299.543 708.09 301.208 706.44 301.208 704.055C301.208 701.67 299.543 700.02 297.248 700.02C294.938 700.02 293.288 701.67 293.288 704.055C293.288 706.44 294.938 708.09 297.248 708.09ZM297.248 706.74C295.718 706.74 294.743 705.585 294.743 704.055C294.743 702.525 295.718 701.355 297.248 701.355C298.763 701.355 299.753 702.525 299.753 704.055C299.753 705.585 298.763 706.74 297.248 706.74ZM292.853 711.795H297.998C299.843 711.795 301.433 711.57 302.288 711.18V709.8C301.418 710.205 299.843 710.4 298.088 710.4H292.853V711.795ZM320.336 704.205H321.836V699.9H310.841V701.16H320.336V704.205ZM309.986 706.215H322.781V704.97H309.986V706.215ZM310.871 712.41H321.881V707.52H310.871V712.41ZM312.356 711.195V708.735H320.411V711.195H312.356ZM334.57 699.75V702.69H332.485V699.825H331.075V707.505H332.485V704.085H334.57V707.64H335.98V699.75H334.57ZM326.83 707.31C328.75 707.31 329.785 705.84 329.785 703.575C329.785 701.31 328.75 699.855 326.83 699.855C324.91 699.855 323.86 701.31 323.86 703.575C323.86 705.84 324.91 707.31 326.83 707.31ZM326.83 701.1C327.835 701.1 328.39 701.97 328.39 703.575C328.39 705.165 327.835 706.065 326.83 706.065C325.81 706.065 325.255 705.165 325.255 703.575C325.255 701.97 325.81 701.1 326.83 701.1ZM324.82 709.62H334.51V712.56H335.98V708.345H324.82V709.62ZM350.739 704.82H348.969V699.75H347.484V712.56H348.969V706.245H350.739V704.82ZM343.644 708.405H345.144V700.245H337.809V701.625H343.644V708.405ZM341.079 710.4V704.97H339.579V710.4H337.344V711.795H342.234C343.989 711.795 345.504 711.63 346.419 711.255V709.86C345.504 710.25 343.944 710.4 342.219 710.4H341.079ZM359.786 703.11H363.071V701.73H359.801V699.63H358.286V701.73H354.851V703.11H358.286C358.121 706.995 356.786 709.95 354.626 710.34V711.795C356.546 711.57 358.091 710.1 358.976 707.64L362.411 711.78L363.491 710.82L359.441 706.035C359.621 705.15 359.741 704.16 359.786 703.11ZM367.871 704.94H366.071V699.75H364.586V712.56H366.071V706.365H367.871V704.94ZM378.625 712.56H380.125V699.75H378.625V712.56ZM372.58 711.96C374.845 711.96 376.45 710.07 376.45 706.005C376.45 701.94 374.845 700.05 372.58 700.05C370.3 700.05 368.695 701.94 368.695 706.005C368.695 710.07 370.3 711.96 372.58 711.96ZM372.58 710.595C371.215 710.595 370.18 709.26 370.18 706.005C370.18 702.765 371.215 701.415 372.58 701.415C373.915 701.415 374.965 702.765 374.965 706.005C374.965 709.26 373.915 710.595 372.58 710.595ZM395.229 704.94H393.429V699.75H391.944V712.56H393.429V706.365H395.229V704.94ZM382.299 701.58H387.759V703.335C387.759 707.625 385.779 710.34 382.299 710.355V711.765C386.649 711.765 389.274 708.405 389.274 703.305V700.215H382.299V701.58ZM410.562 701.955V699.75H409.077V705.93H410.562V703.35H412.362V701.955H410.562ZM408.147 704.865V703.62C407.322 703.98 405.852 704.19 404.112 704.19H400.917V699.99H399.417V705.435H404.022C405.837 705.435 407.367 705.21 408.147 704.865ZM401.337 710.07H410.562V706.635H399.837V707.805H409.092V708.96H399.867V712.395H410.877V711.225H401.337V710.07ZM418.9 703.38L424.42 706.53L425.11 705.285L419.62 702.24C419.98 701.52 420.25 700.725 420.4 699.9L418.87 699.66C418.315 702.69 415.705 705.15 412.945 705.135V706.545C415.285 706.53 417.475 705.315 418.9 703.38ZM425.44 707.895H412.645V709.275H418.27V712.86H419.785V709.275H425.44V707.895ZM433.464 710.565V707.46H438.429V706.08H428.679V701.595H438.279V700.215H427.164V707.46H431.949V710.565H426.324V711.945H439.119V710.565H433.464ZM455.412 699.75H453.927V706.875H455.412V699.75ZM451.662 703.215C451.662 701.25 450.102 699.885 447.657 699.885C445.197 699.885 443.637 701.25 443.637 703.215C443.637 705.195 445.197 706.545 447.657 706.545C450.102 706.545 451.662 705.195 451.662 703.215ZM445.122 703.215C445.122 701.895 446.157 701.115 447.657 701.115C449.142 701.115 450.177 701.895 450.177 703.215C450.177 704.535 449.142 705.315 447.657 705.315C446.157 705.315 445.122 704.535 445.122 703.215ZM456.447 711.405L453.687 709.26C453.897 708.705 454.032 708.12 454.092 707.475L452.652 707.265C452.517 709.065 451.512 710.595 450.312 710.97L448.347 709.35C448.587 708.78 448.752 708.15 448.827 707.46L447.387 707.265C447.222 709.245 445.977 710.91 444.567 711.045V712.395C445.797 712.305 446.937 711.6 447.732 710.475L449.907 712.395C451.167 712.32 452.322 711.585 453.102 710.4L455.562 712.455L456.447 711.405ZM463.526 704.61C466.631 704.61 469.181 703.89 469.181 702.135C469.181 700.395 466.631 699.675 463.526 699.675C460.421 699.675 457.871 700.395 457.871 702.135C457.871 703.89 460.421 704.61 463.526 704.61ZM463.526 703.425C461.291 703.425 459.446 703.035 459.446 702.135C459.446 701.25 461.291 700.845 463.526 700.845C465.761 700.845 467.606 701.25 467.606 702.135C467.606 703.035 465.761 703.425 463.526 703.425ZM457.136 706.815H469.931V705.615H457.136V706.815ZM458.021 712.41H469.031V708.06H458.021V712.41ZM459.506 711.225V709.245H467.561V711.225H459.506Z" fill="white"/>
<path d="M12.5 661C6.152 661 1 666.152 1 672.5C1 678.848 6.152 684 12.5 684C18.848 684 24 678.848 24 672.5C24 666.152 18.848 661 12.5 661ZM13.65 678.25H11.35V671.35H13.65V678.25ZM13.65 669.05H11.35V666.75H13.65V669.05Z" fill="white"/>
</svg>
