<svg width="887" height="880" viewBox="0 0 887 880" fill="none" xmlns="http://www.w3.org/2000/svg">
<path d="M231.936 62.13L239.496 66.63L240.906 64.38L233.106 59.85C233.406 59.07 233.616 58.23 233.736 57.39H240.456V54.9H233.766V52.05H230.766V54.9H223.986V57.39H230.706C230.106 61.05 227.616 63.81 223.716 64.38V66.96C227.286 66.57 230.166 64.74 231.936 62.13ZM246.546 58.17V52.5H243.576V67.71H246.546V61.02H250.146V58.17H246.546ZM235.956 68.46C229.836 68.46 224.976 69.72 224.976 73.29C224.976 76.86 229.836 78.12 235.956 78.12C242.106 78.12 246.936 76.86 246.936 73.29C246.936 69.72 242.106 68.46 235.956 68.46ZM235.956 75.75C231.576 75.75 228.126 75.06 228.126 73.29C228.126 71.52 231.576 70.83 235.956 70.83C240.336 70.83 243.786 71.52 243.786 73.29C243.786 75.06 240.336 75.75 235.956 75.75ZM271.564 52.5V57.63H266.284C265.564 54.72 262.714 52.8 258.574 52.8C253.714 52.8 250.654 55.41 250.654 59.13C250.654 62.85 253.714 65.46 258.574 65.46C262.834 65.46 265.714 63.42 266.344 60.39H271.564V65.64H274.534V52.5H271.564ZM258.574 63C255.634 63 253.624 61.53 253.624 59.13C253.624 56.73 255.634 55.26 258.574 55.26C261.514 55.26 263.494 56.73 263.494 59.13C263.494 61.53 261.514 63 258.574 63ZM271.594 69.75H255.934V67.05H253.024V77.79H274.534V67.05H271.594V69.75ZM255.934 75.36V72.12H271.594V75.36H255.934ZM305.229 66.66H308.199V52.5H305.229V55.26H300.759V57.87H305.229V61.26H299.769V63.87H305.229V66.66ZM299.499 55.92V53.13H284.889V55.65H296.499V56.43C296.499 61.02 292.059 63.24 284.889 63.27V65.85C293.739 65.85 299.499 62.88 299.499 55.92ZM297.399 67.5C291.279 67.5 286.239 68.91 286.239 72.81C286.239 76.68 291.279 78.12 297.399 78.12C303.519 78.12 308.559 76.68 308.559 72.81C308.559 68.91 303.519 67.5 297.399 67.5ZM297.399 75.66C293.079 75.66 289.389 74.82 289.389 72.81C289.389 70.8 293.079 69.96 297.399 69.96C301.749 69.96 305.409 70.8 305.409 72.81C305.409 74.82 301.749 75.66 297.399 75.66ZM328.597 54.66H321.397V52.05H318.397V54.66H311.197V56.97H328.597V54.66ZM332.287 52.5V60.27H328.267V62.91H332.287V67.74H335.257V52.5H332.287ZM319.897 67.56C324.067 67.56 327.337 65.91 327.337 62.97C327.337 60.06 324.067 58.38 319.897 58.38C315.727 58.38 312.427 60.06 312.427 62.97C312.427 65.91 315.727 67.56 319.897 67.56ZM319.897 60.6C322.747 60.6 324.517 61.62 324.517 62.97C324.517 64.32 322.747 65.37 319.897 65.37C317.047 65.37 315.247 64.32 315.247 62.97C315.247 61.62 317.047 60.6 319.897 60.6ZM313.447 77.79H335.167V69.18H313.447V77.79ZM316.387 71.55H332.227V75.42H316.387V71.55ZM359.134 78.12H362.134V52.5H359.134V78.12ZM347.044 76.92C351.574 76.92 354.784 73.14 354.784 65.01C354.784 56.88 351.574 53.1 347.044 53.1C342.484 53.1 339.274 56.88 339.274 65.01C339.274 73.14 342.484 76.92 347.044 76.92ZM347.044 74.19C344.314 74.19 342.244 71.52 342.244 65.01C342.244 58.53 344.314 55.83 347.044 55.83C349.714 55.83 351.814 58.53 351.814 65.01C351.814 71.52 349.714 74.19 347.044 74.19ZM387.79 60.39H393.01V65.82H395.98V52.5H393.01V57.63H387.73C387.01 54.75 384.16 52.8 380.02 52.8C375.16 52.8 372.1 55.44 372.1 59.13C372.1 62.85 375.16 65.46 380.02 65.46C384.28 65.46 387.16 63.42 387.79 60.39ZM375.07 59.13C375.07 56.73 377.08 55.26 380.02 55.26C382.96 55.26 384.94 56.73 384.94 59.13C384.94 61.53 382.96 63 380.02 63C377.08 63 375.07 61.53 375.07 59.13ZM398.62 75.84L393.25 71.22C393.67 69.99 393.97 68.58 394.06 67.05L391.21 66.84C390.88 71.79 388.54 74.85 385.9 75.18V77.79C388.45 77.61 390.7 76.11 392.17 73.62L396.79 77.82L398.62 75.84ZM382.15 69.93H376.81V66.93H374.14V77.79H384.85V66.93H382.15V69.93ZM376.81 75.42V72.24H382.15V75.42H376.81ZM400.747 62.43H422.917V59.79H403.747V52.5H400.747V62.43ZM398.917 67.89H424.507V65.25H398.917V67.89ZM400.687 77.82H423.187V75.18H403.717V70.17H400.687V77.82ZM441.163 62.13L448.723 66.63L450.133 64.38L442.333 59.85C442.633 59.07 442.843 58.23 442.963 57.39H449.683V54.9H442.993V52.05H439.993V54.9H433.213V57.39H439.933C439.333 61.05 436.843 63.81 432.943 64.38V66.96C436.513 66.57 439.393 64.74 441.163 62.13ZM455.773 58.17V52.5H452.803V67.71H455.773V61.02H459.373V58.17H455.773ZM445.183 68.46C439.063 68.46 434.203 69.72 434.203 73.29C434.203 76.86 439.063 78.12 445.183 78.12C451.333 78.12 456.163 76.86 456.163 73.29C456.163 69.72 451.333 68.46 445.183 68.46ZM445.183 75.75C440.803 75.75 437.353 75.06 437.353 73.29C437.353 71.52 440.803 70.83 445.183 70.83C449.563 70.83 453.013 71.52 453.013 73.29C453.013 75.06 449.563 75.75 445.183 75.75ZM480.79 52.5V57.63H475.51C474.79 54.72 471.94 52.8 467.8 52.8C462.94 52.8 459.88 55.41 459.88 59.13C459.88 62.85 462.94 65.46 467.8 65.46C472.06 65.46 474.94 63.42 475.57 60.39H480.79V65.64H483.76V52.5H480.79ZM467.8 63C464.86 63 462.85 61.53 462.85 59.13C462.85 56.73 464.86 55.26 467.8 55.26C470.74 55.26 472.72 56.73 472.72 59.13C472.72 61.53 470.74 63 467.8 63ZM480.82 69.75H465.16V67.05H462.25V77.79H483.76V67.05H480.82V69.75ZM465.16 75.36V72.12H480.82V75.36H465.16ZM505.696 63.18L516.886 68.97L518.176 66.54L506.986 60.9C507.316 60.03 507.556 59.13 507.706 58.17H517.486V55.44H507.556V52.17H504.496V55.44H494.686V58.17H504.556C503.686 62.7 499.396 65.7 494.026 66.12V68.85C499.036 68.55 503.296 66.51 505.696 63.18ZM507.556 74.13V68.25H504.586V74.13H493.306V76.89H518.896V74.13H507.556ZM534.643 74.1V68.34H544.243V53.25H541.303V57.84H524.983V53.25H522.043V68.34H531.613V74.1H520.363V76.89H545.953V74.1H534.643ZM524.983 60.51H541.303V65.67H524.983V60.51ZM574.211 62.88H570.611V52.5H567.641V78.12H570.611V65.73H574.211V62.88ZM557.981 56.16H564.431V53.43H548.321V56.16H554.981C554.891 65.67 552.251 72.81 547.721 73.65V76.59C551.591 76.14 554.591 72.96 556.331 67.65L563.081 76.38L565.421 74.61L557.201 64.29C557.681 61.89 557.951 59.16 557.981 56.16ZM588.758 74.13V67.92H598.688V65.16H579.188V56.19H598.388V53.43H576.158V67.92H585.728V74.13H574.478V76.89H600.068V74.13H588.758ZM446.915 121.12H449.915V95.5H446.915V121.12ZM434.825 119.92C439.355 119.92 442.565 116.14 442.565 108.01C442.565 99.88 439.355 96.1 434.825 96.1C430.265 96.1 427.055 99.88 427.055 108.01C427.055 116.14 430.265 119.92 434.825 119.92ZM434.825 117.19C432.095 117.19 430.025 114.52 430.025 108.01C430.025 101.53 432.095 98.83 434.825 98.83C437.495 98.83 439.595 101.53 439.595 108.01C439.595 114.52 437.495 117.19 434.825 117.19ZM477.002 95.5H474.032V109.24H477.002V95.5ZM471.902 107.89V105.58C470.132 106.33 467.012 106.6 463.502 106.6H463.382V104.05H469.652V101.83H457.412V98.2H469.352V95.98H454.532V104.05H460.442V106.6H453.032V108.88H463.412C467.072 108.88 470.282 108.61 471.902 107.89ZM458.222 118.57V116.77H477.002V110.62H455.252V112.84H474.092V114.64H455.312V120.79H477.662V118.57H458.222ZM499.208 102.76L510.248 109.06L511.628 106.57L500.648 100.48C501.368 99.04 501.908 97.45 502.208 95.8L499.148 95.32C498.038 101.38 492.818 106.3 487.298 106.27V109.09C491.978 109.06 496.358 106.63 499.208 102.76ZM512.288 111.79H486.698V114.55H497.948V121.72H500.978V114.55H512.288V111.79ZM544.273 95.5H541.303V109.75H544.273V95.5ZM536.773 102.43C536.773 98.5 533.653 95.77 528.763 95.77C523.843 95.77 520.723 98.5 520.723 102.43C520.723 106.39 523.843 109.09 528.763 109.09C533.653 109.09 536.773 106.39 536.773 102.43ZM523.693 102.43C523.693 99.79 525.763 98.23 528.763 98.23C531.733 98.23 533.803 99.79 533.803 102.43C533.803 105.07 531.733 106.63 528.763 106.63C525.763 106.63 523.693 105.07 523.693 102.43ZM546.343 118.81L540.823 114.52C541.243 113.41 541.513 112.24 541.633 110.95L538.753 110.53C538.483 114.13 536.473 117.19 534.073 117.94L530.143 114.7C530.623 113.56 530.953 112.3 531.103 110.92L528.223 110.53C527.893 114.49 525.403 117.82 522.583 118.09V120.79C525.043 120.61 527.323 119.2 528.913 116.95L533.263 120.79C535.783 120.64 538.093 119.17 539.653 116.8L544.573 120.91L546.343 118.81ZM561.701 117.13V110.92H571.631V108.16H552.131V99.19H571.331V96.43H549.101V110.92H558.671V117.13H547.421V119.89H573.011V117.13H561.701ZM588.728 109.63V107.11H598.598V104.8H579.248V102.49H598.238V95.8H576.338V98.11H595.328V100.3H576.338V107.11H585.788V109.63H574.478V112H600.068V109.63H588.728ZM576.038 116.62H595.268V121.15H598.268V114.22H576.038V116.62ZM432.315 148.88H428.865V138.5H425.985V164.12H428.865V151.73H432.315V148.88ZM406.095 142.13H410.565V145.49C410.565 153.26 409.485 158.42 406.095 158.87V161.63C411.555 161.39 413.445 154.85 413.445 145.22V139.43H406.095V142.13ZM414.765 142.13H419.175V145.88C419.175 154.4 417.555 159.35 413.955 159.77V162.53C419.595 162.26 422.055 155.9 422.055 145.61V139.43H414.765V142.13ZM453.523 138.5V164.12H456.493V138.5H453.523ZM443.533 142.16H450.103V139.43H433.753V142.16H440.533C440.413 151.67 437.713 158.81 433.153 159.65V162.59C437.023 162.14 440.083 158.96 441.853 153.59L448.753 162.38L451.093 160.61L442.723 150.26C443.203 147.86 443.503 145.13 443.533 142.16ZM487.368 138.5V144.41H482.418V146.99H487.368V154.1H490.338V138.5H487.368ZM475.248 147.98L482.598 153.14L484.188 150.95L476.328 145.52C476.688 144.35 476.928 143.06 476.988 141.71H483.438V139.16H467.088V141.71H473.988C473.688 146.57 471.048 150.02 466.758 150.65V153.35C470.508 152.96 473.478 150.98 475.248 147.98ZM468.318 158.09H487.308V164.12H490.338V155.51H468.318V158.09ZM514.006 147.89H517.006V138.8H495.076V141.38H514.006V147.89ZM493.306 152.06H518.896V149.45H493.306V152.06ZM514.096 164.15H517.096V155.24H494.866V157.82H514.096V164.15ZM547.911 138.5V164.12H550.881V138.5H547.911ZM537.921 142.16H544.491V139.43H528.141V142.16H534.921C534.801 151.67 532.101 158.81 527.541 159.65V162.59C531.411 162.14 534.471 158.96 536.241 153.59L543.141 162.38L545.481 160.61L537.111 150.26C537.591 147.86 537.891 145.13 537.921 142.16ZM567.409 154.58V156.98H575.179V158.57H578.149V138.5H575.179V154.58H567.409ZM563.149 148.55C567.619 148.55 570.739 146.78 570.739 143.54C570.739 140.33 567.619 138.56 563.149 138.56C558.709 138.56 555.559 140.33 555.559 143.54C555.559 146.78 558.709 148.55 563.149 148.55ZM563.149 140.9C565.849 140.9 567.829 141.77 567.829 143.54C567.829 145.31 565.849 146.21 563.149 146.21C560.449 146.21 558.469 145.31 558.469 143.54C558.469 141.77 560.449 140.9 563.149 140.9ZM561.109 157.4H564.079V152.81H564.529C568.189 152.81 571.399 152.51 573.019 151.79V149.33C571.249 150.08 568.129 150.35 564.619 150.35H554.029V152.81H561.109V157.4ZM559.369 161.27V156.02H556.399V163.79H578.809V161.27H559.369ZM588.826 138.44H585.886V142.49H580.516V145.16H594.196V142.49H588.826V138.44ZM602.956 138.5V148.82H598.846V138.65H596.086V163.67H598.846V151.61H602.956V164.12H605.716V138.5H602.956ZM587.476 147.17C584.056 147.17 581.536 149.93 581.536 155.03C581.536 160.13 584.056 162.89 587.476 162.89C590.926 162.89 593.446 160.13 593.446 155.03C593.446 149.93 590.926 147.17 587.476 147.17ZM587.476 160.28C585.646 160.28 584.296 158.39 584.296 155.03C584.296 151.67 585.646 149.78 587.476 149.78C589.336 149.78 590.716 151.67 590.716 155.03C590.716 158.39 589.336 160.28 587.476 160.28ZM609.824 154.55H632.354V151.79H612.854V142.19H632.054V139.43H609.824V154.55ZM608.144 162.89H633.734V160.1H608.144V162.89ZM656.141 138.5V152.66H659.111V138.5H656.141ZM636.371 144.53V152.3H645.941C649.571 152.3 652.571 151.85 654.131 151.16V148.73C652.481 149.48 649.541 149.9 646.061 149.9H639.311V146.87H651.521V139.13H636.311V141.53H648.581V144.53H636.371ZM656.171 156.41H640.331V154.07H637.391V163.79H659.111V154.07H656.171V156.41ZM640.331 161.39V158.75H656.171V161.39H640.331ZM683.199 164.15L686.169 164.12V138.5H683.199V164.15ZM663.729 162.59H674.199C676.659 162.59 679.269 162.11 680.829 161.33V158.6C679.269 159.35 676.629 159.86 674.199 159.86H666.759V139.28H663.729V162.59ZM716.106 148.88H712.506V138.5H709.536V164.12H712.506V151.73H716.106V148.88ZM693.546 159.89V142.13H705.306V139.43H690.516V162.59H700.536C702.996 162.59 705.756 162.14 707.316 161.36V158.66C705.756 159.41 703.116 159.89 700.686 159.89H693.546Z" fill="white"/>
<path d="M250.146 105.88H247.176V95.5H244.386V121.12H247.176V108.73H250.146V105.88ZM229.686 105.22H226.716V96.25H224.016V119.59H232.266V96.25H229.686V105.22ZM239.316 105.22H236.346V96.25H233.766V119.59H241.986V96.25H239.316V105.22ZM226.716 116.98V107.8H229.686V116.98H226.716ZM236.346 116.98V107.8H239.316V116.98H236.346ZM252.124 112.81H274.714V110.14H255.064V105.88H274.324V96.43H252.124V99.1H271.384V103.27H252.124V112.81ZM250.414 119.89H276.004V117.16H250.414V119.89ZM298.261 113.32H301.351V96.4H279.031V99.19H298.261V113.32ZM290.071 117.1V105.67H287.011V117.1H277.471V119.89H303.061V117.1H290.071ZM332.167 95.5V121.12H335.137V95.5H332.167ZM319.957 103.81L327.337 108.82L328.957 106.57L321.157 101.38C321.757 99.73 322.087 97.9 322.117 96.04L319.147 95.86C318.997 100.84 316.507 105.55 311.797 106.27V109C315.457 108.64 318.217 106.66 319.957 103.81ZM311.137 111.49V114.19H318.427V121.12H321.397V114.19H321.637C325.147 114.19 328.177 113.89 330.007 113.2V110.5C328.177 111.22 325.057 111.49 321.607 111.49H311.137ZM350.974 106.42C357.184 106.42 362.344 104.68 362.344 100.87C362.344 97.09 357.184 95.35 350.974 95.35C344.764 95.35 339.604 97.09 339.604 100.87C339.604 104.68 344.764 106.42 350.974 106.42ZM350.974 97.75C355.444 97.75 359.194 98.8 359.194 100.87C359.194 102.97 355.444 104.02 350.974 104.02C346.504 104.02 342.754 102.97 342.754 100.87C342.754 98.8 346.504 97.75 350.974 97.75ZM338.194 108.64V111.16H349.474V115.57H352.474V111.16H363.784V108.64H338.194ZM342.994 113.53H339.964V120.82H362.464V118.27H342.994V113.53ZM380.44 105.13L388 109.63L389.41 107.38L381.61 102.85C381.91 102.07 382.12 101.23 382.24 100.39H388.96V97.9H382.27V95.05H379.27V97.9H372.49V100.39H379.21C378.61 104.05 376.12 106.81 372.22 107.38V109.96C375.79 109.57 378.67 107.74 380.44 105.13ZM395.05 101.17V95.5H392.08V110.71H395.05V104.02H398.65V101.17H395.05ZM384.46 111.46C378.34 111.46 373.48 112.72 373.48 116.29C373.48 119.86 378.34 121.12 384.46 121.12C390.61 121.12 395.44 119.86 395.44 116.29C395.44 112.72 390.61 111.46 384.46 111.46ZM384.46 118.75C380.08 118.75 376.63 118.06 376.63 116.29C376.63 114.52 380.08 113.83 384.46 113.83C388.84 113.83 392.29 114.52 392.29 116.29C392.29 118.06 388.84 118.75 384.46 118.75ZM420.067 95.5V100.63H414.787C414.067 97.72 411.217 95.8 407.077 95.8C402.217 95.8 399.157 98.41 399.157 102.13C399.157 105.85 402.217 108.46 407.077 108.46C411.337 108.46 414.217 106.42 414.847 103.39H420.067V108.64H423.037V95.5H420.067ZM407.077 106C404.137 106 402.127 104.53 402.127 102.13C402.127 99.73 404.137 98.26 407.077 98.26C410.017 98.26 411.997 99.73 411.997 102.13C411.997 104.53 410.017 106 407.077 106ZM420.097 112.75H404.437V110.05H401.527V120.79H423.037V110.05H420.097V112.75ZM404.437 118.36V115.12H420.097V118.36H404.437Z" fill="#8FD7ED"/>
<path d="M141.917 148.88H138.317V138.5H135.347V164.12H138.317V151.73H141.917V148.88ZM116.057 142.16H126.977V145.67C126.977 154.25 123.017 159.68 116.057 159.71V162.53C124.757 162.53 130.007 155.81 130.007 145.61V139.43H116.057V142.16ZM159.824 146.45H163.994V153.47H166.814V138.5H163.994V143.72H159.824V138.65H157.004V152.63H159.824V146.45ZM154.064 139.13H142.964V151.64H154.064V139.13ZM151.304 149.15H145.724V141.62H151.304V149.15ZM155.744 153.98C149.624 153.98 144.284 155.27 144.284 159.05C144.284 162.83 149.624 164.12 155.744 164.12C161.864 164.12 167.204 162.83 167.204 159.05C167.204 155.27 161.864 153.98 155.744 153.98ZM155.744 161.69C151.544 161.69 147.434 161 147.434 159.05C147.434 157.1 151.544 156.38 155.744 156.38C159.944 156.38 164.054 157.1 164.054 159.05C164.054 161 159.944 161.69 155.744 161.69ZM199.04 143.39V138.5H196.07V152.66H199.04V146.21H202.64V143.39H199.04ZM184.58 146.54L192.14 151.55L193.67 149.36L185.72 144.2C186.32 142.58 186.65 140.81 186.65 138.92L183.68 138.74C183.62 144.14 180.77 148.58 175.91 149.45V152.15C179.72 151.64 182.72 149.54 184.58 146.54ZM188.45 153.5C182.33 153.5 177.47 154.97 177.47 158.81C177.47 162.65 182.33 164.12 188.45 164.12C194.6 164.12 199.43 162.65 199.43 158.81C199.43 154.97 194.6 153.5 188.45 153.5ZM188.45 161.66C184.1 161.66 180.65 160.79 180.65 158.81C180.65 156.86 184.1 155.96 188.45 155.96C192.83 155.96 196.25 156.86 196.25 158.81C196.25 160.79 192.83 161.66 188.45 161.66ZM229.697 143.75H226.097V138.5H223.127V152.42H226.097V146.6H229.697V143.75ZM221.267 150.05V147.53C219.617 148.25 216.677 148.67 213.197 148.67H206.777V141.65H219.437V139.13H203.807V151.19H213.017C216.647 151.19 219.707 150.74 221.267 150.05ZM204.677 163.79H226.097V153.83H204.677V163.79ZM207.647 156.35H223.127V161.27H207.647V156.35ZM253.754 138.95H250.814V142.55H234.674V138.95H231.734V152.09H253.754V138.95ZM234.674 149.45V145.19H250.814V149.45H234.674ZM255.554 154.82H229.964V157.58H241.214V164.72H244.274V157.58H255.554V154.82ZM278.142 138.5V148.94H273.402V151.73H278.142V164.12H281.142V138.5H278.142ZM261.342 159.86V152.18H271.572V149.45H261.342V142.16H273.012V139.43H258.372V162.59H268.182C270.642 162.59 273.252 162.14 274.812 161.36V158.63C273.252 159.38 270.612 159.86 268.182 159.86H261.342ZM304.968 160.1V154.64C311.088 154.22 315.018 151.19 315.018 146.84C315.018 142.1 310.428 138.95 303.468 138.95C296.508 138.95 291.918 142.1 291.918 146.84C291.918 151.19 295.848 154.22 301.938 154.64V160.1H290.688V162.89H316.278V160.1H304.968ZM295.068 146.84C295.068 143.72 298.428 141.65 303.468 141.65C308.538 141.65 311.898 143.72 311.898 146.84C311.898 149.93 308.538 152 303.468 152C298.428 152 295.068 149.93 295.068 146.84ZM341.835 147.2H337.305V141.23H341.565V138.8H319.485V141.23H323.745V147.2H319.215V149.63H341.835V147.2ZM326.715 141.23H334.335V147.2H326.715V141.23ZM317.745 152.24V154.76H343.335V152.24H317.745ZM322.545 156.89H319.515V163.82H342.015V161.3H322.545V156.89ZM378.201 148.64H374.661V138.5H371.691V164.12H374.661V151.49H378.201V148.64ZM364.011 155.81H367.011V139.49H352.341V142.25H364.011V155.81ZM358.881 159.8V148.94H355.881V159.8H351.411V162.59H361.191C364.701 162.59 367.731 162.26 369.561 161.51V158.72C367.731 159.5 364.611 159.8 361.161 159.8H358.881ZM394.638 143.33V145.91H399.618V152.9H402.588V138.5H399.618V143.33H394.638ZM387.498 147.08L395.028 151.91L396.498 149.69L388.608 144.71C388.908 143.75 389.118 142.76 389.178 141.71H395.658V139.16H379.308V141.71H386.208C385.848 145.88 383.208 148.91 378.978 149.48V152.15C382.758 151.79 385.728 149.87 387.498 147.08ZM391.728 153.74C385.518 153.74 380.658 155.18 380.658 158.93C380.658 162.68 385.518 164.12 391.728 164.12C397.938 164.12 402.798 162.68 402.798 158.93C402.798 155.18 397.938 153.74 391.728 153.74ZM391.728 161.69C387.318 161.69 383.808 160.82 383.808 158.93C383.808 157.04 387.318 156.17 391.728 156.17C396.138 156.17 399.648 157.04 399.648 158.93C399.648 160.82 396.138 161.69 391.728 161.69Z" fill="#91D6EE"/>
<path d="M123.365 42.68C119.205 42.68 117.125 40.9733 117.125 37.56C117.125 34.04 118.592 30.4667 121.525 26.84C124.458 23.2133 127.792 21.4 131.525 21.4C132.272 21.4 133.072 21.56 133.925 21.88C134.778 22.1467 135.205 22.68 135.205 23.48C135.205 24.28 134.912 24.8933 134.325 25.32C133.792 25.7467 133.152 26.1733 132.405 26.6C131.658 26.9733 130.912 27.4267 130.165 27.96C129.472 28.4933 128.938 29.2667 128.565 30.28C130.378 31.4533 131.285 33.32 131.285 35.88C131.285 37.64 130.432 39.2133 128.725 40.6C127.072 41.9867 125.285 42.68 123.365 42.68ZM145.445 29.48C147.258 30.6533 148.165 32.4933 148.165 35C148.165 37.4533 147.232 39.48 145.365 41.08C143.498 42.68 141.258 43.48 138.645 43.48C137.205 43.48 135.925 43.08 134.805 42.28C133.738 41.48 133.205 40.12 133.205 38.2C133.205 34.1467 134.778 30.2 137.925 26.36C141.072 22.52 144.565 20.6 148.405 20.6C149.152 20.6 149.952 20.76 150.805 21.08C151.658 21.3467 152.085 21.88 152.085 22.68C152.085 23.48 151.792 24.0933 151.205 24.52C150.672 24.9467 150.032 25.3733 149.285 25.8C148.538 26.1733 147.792 26.6267 147.045 27.16C146.352 27.6933 145.818 28.4667 145.445 29.48Z" fill="white"/>
<path d="M760.635 173.32C764.795 173.32 766.875 175.027 766.875 178.44C766.875 181.96 765.408 185.533 762.475 189.16C759.542 192.787 756.208 194.6 752.475 194.6C751.728 194.6 750.928 194.44 750.075 194.12C749.222 193.853 748.795 193.32 748.795 192.52C748.795 191.72 749.088 191.107 749.675 190.68C750.208 190.253 750.848 189.827 751.595 189.4C752.342 189.027 753.088 188.573 753.835 188.04C754.528 187.507 755.062 186.733 755.435 185.72C753.622 184.547 752.715 182.68 752.715 180.12C752.715 178.36 753.568 176.787 755.275 175.4C756.928 174.013 758.715 173.32 760.635 173.32ZM738.555 186.52C736.742 185.347 735.835 183.507 735.835 181C735.835 178.547 736.768 176.52 738.635 174.92C740.502 173.32 742.742 172.52 745.355 172.52C746.795 172.52 748.075 172.92 749.195 173.72C750.262 174.52 750.795 175.88 750.795 177.8C750.795 181.853 749.222 185.8 746.075 189.64C742.928 193.48 739.435 195.4 735.595 195.4C734.848 195.4 734.048 195.24 733.195 194.92C732.342 194.653 731.915 194.12 731.915 193.32C731.915 192.52 732.208 191.907 732.795 191.48C733.328 191.053 733.968 190.627 734.715 190.2C735.462 189.827 736.208 189.373 736.955 188.84C737.648 188.307 738.182 187.533 738.555 186.52Z" fill="white"/>
<path d="M202.393 378.725C199.842 378.725 197.818 379.945 197.818 381.984C197.818 384.105 199.149 385.117 201.603 385.575C203.614 385.949 204.376 386.309 204.376 387.211C204.376 387.945 203.614 388.458 202.588 388.458C201.146 388.458 200.203 387.738 200.064 386.656H197.471C197.582 389.069 199.62 390.58 202.407 390.58C204.931 390.58 206.969 389.263 206.969 387.1C206.969 385.408 206.082 384.119 203.475 383.578C201.27 383.12 200.397 382.829 200.397 381.984C200.397 381.304 201.049 380.833 202.227 380.833C203.433 380.833 204.168 381.429 204.321 382.413H206.927C206.803 380.264 204.917 378.725 202.393 378.725ZM216.704 379.003H206.833V381.235H210.507V390.303H213.03V381.235H216.704V379.003ZM217.227 390.303H225.754V388.112H219.75V385.685H225.144V383.495H219.75V381.193H225.629V379.003H217.227V390.303ZM226.618 390.303H229.141V387.294H230.957C233.897 387.294 235.616 385.658 235.616 383.134C235.616 380.639 233.897 379.003 230.957 379.003H226.618V390.303ZM229.141 385.062V381.235H230.846C232.247 381.235 233.093 381.886 233.093 383.134C233.093 384.396 232.247 385.062 230.846 385.062H229.141ZM243.08 378.698C240.612 378.698 238.754 380.68 238.754 384.646C238.754 388.597 240.612 390.58 243.08 390.58C245.548 390.58 247.406 388.597 247.406 384.646C247.406 380.68 245.548 378.698 243.08 378.698ZM243.08 380.902C244.189 380.902 245.021 382.067 245.021 384.646C245.021 387.211 244.189 388.375 243.08 388.375C241.971 388.375 241.139 387.211 241.139 384.646C241.139 382.067 241.971 380.902 243.08 380.902ZM252.052 379.003H247.546V381.193H249.543V390.303H252.052V379.003Z" fill="white"/>
<path d="M635.393 601.725C632.842 601.725 630.818 602.945 630.818 604.984C630.818 607.105 632.149 608.117 634.603 608.575C636.614 608.949 637.376 609.309 637.376 610.211C637.376 610.945 636.614 611.458 635.588 611.458C634.146 611.458 633.203 610.738 633.064 609.656H630.471C630.582 612.069 632.62 613.58 635.407 613.58C637.931 613.58 639.969 612.263 639.969 610.1C639.969 608.408 639.082 607.119 636.475 606.578C634.27 606.12 633.397 605.829 633.397 604.984C633.397 604.304 634.049 603.833 635.227 603.833C636.433 603.833 637.168 604.429 637.321 605.413H639.927C639.803 603.264 637.917 601.725 635.393 601.725ZM649.704 602.003H639.833V604.235H643.507V613.303H646.03V604.235H649.704V602.003ZM650.227 613.303H658.754V611.112H652.75V608.685H658.144V606.495H652.75V604.193H658.629V602.003H650.227V613.303ZM659.618 613.303H662.141V610.294H663.957C666.897 610.294 668.616 608.658 668.616 606.134C668.616 603.639 666.897 602.003 663.957 602.003H659.618V613.303ZM662.141 608.062V604.235H663.846C665.247 604.235 666.093 604.886 666.093 606.134C666.093 607.396 665.247 608.062 663.846 608.062H662.141ZM676.08 601.698C673.612 601.698 671.754 603.68 671.754 607.646C671.754 611.597 673.612 613.58 676.08 613.58C678.548 613.58 680.406 611.597 680.406 607.646C680.406 603.68 678.548 601.698 676.08 601.698ZM676.08 603.902C677.189 603.902 678.021 605.067 678.021 607.646C678.021 610.211 677.189 611.375 676.08 611.375C674.971 611.375 674.139 610.211 674.139 607.646C674.139 605.067 674.971 603.902 676.08 603.902ZM685.538 613.303H687.922V611.029H689.406V608.949H687.922V602.003H684.83L680.463 608.949V611.029H685.538V613.303ZM682.875 608.949L685.538 604.595V608.949H682.875Z" fill="white"/>
<path d="M419.393 603.725C416.842 603.725 414.818 604.945 414.818 606.984C414.818 609.105 416.149 610.117 418.603 610.575C420.614 610.949 421.376 611.309 421.376 612.211C421.376 612.945 420.614 613.458 419.588 613.458C418.146 613.458 417.203 612.738 417.064 611.656H414.471C414.582 614.069 416.62 615.58 419.407 615.58C421.931 615.58 423.969 614.263 423.969 612.1C423.969 610.408 423.082 609.119 420.475 608.578C418.27 608.12 417.397 607.829 417.397 606.984C417.397 606.304 418.049 605.833 419.227 605.833C420.433 605.833 421.168 606.429 421.321 607.413H423.927C423.803 605.264 421.917 603.725 419.393 603.725ZM433.704 604.003H423.833V606.235H427.507V615.303H430.03V606.235H433.704V604.003ZM434.227 615.303H442.754V613.112H436.75V610.685H442.144V608.495H436.75V606.193H442.629V604.003H434.227V615.303ZM443.618 615.303H446.141V612.294H447.957C450.897 612.294 452.616 610.658 452.616 608.134C452.616 605.639 450.897 604.003 447.957 604.003H443.618V615.303ZM446.141 610.062V606.235H447.846C449.247 606.235 450.093 606.886 450.093 608.134C450.093 609.396 449.247 610.062 447.846 610.062H446.141ZM460.08 603.698C457.612 603.698 455.754 605.68 455.754 609.646C455.754 613.597 457.612 615.58 460.08 615.58C462.548 615.58 464.406 613.597 464.406 609.646C464.406 605.68 462.548 603.698 460.08 603.698ZM460.08 605.902C461.189 605.902 462.021 607.067 462.021 609.646C462.021 612.211 461.189 613.375 460.08 613.375C458.971 613.375 458.139 612.211 458.139 609.646C458.139 607.067 458.971 605.902 460.08 605.902ZM468.719 615.566C471.049 615.566 472.824 614.013 472.824 611.628C472.824 609.23 471.326 607.802 469.108 607.802C468.387 607.802 467.777 607.982 467.291 608.273L467.416 606.152H472.269V604.003H465.128L464.796 610.602H467.083C467.388 610.186 467.888 609.84 468.678 609.84C469.759 609.84 470.369 610.575 470.369 611.628C470.369 612.668 469.745 613.431 468.719 613.431C467.68 613.431 467.167 612.904 467.07 612.003H464.588C464.768 614.179 466.265 615.566 468.719 615.566Z" fill="white"/>
<path d="M418.393 823.671C415.842 823.671 413.818 824.891 413.818 826.929C413.818 829.05 415.149 830.062 417.603 830.52C419.614 830.894 420.376 831.255 420.376 832.156C420.376 832.891 419.614 833.404 418.588 833.404C417.146 833.404 416.203 832.683 416.064 831.601H413.471C413.582 834.014 415.62 835.525 418.407 835.525C420.931 835.525 422.969 834.208 422.969 832.045C422.969 830.354 422.082 829.064 419.475 828.523C417.27 828.066 416.397 827.775 416.397 826.929C416.397 826.249 417.049 825.778 418.227 825.778C419.433 825.778 420.168 826.374 420.321 827.359H422.927C422.803 825.21 420.917 823.671 418.393 823.671ZM432.704 823.948H422.833V826.18H426.507V835.248H429.03V826.18H432.704V823.948ZM433.227 835.248H441.754V833.057H435.75V830.631H441.144V828.44H435.75V826.139H441.629V823.948H433.227V835.248ZM442.618 835.248H445.141V832.239H446.957C449.897 832.239 451.616 830.603 451.616 828.08C451.616 825.584 449.897 823.948 446.957 823.948H442.618V835.248ZM445.141 830.007V826.18H446.846C448.247 826.18 449.093 826.832 449.093 828.08C449.093 829.341 448.247 830.007 446.846 830.007H445.141ZM459.08 823.643C456.612 823.643 454.754 825.626 454.754 829.591C454.754 833.542 456.612 835.525 459.08 835.525C461.548 835.525 463.406 833.542 463.406 829.591C463.406 825.626 461.548 823.643 459.08 823.643ZM459.08 825.847C460.189 825.847 461.021 827.012 461.021 829.591C461.021 832.156 460.189 833.321 459.08 833.321C457.971 833.321 457.139 832.156 457.139 829.591C457.139 827.012 457.971 825.847 459.08 825.847ZM472.142 832.17C472.142 830.603 470.867 829.605 469.855 829.397C470.714 829.133 471.726 828.163 471.726 826.873C471.726 825.126 470.16 823.643 467.844 823.643C465.543 823.643 463.934 825.099 463.934 826.873C463.934 828.163 464.96 829.133 465.834 829.397C464.836 829.605 463.546 830.603 463.546 832.17C463.546 834.222 465.446 835.525 467.844 835.525C470.243 835.525 472.142 834.222 472.142 832.17ZM469.369 826.97C469.369 827.733 468.718 828.26 467.844 828.26C466.998 828.26 466.319 827.705 466.319 826.915C466.319 826.194 466.971 825.695 467.844 825.695C468.745 825.695 469.369 826.249 469.369 826.97ZM469.716 832.017C469.716 832.835 468.953 833.445 467.844 833.445C466.735 833.445 465.972 832.835 465.972 832.017C465.972 831.172 466.763 830.548 467.844 830.548C468.926 830.548 469.716 831.172 469.716 832.017Z" fill="white"/>
<path d="M199.976 414.056H197.665V406.846H193.76V426.581H197.665V417.846H199.976V414.056ZM179.687 410.867H186.874V412.647C186.874 418.424 184.424 421.913 179.687 421.959V425.657C186.527 425.657 190.848 420.665 190.848 412.647V407.309H179.687V410.867ZM215.711 413.756H217.352V418.331H221.003V406.846H217.352V410.197H215.711V406.939H212.106V417.684H215.711V413.756ZM210.766 407.078H201.707V417.291H210.766V407.078ZM207.207 414.126H205.266V410.243H207.207V414.126ZM211.921 418.354C206.745 418.354 202.655 419.464 202.655 422.583C202.655 425.703 206.745 426.812 211.921 426.812C217.097 426.812 221.188 425.703 221.188 422.583C221.188 419.464 217.097 418.354 211.921 418.354ZM211.921 423.739C209.125 423.739 206.814 423.461 206.814 422.583C206.814 421.728 209.125 421.428 211.921 421.428C214.717 421.428 217.028 421.728 217.028 422.583C217.028 423.461 214.717 423.739 211.921 423.739ZM248.598 409.874V406.846H244.693V417.707H248.598V413.594H250.909V409.874H248.598ZM237.044 413.848L241.989 417.107L243.977 414.287L238.616 410.89C239.032 409.712 239.239 408.464 239.239 407.17L235.311 406.939C235.242 410.867 233.185 413.756 230.065 414.126V417.615C232.954 417.453 235.404 416.02 237.044 413.848ZM239.887 417.985C234.918 417.985 230.99 419.117 230.99 422.398C230.99 425.68 234.918 426.812 239.887 426.812C244.855 426.812 248.783 425.68 248.783 422.398C248.783 419.117 244.855 417.985 239.887 417.985ZM239.887 423.692C237.275 423.692 235.196 423.346 235.196 422.398C235.196 421.474 237.275 421.104 239.887 421.104C242.498 421.104 244.578 421.474 244.578 422.398C244.578 423.346 242.498 423.692 239.887 423.692ZM273.137 410.128H270.827V406.846H266.921V417.523H270.827V413.918H273.137V410.128ZM265.997 416.228V413.063C264.957 413.479 263.224 413.71 261.445 413.71H256.638V410.29H264.865V407.078H252.733V416.922H261.283C263.132 416.922 264.98 416.668 265.997 416.228ZM253.403 426.581H270.827V418.216H253.403V426.581ZM257.308 421.428H266.921V423.369H257.308V421.428Z" fill="white"/>
<path d="M633.976 637.056H631.665V629.846H627.76V649.581H631.665V640.846H633.976V637.056ZM613.687 633.867H620.874V635.647C620.874 641.424 618.424 644.913 613.687 644.959V648.657C620.527 648.657 624.848 643.665 624.848 635.647V630.309H613.687V633.867ZM649.711 636.756H651.352V641.331H655.003V629.846H651.352V633.197H649.711V629.939H646.106V640.684H649.711V636.756ZM644.766 630.078H635.707V640.291H644.766V630.078ZM641.207 637.126H639.266V633.243H641.207V637.126ZM645.921 641.354C640.745 641.354 636.655 642.464 636.655 645.583C636.655 648.703 640.745 649.812 645.921 649.812C651.097 649.812 655.188 648.703 655.188 645.583C655.188 642.464 651.097 641.354 645.921 641.354ZM645.921 646.739C643.125 646.739 640.814 646.461 640.814 645.583C640.814 644.728 643.125 644.428 645.921 644.428C648.717 644.428 651.028 644.728 651.028 645.583C651.028 646.461 648.717 646.739 645.921 646.739ZM680.08 629.846V649.581H683.708V629.846H680.08ZM675.042 634.029H672.916V630.309H664.343V633.821H669.196V636.34C669.196 641.886 667.278 644.774 664.343 645.006V648.657C667.208 648.61 669.819 647.039 671.391 643.873H675.042V649.234H678.624V629.939H675.042V634.029ZM672.569 640.245C672.708 639.436 672.824 638.581 672.87 637.657H675.042V640.245H672.569ZM707.137 634.699V631.395H704.827V629.846H700.921V641.586H704.827V639.46H707.137V636.155H704.827V634.699H707.137ZM692.417 641.193C696.207 641.193 698.772 638.859 698.772 635.531C698.772 632.227 696.207 629.87 692.417 629.87C688.628 629.87 686.063 632.227 686.063 635.531C686.063 638.859 688.628 641.193 692.417 641.193ZM692.417 633.082C693.873 633.082 694.89 634.006 694.89 635.531C694.89 637.056 693.873 637.981 692.417 637.981C690.939 637.981 689.945 637.056 689.945 635.531C689.945 634.006 690.939 633.082 692.417 633.082ZM687.542 645.629H700.852V649.812H704.827V642.279H687.542V645.629Z" fill="white"/>
<path d="M391.22 631.846H387.315V646.451H391.22V631.846ZM378.556 631.87C374.697 631.87 372.063 634.227 372.063 637.785C372.063 641.367 374.697 643.701 378.556 643.701C382.416 643.701 385.05 641.367 385.05 637.785C385.05 634.227 382.416 631.87 378.556 631.87ZM378.556 635.128C380.058 635.128 381.168 636.075 381.168 637.785C381.168 639.495 380.058 640.443 378.556 640.443C377.054 640.443 375.945 639.495 375.945 637.785C375.945 636.075 377.054 635.128 378.556 635.128ZM377.771 644.672H373.796V651.581H391.497V648.069H377.771V644.672ZM410.352 631.846V651.581H414.003V631.846H410.352ZM405.383 639.426H403.627V643.1H405.383V651.234H408.988V631.939H405.383V639.426ZM398.381 647.329V643.054H402.633V639.726H398.381V635.636H403.442V632.309H394.707V650.657H399.468C401.108 650.657 403.234 650.449 404.413 649.963V646.682C403.211 647.121 401.362 647.329 399.814 647.329H398.381ZM435.676 631.846H431.771V651.581H435.676V631.846ZM428.906 632.309H417.421V635.821H425.023V639.703H417.467V650.657H425.462C427.427 650.657 429.529 650.31 430.731 649.709V646.197C429.529 646.751 427.496 647.144 425.624 647.144H421.349V643.17H428.906V632.309ZM454.092 631.846V639.287H451.434C450.926 634.319 448.661 632.078 445.426 632.078C441.752 632.078 439.302 634.989 439.302 641.483C439.302 647.976 441.752 650.888 445.426 650.888C448.823 650.888 451.134 648.415 451.48 642.938H454.092V651.581H457.997V631.846H454.092ZM445.426 647.306C444.132 647.306 443.161 645.919 443.161 641.483C443.161 637.069 444.132 635.659 445.426 635.659C446.697 635.659 447.668 637.069 447.668 641.483C447.668 645.919 446.697 647.306 445.426 647.306ZM486.609 631.846H482.704V642.453H486.609V631.846ZM480.416 632.078H468.169V641.321H480.416V632.078ZM476.557 638.155H472.028V635.243H476.557V638.155ZM487.28 648.669L479.769 647.006L479.977 646.52H486.609V643.378H479.769V642.037H475.795V643.378H468.978V646.52H475.702C474.431 647.837 471.658 648.392 468.77 648.392V651.581C472.051 651.581 475.333 651.003 477.551 649.524L486.286 651.812L487.28 648.669ZM387.315 665.846V676.06H391.22V665.846H387.315ZM379.319 673.149L384.518 675.945L386.275 673.056L381.006 670.353C381.098 669.983 381.191 669.636 381.237 669.29H385.604V666.078H372.849V669.29H377.262C376.8 670.953 375.113 672.617 372.571 672.756V676.153C375.391 676.083 377.771 674.836 379.319 673.149ZM387.384 678.048H377.401V676.754H373.565V685.581H391.22V676.754H387.384V678.048ZM377.401 682.484V681.075H387.384V682.484H377.401ZM413.448 665.846H409.543V685.581H413.448V665.846ZM406.492 666.309H395.123V669.867H402.495V671.647C402.495 677.354 399.907 680.913 395.123 680.959V684.657C402.033 684.657 406.492 679.665 406.492 671.647V666.309ZM439.08 665.846V685.581H442.708V665.846H439.08ZM434.042 670.029H431.916V666.309H423.343V669.821H428.196V672.34C428.196 677.886 426.278 680.774 423.343 681.006V684.657C426.208 684.61 428.819 683.039 430.391 679.873H434.042V685.234H437.624V665.939H434.042V670.029ZM431.569 676.245C431.708 675.436 431.824 674.581 431.87 673.657H434.042V676.245H431.569ZM466.137 670.699V667.395H463.827V665.846H459.921V677.586H463.827V675.46H466.137V672.155H463.827V670.699H466.137ZM451.417 677.193C455.207 677.193 457.772 674.859 457.772 671.531C457.772 668.227 455.207 665.87 451.417 665.87C447.628 665.87 445.063 668.227 445.063 671.531C445.063 674.859 447.628 677.193 451.417 677.193ZM451.417 669.082C452.873 669.082 453.89 670.006 453.89 671.531C453.89 673.056 452.873 673.981 451.417 673.981C449.939 673.981 448.945 673.056 448.945 671.531C448.945 670.006 449.939 669.082 451.417 669.082ZM446.542 681.629H459.852V685.812H463.827V678.279H446.542V681.629ZM485.021 673.357H482.872V677.031H485.021V682.531L480.631 675.436C480.793 674.258 480.862 672.964 480.885 671.577H483.75V668.088H480.885V665.777H477.188V668.088H474.299V671.577H477.188C477.118 677.123 475.917 680.705 473.999 680.936V684.657C476.494 684.564 478.343 683.039 479.498 680.174L481.994 684.426L485.021 682.692V685.234H488.626V665.939H485.021V673.357ZM489.99 665.846V685.581H493.641V665.846H489.99ZM511.571 675.506H515.407V665.846H511.571V667.141H509.26V670.306H511.571V671.439H508.497V674.605H511.571V675.506ZM508.336 668.643V666.078H496.689V669.22H504.407V669.428C504.407 671.161 501.288 672.294 496.689 672.34V675.506C503.275 675.506 508.336 673.773 508.336 668.643ZM501.634 682.877V682.092H515.407V676.199H497.729V678.903H511.548V679.688H497.775V685.581H515.615V682.877H501.634Z" fill="white"/>
<path d="M394.102 867.059V864.286C398.493 863.731 401.335 861.328 401.335 858.047C401.335 854.303 397.615 851.692 392.115 851.692C386.615 851.692 382.895 854.303 382.895 858.047C382.895 861.328 385.737 863.731 390.128 864.286V867.059H382.132V870.71H402.098V867.059H394.102ZM387.031 858.047C387.031 856.337 389.111 855.204 392.115 855.204C395.119 855.204 397.199 856.337 397.199 858.047C397.199 859.734 395.119 860.889 392.115 860.889C389.111 860.889 387.031 859.734 387.031 858.047ZM423.309 857.469H420.305V854.742H423.101V851.669H405.585V854.742H408.381V857.469H405.377V860.542H423.309V857.469ZM412.287 854.742H416.4V857.469H412.287V854.742ZM404.361 861.721V864.933H424.326V861.721H404.361ZM409.491 865.834H405.516V871.403H423.402V868.191H409.491V865.834ZM445.706 855.874V859.271H448.34V866.296H452.245V851.669H448.34V855.874H445.706ZM440.114 860.173L444.92 863.616L447.115 860.843L441.662 857.076C441.847 856.475 441.962 855.851 442.008 855.227H446.26V851.9H433.689V855.227H438.08C437.733 857.746 436.07 860.034 433.412 860.242V863.778C436.231 863.708 438.588 862.229 440.114 860.173ZM438.565 867.914V864.494H434.591V871.403H452.523V867.914H438.565ZM476.698 865.141H480.696V852.131H462.787V855.713H476.698V865.141ZM474.711 867.128V860.265H470.783V867.128H468.726V860.265H464.798V867.128H461.77V870.71H481.736V867.128H474.711ZM493.981 859.988C499.181 859.988 503.04 858.671 503.04 855.666C503.04 852.662 499.181 851.345 493.981 851.345C488.782 851.345 484.923 852.662 484.923 855.666C484.923 858.671 488.782 859.988 493.981 859.988ZM493.981 854.326C496.939 854.326 498.88 854.811 498.88 855.666C498.88 856.545 496.939 857.007 493.981 857.007C491.024 857.007 489.082 856.545 489.082 855.666C489.082 854.811 491.024 854.326 493.981 854.326ZM503.964 863.778V860.681H483.999V863.778H488.343V865.256H485.062V868.33H498.857V871.634H502.809V865.256H499.62V863.778H503.964ZM495.784 865.256H492.179V863.778H495.784V865.256Z" fill="white"/>
<path d="M415.665 409.874V406.846H411.76V417.707H415.665V413.594H417.976V409.874H415.665ZM404.111 413.848L409.056 417.107L411.044 414.287L405.682 410.89C406.098 409.712 406.306 408.464 406.306 407.17L402.378 406.939C402.309 410.867 400.252 413.756 397.132 414.126V417.615C400.021 417.453 402.47 416.02 404.111 413.848ZM406.953 417.985C401.985 417.985 398.057 419.117 398.057 422.398C398.057 425.68 401.985 426.812 406.953 426.812C411.922 426.812 415.85 425.68 415.85 422.398C415.85 419.117 411.922 417.985 406.953 417.985ZM406.953 423.692C404.342 423.692 402.262 423.346 402.262 422.398C402.262 421.474 404.342 421.104 406.953 421.104C409.565 421.104 411.644 421.474 411.644 422.398C411.644 423.346 409.565 423.692 406.953 423.692ZM429.621 418.239V421.312H434.681V422.121H438.587V406.846H434.681V418.239H429.621ZM428.096 413.224H431.978V406.985H420.608V410.174H428.096V413.224ZM424.86 423.277V420.804H427.911V417.245H428.165C430.129 417.245 432.324 417.06 433.549 416.529V413.409C432.324 413.918 430.268 414.079 428.442 414.079H419.361V417.245H424.028V419.718H420.932V426.581H438.864V423.277H424.86ZM466.829 406.846H463.017V408.325H453.08V406.846H449.267V415.605H466.829V406.846ZM453.08 412.67V411.191H463.017V412.67H453.08ZM448.065 416.737V419.926H456.084V422.283H460.012V419.926H468.031V416.737H448.065ZM453.196 421.035H449.221V426.581H467.107V423.369H453.196V421.035ZM485.545 406.846V409.273H481.987V412.808H485.545V418.817H489.451V406.846H485.545ZM477.041 414.611L481.825 418.308L484.136 415.697L478.636 411.537C479.121 410.174 479.375 408.695 479.375 407.17L475.447 406.939C475.378 411.214 473.275 414.588 470.224 414.957V418.539C473.021 418.378 475.401 416.852 477.041 414.611ZM471.703 422.861H485.476V426.812H489.451V419.51H471.703V422.861Z" fill="white"/>
<path d="M628.407 406.846V409.897H626.327V407.078H613.756V410.313H618.101C617.708 412.184 616.021 414.056 613.479 414.195V417.615C616.298 417.546 618.655 416.228 620.203 414.426L625.195 417.407L627.067 414.542L621.798 411.537C621.937 411.122 622.006 410.729 622.052 410.313H625.773V413.224H628.407V417.707H632.312V406.846H628.407ZM614.657 426.581H632.312V418.401H614.657V426.581ZM618.563 421.59H628.407V423.392H618.563V421.59ZM647.308 422.283V419.186H654.425V415.628H651.421V410.89H654.217V407.309H636.47V410.89H639.266V415.628H636.262V419.186H643.379V422.283H635.361V425.888H655.326V422.283H647.308ZM643.171 410.89H647.516V415.628H643.171V410.89ZM679.34 421.474H683.245V406.846H679.34V409.411H675.781V412.993H679.34V421.474ZM670.859 414.911L675.527 418.793L677.93 416.136L672.408 411.769C672.916 410.336 673.17 408.764 673.17 407.17L669.242 406.939C669.172 411.353 667.093 415.004 664.019 415.373V419.001C666.838 418.84 669.219 417.245 670.859 414.911ZM669.565 423.092V419.672H665.591V426.581H683.523V423.092H669.565ZM693.365 414.426L698.356 417.407L700.228 414.542L694.959 411.537C695.098 411.122 695.167 410.729 695.214 410.313H698.934V413.224H701.568V417.892H705.474V406.846H701.568V409.897H699.489V407.078H686.918V410.313H691.262C690.869 412.184 689.182 414.056 686.64 414.195V417.615C689.46 417.546 691.817 416.228 693.365 414.426ZM696.646 418.17C691.609 418.17 687.634 419.279 687.634 422.491C687.634 425.703 691.609 426.812 696.646 426.812C701.684 426.812 705.659 425.703 705.659 422.491C705.659 419.279 701.684 418.17 696.646 418.17ZM696.646 423.739C693.989 423.739 691.84 423.392 691.84 422.491C691.84 421.613 693.989 421.243 696.646 421.243C699.304 421.243 701.453 421.613 701.453 422.491C701.453 423.392 699.304 423.739 696.646 423.739Z" fill="white"/>
<path d="M187.22 630.846H183.315V645.451H187.22V630.846ZM174.556 630.87C170.697 630.87 168.063 633.227 168.063 636.785C168.063 640.367 170.697 642.701 174.556 642.701C178.416 642.701 181.05 640.367 181.05 636.785C181.05 633.227 178.416 630.87 174.556 630.87ZM174.556 634.128C176.058 634.128 177.168 635.075 177.168 636.785C177.168 638.495 176.058 639.443 174.556 639.443C173.054 639.443 171.945 638.495 171.945 636.785C171.945 635.075 173.054 634.128 174.556 634.128ZM173.771 643.672H169.796V650.581H187.497V647.069H173.771V643.672ZM203.694 633.227H199.303V630.754H195.306V633.227H190.892V636.785H203.694V633.227ZM205.635 630.846V638.403H203.324V642.123H205.635V650.581H209.541V630.846H205.635ZM197.293 637.594C193.734 637.594 191.562 640.252 191.562 643.741C191.562 647.253 193.734 649.888 197.293 649.888C200.852 649.888 203.024 647.253 203.024 643.741C203.024 640.252 200.852 637.594 197.293 637.594ZM197.293 646.537C196.022 646.537 195.283 645.428 195.283 643.741C195.283 642.054 196.022 640.945 197.293 640.945C198.564 640.945 199.303 642.054 199.303 643.741C199.303 645.428 198.564 646.537 197.293 646.537ZM233.433 638.056H231.122V630.846H227.216V650.581H231.122V641.846H233.433V638.056ZM213.143 634.867H220.33V636.647C220.33 642.424 217.881 645.913 213.143 645.959V649.657C219.983 649.657 224.305 644.665 224.305 636.647V631.309H213.143V634.867ZM256.568 630.846V634.082H253.518C252.709 632.094 250.514 630.87 247.556 630.87C243.766 630.87 241.224 632.88 241.224 635.953C241.224 639.05 243.766 641.037 247.556 641.037C250.56 641.037 252.779 639.789 253.564 637.733H256.568V641.06H260.474V630.846H256.568ZM247.556 637.895C246.054 637.895 245.107 637.132 245.107 635.953C245.107 634.775 246.054 634.012 247.556 634.012C249.058 634.012 250.006 634.775 250.006 635.953C250.006 637.132 249.058 637.895 247.556 637.895ZM256.638 643.048H246.886V641.754H243.05V650.581H260.474V641.754H256.638V643.048ZM246.886 647.484V646.075H256.638V647.484H246.886ZM282.332 631.078H264.677V641.361H282.332V631.078ZM278.473 637.802H268.537V634.659H278.473V637.802ZM283.488 643.001H263.522V646.606H271.494V651.043H275.515V646.606H283.488V643.001Z" fill="white"/>
<path d="M155.077 851.669V858.925H153.298V851.761H149.647V871.057H153.298V862.622H155.077V871.403H158.774V851.669H155.077ZM139.41 855.643H144.332V858.162C144.332 863.708 142.391 866.597 139.41 866.828V870.479C144.077 870.41 148.075 866.389 148.075 858.024V852.131H139.41V855.643ZM176.635 851.669V854.719H174.555V851.9H161.984V855.135H166.329C165.936 857.007 164.249 858.879 161.707 859.017V862.437C164.526 862.368 166.883 861.051 168.432 859.248L173.423 862.229L175.295 859.364L170.026 856.36C170.165 855.944 170.234 855.551 170.28 855.135H174.001V858.047H176.635V862.53H180.541V851.669H176.635ZM162.886 871.403H180.541V863.223H162.886V871.403ZM166.791 866.412H176.635V868.214H166.791V866.412ZM209.153 851.669H205.248V862.275H209.153V851.669ZM202.96 851.9H190.713V861.143H202.96V851.9ZM199.101 857.977H194.572V855.066H199.101V857.977ZM209.823 868.492L202.313 866.828L202.521 866.343H209.153V863.2H202.313V861.86H198.338V863.2H191.521V866.343H198.246C196.975 867.66 194.202 868.214 191.313 868.214V871.403C194.595 871.403 197.876 870.826 200.095 869.347L208.829 871.634L209.823 868.492ZM237.858 851.669H233.953V861.328H237.858V851.669ZM225.241 851.692C221.359 851.692 218.886 853.633 218.886 856.475C218.886 859.341 221.359 861.259 225.241 861.259C229.123 861.259 231.596 859.341 231.596 856.475C231.596 853.633 229.123 851.692 225.241 851.692ZM225.241 854.765C226.743 854.765 227.736 855.435 227.736 856.475C227.736 857.515 226.743 858.185 225.241 858.185C223.739 858.185 222.745 857.515 222.745 856.475C222.745 855.435 223.739 854.765 225.241 854.765ZM237.858 862.021H220.411V864.725H233.999V865.511H220.457V871.403H238.066V868.7H224.316V867.914H237.858V862.021ZM248.07 859.248L253.061 862.229L254.933 859.364L249.664 856.36C249.803 855.944 249.872 855.551 249.918 855.135H253.639V858.047H256.273V862.715H260.179V851.669H256.273V854.719H254.194V851.9H241.623V855.135H245.967C245.574 857.007 243.887 858.879 241.345 859.017V862.437C244.164 862.368 246.522 861.051 248.07 859.248ZM251.351 862.992C246.314 862.992 242.339 864.101 242.339 867.313C242.339 870.525 246.314 871.634 251.351 871.634C256.389 871.634 260.363 870.525 260.363 867.313C260.363 864.101 256.389 862.992 251.351 862.992ZM251.351 868.561C248.694 868.561 246.545 868.214 246.545 867.313C246.545 866.435 248.694 866.065 251.351 866.065C254.009 866.065 256.158 866.435 256.158 867.313C256.158 868.214 254.009 868.561 251.351 868.561ZM282.829 852.385H278.231V851.068H274.21V852.385H269.657V855.089H282.829V852.385ZM290.547 855.99H288.283V851.669H284.377V865.256H288.283V859.618H290.547V855.99ZM283.245 864.471V861.628C282.02 862.16 279.987 862.345 278.161 862.345V861.605C280.541 861.259 282.136 860.265 282.136 858.624C282.136 856.591 279.663 855.528 276.266 855.528C272.869 855.528 270.397 856.591 270.397 858.624C270.397 860.265 271.968 861.259 274.325 861.582V862.345H269.704V865.187H278.069C280.033 865.187 282.02 865.002 283.245 864.471ZM274.025 858.624C274.025 858.232 274.903 858.047 276.266 858.047C277.63 858.047 278.508 858.232 278.508 858.624C278.508 859.017 277.63 859.202 276.266 859.202C274.903 859.202 274.025 859.017 274.025 858.624ZM270.767 868.838H284.354V871.634H288.283V865.95H270.767V868.838ZM299.003 859.248L303.994 862.229L305.866 859.364L300.597 856.36C300.736 855.944 300.805 855.551 300.852 855.135H304.572V858.047H307.206V862.715H311.112V851.669H307.206V854.719H305.127V851.9H292.556V855.135H296.9C296.507 857.007 294.82 858.879 292.278 859.017V862.437C295.098 862.368 297.455 861.051 299.003 859.248ZM302.284 862.992C297.247 862.992 293.272 864.101 293.272 867.313C293.272 870.525 297.247 871.634 302.284 871.634C307.322 871.634 311.297 870.525 311.297 867.313C311.297 864.101 307.322 862.992 302.284 862.992ZM302.284 868.561C299.627 868.561 297.478 868.214 297.478 867.313C297.478 866.435 299.627 866.065 302.284 866.065C304.942 866.065 307.091 866.435 307.091 867.313C307.091 868.214 304.942 868.561 302.284 868.561Z" fill="white"/>
<path d="M650.102 867.059V864.286C654.493 863.731 657.335 861.328 657.335 858.047C657.335 854.303 653.615 851.692 648.115 851.692C642.615 851.692 638.895 854.303 638.895 858.047C638.895 861.328 641.737 863.731 646.128 864.286V867.059H638.132V870.71H658.098V867.059H650.102ZM643.031 858.047C643.031 856.337 645.111 855.204 648.115 855.204C651.119 855.204 653.199 856.337 653.199 858.047C653.199 859.734 651.119 860.889 648.115 860.889C645.111 860.889 643.031 859.734 643.031 858.047ZM679.309 857.469H676.305V854.742H679.101V851.669H661.585V854.742H664.381V857.469H661.377V860.542H679.309V857.469ZM668.287 854.742H672.4V857.469H668.287V854.742ZM660.361 861.721V864.933H680.326V861.721H660.361ZM665.491 865.834H661.516V871.403H679.402V868.191H665.491V865.834Z" fill="white"/>
<path d="M419.393 378.725C416.842 378.725 414.818 379.945 414.818 381.984C414.818 384.105 416.149 385.117 418.603 385.575C420.614 385.949 421.376 386.309 421.376 387.211C421.376 387.945 420.614 388.458 419.588 388.458C418.146 388.458 417.203 387.738 417.064 386.656H414.471C414.582 389.069 416.62 390.58 419.407 390.58C421.931 390.58 423.969 389.263 423.969 387.1C423.969 385.408 423.082 384.119 420.475 383.578C418.27 383.12 417.397 382.829 417.397 381.984C417.397 381.304 418.049 380.833 419.227 380.833C420.433 380.833 421.168 381.429 421.321 382.413H423.927C423.803 380.264 421.917 378.725 419.393 378.725ZM433.704 379.003H423.833V381.235H427.507V390.303H430.03V381.235H433.704V379.003ZM434.227 390.303H442.754V388.112H436.75V385.685H442.144V383.495H436.75V381.193H442.629V379.003H434.227V390.303ZM443.618 390.303H446.141V387.294H447.957C450.897 387.294 452.616 385.658 452.616 383.134C452.616 380.639 450.897 379.003 447.957 379.003H443.618V390.303ZM446.141 385.062V381.235H447.846C449.247 381.235 450.093 381.886 450.093 383.134C450.093 384.396 449.247 385.062 447.846 385.062H446.141ZM460.08 378.698C457.612 378.698 455.754 380.68 455.754 384.646C455.754 388.597 457.612 390.58 460.08 390.58C462.548 390.58 464.406 388.597 464.406 384.646C464.406 380.68 462.548 378.698 460.08 378.698ZM460.08 380.902C461.189 380.902 462.021 382.067 462.021 384.646C462.021 387.211 461.189 388.375 460.08 388.375C458.971 388.375 458.139 387.211 458.139 384.646C458.139 382.067 458.971 380.902 460.08 380.902ZM468.595 378.698C466.21 378.698 464.532 380.361 464.532 382.58H467.014C467.014 381.72 467.569 380.888 468.595 380.888C469.69 380.888 470.148 381.443 470.148 382.275C470.148 382.912 469.829 383.647 468.47 385.048L464.768 388.861V390.303H472.851V388.167H468.456L470.078 386.49C472.061 384.438 472.629 383.425 472.629 382.247C472.629 380.195 471.132 378.698 468.595 378.698Z" fill="white"/>
<path d="M635.393 378.725C632.842 378.725 630.818 379.945 630.818 381.984C630.818 384.105 632.149 385.117 634.603 385.575C636.614 385.949 637.376 386.309 637.376 387.211C637.376 387.945 636.614 388.458 635.588 388.458C634.146 388.458 633.203 387.738 633.064 386.656H630.471C630.582 389.069 632.62 390.58 635.407 390.58C637.931 390.58 639.969 389.263 639.969 387.1C639.969 385.408 639.082 384.119 636.475 383.578C634.27 383.12 633.397 382.829 633.397 381.984C633.397 381.304 634.049 380.833 635.227 380.833C636.433 380.833 637.168 381.429 637.321 382.413H639.927C639.803 380.264 637.917 378.725 635.393 378.725ZM649.704 379.003H639.833V381.235H643.507V390.303H646.03V381.235H649.704V379.003ZM650.227 390.303H658.754V388.112H652.75V385.685H658.144V383.495H652.75V381.193H658.629V379.003H650.227V390.303ZM659.618 390.303H662.141V387.294H663.957C666.897 387.294 668.616 385.658 668.616 383.134C668.616 380.639 666.897 379.003 663.957 379.003H659.618V390.303ZM662.141 385.062V381.235H663.846C665.247 381.235 666.093 381.886 666.093 383.134C666.093 384.396 665.247 385.062 663.846 385.062H662.141ZM676.08 378.698C673.612 378.698 671.754 380.68 671.754 384.646C671.754 388.597 673.612 390.58 676.08 390.58C678.548 390.58 680.406 388.597 680.406 384.646C680.406 380.68 678.548 378.698 676.08 378.698ZM676.08 380.902C677.189 380.902 678.021 382.067 678.021 384.646C678.021 387.211 677.189 388.375 676.08 388.375C674.971 388.375 674.139 387.211 674.139 384.646C674.139 382.067 674.971 380.902 676.08 380.902ZM684.65 378.698C682.335 378.698 680.712 380.25 680.712 382.399H683.194C683.194 381.595 683.652 380.805 684.636 380.805C685.579 380.805 686.134 381.318 686.134 382.15C686.134 383.01 685.524 383.564 684.498 383.564H683.375V385.616H684.498C685.676 385.616 686.466 386.115 686.466 387.058C686.466 387.89 685.773 388.458 684.733 388.458C683.68 388.458 683.111 387.918 683.014 387.017H680.532C680.712 389.193 682.252 390.58 684.733 390.58C687.077 390.58 688.921 389.221 688.921 387.044C688.921 385.588 687.756 384.687 686.716 384.521C687.659 384.354 688.616 383.398 688.616 382.094C688.616 380.07 686.993 378.698 684.65 378.698Z" fill="white"/>
<path d="M201.393 602.725C198.842 602.725 196.818 603.945 196.818 605.984C196.818 608.105 198.149 609.117 200.603 609.575C202.614 609.949 203.376 610.309 203.376 611.211C203.376 611.945 202.614 612.458 201.588 612.458C200.146 612.458 199.203 611.738 199.064 610.656H196.471C196.582 613.069 198.62 614.58 201.407 614.58C203.931 614.58 205.969 613.263 205.969 611.1C205.969 609.408 205.082 608.119 202.475 607.578C200.27 607.12 199.397 606.829 199.397 605.984C199.397 605.304 200.049 604.833 201.227 604.833C202.433 604.833 203.168 605.429 203.321 606.413H205.927C205.803 604.264 203.917 602.725 201.393 602.725ZM215.704 603.003H205.833V605.235H209.507V614.303H212.03V605.235H215.704V603.003ZM216.227 614.303H224.754V612.112H218.75V609.685H224.144V607.495H218.75V605.193H224.629V603.003H216.227V614.303ZM225.618 614.303H228.141V611.294H229.957C232.897 611.294 234.616 609.658 234.616 607.134C234.616 604.639 232.897 603.003 229.957 603.003H225.618V614.303ZM228.141 609.062V605.235H229.846C231.247 605.235 232.093 605.886 232.093 607.134C232.093 608.396 231.247 609.062 229.846 609.062H228.141ZM242.08 602.698C239.612 602.698 237.754 604.68 237.754 608.646C237.754 612.597 239.612 614.58 242.08 614.58C244.548 614.58 246.406 612.597 246.406 608.646C246.406 604.68 244.548 602.698 242.08 602.698ZM242.08 604.902C243.189 604.902 244.021 606.067 244.021 608.646C244.021 611.211 243.189 612.375 242.08 612.375C240.971 612.375 240.139 611.211 240.139 608.646C240.139 606.067 240.971 604.902 242.08 604.902ZM250.858 614.566C253.229 614.566 255.142 612.916 255.142 610.601C255.142 608.313 253.326 606.774 251.122 606.774C250.997 606.774 250.872 606.802 250.803 606.829L253.368 603.003H250.511L247.6 607.62C246.934 608.673 246.574 609.519 246.574 610.614C246.574 613.027 248.501 614.566 250.858 614.566ZM250.858 612.431C249.735 612.431 249.028 611.64 249.028 610.628C249.028 609.616 249.735 608.826 250.858 608.826C251.981 608.826 252.688 609.616 252.688 610.628C252.688 611.64 251.981 612.431 250.858 612.431Z" fill="white"/>
<path d="M201.393 823.671C198.842 823.671 196.818 824.891 196.818 826.929C196.818 829.05 198.149 830.062 200.603 830.52C202.614 830.894 203.376 831.255 203.376 832.156C203.376 832.891 202.614 833.404 201.588 833.404C200.146 833.404 199.203 832.683 199.064 831.601H196.471C196.582 834.014 198.62 835.525 201.407 835.525C203.931 835.525 205.969 834.208 205.969 832.045C205.969 830.354 205.082 829.064 202.475 828.523C200.27 828.066 199.397 827.775 199.397 826.929C199.397 826.249 200.049 825.778 201.227 825.778C202.433 825.778 203.168 826.374 203.321 827.359H205.927C205.803 825.21 203.917 823.671 201.393 823.671ZM215.704 823.948H205.833V826.18H209.507V835.248H212.03V826.18H215.704V823.948ZM216.227 835.248H224.754V833.057H218.75V830.631H224.144V828.44H218.75V826.139H224.629V823.948H216.227V835.248ZM225.618 835.248H228.141V832.239H229.957C232.897 832.239 234.616 830.603 234.616 828.08C234.616 825.584 232.897 823.948 229.957 823.948H225.618V835.248ZM228.141 830.007V826.18H229.846C231.247 826.18 232.093 826.832 232.093 828.08C232.093 829.341 231.247 830.007 229.846 830.007H228.141ZM242.08 823.643C239.612 823.643 237.754 825.626 237.754 829.591C237.754 833.542 239.612 835.525 242.08 835.525C244.548 835.525 246.406 833.542 246.406 829.591C246.406 825.626 244.548 823.643 242.08 823.643ZM242.08 825.847C243.189 825.847 244.021 827.012 244.021 829.591C244.021 832.156 243.189 833.321 242.08 833.321C240.971 833.321 240.139 832.156 240.139 829.591C240.139 827.012 240.971 825.847 242.08 825.847ZM254.082 823.948H246.318V826.139H251.143L247.247 835.248H249.881L254.082 825.445V823.948Z" fill="white"/>
<path d="M635.393 823.671C632.842 823.671 630.818 824.891 630.818 826.929C630.818 829.05 632.149 830.062 634.603 830.52C636.614 830.894 637.376 831.255 637.376 832.156C637.376 832.891 636.614 833.404 635.588 833.404C634.146 833.404 633.203 832.683 633.064 831.601H630.471C630.582 834.014 632.62 835.525 635.407 835.525C637.931 835.525 639.969 834.208 639.969 832.045C639.969 830.354 639.082 829.064 636.475 828.523C634.27 828.066 633.397 827.775 633.397 826.929C633.397 826.249 634.049 825.778 635.227 825.778C636.433 825.778 637.168 826.374 637.321 827.359H639.927C639.803 825.21 637.917 823.671 635.393 823.671ZM649.704 823.948H639.833V826.18H643.507V835.248H646.03V826.18H649.704V823.948ZM650.227 835.248H658.754V833.057H652.75V830.631H658.144V828.44H652.75V826.139H658.629V823.948H650.227V835.248ZM659.618 835.248H662.141V832.239H663.957C666.897 832.239 668.616 830.603 668.616 828.08C668.616 825.584 666.897 823.948 663.957 823.948H659.618V835.248ZM662.141 830.007V826.18H663.846C665.247 826.18 666.093 826.832 666.093 828.08C666.093 829.341 665.247 830.007 663.846 830.007H662.141ZM676.08 823.643C673.612 823.643 671.754 825.626 671.754 829.591C671.754 833.542 673.612 835.525 676.08 835.525C678.548 835.525 680.406 833.542 680.406 829.591C680.406 825.626 678.548 823.643 676.08 823.643ZM676.08 825.847C677.189 825.847 678.021 827.012 678.021 829.591C678.021 832.156 677.189 833.321 676.08 833.321C674.971 833.321 674.139 832.156 674.139 829.591C674.139 827.012 674.971 825.847 676.08 825.847ZM682.168 835.248H685.025L687.936 830.631C688.602 829.577 688.962 828.731 688.962 827.636C688.962 825.223 687.035 823.684 684.678 823.684C682.321 823.684 680.394 825.237 680.394 827.65C680.394 829.938 682.21 831.477 684.414 831.477C684.539 831.477 684.664 831.449 684.733 831.421L682.168 835.248ZM684.678 829.425C683.555 829.425 682.848 828.634 682.848 827.622C682.848 826.61 683.555 825.82 684.678 825.82C685.801 825.82 686.508 826.61 686.508 827.622C686.508 828.634 685.801 829.425 684.678 829.425Z" fill="white"/>
<path d="M2 353H861.892C874.654 353 885 363.346 885 376.108V553.517C885 566.279 874.654 576.625 861.892 576.625H25.1083C12.3459 576.625 2 586.971 2 599.734V777.142C2 789.904 12.0776 800.25 24.84 800.25C135.339 800.25 611.207 800.25 661.5 800.25" stroke="white" stroke-width="2.31084"/>
<circle cx="9.24334" cy="353.243" r="9.24334" fill="white"/>
<circle cx="9.24501" cy="353.243" r="6.93251" fill="black"/>
<circle cx="226.243" cy="353.243" r="9.24334" fill="white"/>
<circle cx="226.245" cy="353.243" r="6.93251" fill="black"/>
<circle cx="660.243" cy="800.243" r="9.24334" fill="white"/>
<circle cx="660.245" cy="800.243" r="6.93251" fill="black"/>
<circle cx="660.243" cy="576.243" r="9.24334" fill="white"/>
<circle cx="660.245" cy="576.243" r="6.93251" fill="black"/>
<circle cx="443.243" cy="578.243" r="9.24334" fill="white"/>
<circle cx="443.245" cy="578.243" r="6.93251" fill="black"/>
<circle cx="443.243" cy="800.243" r="9.24334" fill="white"/>
<circle cx="443.245" cy="800.243" r="6.93251" fill="black"/>
<circle cx="443.243" cy="353.243" r="9.24334" fill="white"/>
<circle cx="443.245" cy="353.243" r="6.93251" fill="black"/>
<circle cx="660.243" cy="353.243" r="9.24334" fill="white"/>
<circle cx="660.245" cy="353.243" r="6.93251" fill="black"/>
<circle cx="226.243" cy="577.243" r="9.24334" fill="white"/>
<circle cx="226.245" cy="577.243" r="6.93251" fill="black"/>
<circle cx="226.243" cy="800.243" r="9.24334" fill="white"/>
<circle cx="226.245" cy="800.243" r="6.93251" fill="black"/>
<path d="M210.074 497C212.925 497 215.259 499.333 215.259 502.185C215.259 505.037 212.925 507.37 210.074 507.37C207.222 507.37 204.889 505.037 204.889 502.185C204.889 499.333 207.222 497 210.074 497Z" fill="white"/>
<path d="M213.988 509.962H206.185C203.333 509.962 201 512.296 201 515.147V528.758C201 529.832 201.871 530.702 202.944 530.702C204.018 530.702 204.889 531.573 204.889 532.646V543.849C204.889 546.611 207.127 548.849 209.889 548.849H210.259C213.02 548.849 215.259 546.611 215.259 543.849V530.702V515.471C215.259 515.292 215.404 515.147 215.583 515.147H226.925C228.356 515.147 229.517 513.987 229.517 512.555C229.517 511.123 228.356 509.962 226.925 509.962H213.988Z" fill="white"/>
<path d="M233.408 511.258C243.233 512.233 250.907 520.523 250.907 530.605C250.907 541.344 242.202 550.049 231.463 550.049C227.373 550.049 223.577 548.786 220.445 546.628" stroke="white" stroke-width="3"/>
<path d="M223.665 528.539L223.491 528.372L223.317 528.539L221.565 530.232L221.378 530.412L221.565 530.592L228.576 537.363L228.75 537.531L228.923 537.363L243.948 522.853L244.134 522.673L243.948 522.493L242.195 520.801L242.021 520.633L241.848 520.801L228.75 533.45L223.665 528.539Z" fill="white" stroke="white" stroke-width="0.5"/>
<path d="M663 513.484V501H644.25C643.003 501 642 501.982 642 503.203V545.797C642 547.018 643.003 548 644.25 548H675.75C676.997 548 678 547.018 678 545.797V515.688H665.25C664.013 515.688 663 514.696 663 513.484ZM669 535.148C669 535.754 668.494 536.25 667.875 536.25H652.125C651.506 536.25 651 535.754 651 535.148V534.414C651 533.808 651.506 533.312 652.125 533.312H667.875C668.494 533.312 669 533.808 669 534.414V535.148ZM669 529.273C669 529.879 668.494 530.375 667.875 530.375H652.125C651.506 530.375 651 529.879 651 529.273V528.539C651 527.933 651.506 527.438 652.125 527.438H667.875C668.494 527.438 669 527.933 669 528.539V529.273ZM669 522.664V523.398C669 524.004 668.494 524.5 667.875 524.5H652.125C651.506 524.5 651 524.004 651 523.398V522.664C651 522.058 651.506 521.562 652.125 521.562H667.875C668.494 521.562 669 522.058 669 522.664ZM678 512.19V512.75H666V501H666.572C667.172 501 667.744 501.229 668.166 501.643L677.344 510.639C677.766 511.052 678 511.612 678 512.19Z" fill="white"/>
<path d="M461.889 278H426.111C423.3 278 421 280.35 421 283.222V319.778C421 322.65 423.3 325 426.111 325H461.889C464.7 325 467 322.65 467 319.778V283.222C467 280.35 464.7 278 461.889 278ZM436.333 314.556H431.222V296.278H436.333V314.556ZM446.556 314.556H441.444V288.444H446.556V314.556ZM456.778 314.556H451.667V304.111H456.778V314.556Z" fill="white"/>
<path d="M217.667 741.4H212.444V746.6H217.667V741.4ZM228.111 741.4H222.889V746.6H228.111V741.4ZM238.556 741.4H233.333V746.6H238.556V741.4ZM243.778 723.2H241.167V718H235.944V723.2H215.056V718H209.833V723.2H207.222C204.324 723.2 202.026 725.54 202.026 728.4L202 764.8C202 767.66 204.324 770 207.222 770H243.778C246.65 770 249 767.66 249 764.8V728.4C249 725.54 246.65 723.2 243.778 723.2ZM243.778 764.8H207.222V736.2H243.778V764.8Z" fill="white"/>
<path d="M681.778 721H640V746.556C640 752.203 644.674 756.778 650.444 756.778H666.111C671.882 756.778 676.556 752.203 676.556 746.556V738.889H681.778C684.676 738.889 687 736.589 687 733.778V726.111C687 723.274 684.676 721 681.778 721ZM681.778 733.778H676.556V726.111H681.778V733.778ZM640 761.889H681.778V767H640V761.889Z" fill="white"/>
<path d="M469.993 542.513L456.253 528.772H453.686L447.102 535.357V537.924L460.842 551.664C461.853 552.675 463.486 552.675 464.497 551.664L469.993 546.168C471.004 545.183 471.004 543.524 469.993 542.513Z" fill="white"/>
<path d="M458.769 521.825L462.424 518.169L467.92 523.665C470.953 520.632 470.953 515.707 467.92 512.673L458.743 503.496L455.087 507.151V499.841L453.272 498L444.095 507.177L445.936 509.018H453.272L449.617 512.673L452.365 515.421L444.873 522.914L434.166 512.207V508.525L426.337 500.696L419 508.033L426.855 515.888H430.511L441.217 526.595L439.014 528.799H433.518L419.778 542.539C418.767 543.55 418.767 545.183 419.778 546.194L425.274 551.69C426.285 552.701 427.918 552.701 428.929 551.69L442.669 537.95V532.454L456.02 519.103L458.769 521.825Z" fill="white"/>
<path d="M685.576 293.27L682.854 281.941C682.284 279.607 680.262 278 677.903 278H641.893C639.56 278 637.512 279.633 636.967 281.941L634.245 293.27C633.623 295.914 634.193 298.61 635.853 300.736C636.06 301.021 636.345 301.229 636.579 301.488V319.48C636.579 322.331 638.912 324.664 641.764 324.664H678.058C680.91 324.664 683.243 322.331 683.243 319.48V301.488C683.476 301.254 683.762 301.021 683.969 300.762C685.628 298.636 686.224 295.914 685.576 293.27ZM677.825 283.159L680.547 294.488C680.806 295.577 680.573 296.666 679.899 297.521C679.536 297.988 678.758 298.74 677.462 298.74C675.88 298.74 674.506 297.469 674.325 295.784L672.821 283.185L677.825 283.159ZM662.503 283.185H667.585L668.984 294.903C669.114 295.914 668.803 296.925 668.129 297.677C667.559 298.351 666.729 298.74 665.666 298.74C663.929 298.74 662.503 297.21 662.503 295.344V283.185ZM650.811 294.903L652.237 283.185H657.318V295.344C657.318 297.21 655.892 298.74 653.974 298.74C653.093 298.74 652.289 298.351 651.667 297.677C651.019 296.925 650.708 295.914 650.811 294.903ZM639.275 294.488L641.893 283.185H647L645.497 295.784C645.289 297.469 643.941 298.74 642.36 298.74C641.089 298.74 640.286 297.988 639.949 297.521C639.249 296.692 639.015 295.577 639.275 294.488ZM641.764 319.48V303.847C641.971 303.873 642.152 303.925 642.36 303.925C644.615 303.925 646.663 302.991 648.167 301.462C649.722 303.017 651.796 303.925 654.156 303.925C656.411 303.925 658.433 302.991 659.937 301.514C661.466 302.991 663.54 303.925 665.873 303.925C668.051 303.925 670.125 303.017 671.681 301.462C673.184 302.991 675.232 303.925 677.488 303.925C677.695 303.925 677.877 303.873 678.084 303.847V319.48H641.764Z" fill="white"/>
<path d="M225.89 302.61C230.358 302.61 234.305 303.679 237.512 305.077C240.472 306.393 242.336 309.353 242.336 312.56V317H209.445V312.587C209.445 309.353 211.309 306.393 214.269 305.104C217.476 303.679 221.423 302.61 225.89 302.61ZM203.963 303.295C206.978 303.295 209.445 300.829 209.445 297.814C209.445 294.799 206.978 292.332 203.963 292.332C200.948 292.332 198.482 294.799 198.482 297.814C198.482 300.829 200.948 303.295 203.963 303.295ZM207.061 306.31C206.047 306.146 205.032 306.036 203.963 306.036C201.25 306.036 198.674 306.612 196.344 307.626C194.316 308.503 193 310.476 193 312.697V317H205.334V312.587C205.334 310.312 205.964 308.174 207.061 306.31ZM247.817 303.295C250.832 303.295 253.299 300.829 253.299 297.814C253.299 294.799 250.832 292.332 247.817 292.332C244.802 292.332 242.336 294.799 242.336 297.814C242.336 300.829 244.802 303.295 247.817 303.295ZM258.781 312.697C258.781 310.476 257.465 308.503 255.437 307.626C253.107 306.612 250.531 306.036 247.817 306.036C246.748 306.036 245.734 306.146 244.72 306.31C245.816 308.174 246.447 310.312 246.447 312.587V317H258.781V312.697ZM225.89 284.109C230.44 284.109 234.113 287.782 234.113 292.332C234.113 296.882 230.44 300.555 225.89 300.555C221.341 300.555 217.668 296.882 217.668 292.332C217.668 287.782 221.341 284.109 225.89 284.109Z" fill="white"/>
<path d="M431.674 736.259C428.811 736.259 426.489 733.937 426.489 731.074C426.489 728.21 428.811 725.889 431.674 725.889C434.538 725.889 436.859 728.21 436.859 731.074C436.859 733.937 434.538 736.259 431.674 736.259Z" fill="white"/>
<path d="M421.59 741.729C422.601 740.718 424.338 738.851 427.708 738.851C428.252 738.851 431.389 738.851 434.293 738.851C441.422 738.825 447.229 733.018 447.229 725.889H452.414C452.414 734.081 446.944 741.029 439.452 743.284V777.738H434.267V762.183H429.082V777.738H423.897V746.758L413.657 756.998L410.001 753.343L421.59 741.729Z" fill="white"/>
<mask id="path-56-inside-1_186_102" fill="white">
<rect x="441.754" y="722" width="34.9984" height="34.3502" rx="2"/>
</mask>
<rect x="441.754" y="722" width="34.9984" height="34.3502" rx="2" stroke="white" stroke-width="6" mask="url(#path-56-inside-1_186_102)"/>
<path d="M452.125 767.367L459.443 756.353C459.645 756.049 460.095 756.057 460.286 756.369L467.032 767.367" stroke="white" stroke-width="3"/>
<line x1="455" y1="747.5" x2="472" y2="747.5" stroke="white" stroke-width="3"/>
<line x1="452" y1="736.5" x2="472" y2="736.5" stroke="white" stroke-width="3"/>
<line x1="454" y1="730.5" x2="472" y2="730.5" stroke="white" stroke-width="3"/>
<line x1="447" y1="741.5" x2="472" y2="741.5" stroke="white" stroke-width="3"/>
<line x1="447" y1="747.5" x2="454" y2="747.5" stroke="white" stroke-width="3"/>
</svg>
