<svg width="1562" height="640" viewBox="0 0 1562 640" fill="none" xmlns="http://www.w3.org/2000/svg">
<circle cx="12.375" cy="23.375" r="8.93749" stroke="#4BBCD4" stroke-width="4.125"/>
<path d="M62.1841 18.2531L70.8466 23.4094L72.4622 20.8313L63.5247 15.6406C63.8684 14.7469 64.1091 13.7844 64.2466 12.8219H71.9466V9.96876H64.2809V6.70314H60.8434V9.96876H53.0747V12.8219H60.7747C60.0872 17.0156 57.2341 20.1781 52.7653 20.8313V23.7875C56.8559 23.3406 60.1559 21.2438 62.1841 18.2531ZM78.9247 13.7156V7.21876H75.5216V24.6469H78.9247V16.9813H83.0497V13.7156H78.9247ZM66.7903 25.5063C59.7778 25.5063 54.2091 26.95 54.2091 31.0406C54.2091 35.1312 59.7778 36.575 66.7903 36.575C73.8372 36.575 79.3716 35.1312 79.3716 31.0406C79.3716 26.95 73.8372 25.5063 66.7903 25.5063ZM66.7903 33.8594C61.7716 33.8594 57.8184 33.0687 57.8184 31.0406C57.8184 29.0125 61.7716 28.2219 66.7903 28.2219C71.8091 28.2219 75.7622 29.0125 75.7622 31.0406C75.7622 33.0687 71.8091 33.8594 66.7903 33.8594ZM107.59 7.21876V13.0969H101.54C100.715 9.76251 97.4498 7.56251 92.7061 7.56251C87.1373 7.56251 83.6311 10.5531 83.6311 14.8156C83.6311 19.0781 87.1373 22.0688 92.7061 22.0688C97.5873 22.0688 100.887 19.7313 101.609 16.2594H107.59V22.275H110.994V7.21876H107.59ZM92.7061 19.25C89.3373 19.25 87.0342 17.5656 87.0342 14.8156C87.0342 12.0656 89.3373 10.3813 92.7061 10.3813C96.0748 10.3813 98.3436 12.0656 98.3436 14.8156C98.3436 17.5656 96.0748 19.25 92.7061 19.25ZM107.625 26.9844H89.6811V23.8906H86.3467V36.1969H110.994V23.8906H107.625V26.9844ZM89.6811 33.4125V29.7H107.625V33.4125H89.6811ZM138.353 7.21876V36.575H141.756V7.21876H138.353ZM129.312 18.1844H119.413V8.07814H116.044V34.8219H132.681V8.07814H129.312V18.1844ZM119.413 31.6938V21.3125H129.312V31.6938H119.413ZM168.222 20.9688V17.2906C171.11 16.4313 172.966 14.9188 172.966 12.65C172.966 8.66251 167.122 7.04689 160.006 7.04689C152.891 7.04689 147.047 8.66251 147.047 12.65C147.047 14.9188 148.903 16.4313 151.791 17.2906V20.9688H145.363V23.7188H174.685V20.9688H168.222ZM150.656 12.65C150.656 10.6219 154.885 9.72814 160.006 9.72814C165.128 9.72814 169.356 10.6219 169.356 12.65C169.356 14.7125 165.128 15.6063 160.006 15.6063C154.885 15.6063 150.656 14.7125 150.656 12.65ZM155.16 18.0125C156.672 18.1844 158.288 18.2875 160.006 18.2875C161.725 18.2875 163.341 18.1844 164.853 18.0125V20.9688H155.16V18.0125ZM160.006 25.9875C152.994 25.9875 147.116 27.2594 147.116 31.2813C147.116 35.3031 152.994 36.6437 160.006 36.6437C167.019 36.6437 172.897 35.3031 172.897 31.2813C172.897 27.2594 167.019 25.9875 160.006 25.9875ZM160.006 33.9625C155.263 33.9625 150.725 33.3094 150.725 31.2813C150.725 29.2875 155.263 28.6688 160.006 28.6688C164.75 28.6688 169.322 29.2875 169.322 31.2813C169.322 33.3094 164.75 33.9625 160.006 33.9625Z" fill="white"/>
<rect y="86.75" width="1562" height="64.625" fill="black"/>
<rect y="498" width="781" height="62" fill="black"/>
<line y1="152.313" x2="1562" y2="152.312" stroke="#EEEEEE" stroke-width="1.375"/>
<line y1="221.313" x2="1562" y2="221.312" stroke="#D9D9D9" stroke-width="1.375"/>
<line y1="290.313" x2="1562" y2="290.312" stroke="#D9D9D9" stroke-width="1.375"/>
<line y1="359.313" x2="1562" y2="359.312" stroke="#D9D9D9" stroke-width="1.375"/>
<line y1="428.313" x2="1562" y2="428.312" stroke="#D9D9D9" stroke-width="1.375"/>
<line y1="497.313" x2="1562" y2="497.312" stroke="#D9D9D9" stroke-width="1.375"/>
<path d="M356.678 116.562L362.222 119.862L363.256 118.212L357.536 114.89C357.756 114.318 357.91 113.702 357.998 113.086H362.926V111.26H358.02V109.17H355.82V111.26H350.848V113.086H355.776C355.336 115.77 353.51 117.794 350.65 118.212V120.104C353.268 119.818 355.38 118.476 356.678 116.562ZM367.392 113.658V109.5H365.214V120.654H367.392V115.748H370.032V113.658H367.392ZM359.626 121.204C355.138 121.204 351.574 122.128 351.574 124.746C351.574 127.364 355.138 128.288 359.626 128.288C364.136 128.288 367.678 127.364 367.678 124.746C367.678 122.128 364.136 121.204 359.626 121.204ZM359.626 126.55C356.414 126.55 353.884 126.044 353.884 124.746C353.884 123.448 356.414 122.942 359.626 122.942C362.838 122.942 365.368 123.448 365.368 124.746C365.368 126.044 362.838 126.55 359.626 126.55ZM387.058 109.5V113.262H383.186C382.658 111.128 380.568 109.72 377.532 109.72C373.968 109.72 371.724 111.634 371.724 114.362C371.724 117.09 373.968 119.004 377.532 119.004C380.656 119.004 382.768 117.508 383.23 115.286H387.058V119.136H389.236V109.5H387.058ZM377.532 117.2C375.376 117.2 373.902 116.122 373.902 114.362C373.902 112.602 375.376 111.524 377.532 111.524C379.688 111.524 381.14 112.602 381.14 114.362C381.14 116.122 379.688 117.2 377.532 117.2ZM387.08 122.15H375.596V120.17H373.462V128.046H389.236V120.17H387.08V122.15ZM375.596 126.264V123.888H387.08V126.264H375.596ZM407.868 118.52H410.134V109.94H393.942V111.986H407.868V118.52ZM411.476 120.082H392.71V122.15H400.85V128.728H403.094V122.15H411.476V120.082ZM431.274 109.61H429.14V111.876H417.37V109.61H415.214V117.618H431.274V109.61ZM417.37 115.88V113.548H429.14V115.88H417.37ZM413.872 119.466V121.314H422.144V124.24H424.344V121.314H432.638V119.466H413.872ZM417.392 123.008H415.17V128.068H431.67V126.22H417.392V123.008Z" fill="white"/>
<path d="M386.904 182.5V192.268H389.082V182.5H386.904ZM378.302 188.572L384 191.894L385.034 190.266L379.138 186.9C379.38 186.262 379.534 185.558 379.578 184.832H384.418V182.984H372.252V184.832H377.378C377.092 187.648 375.112 189.716 372.01 190.134V192.07C374.782 191.806 376.982 190.508 378.302 188.572ZM386.948 195.172H375.288V193.082H373.154V201.046H389.082V193.082H386.948V195.172ZM375.288 199.264V196.932H386.948V199.264H375.288ZM408.066 201.288H410.244V182.5H408.066V201.288ZM393.59 200.122C400.014 200.122 404.018 195.238 404.018 187.714V183.182H393.59V185.184H401.796V187.758C401.796 194.05 398.716 198.032 393.59 198.054V200.122Z" fill="white"/>
<path d="M1153.07 200.826H1155.38V183.204H1149.42V185.228H1153.07V200.826ZM1165.61 201.222C1169.29 201.222 1171.84 199.154 1171.84 196.206C1171.84 193.544 1169.75 192.07 1168.14 191.696C1169.51 191.278 1171.22 189.848 1171.22 187.604C1171.22 184.986 1168.96 182.786 1165.61 182.786C1162.25 182.786 1159.98 184.964 1159.98 187.604C1159.98 189.848 1161.7 191.278 1163.06 191.696C1161.48 192.07 1159.37 193.544 1159.37 196.206C1159.37 199.154 1161.92 201.222 1165.61 201.222ZM1165.61 190.662C1163.61 190.662 1162.2 189.32 1162.2 187.626C1162.2 185.998 1163.55 184.722 1165.61 184.722C1167.68 184.722 1169.02 186.042 1169.02 187.67C1169.02 189.342 1167.62 190.662 1165.61 190.662ZM1165.61 199.286C1163.17 199.286 1161.61 197.9 1161.61 196.074C1161.61 194.226 1163.3 192.796 1165.61 192.796C1167.9 192.796 1169.6 194.226 1169.6 196.074C1169.6 197.9 1168.03 199.286 1165.61 199.286ZM1180.01 201.222C1183.7 201.222 1186.23 198.692 1186.23 195.194C1186.23 191.674 1183.77 189.276 1180.43 189.276C1178.4 189.276 1177.1 190.156 1176.44 190.97L1176.75 185.206H1185.33V183.204H1174.64L1174.13 193.346H1176.4C1176.99 192.246 1178.12 191.256 1180.05 191.256C1182.38 191.256 1183.97 192.928 1183.97 195.194C1183.97 197.504 1182.45 199.22 1180.01 199.22C1177.52 199.22 1176.14 197.746 1176.07 195.854H1173.78C1173.91 198.912 1176.2 201.222 1180.01 201.222ZM1194.95 201.222C1198.65 201.222 1201.44 198.164 1201.44 192.004C1201.44 185.844 1198.65 182.786 1194.95 182.786C1191.23 182.786 1188.44 185.844 1188.44 192.004C1188.44 198.164 1191.23 201.222 1194.95 201.222ZM1194.95 199.176C1192.55 199.176 1190.66 196.8 1190.66 192.004C1190.66 187.23 1192.55 184.832 1194.95 184.832C1197.33 184.832 1199.22 187.23 1199.22 192.004C1199.22 196.8 1197.33 199.176 1194.95 199.176Z" fill="white"/>
<path d="M1428 70.826H1430.31V53.204H1424.34V55.228H1428V70.826ZM1439.83 71.222C1443.53 71.222 1446.32 68.164 1446.32 62.004C1446.32 55.844 1443.53 52.786 1439.83 52.786C1436.12 52.786 1433.32 55.844 1433.32 62.004C1433.32 68.164 1436.12 71.222 1439.83 71.222ZM1439.83 69.176C1437.44 69.176 1435.54 66.8 1435.54 62.004C1435.54 57.23 1437.44 54.832 1439.83 54.832C1442.21 54.832 1444.1 57.23 1444.1 62.004C1444.1 66.8 1442.21 69.176 1439.83 69.176ZM1463.1 63.346H1465.25V52.5H1463.1V54.546H1460.32V56.328H1463.1V58.396H1460.32V60.2H1463.1V63.346ZM1460.24 61.806V60.024C1459.55 60.266 1458.65 60.442 1457.55 60.574V54.766H1459.73V52.962H1447.76V54.766H1449.9V60.706H1447.7V62.51H1454.16C1456.89 62.51 1459.05 62.224 1460.24 61.806ZM1451.99 54.766H1455.46V60.684C1455.09 60.706 1454.71 60.706 1454.32 60.706H1451.99V54.766ZM1457.29 63.94C1452.73 63.94 1449.17 64.952 1449.17 67.614C1449.17 70.276 1452.73 71.288 1457.29 71.288C1461.84 71.288 1465.41 70.276 1465.41 67.614C1465.41 64.952 1461.84 63.94 1457.29 63.94ZM1457.29 69.528C1454.05 69.528 1451.5 68.934 1451.5 67.614C1451.5 66.294 1454.05 65.7 1457.29 65.7C1460.52 65.7 1463.07 66.294 1463.07 67.614C1463.07 68.934 1460.52 69.528 1457.29 69.528ZM1488.05 71.288H1490.23V52.5H1488.05V71.288ZM1473.57 70.122C1480 70.122 1484 65.238 1484 57.714V53.182H1473.57V55.184H1481.78V57.758C1481.78 64.05 1478.7 68.032 1473.57 68.054V70.122ZM1510.07 60.684L1510.73 58.946L1502.96 56.306C1503.25 55.778 1503.47 55.206 1503.56 54.568H1510.22V52.72H1494.03V54.568H1501.36C1500.72 57.23 1496.98 58.66 1493.72 58.748V60.596C1496.71 60.53 1499.84 59.606 1501.77 57.802L1510.07 60.684ZM1492.75 62.136V63.984H1501.03V67.218H1503.23V63.984H1511.52V62.136H1492.75ZM1496.27 65.722H1494.05V71.068H1510.55V69.198H1496.27V65.722ZM1533.06 59.034H1535.26V52.72H1519.14V54.568H1533.06V59.034ZM1517.88 61.982H1536.65V60.156H1517.88V61.982ZM1519.18 71.068H1535.33V63.896H1519.18V71.068ZM1521.36 69.286V65.678H1533.17V69.286H1521.36ZM1553.94 52.5V56.812H1550.88V52.61H1548.81V63.874H1550.88V58.858H1553.94V64.072H1556.01V52.5H1553.94ZM1542.59 63.588C1545.4 63.588 1546.92 61.432 1546.92 58.11C1546.92 54.788 1545.4 52.654 1542.59 52.654C1539.77 52.654 1538.23 54.788 1538.23 58.11C1538.23 61.432 1539.77 63.588 1542.59 63.588ZM1542.59 54.48C1544.06 54.48 1544.87 55.756 1544.87 58.11C1544.87 60.442 1544.06 61.762 1542.59 61.762C1541.09 61.762 1540.28 60.442 1540.28 58.11C1540.28 55.756 1541.09 54.48 1542.59 54.48ZM1539.64 66.976H1553.85V71.288H1556.01V65.106H1539.64V66.976Z" fill="white"/>
<path d="M365.742 263.448H367.92V249.5H365.742V263.448ZM356.524 260.61C360.198 260.61 362.464 258.3 362.464 255.154C362.464 252.008 360.198 249.698 356.524 249.698C352.85 249.698 350.562 252.008 350.562 255.154C350.562 258.3 352.85 260.61 356.524 260.61ZM356.524 258.762C354.28 258.762 352.74 257.376 352.74 255.154C352.74 252.932 354.28 251.524 356.524 251.524C358.746 251.524 360.286 252.932 360.286 255.154C360.286 257.376 358.746 258.762 356.524 258.762ZM352.212 268.046H368.426V266.066H354.434V261.908H352.212V268.046ZM387.542 249.5V268.288H389.61V249.5H387.542ZM383.01 257.332H380.414V259.334H383.01V267.958H385.078V249.61H383.01V257.332ZM374.21 265.23V259.488H379.424V257.552H374.21V252.118H380.348V250.182H372.12V267.166H375.728C378.038 267.166 380.04 266.88 381.272 266.33V264.372C379.886 264.966 378.104 265.23 375.838 265.23H374.21ZM408.066 268.288H410.244V249.5H408.066V268.288ZM393.788 267.166H401.4C403.226 267.166 405.184 266.836 406.328 266.264V264.262C405.184 264.812 403.248 265.164 401.466 265.164H395.966V259.532H404.37V250.182H393.744V252.184H402.192V257.53H393.788V267.166ZM429.382 249.5V257.288H425.73C425.4 252.272 423.2 249.94 420.186 249.94C416.886 249.94 414.576 252.712 414.576 258.674C414.576 264.636 416.886 267.408 420.186 267.408C423.332 267.408 425.598 264.834 425.774 259.334H429.382V268.288H431.56V249.5H429.382ZM420.186 265.406C418.228 265.406 416.754 263.448 416.754 258.674C416.754 253.922 418.228 251.942 420.186 251.942C422.122 251.942 423.596 253.922 423.596 258.674C423.596 263.448 422.122 265.406 420.186 265.406Z" fill="white"/>
<path d="M1152.67 267.826H1154.98V250.204H1149.02V252.228H1152.67V267.826ZM1165.15 268.222C1168.85 268.222 1171.38 265.692 1171.38 262.194C1171.38 258.674 1168.91 256.276 1165.57 256.276C1163.55 256.276 1162.25 257.156 1161.59 257.97L1161.9 252.206H1170.48V250.204H1159.78L1159.28 260.346H1161.54C1162.14 259.246 1163.26 258.256 1165.2 258.256C1167.53 258.256 1169.11 259.928 1169.11 262.194C1169.11 264.504 1167.59 266.22 1165.15 266.22C1162.67 266.22 1161.28 264.746 1161.21 262.854H1158.93C1159.06 265.912 1161.35 268.222 1165.15 268.222ZM1180.09 268.222C1183.79 268.222 1186.58 265.164 1186.58 259.004C1186.58 252.844 1183.79 249.786 1180.09 249.786C1176.38 249.786 1173.58 252.844 1173.58 259.004C1173.58 265.164 1176.38 268.222 1180.09 268.222ZM1180.09 266.176C1177.7 266.176 1175.8 263.8 1175.8 259.004C1175.8 254.23 1177.7 251.832 1180.09 251.832C1182.47 251.832 1184.36 254.23 1184.36 259.004C1184.36 263.8 1182.47 266.176 1180.09 266.176ZM1195.35 268.222C1199.04 268.222 1201.84 265.164 1201.84 259.004C1201.84 252.844 1199.04 249.786 1195.35 249.786C1191.63 249.786 1188.84 252.844 1188.84 259.004C1188.84 265.164 1191.63 268.222 1195.35 268.222ZM1195.35 266.176C1192.95 266.176 1191.06 263.8 1191.06 259.004C1191.06 254.23 1192.95 251.832 1195.35 251.832C1197.72 251.832 1199.62 254.23 1199.62 259.004C1199.62 263.8 1197.72 266.176 1195.35 266.176Z" fill="white"/>
<path d="M388.554 320.966V316.5H386.376V330.448H388.554V323.056H391.194V320.966H388.554ZM382.856 319.514V316.962H372.032V318.876H380.656V319.778C380.656 323.518 377.29 325.52 372.032 325.542V327.5C378.478 327.5 382.856 324.86 382.856 319.514ZM375.046 329.128H372.846V335.046H389.06V333.066H375.046V329.128ZM409.716 321.032V316.5H407.538V330.448H409.716V323.122H412.356V321.032H409.716ZM406.152 326.51V324.684C405.382 325.014 404.348 325.256 403.05 325.388V318.81H405.338V316.962H392.798V318.81H395.086V325.52H392.732V327.368H399.992C402.72 327.368 404.986 327.016 406.152 326.51ZM397.198 318.81H400.938V325.52H400.256H397.198V318.81ZM396.208 329.04H394.008V335.046H410.222V333.066H396.208V329.04Z" fill="white"/>
<path d="M1154.49 334.826H1166.75V332.824H1157.81L1162.43 328.292C1165.07 325.586 1166.15 323.98 1166.15 322.088C1166.15 318.92 1163.82 316.786 1160.28 316.786C1156.6 316.786 1154.29 319.404 1154.29 322.594H1156.6C1156.6 320.636 1157.88 318.832 1160.26 318.832C1162.46 318.832 1163.86 320.042 1163.86 322.11C1163.86 323.364 1162.98 324.794 1160.74 327.06L1154.49 333.33V334.826ZM1175.02 335.222C1178.72 335.222 1181.25 332.692 1181.25 329.194C1181.25 325.674 1178.79 323.276 1175.44 323.276C1173.42 323.276 1172.12 324.156 1171.46 324.97L1171.77 319.206H1180.35V317.204H1169.66L1169.15 327.346H1171.42C1172.01 326.246 1173.13 325.256 1175.07 325.256C1177.4 325.256 1178.98 326.928 1178.98 329.194C1178.98 331.504 1177.47 333.22 1175.02 333.22C1172.54 333.22 1171.15 331.746 1171.09 329.854H1168.8C1168.93 332.912 1171.22 335.222 1175.02 335.222ZM1189.97 335.222C1193.66 335.222 1196.46 332.164 1196.46 326.004C1196.46 319.844 1193.66 316.786 1189.97 316.786C1186.25 316.786 1183.45 319.844 1183.45 326.004C1183.45 332.164 1186.25 335.222 1189.97 335.222ZM1189.97 333.176C1187.57 333.176 1185.68 330.8 1185.68 326.004C1185.68 321.23 1187.57 318.832 1189.97 318.832C1192.34 318.832 1194.23 321.23 1194.23 326.004C1194.23 330.8 1192.34 333.176 1189.97 333.176Z" fill="white"/>
<path d="M381.113 391.112H378.473V383.5H376.295V402.288H378.473V393.202H381.113V391.112ZM362.149 386.184H370.157V388.758C370.157 395.05 367.253 399.032 362.149 399.054V401.122C368.529 401.122 372.379 396.194 372.379 388.714V384.182H362.149V386.184ZM395.565 389.33H398.623V394.478H400.691V383.5H398.623V387.328H395.565V383.61H393.497V393.862H395.565V389.33ZM391.341 383.962H383.201V393.136H391.341V383.962ZM389.317 391.31H385.225V385.788H389.317V391.31ZM392.573 394.852C388.085 394.852 384.169 395.798 384.169 398.57C384.169 401.342 388.085 402.288 392.573 402.288C397.061 402.288 400.977 401.342 400.977 398.57C400.977 395.798 397.061 394.852 392.573 394.852ZM392.573 400.506C389.493 400.506 386.479 400 386.479 398.57C386.479 397.14 389.493 396.612 392.573 396.612C395.653 396.612 398.667 397.14 398.667 398.57C398.667 400 395.653 400.506 392.573 400.506ZM419.147 383.5V402.288H421.325V383.5H419.147ZM413.361 390.518H407.025V384.05H404.869V401.166H415.517V384.05H413.361V390.518ZM407.025 399.164V392.52H413.361V399.164H407.025Z" fill="white"/>
<path d="M1160.18 402.222C1163.87 402.222 1166.4 399.692 1166.4 396.194C1166.4 392.674 1163.94 390.276 1160.6 390.276C1158.57 390.276 1157.27 391.156 1156.61 391.97L1156.92 386.206H1165.5V384.204H1154.81L1154.3 394.346H1156.57C1157.16 393.246 1158.29 392.256 1160.22 392.256C1162.55 392.256 1164.14 393.928 1164.14 396.194C1164.14 398.504 1162.62 400.22 1160.18 400.22C1157.69 400.22 1156.31 398.746 1156.24 396.854H1153.95C1154.08 399.912 1156.37 402.222 1160.18 402.222ZM1175.12 402.222C1178.82 402.222 1181.61 399.164 1181.61 393.004C1181.61 386.844 1178.82 383.786 1175.12 383.786C1171.4 383.786 1168.61 386.844 1168.61 393.004C1168.61 399.164 1171.4 402.222 1175.12 402.222ZM1175.12 400.176C1172.72 400.176 1170.83 397.8 1170.83 393.004C1170.83 388.23 1172.72 385.832 1175.12 385.832C1177.5 385.832 1179.39 388.23 1179.39 393.004C1179.39 397.8 1177.5 400.176 1175.12 400.176ZM1190.37 402.222C1194.07 402.222 1196.86 399.164 1196.86 393.004C1196.86 386.844 1194.07 383.786 1190.37 383.786C1186.66 383.786 1183.86 386.844 1183.86 393.004C1183.86 399.164 1186.66 402.222 1190.37 402.222ZM1190.37 400.176C1187.98 400.176 1186.08 397.8 1186.08 393.004C1186.08 388.23 1187.98 385.832 1190.37 385.832C1192.75 385.832 1194.64 388.23 1194.64 393.004C1194.64 397.8 1192.75 400.176 1190.37 400.176Z" fill="white"/>
<path d="M376.801 463.568H379.023V451.16H362.589V453.184H376.801V463.568ZM373.193 466.384V458.838H370.993V466.384H367.297V458.838H365.119V466.384H361.467V468.386H380.233V466.384H373.193ZM392.001 458.2C396.555 458.2 400.339 457.012 400.339 454.284C400.339 451.578 396.555 450.39 392.001 450.39C387.447 450.39 383.663 451.578 383.663 454.284C383.663 457.012 387.447 458.2 392.001 458.2ZM392.001 452.128C395.279 452.128 398.029 452.854 398.029 454.284C398.029 455.736 395.279 456.462 392.001 456.462C388.723 456.462 385.973 455.736 385.973 454.284C385.973 452.854 388.723 452.128 392.001 452.128ZM401.395 461.434V459.63H382.629V461.434H387.381V463.766H383.773V465.57H397.875V469.31H400.075V463.766H396.621V461.434H401.395ZM394.465 463.766H389.537V461.434H394.465V463.766ZM419.147 450.5V469.288H421.325V450.5H419.147ZM413.361 457.518H407.025V451.05H404.869V468.166H415.517V451.05H413.361V457.518ZM407.025 466.164V459.52H413.361V466.164H407.025Z" fill="white"/>
<path d="M1154.11 468.826H1166.36V466.824H1157.43L1162.05 462.292C1164.69 459.586 1165.77 457.98 1165.77 456.088C1165.77 452.92 1163.43 450.786 1159.89 450.786C1156.22 450.786 1153.91 453.404 1153.91 456.594H1156.22C1156.22 454.636 1157.49 452.832 1159.87 452.832C1162.07 452.832 1163.48 454.042 1163.48 456.11C1163.48 457.364 1162.6 458.794 1160.35 461.06L1154.11 467.33V468.826ZM1175.1 469.222C1178.79 469.222 1181.59 466.164 1181.59 460.004C1181.59 453.844 1178.79 450.786 1175.1 450.786C1171.38 450.786 1168.59 453.844 1168.59 460.004C1168.59 466.164 1171.38 469.222 1175.1 469.222ZM1175.1 467.176C1172.7 467.176 1170.81 464.8 1170.81 460.004C1170.81 455.23 1172.7 452.832 1175.1 452.832C1177.47 452.832 1179.37 455.23 1179.37 460.004C1179.37 464.8 1177.47 467.176 1175.1 467.176ZM1190.35 469.222C1194.05 469.222 1196.84 466.164 1196.84 460.004C1196.84 453.844 1194.05 450.786 1190.35 450.786C1186.63 450.786 1183.84 453.844 1183.84 460.004C1183.84 466.164 1186.63 469.222 1190.35 469.222ZM1190.35 467.176C1187.95 467.176 1186.06 464.8 1186.06 460.004C1186.06 455.23 1187.95 452.832 1190.35 452.832C1192.73 452.832 1194.62 455.23 1194.62 460.004C1194.62 464.8 1192.73 467.176 1190.35 467.176Z" fill="white"/>
<path d="M384.242 519.062H378.962V517.17H376.762V519.062H371.482V520.734H384.242V519.062ZM391.194 521.438H388.554V517.5H386.376V528.06H388.554V523.462H391.194V521.438ZM377.862 528.302C380.964 528.302 383.362 527.07 383.362 525.002C383.362 522.956 380.964 521.702 377.862 521.702C374.738 521.702 372.34 522.956 372.34 525.002C372.34 527.07 374.738 528.302 377.862 528.302ZM377.862 523.286C379.952 523.286 381.294 524.034 381.294 525.002C381.294 525.97 379.952 526.718 377.862 526.718C375.75 526.718 374.43 525.97 374.43 525.002C374.43 524.034 375.75 523.286 377.862 523.286ZM386.442 530.766H374.958V529.072H372.846V536.046H388.554V529.072H386.442V530.766ZM374.958 534.33V532.438H386.442V534.33H374.958ZM408.726 517.5V536.288H410.772V517.5H408.726ZM404.106 522.208H400.894V518.182H393.128V520.162H398.782V523.352C398.782 529.16 396.626 532.966 393.128 533.076V535.122C395.988 535.1 398.32 533.296 399.662 530.15H404.106V535.958H406.152V517.61H404.106V522.208ZM400.322 528.126C400.63 526.96 400.806 525.64 400.872 524.232H404.106V528.126H400.322Z" fill="white"/>
<path d="M65.1789 616.359H67.2208V607.531H65.1789V609.119H62.312V610.811H65.1789V612.667H62.312V614.358H65.1789V616.359ZM61.4045 607.841H59.4245V610.027H53.3608V607.841H51.3602V615.719H61.4045V607.841ZM53.3608 614.069V611.656H59.4245V614.069H53.3608ZM54.2477 623.33V621.866H67.2208V617.328H52.1852V618.916H65.1995V620.36H52.2264V624.918H67.6539V623.33H54.2477ZM79.264 622.402V618.133H86.0909V616.235H72.6846V610.068H85.8846V608.171H70.6015V618.133H77.1809V622.402H69.4465V624.299H87.0396V622.402H79.264ZM99.0266 613.513L104.286 616.297L105.111 614.812L99.8516 612.069C100.037 611.615 100.161 611.161 100.223 610.666H104.863V609.016H100.264V607.222H98.2016V609.016H93.5403V610.666H98.1397C97.8097 612.832 96.0566 614.358 93.3547 614.75V616.421C95.8297 616.153 97.8303 615.059 99.0266 613.513ZM104.162 611.388V613.1H107.545V616.565H109.587V607.531H107.545V611.388H104.162ZM96.6135 623.351V621.969H109.587V617.534H94.551V619.102H107.565V620.463H94.5922V624.918H110.02V623.351H96.6135ZM126.353 607.531V614.688H122.001C122.104 613.966 122.145 613.203 122.145 612.419V608.171H112.555V610.048H120.062V612.461C120.062 618.359 117.34 622.093 112.555 622.113V624.052C117.237 624.052 120.475 621.206 121.65 616.606H126.353V625.145H128.395V607.531H126.353ZM133.343 622.134H131.281L130.621 626.795H132.312L133.343 622.134ZM154.328 607.531V625.145H156.267V607.531H154.328ZM150.079 614.874H147.646V616.751H150.079V624.836H152.018V607.634H150.079V614.874ZM141.829 622.278V616.895H146.718V615.08H141.829V609.986H147.584V608.171H139.87V624.093H143.253C145.418 624.093 147.295 623.825 148.45 623.309V621.474C147.151 622.031 145.48 622.278 143.356 622.278H141.829ZM176.56 614.668H174.085V607.531H172.043V625.145H174.085V616.627H176.56V614.668ZM160.988 622.216V616.936H168.702V608.171H158.926V610.048H166.66V615.059H158.967V624.093H165.918C167.609 624.093 169.444 623.784 170.517 623.247V621.391C169.444 621.907 167.629 622.216 165.959 622.216H160.988ZM185.51 613.451L193.038 618.669L194.151 617.039L186.396 611.821C186.974 610.646 187.386 609.346 187.634 607.985L185.53 607.614C184.623 612.543 181.116 616.668 177.301 616.668V618.607C180.539 618.607 183.53 616.565 185.51 613.451ZM176.95 622.381V624.299H194.543V622.381H176.95ZM198.481 622.134H196.418L195.758 626.795H197.45L198.481 622.134ZM218.909 607.531V625.145H220.951V607.531H218.909ZM211.505 622.175V618.586C214.145 618.174 215.96 616.091 215.96 613.286C215.96 610.13 213.67 607.903 210.515 607.903C207.339 607.903 205.07 610.13 205.07 613.286C205.07 616.091 206.864 618.153 209.484 618.586V622.175H204.472V624.093H211.69C214.104 624.093 216.187 623.866 217.445 623.351V621.433C216.187 621.969 214.042 622.175 211.67 622.175H211.505ZM207.07 613.286C207.07 611.285 208.411 609.738 210.515 609.738C212.598 609.738 213.959 611.285 213.959 613.286C213.959 615.286 212.598 616.813 210.515 616.813C208.411 616.813 207.07 615.286 207.07 613.286ZM239.635 607.841H237.614V610.316H226.518V607.841H224.497V616.874H239.635V607.841ZM226.518 615.059V612.131H237.614V615.059H226.518ZM240.873 618.751H223.28V620.649H231.014V625.557H233.118V620.649H240.873V618.751ZM260.506 611.429H258.031V607.531H255.989V618.05H258.031V613.389H260.506V611.429ZM254.711 616.297V614.544C253.576 615.039 251.555 615.328 249.162 615.328H244.769V609.697H253.452V607.964H242.707V617.081H249.039C251.534 617.081 253.638 616.771 254.711 616.297ZM243.14 620.793H255.969V625.145H258.031V619.019H243.14V620.793ZM277.603 617.596H264.114V614.688H277.108V612.894H264.114V610.006H277.334V608.171H262.072V619.432H277.603V617.596ZM260.896 622.423V624.299H278.489V622.423H260.896ZM282.427 622.134H280.365L279.705 626.795H281.396L282.427 622.134ZM300.545 612.935H303.412V617.679H305.351V607.531H303.412V611.038H300.545V607.634H298.607V617.039H300.545V612.935ZM297.575 615.616V613.884C296.338 614.358 294.605 614.544 292.728 614.544H290.934V607.903H288.954V616.276H292.522C294.482 616.276 296.358 616.091 297.575 615.616ZM297.74 617.968C293.533 617.968 289.862 618.896 289.862 621.556C289.862 624.217 293.533 625.145 297.74 625.145C301.948 625.145 305.619 624.217 305.619 621.556C305.619 618.896 301.948 617.968 297.74 617.968ZM297.74 623.454C294.853 623.454 292.027 622.959 292.027 621.556C292.027 620.154 294.853 619.638 297.74 619.638C300.628 619.638 303.453 620.154 303.453 621.556C303.453 622.959 300.628 623.454 297.74 623.454ZM323.169 611.326V607.531H321.127V620.608H323.169V613.286H325.644V611.326H323.169ZM319.848 616.503V614.709C318.714 615.204 316.693 615.493 314.3 615.493H309.928V607.861H307.845V617.287H314.177C316.672 617.287 318.776 616.978 319.848 616.503ZM310.505 618.999H308.443V624.918H323.643V623.062H310.505V618.999ZM341.977 611.244V607.531H339.935V617.576H341.977V613.203H344.452V611.244H341.977ZM336.945 607.841H334.944V610.378H328.654V607.841H326.653V616.544H336.945V607.841ZM328.654 614.853V612.048H334.944V614.853H328.654ZM334.697 618.133C330.489 618.133 327.148 619.102 327.148 621.639C327.148 624.176 330.489 625.145 334.697 625.145C338.925 625.145 342.245 624.176 342.245 621.639C342.245 619.102 338.925 618.133 334.697 618.133ZM334.697 623.474C331.706 623.474 329.314 622.918 329.314 621.639C329.314 620.381 331.706 619.803 334.697 619.803C337.708 619.803 340.08 620.381 340.08 621.639C340.08 622.918 337.708 623.474 334.697 623.474ZM359.239 625.145H361.281V607.531H359.239V625.145ZM345.667 624.052C351.69 624.052 355.444 619.473 355.444 612.419V608.171H345.667V610.048H353.361V612.461C353.361 618.359 350.473 622.093 345.667 622.113V624.052ZM366.373 622.134H364.311L363.651 626.795H365.342L366.373 622.134ZM386.801 607.531V625.145H388.843V607.531H386.801ZM379.397 622.175V618.586C382.037 618.174 383.852 616.091 383.852 613.286C383.852 610.13 381.563 607.903 378.407 607.903C375.231 607.903 372.962 610.13 372.962 613.286C372.962 616.091 374.756 618.153 377.376 618.586V622.175H372.364V624.093H379.583C381.996 624.093 384.079 623.866 385.337 623.351V621.433C384.079 621.969 381.934 622.175 379.562 622.175H379.397ZM374.963 613.286C374.963 611.285 376.303 609.738 378.407 609.738C380.49 609.738 381.851 611.285 381.851 613.286C381.851 615.286 380.49 616.813 378.407 616.813C376.303 616.813 374.963 615.286 374.963 613.286ZM407.528 607.841H405.506V610.316H394.41V607.841H392.389V616.874H407.528V607.841ZM394.41 615.059V612.131H405.506V615.059H394.41ZM408.765 618.751H391.172V620.649H398.906V625.557H401.01V620.649H408.765V618.751ZM428.398 611.326V609.553H425.923V607.531H423.882V619.597H425.923V615.513H428.398V613.739H425.923V611.326H428.398ZM415.858 613.595L421.035 617.287L422.19 615.823L416.663 611.924C417.158 610.666 417.405 609.264 417.405 607.82L415.363 607.696C415.322 611.636 413.363 615.039 410.022 615.637V617.534C412.558 617.204 414.58 615.699 415.858 613.595ZM420.272 618.401L418.21 618.029C417.488 621.123 414.25 622.959 410.97 623V624.918C413.796 624.897 416.622 623.784 418.457 621.804L425.923 625.145L426.728 623.392L419.53 620.339C419.86 619.741 420.107 619.102 420.272 618.401ZM443.185 607.531V625.145H445.227V607.531H443.185ZM436.667 608.047L434.584 607.964C434.564 615.369 432.625 621.474 429.098 622.031V624.093C431.882 623.887 434.027 621.536 435.327 617.658L440.009 624.052L441.659 622.876L435.966 615.286C436.42 613.183 436.647 610.749 436.667 608.047ZM450.319 622.134H448.257L447.597 626.795H449.288L450.319 622.134ZM467.427 611.698V613.492H470.851V620.628H472.892V607.531H470.851V611.698H467.427ZM462.518 614.193L467.489 617.968L468.644 616.483L463.24 612.461C463.487 611.615 463.652 610.708 463.694 609.759H468.128V607.985H456.888V609.759H461.631C461.446 613.286 459.61 615.823 456.661 616.235V618.112C459.259 617.844 461.322 616.4 462.518 614.193ZM459.981 623.082V619.308H457.898V624.918H473.264V623.082H459.981ZM489.514 625.145H491.556V607.531H489.514V625.145ZM475.943 624.052C481.966 624.052 485.719 619.473 485.719 612.419V608.171H475.943V610.048H483.636V612.461C483.636 618.359 480.749 622.093 475.943 622.113V624.052ZM502.61 610.873L510.282 614.173L511.004 612.626L503.682 609.511C504.053 608.893 504.342 608.191 504.486 607.469L502.445 607.119C501.764 610.213 497.969 612.296 494.566 612.419V614.131C497.577 614.069 500.671 612.853 502.61 610.873ZM493.926 615.596V617.246H511.52V615.596H493.926ZM502.713 618.793C498.505 618.793 494.978 619.556 494.978 621.969C494.978 624.382 498.505 625.186 502.713 625.186C506.92 625.186 510.447 624.382 510.447 621.969C510.447 619.556 506.92 618.793 502.713 618.793ZM502.713 623.577C499.866 623.577 497.144 623.186 497.144 621.969C497.144 620.773 499.866 620.401 502.713 620.401C505.559 620.401 508.302 620.773 508.302 621.969C508.302 623.186 505.559 623.577 502.713 623.577ZM524.635 608.996H519.685V607.222H517.623V608.996H512.673V610.563H524.635V608.996ZM531.153 611.223H528.678V607.531H526.636V617.431H528.678V613.121H531.153V611.223ZM518.654 617.658C521.562 617.658 523.81 616.503 523.81 614.564C523.81 612.646 521.562 611.471 518.654 611.471C515.725 611.471 513.477 612.646 513.477 614.564C513.477 616.503 515.725 617.658 518.654 617.658ZM518.654 612.956C520.613 612.956 521.872 613.657 521.872 614.564C521.872 615.472 520.613 616.173 518.654 616.173C516.674 616.173 515.437 615.472 515.437 614.564C515.437 613.657 516.674 612.956 518.654 612.956ZM526.698 619.968H515.932V618.38H513.952V624.918H528.678V618.38H526.698V619.968ZM515.932 623.309V621.536H526.698V623.309H515.932ZM534.265 622.134H532.203L531.543 626.795H533.234L534.265 622.134ZM551.373 610.852V612.626H554.797V617.431H556.839V607.531H554.797V610.852H551.373ZM546.464 613.43L551.641 616.751L552.652 615.224L547.227 611.801C547.434 611.141 547.578 610.46 547.619 609.738H552.074V607.985H540.834V609.738H545.577C545.33 612.605 543.515 614.688 540.607 615.08V616.916C543.205 616.668 545.247 615.348 546.464 613.43ZM549.372 618.009C545.103 618.009 541.762 618.999 541.762 621.577C541.762 624.155 545.103 625.145 549.372 625.145C553.642 625.145 556.983 624.155 556.983 621.577C556.983 618.999 553.642 618.009 549.372 618.009ZM549.372 623.474C546.34 623.474 543.927 622.876 543.927 621.577C543.927 620.278 546.34 619.679 549.372 619.679C552.404 619.679 554.817 620.278 554.817 621.577C554.817 622.876 552.404 623.474 549.372 623.474ZM570.924 609.573H565.994V607.346H563.911V609.573H558.982V611.368H570.924V609.573ZM577.482 614.503H575.049V607.531H573.007V625.145H575.049V616.462H577.482V614.503ZM565.974 619.679C568.511 619.411 570.078 618.091 570.078 616.091C570.078 613.843 568.098 612.44 564.984 612.44C561.869 612.44 559.889 613.843 559.889 616.091C559.889 618.071 561.436 619.391 563.932 619.659V622.278H559.064V624.093H565.788C568.263 624.093 570.429 623.846 571.542 623.351V621.494C570.326 622.051 568.304 622.258 565.974 622.278V619.679ZM561.828 616.091C561.828 614.977 562.901 614.111 564.984 614.111C567.067 614.111 568.139 614.977 568.139 616.091C568.139 617.204 567.067 618.05 564.984 618.05C562.901 618.05 561.828 617.204 561.828 616.091ZM586.411 614.152L594.084 618.442L595.053 616.792L587.381 612.523C587.731 611.78 587.999 610.955 588.164 610.068H594.476V608.191H578.78V610.068H585.999C585.133 613.884 582.059 616.111 578.388 616.421V618.318C581.647 618.112 584.596 616.648 586.411 614.152ZM587.669 622.381V617.906H585.628V622.381H577.873V624.299H595.466V622.381H587.669ZM599.403 622.134H597.341L596.681 626.795H598.372L599.403 622.134ZM617.253 609.573H612.324V607.346H610.241V609.573H605.312V611.368H617.253V609.573ZM623.812 614.503H621.378V607.531H619.337V625.145H621.378V616.462H623.812V614.503ZM612.303 619.679C614.84 619.411 616.408 618.091 616.408 616.091C616.408 613.843 614.428 612.44 611.313 612.44C608.199 612.44 606.219 613.843 606.219 616.091C606.219 618.071 607.766 619.391 610.262 619.659V622.278H605.394V624.093H612.118C614.593 624.093 616.758 623.846 617.872 623.351V621.494C616.655 622.051 614.634 622.258 612.303 622.278V619.679ZM608.158 616.091C608.158 614.977 609.23 614.111 611.313 614.111C613.397 614.111 614.469 614.977 614.469 616.091C614.469 617.204 613.397 618.05 611.313 618.05C609.23 618.05 608.158 617.204 608.158 616.091ZM640.145 610.893V607.531H638.103V617.266H640.145V612.832H642.62V610.893H640.145ZM630.369 613.327L635.463 616.524L636.474 614.998L631.112 611.698C631.297 611.079 631.421 610.419 631.462 609.738H635.917V607.985H624.677V609.738H629.42C629.152 612.543 627.358 614.688 624.45 615.08V616.916C627.09 616.648 629.173 615.286 630.369 613.327ZM632.865 617.844C628.657 617.844 625.316 618.854 625.316 621.494C625.316 624.134 628.657 625.145 632.865 625.145C637.093 625.145 640.413 624.134 640.413 621.494C640.413 618.854 637.093 617.844 632.865 617.844ZM632.865 623.454C629.874 623.454 627.502 622.856 627.502 621.494C627.502 620.154 629.874 619.535 632.865 619.535C635.876 619.535 638.227 620.154 638.227 621.494C638.227 622.856 635.876 623.454 632.865 623.454ZM659.449 607.531H657.407V616.153H659.449V607.531ZM649.219 612.605L654.705 615.699L655.695 614.152L650.105 611.079C650.539 610.089 650.765 608.975 650.765 607.82L648.724 607.696C648.703 610.893 646.62 613.574 643.279 614.173V615.988C645.836 615.658 647.899 614.399 649.219 612.605ZM646.558 623.309V621.783H659.449V617.122H644.495V618.731H657.427V620.257H644.537V624.918H659.882V623.309H646.558ZM664.541 622.134H662.479L661.819 626.795H663.51L664.541 622.134ZM685.073 607.531V610.852H681.649V612.626H685.073V617.266H687.114V607.531H685.073ZM676.74 613.43L681.917 616.751L682.928 615.224L677.503 611.801C677.73 611.161 677.854 610.46 677.895 609.738H682.35V607.985H671.109V609.738H675.853C675.606 612.605 673.791 614.688 670.883 615.08V616.916C673.481 616.668 675.544 615.369 676.74 613.43ZM672.12 624.918H687.114V618.236H672.12V624.918ZM674.162 619.948H685.073V623.186H674.162V619.948ZM699.158 622.381V618.401H706.005V616.524H702.891V610.171H705.819V608.274H690.433V610.171H693.362V616.524H690.248V618.401H697.074V622.381H689.34V624.299H706.933V622.381H699.158ZM695.424 610.171H700.828V616.524H695.424V610.171ZM722.586 607.531V625.145H724.628V607.531H722.586ZM715.181 622.175V618.586C717.821 618.174 719.636 616.091 719.636 613.286C719.636 610.13 717.347 607.903 714.191 607.903C711.015 607.903 708.746 610.13 708.746 613.286C708.746 616.091 710.541 618.153 713.16 618.586V622.175H708.148V624.093H715.367C717.78 624.093 719.863 623.866 721.121 623.351V621.433C719.863 621.969 717.718 622.175 715.346 622.175H715.181ZM710.747 613.286C710.747 611.285 712.088 609.738 714.191 609.738C716.275 609.738 717.636 611.285 717.636 613.286C717.636 615.286 716.275 616.813 714.191 616.813C712.088 616.813 710.747 615.286 710.747 613.286ZM743.312 607.841H741.291V610.316H730.195V607.841H728.173V616.874H743.312V607.841ZM730.195 615.059V612.131H741.291V615.059H730.195ZM744.55 618.751H726.957V620.649H734.691V625.557H736.795V620.649H744.55V618.751ZM760.017 613.719H762.058V607.738H746.94V609.47H760.017V613.719ZM754.427 614.956V611.512H752.365V614.956H745.765V616.648H763.358V614.956H754.427ZM754.551 618.298C750.343 618.298 746.817 619.184 746.817 621.721C746.817 624.196 750.343 625.166 754.551 625.166C758.758 625.166 762.285 624.196 762.285 621.721C762.285 619.267 758.758 618.298 754.551 618.298ZM754.551 623.536C751.705 623.536 748.962 622.979 748.962 621.721C748.962 620.422 751.705 619.927 754.551 619.927C757.397 619.927 760.14 620.484 760.14 621.721C760.14 622.979 757.397 623.536 754.551 623.536ZM782.991 614.668H780.516V607.531H778.474V625.145H780.516V616.627H782.991V614.668ZM772.184 608.047L770.1 607.964C770.08 615.369 768.244 621.474 764.717 622.031V624.093C767.46 623.887 769.585 621.598 770.843 617.761L775.38 624.052L777.03 622.876L771.482 615.369C771.936 613.244 772.163 610.79 772.184 608.047ZM804.074 610.625V607.531H802.032V616.153H804.074V612.543H806.549V610.625H804.074ZM798.732 609.759V607.964H788.584V609.676H796.69V610.089C796.69 612.935 793.534 614.152 788.584 614.173V615.884C794.648 615.884 798.732 614.069 798.732 609.759ZM791.389 621.783H803.826V620.257H791.389V618.731H804.074V617.122H789.368V624.918H804.259V623.309H791.389V621.783ZM815.725 615.121C819.994 615.121 823.542 613.884 823.542 611.264C823.542 608.666 819.994 607.428 815.725 607.428C811.456 607.428 807.908 608.666 807.908 611.264C807.908 613.884 811.456 615.121 815.725 615.121ZM815.725 613.471C812.652 613.471 810.074 612.708 810.074 611.264C810.074 609.841 812.652 609.078 815.725 609.078C818.798 609.078 821.376 609.841 821.376 611.264C821.376 612.708 818.798 613.471 815.725 613.471ZM806.939 618.421H824.532V616.689H806.939V618.421ZM808.156 624.939H823.624V623.186H810.239V619.927H808.156V624.939ZM845.058 617.699H847.079V607.531H845.058V609.449H842.459V611.12H845.058V613.059H842.459V614.75H845.058V617.699ZM842.376 616.256V614.585C841.737 614.812 840.891 614.977 839.86 615.101V609.656H841.902V607.964H830.682V609.656H832.683V615.224H830.62V616.916H836.684C839.241 616.916 841.263 616.648 842.376 616.256ZM834.642 609.656H837.901V615.204C837.55 615.224 837.199 615.224 836.828 615.224H834.642V609.656ZM839.613 618.256C835.343 618.256 832.002 619.205 832.002 621.701C832.002 624.196 835.343 625.145 839.613 625.145C843.882 625.145 847.223 624.196 847.223 621.701C847.223 619.205 843.882 618.256 839.613 618.256ZM839.613 623.495C836.581 623.495 834.188 622.938 834.188 621.701C834.188 620.463 836.581 619.906 839.613 619.906C842.644 619.906 845.037 620.463 845.037 621.701C845.037 622.938 842.644 623.495 839.613 623.495ZM857.905 612.523L865.495 616.854L866.444 615.142L858.895 610.955C859.39 609.965 859.761 608.872 859.968 607.738L857.864 607.408C857.101 611.574 853.512 614.956 849.717 614.936V616.874C852.935 616.854 855.946 615.183 857.905 612.523ZM866.898 618.731H849.305V620.628H857.039V625.557H859.122V620.628H866.898V618.731ZM886.531 614.668H884.056V607.531H882.014V625.145H884.056V616.627H886.531V614.668ZM870.959 622.216V616.936H878.673V608.171H868.897V610.048H876.631V615.059H868.938V624.093H875.888C877.58 624.093 879.415 623.784 880.488 623.247V621.391C879.415 621.907 877.6 622.216 875.93 622.216H870.959ZM896.739 622.402V618.133H903.565V616.235H890.159V610.068H903.359V608.171H888.076V618.133H894.655V622.402H886.921V624.299H904.514V622.402H896.739ZM925.019 607.531V610.852H921.596V612.626H925.019V617.266H927.061V607.531H925.019ZM916.687 613.43L921.864 616.751L922.874 615.224L917.45 611.801C917.677 611.161 917.801 610.46 917.842 609.738H922.297V607.985H911.056V609.738H915.8C915.552 612.605 913.737 614.688 910.829 615.08V616.916C913.428 616.668 915.491 615.369 916.687 613.43ZM912.067 624.918H927.061V618.236H912.067V624.918ZM914.109 619.948H925.019V623.186H914.109V619.948ZM939.104 622.381V618.401H945.952V616.524H942.837V610.171H945.766V608.274H930.38V610.171H933.309V616.524H930.194V618.401H937.021V622.381H929.287V624.299H946.88V622.381H939.104ZM935.371 610.171H940.775V616.524H935.371V610.171ZM962.553 625.145H964.595V607.531H962.553V625.145ZM954.138 618.999C957.294 618.999 959.583 616.73 959.583 613.451C959.583 610.171 957.294 607.903 954.138 607.903C950.962 607.903 948.693 610.171 948.693 613.451C948.693 616.73 950.962 618.999 954.138 618.999ZM954.138 617.143C952.034 617.143 950.694 615.554 950.694 613.451C950.694 611.347 952.034 609.738 954.138 609.738C956.221 609.738 957.583 611.347 957.583 613.451C957.583 615.554 956.221 617.143 954.138 617.143ZM948.095 624.093H955.169C957.706 624.093 959.893 623.784 961.068 623.247V621.35C959.872 621.907 957.706 622.175 955.293 622.175H948.095V624.093ZM983.058 608.996H978.645V607.222H976.582V608.996H971.694V610.584H983.058V608.996ZM986.214 618.277H988.235V607.531H986.214V610.584H983.553V612.316H986.214V614.358H983.553V616.091H986.214V618.277ZM977.613 617.906C980.563 617.906 982.666 616.792 982.666 614.729C982.666 612.667 980.563 611.553 977.613 611.553C974.664 611.553 972.54 612.667 972.54 614.729C972.54 616.792 974.664 617.906 977.613 617.906ZM977.613 613.1C979.655 613.1 980.728 613.801 980.728 614.729C980.728 615.658 979.655 616.379 977.613 616.379C975.551 616.379 974.478 615.658 974.478 614.729C974.478 613.801 975.551 613.1 977.613 613.1ZM980.831 618.751C976.561 618.751 973.2 619.576 973.2 621.948C973.2 624.299 976.561 625.145 980.831 625.145C985.08 625.145 988.421 624.299 988.421 621.948C988.421 619.576 985.08 618.751 980.831 618.751ZM980.831 623.557C977.778 623.557 975.365 623.082 975.365 621.948C975.365 620.814 977.778 620.339 980.831 620.339C983.863 620.339 986.276 620.814 986.276 621.948C986.276 623.082 983.863 623.557 980.831 623.557ZM1005.46 607.531V614.626H1002.59V607.634H1000.65V624.836H1002.59V616.524H1005.46V625.145H1007.39V607.531H1005.46ZM992.957 622.278V616.895H998.463V615.08H992.957V609.986H998.711V608.171H990.997V624.093H994.194C996.36 624.093 998.237 623.825 999.392 623.309V621.474C998.092 622.031 996.422 622.278 994.297 622.278H992.957ZM1011.99 622.134H1009.93L1009.27 626.795H1010.96L1011.99 622.134ZM1027.82 622.381V617.803H1034.48V615.884H1021.24V607.944H1019.14V617.803H1025.74V622.381H1017.98V624.299H1035.58V622.381H1027.82ZM1053.7 609.284H1046.61V607.098H1044.5V609.284H1037.45V611.058H1053.7V609.284ZM1038.28 615.513C1038.28 617.782 1041.41 618.813 1045.58 618.813C1049.74 618.813 1052.88 617.782 1052.88 615.513C1052.88 613.224 1049.74 612.193 1045.58 612.193C1041.41 612.193 1038.28 613.224 1038.28 615.513ZM1050.79 615.513C1050.79 616.606 1048.57 617.122 1045.58 617.122C1042.61 617.122 1040.36 616.606 1040.36 615.513C1040.36 614.399 1042.61 613.884 1045.58 613.884C1048.57 613.884 1050.79 614.399 1050.79 615.513ZM1054.38 620.03H1036.79V621.845H1044.52V625.557H1046.61V621.845H1054.38V620.03ZM1066.72 610.852V612.626H1070.14V617.431H1072.18V607.531H1070.14V610.852H1066.72ZM1061.81 613.43L1066.98 616.751L1067.99 615.224L1062.57 611.801C1062.78 611.141 1062.92 610.46 1062.96 609.738H1067.42V607.985H1056.18V609.738H1060.92C1060.67 612.605 1058.86 614.688 1055.95 615.08V616.916C1058.55 616.668 1060.59 615.348 1061.81 613.43ZM1064.72 618.009C1060.45 618.009 1057.1 618.999 1057.1 621.577C1057.1 624.155 1060.45 625.145 1064.72 625.145C1068.98 625.145 1072.33 624.155 1072.33 621.577C1072.33 618.999 1068.98 618.009 1064.72 618.009ZM1064.72 623.474C1061.68 623.474 1059.27 622.876 1059.27 621.577C1059.27 620.278 1061.68 619.679 1064.72 619.679C1067.75 619.679 1070.16 620.278 1070.16 621.577C1070.16 622.876 1067.75 623.474 1064.72 623.474ZM1084.22 622.402V618.133H1091.05V616.235H1077.65V610.068H1090.85V608.171H1075.56V618.133H1082.14V622.402H1074.41V624.299H1092V622.402H1084.22ZM1095.94 622.134H1093.88L1093.22 626.795H1094.91L1095.94 622.134ZM1116.14 615.988H1118.26V607.944H1103.08V609.862H1116.14V615.988ZM1119.52 617.452H1101.93V619.391H1109.56V625.557H1111.66V619.391H1119.52V617.452ZM1129.28 614.152L1136.95 618.442L1137.92 616.792L1130.24 612.523C1130.6 611.78 1130.86 610.955 1131.03 610.068H1137.34V608.191H1121.64V610.068H1128.86C1128 613.884 1124.92 616.111 1121.25 616.421V618.318C1124.51 618.112 1127.46 616.648 1129.28 614.152ZM1130.53 622.381V617.906H1128.49V622.381H1120.74V624.299H1138.33V622.381H1130.53ZM1145.55 613.822H1160.84V612.172H1147.59V609.388H1160.63V607.738H1145.55V613.822ZM1144.29 617.184H1161.89V615.534H1144.29V617.184ZM1153.08 625.207C1157.29 625.207 1160.84 624.382 1160.84 621.969C1160.84 619.556 1157.29 618.751 1153.08 618.751C1148.87 618.751 1145.33 619.556 1145.33 621.969C1145.33 624.382 1148.87 625.207 1153.08 625.207ZM1153.08 623.598C1150.21 623.598 1147.47 623.186 1147.47 621.969C1147.47 620.773 1150.21 620.36 1153.08 620.36C1155.95 620.36 1158.69 620.773 1158.69 621.969C1158.69 623.186 1155.95 623.598 1153.08 623.598ZM1178.1 607.531V625.145H1180.04V607.531H1178.1ZM1173.85 614.874H1171.5C1171.29 610.068 1169.89 607.944 1167.43 607.944C1164.77 607.944 1163.33 610.439 1163.33 616.132C1163.33 621.824 1164.77 624.32 1167.43 624.32C1169.99 624.32 1171.39 622.031 1171.52 616.813H1173.85V624.836H1175.77V607.634H1173.85V614.874ZM1167.43 622.464C1165.97 622.464 1165.27 620.463 1165.27 616.132C1165.27 611.801 1165.97 609.8 1167.43 609.8C1168.9 609.8 1169.58 611.801 1169.58 616.132C1169.58 620.463 1168.9 622.464 1167.43 622.464ZM1205.08 614.668H1202.73V607.531H1200.73V625.145H1202.73V616.627H1205.08V614.668ZM1189.28 622.237V610.027H1192.56V608.171H1187.28V624.093H1189.53C1190.56 624.093 1191.82 623.949 1192.64 623.66V621.845C1191.94 622.134 1190.91 622.237 1190.13 622.237H1189.28ZM1195.41 622.237V610.027H1198.79V608.171H1193.4V624.093H1195.96C1197.18 624.093 1198.35 623.907 1199.24 623.516V621.659C1198.42 622.072 1197.32 622.237 1196.35 622.237H1195.41ZM1223.89 614.668H1221.41V607.531H1219.37V625.145H1221.41V616.627H1223.89V614.668ZM1208.31 622.216V616.936H1216.03V608.171H1206.25V610.048H1213.99V615.059H1206.29V624.093H1213.24C1214.94 624.093 1216.77 623.784 1217.84 623.247V621.391C1216.77 621.907 1214.96 622.216 1213.29 622.216H1208.31ZM1244.97 610.893V607.531H1242.93V617.266H1244.97V612.832H1247.44V610.893H1244.97ZM1235.03 613.059L1240.23 616.503L1241.28 614.998L1235.81 611.45C1236.22 610.336 1236.45 609.119 1236.45 607.82L1234.41 607.696C1234.37 611.409 1232.41 614.461 1229.07 615.059V616.916C1231.69 616.565 1233.75 615.121 1235.03 613.059ZM1237.69 617.844C1233.48 617.844 1230.14 618.854 1230.14 621.494C1230.14 624.134 1233.48 625.145 1237.69 625.145C1241.92 625.145 1245.24 624.134 1245.24 621.494C1245.24 618.854 1241.92 617.844 1237.69 617.844ZM1237.69 623.454C1234.7 623.454 1232.33 622.856 1232.33 621.494C1232.33 620.154 1234.7 619.535 1237.69 619.535C1240.7 619.535 1243.05 620.154 1243.05 621.494C1243.05 622.856 1240.7 623.454 1237.69 623.454ZM1262.23 625.145H1264.27V607.531H1262.23V625.145ZM1248.66 624.052C1254.68 624.052 1258.44 619.473 1258.44 612.419V608.171H1248.66V610.048H1256.35V612.461C1256.35 618.359 1253.46 622.093 1248.66 622.113V624.052ZM1281.1 625.145H1283.14V607.531H1281.1V625.145ZM1272.69 618.999C1275.84 618.999 1278.13 616.73 1278.13 613.451C1278.13 610.171 1275.84 607.903 1272.69 607.903C1269.51 607.903 1267.24 610.171 1267.24 613.451C1267.24 616.73 1269.51 618.999 1272.69 618.999ZM1272.69 617.143C1270.58 617.143 1269.24 615.554 1269.24 613.451C1269.24 611.347 1270.58 609.738 1272.69 609.738C1274.77 609.738 1276.13 611.347 1276.13 613.451C1276.13 615.554 1274.77 617.143 1272.69 617.143ZM1266.64 624.093H1273.72C1276.25 624.093 1278.44 623.784 1279.62 623.247V621.35C1278.42 621.907 1276.25 622.175 1273.84 622.175H1266.64V624.093ZM1304.43 613.657H1306.49V607.738H1291.38V609.47H1304.43V613.657ZM1290.2 616.421H1307.79V614.709H1290.2V616.421ZM1291.42 624.939H1306.56V618.215H1291.42V624.939ZM1293.46 623.268V619.886H1304.53V623.268H1293.46ZM1324 607.531V611.574H1321.14V607.634H1319.2V618.194H1321.14V613.492H1324V618.38H1325.94V607.531H1324ZM1313.36 617.926C1316 617.926 1317.42 615.905 1317.42 612.791C1317.42 609.676 1316 607.676 1313.36 607.676C1310.72 607.676 1309.28 609.676 1309.28 612.791C1309.28 615.905 1310.72 617.926 1313.36 617.926ZM1313.36 609.388C1314.74 609.388 1315.51 610.584 1315.51 612.791C1315.51 614.977 1314.74 616.214 1313.36 616.214C1311.96 616.214 1311.19 614.977 1311.19 612.791C1311.19 610.584 1311.96 609.388 1313.36 609.388ZM1310.6 621.103H1323.92V625.145H1325.94V619.349H1310.6V621.103ZM1346.23 614.503H1343.8V607.531H1341.76V625.145H1343.8V616.462H1346.23V614.503ZM1336.48 619.432H1338.54V608.212H1328.46V610.109H1336.48V619.432ZM1332.95 622.175V614.709H1330.89V622.175H1327.82V624.093H1334.54C1336.95 624.093 1339.04 623.866 1340.29 623.351V621.433C1339.04 621.969 1336.89 622.175 1334.52 622.175H1332.95ZM1358.68 612.151H1363.19V610.254H1358.7V607.366H1356.61V610.254H1351.89V612.151H1356.61C1356.39 617.493 1354.55 621.556 1351.58 622.093V624.093C1354.22 623.784 1356.34 621.763 1357.56 618.38L1362.28 624.072L1363.77 622.753L1358.2 616.173C1358.45 614.956 1358.61 613.595 1358.68 612.151ZM1369.79 614.668H1367.32V607.531H1365.28V625.145H1367.32V616.627H1369.79V614.668ZM1384.58 625.145H1386.64V607.531H1384.58V625.145ZM1376.27 624.32C1379.38 624.32 1381.59 621.721 1381.59 616.132C1381.59 610.543 1379.38 607.944 1376.27 607.944C1373.13 607.944 1370.92 610.543 1370.92 616.132C1370.92 621.721 1373.13 624.32 1376.27 624.32ZM1376.27 622.443C1374.39 622.443 1372.97 620.608 1372.97 616.132C1372.97 611.677 1374.39 609.821 1376.27 609.821C1378.1 609.821 1379.55 611.677 1379.55 616.132C1379.55 620.608 1378.1 622.443 1376.27 622.443ZM1407.41 614.668H1404.93V607.531H1402.89V625.145H1404.93V616.627H1407.41V614.668ZM1389.63 610.048H1397.14V612.461C1397.14 618.359 1394.41 622.093 1389.63 622.113V624.052C1395.61 624.052 1399.22 619.432 1399.22 612.419V608.171H1389.63V610.048ZM1428.49 610.563V607.531H1426.45V616.029H1428.49V612.481H1430.97V610.563H1428.49ZM1425.17 614.564V612.853C1424.04 613.348 1422.01 613.636 1419.62 613.636H1415.23V607.861H1413.17V615.348H1419.5C1421.99 615.348 1424.1 615.039 1425.17 614.564ZM1415.81 621.721H1428.49V616.998H1413.74V618.607H1426.47V620.195H1413.79V624.918H1428.92V623.309H1415.81V621.721ZM1439.96 612.523L1447.55 616.854L1448.5 615.142L1440.95 610.955C1441.44 609.965 1441.81 608.872 1442.02 607.738L1439.92 607.408C1439.15 611.574 1435.56 614.956 1431.77 614.936V616.874C1434.99 616.854 1438 615.183 1439.96 612.523ZM1448.95 618.731H1431.36V620.628H1439.09V625.557H1441.17V620.628H1448.95V618.731ZM1459.98 622.402V618.133H1466.81V616.235H1453.4V610.068H1466.6V608.171H1451.32V618.133H1457.9V622.402H1450.16V624.299H1467.76V622.402H1459.98ZM1490.16 607.531H1488.12V617.328H1490.16V607.531ZM1485 612.296C1485 609.594 1482.86 607.717 1479.5 607.717C1476.11 607.717 1473.97 609.594 1473.97 612.296C1473.97 615.018 1476.11 616.874 1479.5 616.874C1482.86 616.874 1485 615.018 1485 612.296ZM1476.01 612.296C1476.01 610.481 1477.43 609.408 1479.5 609.408C1481.54 609.408 1482.96 610.481 1482.96 612.296C1482.96 614.111 1481.54 615.183 1479.5 615.183C1477.43 615.183 1476.01 614.111 1476.01 612.296ZM1491.58 623.557L1487.79 620.608C1488.08 619.844 1488.26 619.04 1488.35 618.153L1486.37 617.864C1486.18 620.339 1484.8 622.443 1483.15 622.959L1480.45 620.731C1480.78 619.948 1481 619.081 1481.11 618.133L1479.13 617.864C1478.9 620.587 1477.19 622.876 1475.25 623.062V624.918C1476.94 624.794 1478.51 623.825 1479.6 622.278L1482.59 624.918C1484.32 624.815 1485.91 623.804 1486.98 622.175L1490.37 625.001L1491.58 623.557ZM1501.32 614.214C1505.59 614.214 1509.09 613.224 1509.09 610.811C1509.09 608.418 1505.59 607.428 1501.32 607.428C1497.05 607.428 1493.54 608.418 1493.54 610.811C1493.54 613.224 1497.05 614.214 1501.32 614.214ZM1501.32 612.584C1498.24 612.584 1495.71 612.048 1495.71 610.811C1495.71 609.594 1498.24 609.037 1501.32 609.037C1504.39 609.037 1506.93 609.594 1506.93 610.811C1506.93 612.048 1504.39 612.584 1501.32 612.584ZM1492.53 617.246H1510.12V615.596H1492.53V617.246ZM1493.75 624.939H1508.89V618.958H1493.75V624.939ZM1495.79 623.309V620.587H1506.86V623.309H1495.79Z" fill="white"/>
<path d="M1154.48 535.826H1156.68V531.844H1159.56V529.886H1156.68V518.204H1153.95L1145.59 529.886V531.844H1154.48V535.826ZM1147.97 529.886L1154.48 520.734V529.886H1147.97ZM1167.19 536.222C1170.88 536.222 1173.39 533.978 1173.39 531.03C1173.39 528.588 1171.57 527.202 1169.78 526.872C1171.41 526.476 1172.93 524.98 1172.93 522.824C1172.93 520.052 1170.58 517.786 1166.95 517.786C1163.34 517.786 1160.96 520.206 1160.96 523.308H1163.27C1163.27 521.438 1164.57 519.766 1166.95 519.766C1169.28 519.766 1170.64 521.174 1170.64 522.89C1170.64 524.716 1169.12 525.992 1166.88 525.992H1164.94V527.906H1166.88C1169.54 527.906 1171.13 529.072 1171.13 531.052C1171.13 532.812 1169.65 534.22 1167.19 534.22C1164.7 534.22 1163.29 532.746 1163.23 530.854H1160.94C1161.07 533.934 1163.4 536.222 1167.19 536.222ZM1182.11 536.222C1185.8 536.222 1188.6 533.164 1188.6 527.004C1188.6 520.844 1185.8 517.786 1182.11 517.786C1178.39 517.786 1175.6 520.844 1175.6 527.004C1175.6 533.164 1178.39 536.222 1182.11 536.222ZM1182.11 534.176C1179.71 534.176 1177.82 531.8 1177.82 527.004C1177.82 522.23 1179.71 519.832 1182.11 519.832C1184.48 519.832 1186.38 522.23 1186.38 527.004C1186.38 531.8 1184.48 534.176 1182.11 534.176ZM1197.36 536.222C1201.06 536.222 1203.85 533.164 1203.85 527.004C1203.85 520.844 1201.06 517.786 1197.36 517.786C1193.64 517.786 1190.85 520.844 1190.85 527.004C1190.85 533.164 1193.64 536.222 1197.36 536.222ZM1197.36 534.176C1194.96 534.176 1193.07 531.8 1193.07 527.004C1193.07 522.23 1194.96 519.832 1197.36 519.832C1199.74 519.832 1201.63 522.23 1201.63 527.004C1201.63 531.8 1199.74 534.176 1197.36 534.176Z" fill="white"/>
<path d="M1141.68 116.034H1143.88V109.72H1127.76V111.568H1141.68V116.034ZM1126.5 118.982H1145.27V117.156H1126.5V118.982ZM1127.8 128.068H1143.95V120.896H1127.8V128.068ZM1129.98 126.286V122.678H1141.79V126.286H1129.98ZM1163.66 109.5V113.812H1160.6V109.61H1158.53V120.874H1160.6V115.858H1163.66V121.072H1165.73V109.5H1163.66ZM1152.31 120.588C1155.12 120.588 1156.64 118.432 1156.64 115.11C1156.64 111.788 1155.12 109.654 1152.31 109.654C1149.49 109.654 1147.95 111.788 1147.95 115.11C1147.95 118.432 1149.49 120.588 1152.31 120.588ZM1152.31 111.48C1153.78 111.48 1154.59 112.756 1154.59 115.11C1154.59 117.442 1153.78 118.762 1152.31 118.762C1150.81 118.762 1150 117.442 1150 115.11C1150 112.756 1150.81 111.48 1152.31 111.48ZM1149.36 123.976H1163.57V128.288H1165.73V122.106H1149.36V123.976ZM1172.57 128.684H1175.01C1172.48 126.11 1170.72 122.766 1170.72 118.872C1170.72 114.978 1172.48 111.634 1175.01 109.06H1172.57C1170.12 111.7 1168.47 114.868 1168.47 118.872C1168.47 122.876 1170.12 126.044 1172.57 128.684ZM1193.72 113.966V109.5H1191.54V123.448H1193.72V116.056H1196.36V113.966H1193.72ZM1188.35 109.962H1177.37V120.104H1188.35V109.962ZM1186.19 118.212H1179.53V111.854H1186.19V118.212ZM1180.21 121.952H1178.01V128.046H1194.22V126.066H1180.21V121.952ZM1207.68 121.292V123.052H1213.38V124.218H1215.56V109.5H1213.38V121.292H1207.68ZM1204.56 116.87C1207.84 116.87 1210.13 115.572 1210.13 113.196C1210.13 110.842 1207.84 109.544 1204.56 109.544C1201.3 109.544 1198.99 110.842 1198.99 113.196C1198.99 115.572 1201.3 116.87 1204.56 116.87ZM1204.56 111.26C1206.54 111.26 1207.99 111.898 1207.99 113.196C1207.99 114.494 1206.54 115.154 1204.56 115.154C1202.58 115.154 1201.13 114.494 1201.13 113.196C1201.13 111.898 1202.58 111.26 1204.56 111.26ZM1203.06 123.36H1205.24V119.994H1205.57C1208.26 119.994 1210.61 119.774 1211.8 119.246V117.442C1210.5 117.992 1208.21 118.19 1205.64 118.19H1197.87V119.994H1203.06V123.36ZM1201.79 126.198V122.348H1199.61V128.046H1216.04V126.198H1201.79ZM1218.33 128.684H1220.75C1223.21 126.044 1224.84 122.876 1224.84 118.872C1224.84 114.868 1223.21 111.7 1220.75 109.06H1218.33C1220.86 111.634 1222.6 114.978 1222.6 118.872C1222.6 122.766 1220.86 126.11 1218.33 128.684Z" fill="white"/>
<line x1="781.687" y1="86" x2="781.688" y2="560" stroke="#D9D9D9" stroke-width="1.375"/>
<path d="M15.8125 601C7.084 601 0 608.084 0 616.812C0 625.541 7.084 632.625 15.8125 632.625C24.541 632.625 31.625 625.541 31.625 616.812C31.625 608.084 24.541 601 15.8125 601ZM17.3937 624.719H14.2312V615.231H17.3937V624.719ZM17.3937 612.069H14.2312V608.906H17.3937V612.069Z" fill="white"/>
<line y1="85.375" x2="1562" y2="85.375" stroke="white" stroke-width="2.75"/>
<line y1="559.939" x2="1562" y2="559.939" stroke="#D9D9D9" stroke-width="1.375"/>
</svg>
