<svg width="687" height="928" viewBox="0 0 687 928" fill="none" xmlns="http://www.w3.org/2000/svg">
<circle cx="234" cy="23" r="8.93749" stroke="#4BBCD4" stroke-width="4.125"/>
<path d="M287.85 15.5375L300.5 22.7563L302.081 19.9031L289.5 12.925C290.325 11.275 290.944 9.45314 291.287 7.56251L287.781 7.01251C286.509 13.9563 280.528 19.5938 274.203 19.5594V22.7906C279.566 22.7563 284.584 19.9719 287.85 15.5375ZM302.837 25.8844H273.516V29.0469H286.406V37.2625H289.878V29.0469H302.837V25.8844ZM328.513 24.75H331.916V7.21876H328.513V24.75ZM314.11 23.8219C319.713 23.8219 323.322 20.35 323.322 15.675C323.322 11 319.713 7.52814 314.11 7.52814C308.472 7.52814 304.863 11 304.863 15.675C304.863 20.35 308.472 23.8219 314.11 23.8219ZM314.11 20.9688C310.706 20.9688 308.266 18.9406 308.266 15.675C308.266 12.4094 310.706 10.3813 314.11 10.3813C317.478 10.3813 319.919 12.4094 319.919 15.675C319.919 18.9406 317.478 20.9688 314.11 20.9688ZM328.478 36.575H331.916V26.3656H307.097V29.3219H328.478V36.575ZM359.757 23.7188H363.16V7.21876H359.757V11.9969H352.675V15.0219H359.757V23.7188ZM345.353 16.775L353.741 22.55L355.632 20.1438L346.694 14.025C347.416 12.1 347.794 9.96876 347.794 7.70001L344.391 7.49376C344.322 13.75 341.091 19.0094 335.591 20.0406V23.1344C339.888 22.55 343.257 20.1781 345.353 16.775ZM350.716 24.6813C343.6 24.6813 338.032 26.3313 338.032 30.6281C338.032 34.925 343.6 36.575 350.716 36.575C357.832 36.575 363.4 34.925 363.4 30.6281C363.4 26.3313 357.832 24.6813 350.716 24.6813ZM350.716 33.7906C345.663 33.7906 341.641 32.7938 341.641 30.6281C341.641 28.4625 345.663 27.4656 350.716 27.4656C355.769 27.4656 359.791 28.4625 359.791 30.6281C359.791 32.7938 355.769 33.7906 350.716 33.7906Z" fill="white"/>
<path d="M194.751 899.91L194.166 898.89L192.546 900.045L192.741 898.05H191.541L191.736 900.045L190.131 898.875L189.531 899.91L191.346 900.735L189.531 901.545L190.116 902.58L191.736 901.425L191.541 903.405H192.741L192.546 901.41L194.151 902.58L194.751 901.545L192.936 900.735L194.751 899.91ZM209.681 897.75V902.91H207.596V897.825H206.186V910.335H207.596V904.32H209.681V910.56H211.091V897.75H209.681ZM199.166 909.795H204.656V898.215H199.166V909.795ZM200.576 899.565H203.261V908.445H200.576V899.565ZM224.05 900.195V897.75H222.565V904.83H224.05V901.605H225.85V900.195H224.05ZM216.94 901.965L220.645 904.29L221.38 903.18L217.48 900.78C217.615 900.33 217.705 899.85 217.735 899.355H220.975V898.08H212.8V899.355H216.25C216.055 901.395 214.75 902.955 212.635 903.24V904.575C214.555 904.38 216.07 903.39 216.94 901.965ZM218.755 905.25C215.695 905.25 213.265 905.985 213.265 907.905C213.265 909.825 215.695 910.56 218.755 910.56C221.83 910.56 224.245 909.825 224.245 907.905C224.245 905.985 221.83 905.25 218.755 905.25ZM218.755 909.33C216.58 909.33 214.855 908.895 214.855 907.905C214.855 906.93 216.58 906.48 218.755 906.48C220.945 906.48 222.655 906.93 222.655 907.905C222.655 908.895 220.945 909.33 218.755 909.33ZM235.978 903.21C239.083 903.21 241.663 902.34 241.663 900.435C241.663 898.545 239.083 897.675 235.978 897.675C232.873 897.675 230.293 898.545 230.293 900.435C230.293 902.34 232.873 903.21 235.978 903.21ZM235.978 898.875C238.213 898.875 240.088 899.4 240.088 900.435C240.088 901.485 238.213 902.01 235.978 902.01C233.743 902.01 231.868 901.485 231.868 900.435C231.868 899.4 233.743 898.875 235.978 898.875ZM229.588 904.32V905.58H235.228V907.785H236.728V905.58H242.383V904.32H229.588ZM231.988 906.765H230.473V910.41H241.723V909.135H231.988V906.765ZM251.711 902.07L251.621 903.345H253.856V904.83H255.326V897.75H253.856V898.89H251.621L251.711 900.165H253.856V902.07H251.711ZM251.276 901.14C251.276 899.22 249.761 897.885 247.331 897.885C244.916 897.885 243.401 899.22 243.401 901.14C243.401 903.075 244.916 904.395 247.331 904.395C249.761 904.395 251.276 903.075 251.276 901.14ZM244.871 901.14C244.871 899.865 245.861 899.13 247.331 899.13C248.801 899.13 249.791 899.865 249.791 901.14C249.791 902.415 248.801 903.15 247.331 903.15C245.861 903.15 244.871 902.415 244.871 901.14ZM249.971 905.25C246.911 905.25 244.511 905.985 244.511 907.905C244.511 909.825 246.911 910.56 249.971 910.56C253.031 910.56 255.446 909.825 255.446 907.905C255.446 905.985 253.031 905.25 249.971 905.25ZM249.971 909.33C247.811 909.33 246.086 908.895 246.086 907.905C246.086 906.93 247.811 906.48 249.971 906.48C252.131 906.48 253.856 906.93 253.856 907.905C253.856 908.895 252.131 909.33 249.971 909.33ZM271.994 900.45V897.75H270.509V905.055H271.994V901.875H273.794V900.45H271.994ZM268.334 897.975H266.879V899.82H262.304V897.975H260.849V904.305H268.334V897.975ZM262.304 903.075V901.035H266.879V903.075H262.304ZM266.699 905.46C263.639 905.46 261.209 906.165 261.209 908.01C261.209 909.855 263.639 910.56 266.699 910.56C269.774 910.56 272.189 909.855 272.189 908.01C272.189 906.165 269.774 905.46 266.699 905.46ZM266.699 909.345C264.524 909.345 262.784 908.94 262.784 908.01C262.784 907.095 264.524 906.675 266.699 906.675C268.889 906.675 270.614 907.095 270.614 908.01C270.614 908.94 268.889 909.345 266.699 909.345ZM284.548 897.75V905.4H286.033V897.75H284.548ZM278.578 902.145L282.403 904.845L283.243 903.765L279.178 900.945C279.538 900.03 279.733 899.01 279.733 897.96L278.248 897.87C278.218 900.735 276.703 903.21 274.273 903.645V905.025C276.118 904.785 277.618 903.69 278.578 902.145ZM275.053 907.395H284.533V910.56H286.033V906.105H275.053V907.395ZM298.662 897.75V910.56H300.072V897.75H298.662ZM295.572 903.09H293.862C293.712 899.595 292.692 898.05 290.907 898.05C288.972 898.05 287.922 899.865 287.922 904.005C287.922 908.145 288.972 909.96 290.907 909.96C292.767 909.96 293.787 908.295 293.877 904.5H295.572V910.335H296.967V897.825H295.572V903.09ZM290.907 908.61C289.842 908.61 289.332 907.155 289.332 904.005C289.332 900.855 289.842 899.4 290.907 899.4C291.972 899.4 292.467 900.855 292.467 904.005C292.467 907.155 291.972 908.61 290.907 908.61ZM318.284 902.94H316.574V897.75H315.119V910.56H316.574V904.365H318.284V902.94ZM306.794 908.445V899.565H309.179V898.215H305.339V909.795H306.974C307.724 909.795 308.639 909.69 309.239 909.48V908.16C308.729 908.37 307.979 908.445 307.409 908.445H306.794ZM311.249 908.445V899.565H313.709V898.215H309.794V909.795H311.654C312.539 909.795 313.394 909.66 314.039 909.375V908.025C313.439 908.325 312.644 908.445 311.939 908.445H311.249ZM331.963 902.94H330.163V897.75H328.678V910.56H330.163V904.365H331.963V902.94ZM320.638 908.43V904.59H326.248V898.215H319.138V899.58H324.763V903.225H319.168V909.795H324.223C325.453 909.795 326.788 909.57 327.568 909.18V907.83C326.788 908.205 325.468 908.43 324.253 908.43H320.638ZM347.296 900.045V897.75H345.811V904.02H347.296V901.41H349.096V900.045H347.296ZM344.881 902.985V901.755C344.056 902.1 342.586 902.31 340.846 902.31H337.636V899.325H343.966V898.065H336.151V903.555H340.756C342.571 903.555 344.101 903.345 344.881 902.985ZM338.071 908.115H347.296V904.725H336.571V905.895H345.826V907.005H336.601V910.395H347.611V909.225H338.071V908.115ZM362.775 902.94H360.975V897.75H359.49V910.56H360.975V904.365H362.775V902.94ZM351.45 908.43V904.59H357.06V898.215H349.95V899.58H355.575V903.225H349.98V909.795H355.035C356.265 909.795 357.6 909.57 358.38 909.18V907.83C357.6 908.205 356.28 908.43 355.065 908.43H351.45ZM375.013 897.75H373.528V904.02H375.013V897.75ZM367.573 901.68L371.593 903.735L372.253 902.655L368.188 900.63C368.353 900.21 368.458 899.775 368.503 899.31H371.833V898.08H363.538V899.31H367.033C366.823 901.095 365.473 902.385 363.373 902.655V903.885C365.203 903.69 366.673 902.865 367.573 901.68ZM365.638 909.225V908.115H375.013V904.725H364.138V905.895H373.543V907.005H364.168V910.395H375.328V909.225H365.638ZM386.446 901.38L391.966 904.53L392.656 903.285L387.166 900.24C387.526 899.52 387.796 898.725 387.946 897.9L386.416 897.66C385.861 900.69 383.251 903.15 380.491 903.135V904.545C382.831 904.53 385.021 903.315 386.446 901.38ZM392.986 905.895H380.191V907.275H385.816V910.86H387.331V907.275H392.986V905.895ZM409.279 897.75H407.794V904.875H409.279V897.75ZM405.529 901.215C405.529 899.25 403.969 897.885 401.524 897.885C399.064 897.885 397.504 899.25 397.504 901.215C397.504 903.195 399.064 904.545 401.524 904.545C403.969 904.545 405.529 903.195 405.529 901.215ZM398.989 901.215C398.989 899.895 400.024 899.115 401.524 899.115C403.009 899.115 404.044 899.895 404.044 901.215C404.044 902.535 403.009 903.315 401.524 903.315C400.024 903.315 398.989 902.535 398.989 901.215ZM410.314 909.405L407.554 907.26C407.764 906.705 407.899 906.12 407.959 905.475L406.519 905.265C406.384 907.065 405.379 908.595 404.179 908.97L402.214 907.35C402.454 906.78 402.619 906.15 402.694 905.46L401.254 905.265C401.089 907.245 399.844 908.91 398.434 909.045V910.395C399.664 910.305 400.804 909.6 401.599 908.475L403.774 910.395C405.034 910.32 406.189 909.585 406.969 908.4L409.429 910.455L410.314 909.405ZM422.898 902.4L423.393 901.275L418.083 899.175C418.368 898.725 418.578 898.23 418.683 897.705L417.198 897.45C416.703 899.64 413.943 901.065 411.468 901.155V902.385C413.643 902.34 415.878 901.515 417.288 900.135L422.898 902.4ZM411.003 903.39V904.575H423.798V903.39H411.003ZM421.443 906.735H413.358V905.535H411.888V910.41H422.898V905.535H421.443V906.735ZM413.358 909.24V907.89H421.443V909.24H413.358ZM435.151 910.575L436.636 910.56V897.75H435.151V910.575ZM425.416 909.795H430.651C431.881 909.795 433.186 909.555 433.966 909.165V907.8C433.186 908.175 431.866 908.43 430.651 908.43H426.931V898.14H425.416V909.795ZM451.755 902.94H449.955V897.75H448.47V910.56H449.955V904.365H451.755V902.94ZM440.475 908.445V899.565H446.355V898.215H438.96V909.795H443.97C445.2 909.795 446.58 909.57 447.36 909.18V907.83C446.58 908.205 445.26 908.445 444.045 908.445H440.475Z" fill="white"/>
<path d="M72.7008 79.5701L78.9209 82.597L79.5695 81.3496L73.5324 78.4391C73.8983 77.8238 74.1477 77.1585 74.2808 76.46L72.6343 76.1939C72.0855 79.0046 69.0253 80.9671 66.2811 81.0669V82.5138C68.676 82.4639 71.1375 81.3496 72.7008 79.5701ZM65.7822 83.7778V85.1748H72.0189V87.6529H73.6821V85.1748H79.9687V83.7778H65.7822ZM68.4266 86.5219H66.7468V90.5633H79.2203V89.1497H68.4266V86.5219ZM93.3721 90.7297H95.0352V76.5265H93.3721V90.7297ZM86.6697 90.0644C89.181 90.0644 90.9605 87.9689 90.9605 83.4618C90.9605 78.9547 89.181 76.8592 86.6697 76.8592C84.1417 76.8592 82.3622 78.9547 82.3622 83.4618C82.3622 87.9689 84.1417 90.0644 86.6697 90.0644ZM86.6697 88.551C85.1562 88.551 84.0087 87.0708 84.0087 83.4618C84.0087 79.8694 85.1562 78.3726 86.6697 78.3726C88.1499 78.3726 89.314 79.8694 89.314 83.4618C89.314 87.0708 88.1499 88.551 86.6697 88.551ZM109.37 85.0085H111.016V76.5265H109.37V85.0085ZM102.401 84.5594C105.112 84.5594 106.859 82.8797 106.859 80.6178C106.859 78.356 105.112 76.6762 102.401 76.6762C99.6739 76.6762 97.9276 78.356 97.9276 80.6178C97.9276 82.8797 99.6739 84.5594 102.401 84.5594ZM102.401 83.179C100.755 83.179 99.5741 82.1978 99.5741 80.6178C99.5741 79.0379 100.755 78.0566 102.401 78.0566C104.031 78.0566 105.212 79.0379 105.212 80.6178C105.212 82.1978 104.031 83.179 102.401 83.179ZM109.353 90.7297H111.016V85.7902H99.0087V87.2205H109.353V90.7297Z" fill="white"/>
<rect x="46" y="79.4541" width="8.87002" height="8.87002" fill="#0B637B"/>
<path d="M253.316 76.5265V82.2477H251.004V76.6097H249.441V90.4802H251.004V83.7944H253.316V90.7297H254.879V76.5265H253.316ZM246.214 81.8652H243.187V76.9423H241.657V89.8815H247.744V76.9423H246.214V81.8652ZM243.187 88.3846V83.3454H246.214V88.3846H243.187ZM270.079 79.0711V76.5265H268.432V83.4784H270.079V80.5846H272.074V79.0711H270.079ZM267.401 82.3309V80.9671C266.486 81.3496 264.856 81.5824 262.927 81.5824H259.368V78.2728H266.386V76.8758H257.722V82.9628H262.827C264.84 82.9628 266.536 82.73 267.401 82.3309ZM259.85 88.0188H270.079V84.2601H258.187V85.5573H268.449V86.788H258.22V90.5467H270.428V89.2495H259.85V88.0188ZM280.156 80.5513L286.276 84.0439L287.041 82.6635L280.954 79.2873C281.353 78.489 281.653 77.6076 281.819 76.6928L280.122 76.4267C279.507 79.7863 276.613 82.5138 273.553 82.4972V84.0605C276.148 84.0439 278.576 82.6967 280.156 80.5513ZM287.407 85.5573H273.22V87.0874H279.457V91.0623H281.137V87.0874H287.407V85.5573ZM296.154 80.5513L302.274 84.0439L303.039 82.6635L296.952 79.2873C297.351 78.489 297.65 77.6076 297.817 76.6928L296.12 76.4267C295.505 79.7863 292.611 82.5138 289.551 82.4972V84.0605C292.145 84.0439 294.574 82.6967 296.154 80.5513ZM303.405 85.5573H289.218V87.0874H295.455V91.0623H297.135V87.0874H303.405V85.5573ZM315.86 88.551V85.7902H318.688V84.3266H307.811V82.1146H318.471V77.0421H306.164V78.5057H316.841V80.701H306.164V85.7902H308.759V88.551H305.216V90.0478H319.403V88.551H315.86ZM310.405 85.7902H314.214V88.551H310.405V85.7902Z" fill="white"/>
<rect x="223.383" y="79.4541" width="8.87002" height="8.87002" fill="#1886A5"/>
<path d="M166.669 76.5265V82.2477H164.357V76.6097H162.794V90.4802H164.357V83.811H166.669V90.7297H168.232V76.5265H166.669ZM159.118 78.5389H161.596V77.0421H154.911V78.5389H157.538C157.505 83.994 156.574 87.7527 154.694 88.2682V89.8815C156.507 89.5655 157.755 87.9689 158.453 85.0916L160.981 89.6819L162.328 88.9168L158.869 82.8298C159.019 81.5658 159.102 80.1355 159.118 78.5389ZM181.22 88.551V85.7902H184.047V84.3266H173.17V82.1146H183.831V77.0421H171.524V78.5057H182.201V80.701H171.524V85.7902H174.118V88.551H170.576V90.0478H184.762V88.551H181.22ZM175.765 85.7902H179.573V88.551H175.765V85.7902ZM198.182 76.5265V90.7297H199.829V76.5265H198.182ZM193.808 81.8319H189.019V76.9423H187.389V89.8815H195.438V76.9423H193.808V81.8319ZM189.019 88.368V83.3454H193.808V88.368H189.019Z" fill="white"/>
<rect x="134.812" y="79.4541" width="8.87002" height="8.87002" fill="#107D9C"/>
<path d="M374.73 87.0708H376.376V76.5265H374.73V87.0708ZM367.761 84.9253C370.539 84.9253 372.252 83.179 372.252 80.8008C372.252 78.4225 370.539 76.6762 367.761 76.6762C364.984 76.6762 363.254 78.4225 363.254 80.8008C363.254 83.179 364.984 84.9253 367.761 84.9253ZM367.761 83.5283C366.065 83.5283 364.901 82.4805 364.901 80.8008C364.901 79.121 366.065 78.0566 367.761 78.0566C369.441 78.0566 370.605 79.121 370.605 80.8008C370.605 82.4805 369.441 83.5283 367.761 83.5283ZM364.501 90.5467H376.759V89.0499H366.181V85.9066H364.501V90.5467ZM387.135 81.4494H390.844V87.0874H392.49V76.5265H390.844V79.9193H387.651C387.717 79.5534 387.751 79.1709 387.751 78.7718V76.8758H379.568V78.3227H386.087V78.988C386.087 81.7488 383.543 83.3454 379.568 83.362V84.8422C383.194 84.8422 385.954 83.6946 387.135 81.4494ZM382.079 89.0665V86.023H380.4V90.5467H392.79V89.0665H382.079ZM406.725 76.5265V90.7297H408.372V76.5265H406.725ZM402.351 81.8319H397.562V76.9423H395.932V89.8815H403.981V76.9423H402.351V81.8319ZM397.562 88.368V83.3454H402.351V88.368H397.562Z" fill="white"/>
<rect x="343.355" y="79.4541" width="8.87002" height="8.87002" fill="#32B8DD"/>
<path d="M462.191 84.2435H463.837V76.5265H462.191V84.2435ZM455.239 83.8942C457.95 83.8942 459.68 82.4306 459.68 80.2852C459.68 78.1564 457.95 76.6762 455.239 76.6762C452.512 76.6762 450.782 78.1564 450.782 80.2852C450.782 82.4306 452.512 83.8942 455.239 83.8942ZM455.239 82.5304C453.576 82.5304 452.428 81.6989 452.428 80.2852C452.428 78.8715 453.576 78.04 455.239 78.04C456.886 78.04 458.033 78.8715 458.033 80.2852C458.033 81.6989 456.886 82.5304 455.239 82.5304ZM451.963 90.5467H463.837V85.0251H451.963V90.5467ZM453.609 89.1497V86.4222H462.191V89.1497H453.609ZM478.671 76.5265V82.2477H476.359V76.6097H474.796V90.4802H476.359V83.7944H478.671V90.7297H480.234V76.5265H478.671ZM468.626 88.4179V78.5057H473.15V77.0421H467.013V89.8815H470.272C471.553 89.8815 472.917 89.6819 473.765 89.316V87.8691C472.9 88.2183 471.669 88.4179 470.455 88.4179H468.626ZM493.222 88.551V85.7902H496.049V84.3266H485.173V82.1146H495.833V77.0421H483.526V78.5057H494.203V80.701H483.526V85.7902H486.121V88.551H482.578V90.0478H496.765V88.551H493.222ZM487.767 85.7902H491.576V88.551H487.767V85.7902ZM511.831 76.5265H510.185V84.2767H511.831V76.5265ZM507.673 76.8758H499.225V83.1292H507.673V76.8758ZM506.043 81.7488H500.854V78.2562H506.043V81.7488ZM512.38 89.3992L506.459 87.5032C506.609 87.2371 506.709 86.9377 506.792 86.6384H512.031V85.2746H506.709V83.8776H505.029V85.2746H499.69V86.6384H505.129C504.53 88.235 502.035 89.1497 499.59 89.1497V90.5467C501.902 90.5467 504.231 89.8981 505.611 88.6008L511.898 90.7463L512.38 89.3992ZM527.463 80.3684V76.5265H525.817V87.3202H527.463V81.9151H529.426V80.3684H527.463ZM521.625 82.2643H523.272V76.7594H515.256V78.1897H521.625V82.2643ZM524.636 84.4098V82.9961C523.654 83.4119 521.925 83.5449 519.979 83.5449H518.981V80.1688H517.351V83.5449H514.574V84.9586H519.929C521.958 84.9586 523.738 84.8089 524.636 84.4098ZM517.235 86.3723H515.572V90.5467H527.846V89.1164H517.235V86.3723ZM542.18 90.7297H543.827V76.5265H542.18V90.7297ZM531.387 89.8815H537.141C538.521 89.8815 540.002 89.632 540.866 89.1996V87.6861C540.002 88.1019 538.538 88.368 537.191 88.368H533.033V84.1104H539.386V77.0421H531.353V78.5556H537.74V82.597H531.387V89.8815ZM558.178 76.5265V90.7297H559.825V76.5265H558.178ZM553.804 81.8319H549.014V76.9423H547.384V89.8815H555.434V76.9423H553.804V81.8319ZM549.014 88.368V83.3454H553.804V88.368H549.014Z" fill="white"/>
<rect x="431.934" y="80.4141" width="8.87002" height="8.87002" fill="#85D7EC"/>
<g opacity="0.8" filter="url(#filter0_d_186_105)">
<mask id="mask0_186_105" style="mask-type:alpha" maskUnits="userSpaceOnUse" x="69" y="205" width="237" height="415">
<path d="M71.5917 451.382L149.216 617.264C149.38 617.615 149.851 617.68 150.104 617.388L303.394 440.678C303.479 440.581 303.525 440.457 303.525 440.328V208.129C303.525 207.783 303.201 207.528 302.865 207.609L114.074 253.344C113.875 253.393 113.72 253.551 113.678 253.752L71.5531 451.044C71.5288 451.158 71.5423 451.277 71.5917 451.382Z" fill="#0B637B" stroke="black" stroke-width="3.2075"/>
</mask>
<g mask="url(#mask0_186_105)">
<path d="M517.361 431.439C517.361 549.832 421.385 645.807 302.993 645.807C184.601 645.807 88.625 549.832 88.625 431.439C88.625 313.047 184.601 217.071 302.993 217.071C421.385 217.071 517.361 313.047 517.361 431.439Z" fill="#0B637B"/>
</g>
</g>
<g opacity="0.5" filter="url(#filter1_d_186_105)">
<mask id="mask1_186_105" style="mask-type:alpha" maskUnits="userSpaceOnUse" x="43" y="176" width="263" height="462">
<path d="M45.6152 450.304L132.194 635.322C132.358 635.672 132.828 635.738 133.082 635.445L304.035 438.374C304.12 438.277 304.166 438.152 304.166 438.024V179.084C304.166 178.738 303.842 178.483 303.506 178.564L92.9431 229.574C92.7434 229.622 92.5891 229.781 92.5462 229.982L45.5766 449.966C45.5522 450.08 45.5658 450.199 45.6152 450.304Z" fill="#0B637B" stroke="black" stroke-width="3.2075"/>
</mask>
<g mask="url(#mask1_186_105)">
<path d="M542.529 428.092C542.529 560.067 435.542 667.054 303.567 667.054C171.592 667.054 64.6055 560.067 64.6055 428.092C64.6055 296.117 171.592 189.13 303.567 189.13C435.542 189.13 542.529 296.117 542.529 428.092Z" fill="#0B637B"/>
</g>
</g>
<g opacity="0.8" filter="url(#filter2_d_186_105)">
<mask id="mask2_186_105" style="mask-type:alpha" maskUnits="userSpaceOnUse" x="321" y="205" width="243" height="310">
<path d="M322.77 208.127V444.409C322.77 444.644 322.923 444.851 323.148 444.92L546.253 513.076C546.534 513.162 546.831 513.005 546.919 512.725L561.692 465.769C561.716 465.693 561.723 465.612 561.712 465.533L532.377 258.06C532.347 257.843 532.186 257.666 531.973 257.615L323.429 207.607C323.093 207.527 322.77 207.781 322.77 208.127Z" fill="#107D9C" stroke="black" stroke-width="3.2075"/>
</mask>
<g mask="url(#mask2_186_105)">
<path d="M536.603 435.182C536.603 553.574 440.628 649.55 322.235 649.55C203.843 649.55 107.867 553.574 107.867 435.182C107.867 316.789 203.843 220.813 322.235 220.813C440.628 220.813 536.603 316.789 536.603 435.182Z" fill="#107D9C"/>
</g>
</g>
<g opacity="0.5" filter="url(#filter3_d_186_105)">
<mask id="mask3_186_105" style="mask-type:alpha" maskUnits="userSpaceOnUse" x="313" y="172" width="282" height="359">
<path d="M315.43 174.678V449.312C315.43 449.547 315.583 449.755 315.808 449.824L575.106 529.036C575.387 529.122 575.685 528.966 575.773 528.686L592.964 474.041C592.988 473.965 592.995 473.885 592.984 473.806L558.898 232.731C558.868 232.513 558.707 232.337 558.494 232.286L316.089 174.158C315.753 174.077 315.43 174.332 315.43 174.678Z" fill="#107D9C" stroke="black" stroke-width="3.2075"/>
</mask>
<g mask="url(#mask3_186_105)">
<path d="M563.814 438.53C563.814 576.052 452.33 687.536 314.807 687.536C177.285 687.536 65.8008 576.052 65.8008 438.53C65.8008 301.007 177.285 189.523 314.807 189.523C452.33 189.523 563.814 301.007 563.814 438.53Z" fill="#107D9C"/>
</g>
</g>
<g opacity="0.8" filter="url(#filter4_d_186_105)">
<mask id="mask4_186_105" style="mask-type:alpha" maskUnits="userSpaceOnUse" x="329" y="460" width="246" height="206">
<path d="M572.109 535.962L331.545 462.31C331.082 462.168 330.684 462.667 330.925 463.087L446.438 663.91C446.615 664.217 447.035 664.271 447.283 664.018L572.333 536.848C572.615 536.562 572.492 536.08 572.109 535.962Z" fill="#19A3C8" stroke="black" stroke-width="3.2075"/>
</mask>
<g mask="url(#mask4_186_105)">
<path d="M544.619 452.291C544.619 570.683 448.643 666.659 330.251 666.659C211.859 666.659 115.883 570.683 115.883 452.291C115.883 333.899 211.859 237.923 330.251 237.923C448.643 237.923 544.619 333.899 544.619 452.291Z" fill="#19A3C8"/>
</g>
</g>
<g opacity="0.5" filter="url(#filter5_d_186_105)">
<mask id="mask5_186_105" style="mask-type:alpha" maskUnits="userSpaceOnUse" x="342" y="464" width="246" height="207">
<path d="M585.081 540.278L344.518 466.625C344.054 466.483 343.656 466.982 343.898 467.403L459.411 668.226C459.587 668.532 460.007 668.586 460.255 668.334L585.306 541.164C585.587 540.878 585.465 540.395 585.081 540.278Z" fill="#19A3C8" stroke="black" stroke-width="3.2075"/>
</mask>
<g mask="url(#mask5_186_105)">
<path d="M557.592 456.606C557.592 574.999 461.616 670.974 343.224 670.974C224.831 670.974 128.855 574.999 128.855 456.606C128.855 338.214 224.831 242.238 343.224 242.238C461.616 242.238 557.592 338.214 557.592 456.606Z" fill="#19A3C8"/>
</g>
</g>
<g opacity="0.8" filter="url(#filter6_d_186_105)">
<mask id="mask6_186_105" style="mask-type:alpha" maskUnits="userSpaceOnUse" x="257" y="470" width="188" height="229">
<path d="M442.617 687.288L320.202 472.663C319.966 472.249 319.346 472.328 319.222 472.789L258.809 696.422C258.714 696.772 258.989 697.113 259.351 697.095L442.179 688.086C442.578 688.067 442.815 687.634 442.617 687.288Z" fill="#32B8DD" stroke="black" stroke-width="3.2075"/>
</mask>
<g mask="url(#mask6_186_105)">
<path d="M533.396 461.915C533.396 580.307 437.42 676.283 319.028 676.283C200.636 676.283 104.66 580.307 104.66 461.915C104.66 343.523 200.636 247.547 319.028 247.547C437.42 247.547 533.396 343.523 533.396 461.915Z" fill="#32B8DD"/>
</g>
</g>
<g opacity="0.5" filter="url(#filter7_d_186_105)">
<mask id="mask7_186_105" style="mask-type:alpha" maskUnits="userSpaceOnUse" x="259" y="487" width="188" height="229">
<path d="M444.617 703.594L322.202 488.97C321.966 488.555 321.346 488.635 321.222 489.095L260.809 712.729C260.714 713.079 260.989 713.42 261.351 713.402L444.179 704.393C444.578 704.373 444.815 703.941 444.617 703.594Z" fill="#32B8DD" stroke="black" stroke-width="3.2075"/>
</mask>
<g mask="url(#mask7_186_105)">
<path d="M535.396 478.222C535.396 596.614 439.42 692.59 321.028 692.59C202.636 692.59 106.66 596.614 106.66 478.222C106.66 359.829 202.636 263.854 321.028 263.854C439.42 263.854 535.396 359.829 535.396 478.222Z" fill="#32B8DD"/>
</g>
</g>
<g opacity="0.8" filter="url(#filter8_d_186_105)">
<mask id="mask8_186_105" style="mask-type:alpha" maskUnits="userSpaceOnUse" x="149" y="460" width="156" height="221">
<path d="M302.01 462.602L151.107 637.775C150.872 638.048 150.969 638.471 151.3 638.614L245.218 679.242C245.519 679.372 245.864 679.204 245.947 678.888L302.931 463.087C303.076 462.538 302.38 462.172 302.01 462.602Z" fill="#85D7EC" stroke="black" stroke-width="3.2075"/>
</mask>
<g mask="url(#mask8_186_105)">
<path d="M517.892 451.756C517.892 570.148 421.917 666.124 303.524 666.124C185.132 666.124 89.1562 570.148 89.1562 451.756C89.1562 333.364 185.132 237.388 303.524 237.388C421.917 237.388 517.892 333.364 517.892 451.756Z" fill="#85D7EC"/>
</g>
</g>
<g opacity="0.5" filter="url(#filter9_d_186_105)">
<mask id="mask9_186_105" style="mask-type:alpha" maskUnits="userSpaceOnUse" x="129" y="456" width="165" height="231">
<path d="M290.565 458.393L130.751 640.155C130.513 640.425 130.606 640.849 130.936 640.996L228.813 684.519C229.112 684.652 229.459 684.487 229.546 684.172L291.482 458.888C291.633 458.341 290.94 457.967 290.565 458.393Z" fill="#85D7EC" stroke="black" stroke-width="3.2075"/>
</mask>
<g mask="url(#mask9_186_105)">
<path d="M516.448 449.416C515.193 573.27 413.772 672.657 289.917 671.402C166.063 670.147 66.6762 568.726 67.9311 444.872C69.1859 321.017 170.607 221.631 294.462 222.885C418.316 224.14 517.703 325.561 516.448 449.416Z" fill="#85D7EC"/>
</g>
</g>
<g filter="url(#filter10_d_186_105)">
<circle cx="312.076" cy="443.737" r="85.5334" fill="white"/>
</g>
<path d="M271.224 472.143H275.822V467.759H278.682V463.75H275.822V450.359H269.861L261.442 463.75V467.759H271.224V472.143ZM266.092 463.75L271.224 455.357V463.75H266.092ZM288.584 472.651C293.075 472.651 296.496 469.657 296.496 465.06C296.496 460.436 293.61 457.682 289.333 457.682C287.943 457.682 286.767 458.03 285.831 458.591L286.072 454.502H295.427V450.359H281.662L281.02 463.082H285.43C286.018 462.28 286.981 461.612 288.504 461.612C290.589 461.612 291.765 463.028 291.765 465.06C291.765 467.064 290.562 468.534 288.584 468.534C286.58 468.534 285.591 467.519 285.404 465.781H280.619C280.967 469.978 283.853 472.651 288.584 472.651ZM304.179 467.358H299.929L298.966 474.281H302.521L304.179 467.358ZM314.595 449.771C309.837 449.771 306.255 453.593 306.255 461.237C306.255 468.855 309.837 472.678 314.595 472.678C319.353 472.678 322.934 468.855 322.934 461.237C322.934 453.593 319.353 449.771 314.595 449.771ZM314.595 454.021C316.733 454.021 318.337 456.266 318.337 461.237C318.337 466.182 316.733 468.428 314.595 468.428C312.457 468.428 310.853 466.182 310.853 461.237C310.853 456.266 312.457 454.021 314.595 454.021ZM333.95 449.771C329.192 449.771 325.61 453.593 325.61 461.237C325.61 468.855 329.192 472.678 333.95 472.678C338.707 472.678 342.289 468.855 342.289 461.237C342.289 453.593 338.707 449.771 333.95 449.771ZM333.95 454.021C336.088 454.021 337.692 456.266 337.692 461.237C337.692 466.182 336.088 468.428 333.95 468.428C331.811 468.428 330.207 466.182 330.207 461.237C330.207 456.266 331.811 454.021 333.95 454.021ZM353.304 449.771C348.546 449.771 344.965 453.593 344.965 461.237C344.965 468.855 348.546 472.678 353.304 472.678C358.062 472.678 361.644 468.855 361.644 461.237C361.644 453.593 358.062 449.771 353.304 449.771ZM353.304 454.021C355.442 454.021 357.046 456.266 357.046 461.237C357.046 466.182 355.442 468.428 353.304 468.428C351.166 468.428 349.562 466.182 349.562 461.237C349.562 456.266 351.166 454.021 353.304 454.021Z" fill="#285259"/>
<path d="M291.79 413.003V422.403H289.664V413.122H284.994V438.119H289.664V427.193H291.79V438.568H296.52V413.003H291.79ZM271.523 437.371H283.138V413.601H271.523V437.371ZM276.223 418.182H278.468V432.791H276.223V418.182ZM322.472 423.061L323.43 419.559L313.94 417.762C314.03 417.613 314.09 417.463 314.15 417.284H322.921V413.781H313.881V411.985H308.731V413.781H299.691V417.284H308.522C306.935 418.541 302.954 419.259 299.241 419.349V422.942C303.522 422.882 307.714 422.073 310.587 420.636L322.472 423.061ZM324.239 427.133V423.63H298.373V427.133H308.731V428.21H299.84V431.204H317.802V432.072H299.9V438.568H323.011V435.545H304.84V434.677H322.742V428.21H313.881V427.133H324.239ZM338.187 420.636C338.187 415.697 335.792 413.003 331.96 413.003C328.128 413.003 325.733 415.697 325.733 420.636C325.733 425.576 328.128 428.3 331.96 428.3C335.792 428.3 338.187 425.576 338.187 420.636ZM346.389 413.003V418.062H344.264V413.122H339.594V428.42H344.264V422.792H346.389V428.689H351.119V413.003H346.389ZM330.373 420.636C330.373 418.271 330.882 417.104 331.96 417.104C333.067 417.104 333.546 418.271 333.546 420.636C333.546 423.001 333.067 424.199 331.96 424.199C330.882 424.199 330.373 423.001 330.373 420.636ZM327.769 433.868H346.12V438.868H351.119V429.587H327.769V433.868Z" fill="#285259"/>
<path d="M90.4906 252.652L92.741 248.186L80.7271 243.235C81.281 242.197 81.6619 241.054 81.9042 239.877L75.9838 238.907C75.049 243.997 69.4748 247.286 63.8314 247.494V252.479C69.3363 252.375 74.3912 250.367 77.7842 247.148L90.4906 252.652ZM62.9658 254.003V258.815H74.9798V262.831H80.8655V258.815H92.8795V254.003H62.9658ZM70.652 260.546H64.6969V269.306H91.4946V264.459H70.652V260.546ZM123.136 239.738H117.285V269.306H123.136V239.738ZM104.717 240.085C99.1432 240.085 95.404 244.447 95.404 254.176C95.404 263.905 99.1432 268.267 104.717 268.267C110.292 268.267 113.996 263.905 113.996 254.176C113.996 244.447 110.292 240.085 104.717 240.085ZM104.717 245.451C106.656 245.451 108.214 247.563 108.214 254.176C108.214 260.823 106.656 262.901 104.717 262.901C102.744 262.901 101.186 260.823 101.186 254.176C101.186 247.563 102.744 245.451 104.717 245.451ZM154.709 239.738H148.858V257.326H154.709V239.738ZM135.736 239.773C129.989 239.773 126.076 243.304 126.076 248.255C126.076 253.241 129.989 256.738 135.736 256.738C141.483 256.738 145.396 253.241 145.396 248.255C145.396 243.304 141.483 239.773 135.736 239.773ZM135.736 244.585C137.952 244.585 139.579 245.97 139.579 248.255C139.579 250.54 137.952 251.925 135.736 251.925C133.486 251.925 131.893 250.54 131.893 248.255C131.893 245.97 133.486 244.585 135.736 244.585ZM154.709 258.365H128.465V263.385H148.754V269.652H154.709V258.365ZM175.247 239.842C169.465 239.842 165.414 243.72 165.414 249.086H171.611C171.611 247.078 172.754 245.105 175.212 245.105C177.566 245.105 178.951 246.386 178.951 248.463C178.951 250.61 177.428 251.995 174.866 251.995H172.061V257.119H174.866C177.809 257.119 179.782 258.365 179.782 260.719C179.782 262.797 178.051 264.216 175.454 264.216C172.823 264.216 171.404 262.866 171.161 260.616H164.964C165.414 266.051 169.257 269.514 175.454 269.514C181.306 269.514 185.91 266.121 185.91 260.685C185.91 257.049 183.002 254.799 180.405 254.384C182.76 253.968 185.149 251.579 185.149 248.325C185.149 243.27 181.098 239.842 175.247 239.842ZM208.029 261.135C208.029 257.223 204.844 254.73 202.316 254.21C204.463 253.553 206.99 251.129 206.99 247.909C206.99 243.547 203.078 239.842 197.296 239.842C191.549 239.842 187.532 243.478 187.532 247.909C187.532 251.129 190.094 253.553 192.276 254.21C189.783 254.73 186.563 257.223 186.563 261.135C186.563 266.259 191.306 269.514 197.296 269.514C203.286 269.514 208.029 266.259 208.029 261.135ZM201.104 248.152C201.104 250.056 199.477 251.371 197.296 251.371C195.184 251.371 193.487 249.987 193.487 248.013C193.487 246.213 195.115 244.966 197.296 244.966C199.546 244.966 201.104 246.351 201.104 248.152ZM201.97 260.754C201.97 262.797 200.066 264.32 197.296 264.32C194.526 264.32 192.622 262.797 192.622 260.754C192.622 258.642 194.595 257.084 197.296 257.084C199.996 257.084 201.97 258.642 201.97 260.754ZM215.635 240.085C211.549 240.085 208.71 242.889 208.71 246.767C208.71 250.61 211.549 253.414 215.635 253.414C219.755 253.414 222.594 250.61 222.594 246.767C222.594 242.889 219.755 240.085 215.635 240.085ZM235.75 240.604H231.007L212.311 268.821H217.054L235.75 240.604ZM215.635 244.101C217.193 244.101 218.301 245.243 218.301 246.767C218.301 248.29 217.193 249.433 215.635 249.433C214.077 249.433 212.969 248.29 212.969 246.767C212.969 245.243 214.077 244.101 215.635 244.101ZM232.392 255.976C228.307 255.976 225.468 258.781 225.468 262.658C225.468 266.501 228.307 269.306 232.392 269.306C236.512 269.306 239.351 266.501 239.351 262.658C239.351 258.781 236.512 255.976 232.392 255.976ZM232.392 259.992C233.95 259.992 235.058 261.135 235.058 262.658C235.058 264.182 233.95 265.324 232.392 265.324C230.834 265.324 229.726 264.182 229.726 262.658C229.726 261.135 230.834 259.992 232.392 259.992Z" fill="#8FD7ED"/>
<path d="M83.2667 281.017H74.2649V285.393H78.2533V303.59H83.2667V281.017ZM103.317 281.017H87.8061V285.393H97.4449L89.6618 303.59H94.9244L103.317 284.008V281.017ZM108.16 298.633H103.756L102.759 305.806H106.443L108.16 298.633ZM117.793 281.017H108.791V285.393H112.779V303.59H117.793V281.017ZM131.409 280.407C126.479 280.407 122.768 284.368 122.768 292.29C122.768 300.184 126.479 304.144 131.409 304.144C136.339 304.144 140.051 300.184 140.051 292.29C140.051 284.368 136.339 280.407 131.409 280.407ZM131.409 284.811C133.625 284.811 135.287 287.138 135.287 292.29C135.287 297.414 133.625 299.74 131.409 299.74C129.193 299.74 127.532 297.414 127.532 292.29C127.532 287.138 129.193 284.811 131.409 284.811ZM151.465 280.407C146.535 280.407 142.824 284.368 142.824 292.29C142.824 300.184 146.535 304.144 151.465 304.144C156.396 304.144 160.107 300.184 160.107 292.29C160.107 284.368 156.396 280.407 151.465 280.407ZM151.465 284.811C153.681 284.811 155.343 287.138 155.343 292.29C155.343 297.414 153.681 299.74 151.465 299.74C149.249 299.74 147.588 297.414 147.588 292.29C147.588 287.138 149.249 284.811 151.465 284.811ZM166.908 298.633H162.504L161.507 305.806H165.19L166.908 298.633ZM177.701 280.407C172.771 280.407 169.06 284.368 169.06 292.29C169.06 300.184 172.771 304.144 177.701 304.144C182.632 304.144 186.343 300.184 186.343 292.29C186.343 284.368 182.632 280.407 177.701 280.407ZM177.701 284.811C179.917 284.811 181.579 287.138 181.579 292.29C181.579 297.414 179.917 299.74 177.701 299.74C175.486 299.74 173.824 297.414 173.824 292.29C173.824 287.138 175.486 284.811 177.701 284.811ZM197.758 280.407C192.827 280.407 189.116 284.368 189.116 292.29C189.116 300.184 192.827 304.144 197.758 304.144C202.688 304.144 206.399 300.184 206.399 292.29C206.399 284.368 202.688 280.407 197.758 280.407ZM197.758 284.811C199.973 284.811 201.635 287.138 201.635 292.29C201.635 297.414 199.973 299.74 197.758 299.74C195.542 299.74 193.88 297.414 193.88 292.29C193.88 287.138 195.542 284.811 197.758 284.811ZM217.814 280.407C212.883 280.407 209.172 284.368 209.172 292.29C209.172 300.184 212.883 304.144 217.814 304.144C222.744 304.144 226.455 300.184 226.455 292.29C226.455 284.368 222.744 280.407 217.814 280.407ZM217.814 284.811C220.029 284.811 221.691 287.138 221.691 292.29C221.691 297.414 220.029 299.74 217.814 299.74C215.598 299.74 213.936 297.414 213.936 292.29C213.936 287.138 215.598 284.811 217.814 284.811Z" fill="white"/>
<path d="M173.562 201.336C173.562 197.528 171.242 194.516 165.461 193.131L165.01 193.027V186.899C166.499 187.488 167.399 188.699 167.642 190.361H173.458C173.216 185.999 169.788 182.71 165.01 181.983V179.005H160.51V181.983C155.559 182.64 152.304 185.41 152.304 189.323C152.304 193.754 155.282 196.385 160.51 197.563V204.176C158.675 203.483 157.532 202.064 157.29 200.229H151.508C151.715 205.11 155.316 208.365 160.51 209.161V212.139H165.01V209.196C169.892 208.607 173.562 205.768 173.562 201.336ZM158.051 189.219C158.051 187.938 158.917 187.037 160.51 186.657V191.781C158.778 191.158 158.051 190.465 158.051 189.219ZM165.01 204.487V198.671C166.984 199.328 167.78 200.159 167.78 201.579C167.78 203.033 166.672 204.072 165.01 204.487Z" fill="#8FD7ED"/>
<circle cx="162.856" cy="195.313" r="23.5432" stroke="#8FD7ED" stroke-width="5.53957"/>
<line x1="115.77" y1="171.77" x2="162.856" y2="171.77" stroke="#8FD7ED" stroke-width="5.53957" stroke-linecap="round"/>
<line x1="115.77" y1="184.233" x2="122.694" y2="184.233" stroke="#8FD7ED" stroke-width="5.53957" stroke-linecap="round"/>
<line x1="131.004" y1="184.233" x2="142.083" y2="184.233" stroke="#8FD7ED" stroke-width="5.53957" stroke-linecap="round"/>
<line x1="121.309" y1="195.313" x2="136.543" y2="195.313" stroke="#8FD7ED" stroke-width="5.53957" stroke-linecap="round"/>
<line x1="126.848" y1="206.392" x2="142.082" y2="206.392" stroke="#8FD7ED" stroke-width="5.53957" stroke-linecap="round"/>
<line x1="133.774" y1="218.856" x2="161.472" y2="218.856" stroke="#8FD7ED" stroke-width="5.53957" stroke-linecap="round"/>
<path d="M563.086 233H520V259.159C520 264.94 524.82 269.623 530.771 269.623H546.928C552.88 269.623 557.7 264.94 557.7 259.159V251.311H563.086C566.075 251.311 568.471 248.957 568.471 246.08V238.232C568.471 235.328 566.075 233 563.086 233ZM563.086 246.08H557.7V238.232H563.086V246.08ZM520 274.855H563.086V280.086H520V274.855Z" fill="white"/>
<path d="M493.74 301.047V310.575H489.89V301.185H487.287V324.285H489.89V313.179H493.74V324.701H496.344V301.047H493.74ZM481.166 304.398H485.292V301.906H474.158V304.398H478.534C478.479 313.483 476.928 319.743 473.798 320.602V323.288C476.817 322.762 478.894 320.103 480.058 315.311L484.268 322.956L486.511 321.682L480.75 311.544C480.999 309.439 481.138 307.057 481.166 304.398ZM516.589 321.072V316.475H521.297V314.037H503.183V310.353H520.937V301.906H500.441V304.343H518.223V307.999H500.441V316.475H504.762V321.072H498.862V323.565H522.488V321.072H516.589ZM507.504 316.475H513.847V321.072H507.504V316.475ZM543.453 301.047V324.701H546.195V301.047H543.453ZM536.169 309.883H528.192V301.739H525.477V323.288H538.883V301.739H536.169V309.883ZM528.192 320.768V312.403H536.169V320.768H528.192ZM563.29 324.618C567.943 324.618 571.101 321.793 571.101 318.081C571.101 315.007 568.802 313.262 566.558 312.846C568.608 312.348 570.519 310.464 570.519 307.75C570.519 304.26 567.556 301.407 562.985 301.407C558.443 301.407 555.452 304.454 555.452 308.359H558.36C558.36 306.005 559.994 303.9 562.985 303.9C565.921 303.9 567.639 305.672 567.639 307.833C567.639 310.132 565.728 311.738 562.902 311.738H560.465V314.148H562.902C566.254 314.148 568.248 315.616 568.248 318.109C568.248 320.325 566.392 322.097 563.29 322.097C560.16 322.097 558.388 320.242 558.305 317.86H555.424C555.59 321.737 558.526 324.618 563.29 324.618ZM580.136 324.618C584.789 324.618 587.947 321.793 587.947 318.081C587.947 315.007 585.648 313.262 583.404 312.846C585.454 312.348 587.365 310.464 587.365 307.75C587.365 304.26 584.402 301.407 579.831 301.407C575.289 301.407 572.298 304.454 572.298 308.359H575.206C575.206 306.005 576.84 303.9 579.831 303.9C582.767 303.9 584.485 305.672 584.485 307.833C584.485 310.132 582.573 311.738 579.748 311.738H577.311V314.148H579.748C583.1 314.148 585.094 315.616 585.094 318.109C585.094 320.325 583.238 322.097 580.136 322.097C577.006 322.097 575.234 320.242 575.15 317.86H572.27C572.436 321.737 575.372 324.618 580.136 324.618ZM594.711 311.932C597.896 311.932 600.195 309.661 600.195 306.642C600.195 303.623 597.896 301.352 594.711 301.352C591.526 301.352 589.227 303.623 589.227 306.642C589.227 309.661 591.526 311.932 594.711 311.932ZM592.744 324.119H595.459L610.111 301.933H607.396L592.744 324.119ZM594.711 309.606C592.938 309.606 591.692 308.359 591.692 306.642C591.692 304.925 592.938 303.706 594.711 303.706C596.483 303.706 597.702 304.925 597.702 306.642C597.702 308.359 596.483 309.606 594.711 309.606ZM608.144 324.673C611.302 324.673 613.628 322.402 613.628 319.383C613.628 316.364 611.302 314.093 608.144 314.093C604.959 314.093 602.66 316.364 602.66 319.383C602.66 322.402 604.959 324.673 608.144 324.673ZM608.144 322.347C606.372 322.347 605.125 321.1 605.125 319.383C605.125 317.666 606.372 316.419 608.144 316.419C609.889 316.419 611.136 317.666 611.136 319.383C611.136 321.1 609.889 322.347 608.144 322.347Z" fill="white"/>
<path d="M475.919 362.782H478.682V341.705H471.551V344.126H475.919V362.782ZM493.579 362.782H496.211V358.019H499.658V355.677H496.211V341.705H492.948L482.949 355.677V358.019H493.579V362.782ZM485.791 355.677L493.579 344.731V355.677H485.791ZM504.582 359.493H501.95L501.108 365.439H503.266L504.582 359.493ZM514.691 363.255C519.085 363.255 522.137 360.782 522.137 357.256C522.137 354.072 519.638 352.309 517.717 351.862C519.348 351.362 521.401 349.651 521.401 346.968C521.401 343.836 518.69 341.205 514.691 341.205C510.665 341.205 507.955 343.81 507.955 346.968C507.955 349.651 510.007 351.362 511.638 351.862C509.744 352.309 507.218 354.072 507.218 357.256C507.218 360.782 510.27 363.255 514.691 363.255ZM514.691 350.625C512.296 350.625 510.612 349.02 510.612 346.994C510.612 345.047 512.217 343.521 514.691 343.521C517.164 343.521 518.769 345.099 518.769 347.046C518.769 349.046 517.085 350.625 514.691 350.625ZM514.691 360.94C511.77 360.94 509.902 359.282 509.902 357.098C509.902 354.888 511.928 353.177 514.691 353.177C517.427 353.177 519.453 354.888 519.453 357.098C519.453 359.282 517.585 360.94 514.691 360.94ZM531.905 363.255C536.326 363.255 539.352 360.229 539.352 356.046C539.352 351.835 536.405 348.967 532.405 348.967C529.985 348.967 528.432 350.02 527.643 350.993L528.011 344.099H538.273V341.705H525.485L524.88 353.835H527.59C528.301 352.52 529.642 351.335 531.958 351.335C534.747 351.335 536.642 353.335 536.642 356.046C536.642 358.808 534.826 360.861 531.905 360.861C528.932 360.861 527.274 359.098 527.195 356.835H524.459C524.617 360.492 527.353 363.255 531.905 363.255ZM549.777 363.255C554.198 363.255 557.54 359.598 557.54 352.23C557.54 344.862 554.198 341.205 549.777 341.205C545.33 341.205 541.989 344.862 541.989 352.23C541.989 359.598 545.33 363.255 549.777 363.255ZM549.777 360.808C546.909 360.808 544.646 357.966 544.646 352.23C544.646 346.52 546.909 343.652 549.777 343.652C552.619 343.652 554.882 346.52 554.882 352.23C554.882 357.966 552.619 360.808 549.777 360.808ZM562.244 359.493H559.613L558.771 365.439H560.928L562.244 359.493ZM572.03 363.255C576.451 363.255 579.793 359.598 579.793 352.23C579.793 344.862 576.451 341.205 572.03 341.205C567.583 341.205 564.242 344.862 564.242 352.23C564.242 359.598 567.583 363.255 572.03 363.255ZM572.03 360.808C569.162 360.808 566.899 357.966 566.899 352.23C566.899 346.52 569.162 343.652 572.03 343.652C574.872 343.652 577.135 346.52 577.135 352.23C577.135 357.966 574.872 360.808 572.03 360.808ZM590.275 363.255C594.695 363.255 598.037 359.598 598.037 352.23C598.037 344.862 594.695 341.205 590.275 341.205C585.828 341.205 582.486 344.862 582.486 352.23C582.486 359.598 585.828 363.255 590.275 363.255ZM590.275 360.808C587.406 360.808 585.144 357.966 585.144 352.23C585.144 346.52 587.406 343.652 590.275 343.652C593.116 343.652 595.379 346.52 595.379 352.23C595.379 357.966 593.116 360.808 590.275 360.808ZM608.519 363.255C612.939 363.255 616.281 359.598 616.281 352.23C616.281 344.862 612.939 341.205 608.519 341.205C604.072 341.205 600.73 344.862 600.73 352.23C600.73 359.598 604.072 363.255 608.519 363.255ZM608.519 360.808C605.651 360.808 603.388 357.966 603.388 352.23C603.388 346.52 605.651 343.652 608.519 343.652C611.361 343.652 613.624 346.52 613.624 352.23C613.624 357.966 611.361 360.808 608.519 360.808Z" fill="#C7C7C7"/>
<path d="M145.511 649.886C146.339 649.886 147.011 649.227 147.011 648.414V645.471C147.011 644.658 146.339 644 145.511 644H94.5003C93.6714 644 93 644.658 93 645.471V648.414C93 649.227 93.6714 649.886 94.5003 649.886H95.9987V685.201H94.5003C93.6714 685.201 93 685.859 93 686.672V689.615C93 690.428 93.6714 691.086 94.5003 691.086H117.005V683.729C117.005 682.92 117.68 682.258 118.505 682.258H121.506C122.331 682.258 123.006 682.92 123.006 683.729V691.086H145.511C146.339 691.086 147.011 690.428 147.011 689.615V686.672C147.011 685.859 146.339 685.201 145.511 685.201H144.01V649.886H145.511ZM117.005 654.006C117.005 653.417 117.605 652.829 118.205 652.829H121.806C122.406 652.829 123.006 653.417 123.006 654.006V657.537C123.006 658.126 122.406 658.714 121.806 658.714H118.205C117.605 658.714 117.005 658.126 117.005 657.537V654.006ZM117.005 662.835C117.005 662.246 117.605 661.657 118.205 661.657H121.806C122.406 661.657 123.006 662.246 123.006 662.835V666.366C123.006 666.955 122.406 667.543 121.806 667.543H118.205C117.605 667.543 117.005 666.955 117.005 666.366V662.835ZM105.002 654.006C105.002 653.417 105.603 652.829 106.203 652.829H109.803C110.403 652.829 111.004 653.417 111.004 654.006V657.537C111.004 658.126 110.403 658.714 109.803 658.714H106.203C105.603 658.714 105.002 658.126 105.002 657.537V654.006ZM109.803 667.543H106.203C105.603 667.543 105.002 666.955 105.002 666.366V662.835C105.002 662.246 105.603 661.657 106.203 661.657H109.803C110.403 661.657 111.004 662.246 111.004 662.835V666.366C111.004 666.955 110.403 667.543 109.803 667.543ZM111.004 679.315C111.004 674.439 115.034 670.486 120.005 670.486C124.977 670.486 129.007 674.439 129.007 679.315H111.004ZM135.008 666.366C135.008 666.955 134.408 667.543 133.808 667.543H130.207C129.607 667.543 129.007 666.955 129.007 666.366V662.835C129.007 662.246 129.607 661.657 130.207 661.657H133.808C134.408 661.657 135.008 662.246 135.008 662.835V666.366ZM135.008 657.537C135.008 658.126 134.408 658.714 133.808 658.714H130.207C129.607 658.714 129.007 658.126 129.007 657.537V654.006C129.007 653.417 129.607 652.829 130.207 652.829H133.808C134.408 652.829 135.008 653.417 135.008 654.006V657.537Z" fill="white"/>
<path d="M21.1548 724.701H23.8969V711.85H21.1548V724.701ZM9.57705 724.12C14.0918 724.12 16.9724 721.682 16.9724 718.109C16.9724 714.564 14.0918 712.099 9.57705 712.099C5.0346 712.099 2.15402 714.564 2.15402 718.109C2.15402 721.682 5.0346 724.12 9.57705 724.12ZM9.57705 721.849C6.80726 721.849 4.89611 720.464 4.89611 718.109C4.89611 715.755 6.80726 714.37 9.57705 714.37C12.3191 714.37 14.2303 715.755 14.2303 718.109C14.2303 720.464 12.3191 721.849 9.57705 721.849ZM4.12057 735.199H23.8969V726.003H4.12057V735.199ZM6.86266 732.872V728.33H21.1548V732.872H6.86266ZM47.2161 711.85V721.378H43.3661V711.988H40.7625V735.088H43.3661V723.954H47.2161V735.504H49.8197V711.85H47.2161ZM30.4866 731.654V715.146H38.0204V712.708H27.7999V734.091H33.2287C35.3614 734.091 37.6326 733.759 39.0452 733.149V730.74C37.6049 731.321 35.5553 731.654 33.5333 731.654H30.4866ZM70.0644 731.875V727.277H74.7731V724.84H56.6587V721.156H74.413V712.708H53.9166V715.146H71.6986V718.802H53.9166V727.277H58.2375V731.875H52.3378V734.368H75.9641V731.875H70.0644ZM60.9795 727.277H67.3224V731.875H60.9795V727.277ZM106.049 711.85H103.307V724.757H106.049V711.85ZM99.1247 712.431H85.0542V722.846H99.1247V712.431ZM96.4103 720.547H87.7686V714.73H96.4103V720.547ZM106.963 733.288L97.1028 730.13C97.352 729.687 97.5182 729.189 97.6567 728.69H106.382V726.419H97.5182V724.092H94.7207V726.419H85.8297V728.69H94.8869C93.8898 731.349 89.7351 732.872 85.6635 732.872V735.199C89.5135 735.199 93.3912 734.119 95.6902 731.958L106.16 735.531L106.963 733.288ZM137.076 718.248V711.85H134.334V729.826H137.076V720.824H140.344V718.248H137.076ZM127.354 721.405H130.096V712.237H116.746V714.619H127.354V721.405ZM132.367 724.978V722.624C130.733 723.317 127.853 723.538 124.612 723.538H122.95V717.915H120.236V723.538H115.61V725.892H124.529C127.908 725.892 130.872 725.643 132.367 724.978ZM120.042 728.247H117.272V735.199H137.713V732.817H120.042V728.247ZM160.201 735.504H162.943V711.85H160.201V735.504ZM142.225 734.091H151.809C154.108 734.091 156.573 733.676 158.013 732.955V730.435C156.573 731.127 154.135 731.571 151.892 731.571H144.968V724.48H155.548V712.708H142.17V715.229H152.806V721.959H142.225V734.091ZM185.459 711.85V735.504H188.201V711.85H185.459ZM178.175 720.685H170.198V712.542H167.483V734.091H180.889V712.542H178.175V720.685ZM170.198 731.571V723.206H178.175V731.571H170.198ZM208.149 734.922H210.919V729.909H214.547V727.444H210.919V712.736H207.484L196.959 727.444V729.909H208.149V734.922ZM199.951 727.444L208.149 715.921V727.444H199.951ZM220.493 722.735C223.678 722.735 225.977 720.464 225.977 717.445C225.977 714.426 223.678 712.154 220.493 712.154C217.308 712.154 215.009 714.426 215.009 717.445C215.009 720.464 217.308 722.735 220.493 722.735ZM218.527 734.922H221.241L235.893 712.736H233.179L218.527 734.922ZM220.493 720.408C218.72 720.408 217.474 719.162 217.474 717.445C217.474 715.727 218.72 714.509 220.493 714.509C222.266 714.509 223.484 715.727 223.484 717.445C223.484 719.162 222.266 720.408 220.493 720.408ZM233.927 735.476C237.084 735.476 239.411 733.205 239.411 730.186C239.411 727.167 237.084 724.895 233.927 724.895C230.741 724.895 228.442 727.167 228.442 730.186C228.442 733.205 230.741 735.476 233.927 735.476ZM233.927 733.149C232.154 733.149 230.908 731.903 230.908 730.186C230.908 728.468 232.154 727.222 233.927 727.222C235.672 727.222 236.918 728.468 236.918 730.186C236.918 731.903 235.672 733.149 233.927 733.149Z" fill="white"/>
<path d="M60.912 774.969H63.6749V753.892H56.544V756.313H60.912V774.969ZM71.6639 771.68H69.0326L68.1906 777.627H70.3483L71.6639 771.68ZM81.7731 775.443C86.1673 775.443 89.2196 772.969 89.2196 769.443C89.2196 766.26 86.7199 764.497 84.799 764.049C86.4305 763.549 88.4829 761.839 88.4829 759.155C88.4829 756.024 85.7726 753.392 81.7731 753.392C77.7472 753.392 75.0369 755.997 75.0369 759.155C75.0369 761.839 77.0893 763.549 78.7207 764.049C76.8262 764.497 74.3002 766.26 74.3002 769.443C74.3002 772.969 77.3525 775.443 81.7731 775.443ZM81.7731 762.813C79.3786 762.813 77.6945 761.207 77.6945 759.181C77.6945 757.234 79.2996 755.708 81.7731 755.708C84.2465 755.708 85.8516 757.287 85.8516 759.234C85.8516 761.234 84.1675 762.813 81.7731 762.813ZM81.7731 773.127C78.8523 773.127 76.9841 771.47 76.9841 769.286C76.9841 767.075 79.0102 765.365 81.7731 765.365C84.5096 765.365 86.5357 767.075 86.5357 769.286C86.5357 771.47 84.6675 773.127 81.7731 773.127ZM99.5403 775.443C103.961 775.443 107.303 771.785 107.303 764.418C107.303 757.05 103.961 753.392 99.5403 753.392C95.0934 753.392 91.7516 757.05 91.7516 764.418C91.7516 771.785 95.0934 775.443 99.5403 775.443ZM99.5403 772.996C96.6722 772.996 94.4092 770.154 94.4092 764.418C94.4092 758.708 96.6722 755.84 99.5403 755.84C102.382 755.84 104.645 758.708 104.645 764.418C104.645 770.154 102.382 772.996 99.5403 772.996ZM117.785 775.443C122.205 775.443 125.547 771.785 125.547 764.418C125.547 757.05 122.205 753.392 117.785 753.392C113.338 753.392 109.996 757.05 109.996 764.418C109.996 771.785 113.338 775.443 117.785 775.443ZM117.785 772.996C114.917 772.996 112.654 770.154 112.654 764.418C112.654 758.708 114.917 755.84 117.785 755.84C120.626 755.84 122.889 758.708 122.889 764.418C122.889 770.154 120.626 772.996 117.785 772.996ZM130.251 771.68H127.62L126.778 777.627H128.936L130.251 771.68ZM140.038 775.443C144.458 775.443 147.8 771.785 147.8 764.418C147.8 757.05 144.458 753.392 140.038 753.392C135.591 753.392 132.249 757.05 132.249 764.418C132.249 771.785 135.591 775.443 140.038 775.443ZM140.038 772.996C137.169 772.996 134.907 770.154 134.907 764.418C134.907 758.708 137.169 755.84 140.038 755.84C142.879 755.84 145.142 758.708 145.142 764.418C145.142 770.154 142.879 772.996 140.038 772.996ZM158.282 775.443C162.703 775.443 166.044 771.785 166.044 764.418C166.044 757.05 162.703 753.392 158.282 753.392C153.835 753.392 150.493 757.05 150.493 764.418C150.493 771.785 153.835 775.443 158.282 775.443ZM158.282 772.996C155.414 772.996 153.151 770.154 153.151 764.418C153.151 758.708 155.414 755.84 158.282 755.84C161.124 755.84 163.387 758.708 163.387 764.418C163.387 770.154 161.124 772.996 158.282 772.996ZM176.526 775.443C180.947 775.443 184.289 771.785 184.289 764.418C184.289 757.05 180.947 753.392 176.526 753.392C172.079 753.392 168.738 757.05 168.738 764.418C168.738 771.785 172.079 775.443 176.526 775.443ZM176.526 772.996C173.658 772.996 171.395 770.154 171.395 764.418C171.395 758.708 173.658 755.84 176.526 755.84C179.368 755.84 181.631 758.708 181.631 764.418C181.631 770.154 179.368 772.996 176.526 772.996Z" fill="#C7C7C7"/>
<path d="M363.622 735.475C368.325 735.475 372.48 736.6 375.856 738.072C378.972 739.457 380.934 742.573 380.934 745.948V750.622H346.311V745.977C346.311 742.573 348.273 739.457 351.389 738.101C354.765 736.6 358.919 735.475 363.622 735.475ZM340.541 736.196C343.714 736.196 346.311 733.6 346.311 730.426C346.311 727.252 343.714 724.656 340.541 724.656C337.367 724.656 334.77 727.252 334.77 730.426C334.77 733.6 337.367 736.196 340.541 736.196ZM343.801 739.37C342.734 739.197 341.666 739.082 340.541 739.082C337.684 739.082 334.972 739.687 332.52 740.755C330.385 741.678 329 743.756 329 746.093V750.622H341.983V745.977C341.983 743.582 342.647 741.332 343.801 739.37ZM386.704 736.196C389.878 736.196 392.474 733.6 392.474 730.426C392.474 727.252 389.878 724.656 386.704 724.656C383.53 724.656 380.934 727.252 380.934 730.426C380.934 733.6 383.53 736.196 386.704 736.196ZM398.245 746.093C398.245 743.756 396.86 741.678 394.725 740.755C392.272 739.687 389.56 739.082 386.704 739.082C385.579 739.082 384.511 739.197 383.444 739.37C384.598 741.332 385.261 743.582 385.261 745.977V750.622H398.245V746.093ZM363.622 716C368.412 716 372.278 719.866 372.278 724.656C372.278 729.445 368.412 733.311 363.622 733.311C358.833 733.311 354.967 729.445 354.967 724.656C354.967 719.866 358.833 716 363.622 716Z" fill="white"/>
<path d="M315.304 788.947H318.046V771.387H315.304V788.947ZM303.698 785.374C308.324 785.374 311.177 782.466 311.177 778.505C311.177 774.544 308.324 771.636 303.698 771.636C299.073 771.636 296.192 774.544 296.192 778.505C296.192 782.466 299.073 785.374 303.698 785.374ZM303.698 783.048C300.873 783.048 298.934 781.303 298.934 778.505C298.934 775.708 300.873 773.935 303.698 773.935C306.496 773.935 308.435 775.708 308.435 778.505C308.435 781.303 306.496 783.048 303.698 783.048ZM298.27 794.736H318.683V792.243H301.067V787.008H298.27V794.736ZM334.579 779.585H340.756V788.975H343.498V771.387H340.756V777.037H335.438C335.549 776.428 335.604 775.791 335.604 775.126V771.968H321.977V774.378H332.834V775.486C332.834 780.084 328.596 782.743 321.977 782.771V785.236C328.015 785.236 332.613 783.325 334.579 779.585ZM326.159 792.271V787.202H323.362V794.736H343.996V792.271H326.159ZM365.82 771.387V795.041H368.562V771.387H365.82ZM358.535 780.222H350.558V772.079H347.844V793.628H361.25V772.079H358.535V780.222ZM350.558 791.108V782.743H358.535V791.108H350.558ZM382.444 794.459H385.352V772.273H377.846V774.821H382.444V794.459ZM397.35 794.958C402.003 794.958 405.52 791.108 405.52 783.352C405.52 775.597 402.003 771.747 397.35 771.747C392.669 771.747 389.151 775.597 389.151 783.352C389.151 791.108 392.669 794.958 397.35 794.958ZM397.35 792.382C394.33 792.382 391.948 789.39 391.948 783.352C391.948 777.342 394.33 774.323 397.35 774.323C400.341 774.323 402.723 777.342 402.723 783.352C402.723 789.39 400.341 792.382 397.35 792.382ZM412.344 782.272C415.529 782.272 417.828 780.001 417.828 776.982C417.828 773.963 415.529 771.691 412.344 771.691C409.159 771.691 406.86 773.963 406.86 776.982C406.86 780.001 409.159 782.272 412.344 782.272ZM410.377 794.459H413.092L427.744 772.273H425.03L410.377 794.459ZM412.344 779.945C410.571 779.945 409.325 778.699 409.325 776.982C409.325 775.264 410.571 774.046 412.344 774.046C414.117 774.046 415.335 775.264 415.335 776.982C415.335 778.699 414.117 779.945 412.344 779.945ZM425.777 795.013C428.935 795.013 431.262 792.742 431.262 789.723C431.262 786.704 428.935 784.432 425.777 784.432C422.592 784.432 420.293 786.704 420.293 789.723C420.293 792.742 422.592 795.013 425.777 795.013ZM425.777 792.686C424.005 792.686 422.758 791.44 422.758 789.723C422.758 788.005 424.005 786.759 425.777 786.759C427.522 786.759 428.769 788.005 428.769 789.723C428.769 791.44 427.522 792.686 425.777 792.686Z" fill="white"/>
<path d="M306.655 833.121H309.287V828.359H312.734V826.017H309.287V812.045H306.024L296.025 826.017V828.359H306.655V833.121ZM298.867 826.017L306.655 815.071V826.017H298.867ZM317.658 829.832H315.026L314.184 835.779H316.342L317.658 829.832ZM327.688 833.595C332.108 833.595 335.134 830.569 335.134 826.385C335.134 822.175 332.187 819.307 328.188 819.307C325.767 819.307 324.214 820.36 323.425 821.333L323.793 814.439H334.055V812.045H321.267L320.662 824.175H323.372C324.083 822.859 325.425 821.675 327.74 821.675C330.53 821.675 332.424 823.675 332.424 826.385C332.424 829.148 330.608 831.201 327.688 831.201C324.714 831.201 323.057 829.438 322.978 827.175H320.241C320.399 830.832 323.136 833.595 327.688 833.595ZM345.56 833.595C349.98 833.595 353.322 829.938 353.322 822.57C353.322 815.202 349.98 811.545 345.56 811.545C341.113 811.545 337.771 815.202 337.771 822.57C337.771 829.938 341.113 833.595 345.56 833.595ZM345.56 831.148C342.691 831.148 340.429 828.306 340.429 822.57C340.429 816.86 342.691 813.992 345.56 813.992C348.401 813.992 350.664 816.86 350.664 822.57C350.664 828.306 348.401 831.148 345.56 831.148ZM363.804 833.595C368.225 833.595 371.566 829.938 371.566 822.57C371.566 815.202 368.225 811.545 363.804 811.545C359.357 811.545 356.015 815.202 356.015 822.57C356.015 829.938 359.357 833.595 363.804 833.595ZM363.804 831.148C360.936 831.148 358.673 828.306 358.673 822.57C358.673 816.86 360.936 813.992 363.804 813.992C366.646 813.992 368.909 816.86 368.909 822.57C368.909 828.306 366.646 831.148 363.804 831.148ZM376.271 829.832H373.639L372.797 835.779H374.955L376.271 829.832ZM386.057 833.595C390.477 833.595 393.819 829.938 393.819 822.57C393.819 815.202 390.477 811.545 386.057 811.545C381.61 811.545 378.268 815.202 378.268 822.57C378.268 829.938 381.61 833.595 386.057 833.595ZM386.057 831.148C383.189 831.148 380.926 828.306 380.926 822.57C380.926 816.86 383.189 813.992 386.057 813.992C388.899 813.992 391.162 816.86 391.162 822.57C391.162 828.306 388.899 831.148 386.057 831.148ZM404.301 833.595C408.722 833.595 412.064 829.938 412.064 822.57C412.064 815.202 408.722 811.545 404.301 811.545C399.854 811.545 396.513 815.202 396.513 822.57C396.513 829.938 399.854 833.595 404.301 833.595ZM404.301 831.148C401.433 831.148 399.17 828.306 399.17 822.57C399.17 816.86 401.433 813.992 404.301 813.992C407.143 813.992 409.406 816.86 409.406 822.57C409.406 828.306 407.143 831.148 404.301 831.148ZM422.546 833.595C426.966 833.595 430.308 829.938 430.308 822.57C430.308 815.202 426.966 811.545 422.546 811.545C418.099 811.545 414.757 815.202 414.757 822.57C414.757 829.938 418.099 833.595 422.546 833.595ZM422.546 831.148C419.677 831.148 417.415 828.306 417.415 822.57C417.415 816.86 419.677 813.992 422.546 813.992C425.387 813.992 427.65 816.86 427.65 822.57C427.65 828.306 425.387 831.148 422.546 831.148Z" fill="#C7C7C7"/>
<path d="M520.836 656.699V666.227H516.986V656.838H514.382V679.938H516.986V668.803H520.836V680.353H523.44V656.699H520.836ZM509.009 665.59H503.968V657.392H501.42V678.941H511.557V657.392H509.009V665.59ZM503.968 676.448V668.055H509.009V676.448H503.968ZM547.368 660.937V656.699H544.626V668.277H547.368V663.458H550.692V660.937H547.368ZM542.909 666.366V664.095C541.385 664.732 538.671 665.119 535.458 665.119H529.531V659.608H541.219V657.281H526.789V667.418H535.292C538.643 667.418 541.468 667.031 542.909 666.366ZM530.334 675.838H547.368V669.579H527.564V671.739H544.654V673.789H527.619V680.049H547.95V677.888H530.334V675.838ZM562.766 663.402L572.959 669.219L574.233 666.92L564.095 661.297C564.76 659.968 565.259 658.5 565.536 656.976L562.71 656.533C561.686 662.128 556.866 666.67 551.77 666.643V669.246C556.091 669.219 560.134 666.975 562.766 663.402ZM574.842 671.739H551.216V674.287H561.602V680.907H564.4V674.287H574.842V671.739ZM588.024 663.402L598.217 669.219L599.491 666.92L589.353 661.297C590.018 659.968 590.517 658.5 590.794 656.976L587.968 656.533C586.944 662.128 582.124 666.67 577.028 666.643V669.246C581.349 669.219 585.392 666.975 588.024 663.402ZM600.1 671.739H576.474V674.287H586.86V680.907H589.658V674.287H600.1V671.739ZM619.459 676.725V672.127H624.167V669.69H606.053V666.006H623.807V657.558H603.311V659.995H621.093V663.651H603.311V672.127H607.632V676.725H601.732V679.218H625.358V676.725H619.459ZM610.374 672.127H616.716V676.725H610.374V672.127ZM637.689 679.772H640.597V657.586H633.091V660.134H637.689V679.772ZM652.013 680.27C656.666 680.27 659.851 677.085 659.851 672.681C659.851 668.249 656.749 665.23 652.539 665.23C649.991 665.23 648.357 666.338 647.526 667.363L647.914 660.106H658.716V657.586H645.255L644.617 670.354H647.47C648.218 668.969 649.631 667.723 652.068 667.723C655.004 667.723 656.998 669.828 656.998 672.681C656.998 675.589 655.087 677.75 652.013 677.75C648.883 677.75 647.138 675.894 647.055 673.512H644.174C644.341 677.362 647.221 680.27 652.013 680.27ZM666.615 667.585C669.8 667.585 672.099 665.313 672.099 662.294C672.099 659.275 669.8 657.004 666.615 657.004C663.43 657.004 661.131 659.275 661.131 662.294C661.131 665.313 663.43 667.585 666.615 667.585ZM664.649 679.772H667.363L682.015 657.586H679.301L664.649 679.772ZM666.615 665.258C664.843 665.258 663.596 664.011 663.596 662.294C663.596 660.577 664.843 659.358 666.615 659.358C668.388 659.358 669.607 660.577 669.607 662.294C669.607 664.011 668.388 665.258 666.615 665.258ZM680.049 680.326C683.206 680.326 685.533 678.054 685.533 675.035C685.533 672.016 683.206 669.745 680.049 669.745C676.863 669.745 674.565 672.016 674.565 675.035C674.565 678.054 676.863 680.326 680.049 680.326ZM680.049 677.999C678.276 677.999 677.03 676.753 677.03 675.035C677.03 673.318 678.276 672.072 680.049 672.072C681.794 672.072 683.04 673.318 683.04 675.035C683.04 676.753 681.794 677.999 680.049 677.999Z" fill="white"/>
<path d="M533.093 705.093L538.408 697.357H535.251L529.541 705.909C528.225 707.856 527.488 709.54 527.488 711.698C527.488 716.092 530.883 718.908 535.145 718.908C539.382 718.908 542.776 716.092 542.776 711.698C542.776 707.409 539.461 704.593 535.356 704.593C534.435 704.593 533.593 704.856 533.093 705.093ZM535.145 716.513C532.093 716.513 530.198 714.408 530.198 711.724C530.198 709.04 532.093 706.909 535.145 706.909C538.171 706.909 540.066 709.014 540.066 711.724C540.066 714.408 538.171 716.513 535.145 716.513ZM547.697 715.145H545.066L544.224 721.092H546.382L547.697 715.145ZM552.702 718.434H555.622L564.463 699.199V697.357H550.018V699.778H561.28L552.702 718.434ZM573.916 718.908C578.337 718.908 581.363 715.882 581.363 711.698C581.363 707.488 578.416 704.62 574.416 704.62C571.995 704.62 570.443 705.672 569.653 706.646L570.022 699.752H580.284V697.357H567.496L566.89 709.488H569.601C570.311 708.172 571.653 706.988 573.969 706.988C576.758 706.988 578.652 708.988 578.652 711.698C578.652 714.461 576.837 716.513 573.916 716.513C570.943 716.513 569.285 714.75 569.206 712.487H566.469C566.627 716.145 569.364 718.908 573.916 718.908ZM591.788 718.908C596.208 718.908 599.55 715.25 599.55 707.882C599.55 700.515 596.208 696.857 591.788 696.857C587.341 696.857 583.999 700.515 583.999 707.882C583.999 715.25 587.341 718.908 591.788 718.908ZM591.788 716.461C588.92 716.461 586.657 713.619 586.657 707.882C586.657 702.173 588.92 699.304 591.788 699.304C594.63 699.304 596.893 702.173 596.893 707.882C596.893 713.619 594.63 716.461 591.788 716.461ZM604.255 715.145H601.623L600.781 721.092H602.939L604.255 715.145ZM614.041 718.908C618.461 718.908 621.803 715.25 621.803 707.882C621.803 700.515 618.461 696.857 614.041 696.857C609.594 696.857 606.252 700.515 606.252 707.882C606.252 715.25 609.594 718.908 614.041 718.908ZM614.041 716.461C611.173 716.461 608.91 713.619 608.91 707.882C608.91 702.173 611.173 699.304 614.041 699.304C616.883 699.304 619.146 702.173 619.146 707.882C619.146 713.619 616.883 716.461 614.041 716.461ZM632.285 718.908C636.706 718.908 640.048 715.25 640.048 707.882C640.048 700.515 636.706 696.857 632.285 696.857C627.838 696.857 624.497 700.515 624.497 707.882C624.497 715.25 627.838 718.908 632.285 718.908ZM632.285 716.461C629.417 716.461 627.154 713.619 627.154 707.882C627.154 702.173 629.417 699.304 632.285 699.304C635.127 699.304 637.39 702.173 637.39 707.882C637.39 713.619 635.127 716.461 632.285 716.461ZM650.53 718.908C654.95 718.908 658.292 715.25 658.292 707.882C658.292 700.515 654.95 696.857 650.53 696.857C646.083 696.857 642.741 700.515 642.741 707.882C642.741 715.25 646.083 718.908 650.53 718.908ZM650.53 716.461C647.661 716.461 645.398 713.619 645.398 707.882C645.398 702.173 647.661 699.304 650.53 699.304C653.371 699.304 655.634 702.173 655.634 707.882C655.634 713.619 653.371 716.461 650.53 716.461Z" fill="#C7C7C7"/>
<path d="M568.638 603.157C570.507 603.144 572.289 603.447 573.958 604.028L578.086 597.098H567.747C566.078 597.098 564.735 595.747 564.735 594.069V590.029C564.735 588.351 566.078 587 567.747 587H573.431C574.284 587 575.1 587.366 575.665 587.997L580.37 593.261L583.231 588.464C583.783 587.555 584.762 587 585.816 587H595.854C596.958 587 597.862 587.909 597.862 589.02V591.039C597.862 592.15 596.958 593.059 595.854 593.059H587.522L585.113 597.098H604.399C606.62 594.182 610.033 592.049 616.935 592.049H623.899C625.593 592.049 627.011 593.437 626.973 595.142C626.948 596.782 625.605 598.108 623.961 598.108H616.935C613.86 598.108 612.079 599.484 610.937 601.238L612.355 603.826C613.986 603.334 615.73 603.106 617.537 603.169C625.982 603.472 632.795 610.427 632.996 618.935C633.197 628.036 625.931 635.47 616.935 635.47C609.456 635.47 603.17 630.32 601.375 623.353H590.81C589.091 623.353 587.723 621.914 587.798 620.185C588.062 614.239 585.602 608.357 580.746 604.406L579.178 607.032C582.641 610.023 584.837 614.467 584.799 619.427C584.737 628.213 577.622 635.395 568.889 635.47C559.904 635.559 552.601 628.213 552.677 619.175C552.765 610.39 559.904 603.22 568.638 603.157ZM616.935 629.412C622.468 629.412 626.973 624.88 626.973 619.314C626.973 613.747 622.468 609.216 616.935 609.216C616.408 609.216 615.881 609.254 615.366 609.342L620.574 618.859C621.678 620.879 620.222 623.353 617.938 623.353H607.737C609.293 626.912 612.831 629.412 616.935 629.412ZM558.725 619.869C559.001 624.994 563.117 629.134 568.199 629.399C573.983 629.715 578.789 625.07 578.789 619.314C578.789 616.612 577.735 614.164 576.016 612.359L569.817 622.76C569.253 623.719 568.01 624.022 567.057 623.454L565.338 622.419C564.384 621.851 564.083 620.601 564.647 619.642L570.746 609.43C570.093 609.291 569.428 609.228 568.751 609.228C563.029 609.216 558.424 614.05 558.725 619.869Z" fill="white"/>
<path d="M436.5 354.5L462.865 334.105C462.952 334.037 463.06 334 463.171 334H615.5" stroke="white" stroke-width="3" stroke-linecap="round"/>
<defs>
<filter id="filter0_d_186_105" x="80.9048" y="213.628" width="231.944" height="417.546" filterUnits="userSpaceOnUse" color-interpolation-filters="sRGB">
<feFlood flood-opacity="0" result="BackgroundImageFix"/>
<feColorMatrix in="SourceAlpha" type="matrix" values="0 0 0 0 0 0 0 0 0 0 0 0 0 0 0 0 0 0 127 0" result="hardAlpha"/>
<feOffset dy="4.27667"/>
<feGaussianBlur stdDeviation="3.86011"/>
<feComposite in2="hardAlpha" operator="out"/>
<feColorMatrix type="matrix" values="0 0 0 0 0.670833 0 0 0 0 0.670833 0 0 0 0 0.670833 0 0 0 0.25 0"/>
<feBlend mode="normal" in2="BackgroundImageFix" result="effect1_dropShadow_186_105"/>
<feBlend mode="normal" in="SourceGraphic" in2="effect1_dropShadow_186_105" result="shape"/>
</filter>
<filter id="filter1_d_186_105" x="56.8853" y="185.686" width="256.604" height="463.544" filterUnits="userSpaceOnUse" color-interpolation-filters="sRGB">
<feFlood flood-opacity="0" result="BackgroundImageFix"/>
<feColorMatrix in="SourceAlpha" type="matrix" values="0 0 0 0 0 0 0 0 0 0 0 0 0 0 0 0 0 0 127 0" result="hardAlpha"/>
<feOffset dy="4.27667"/>
<feGaussianBlur stdDeviation="3.86011"/>
<feComposite in2="hardAlpha" operator="out"/>
<feColorMatrix type="matrix" values="0 0 0 0 0.670833 0 0 0 0 0.670833 0 0 0 0 0.670833 0 0 0 0.25 0"/>
<feBlend mode="normal" in2="BackgroundImageFix" result="effect1_dropShadow_186_105"/>
<feBlend mode="normal" in="SourceGraphic" in2="effect1_dropShadow_186_105" result="shape"/>
</filter>
<filter id="filter2_d_186_105" x="310.472" y="214.398" width="236.821" height="315.274" filterUnits="userSpaceOnUse" color-interpolation-filters="sRGB">
<feFlood flood-opacity="0" result="BackgroundImageFix"/>
<feColorMatrix in="SourceAlpha" type="matrix" values="0 0 0 0 0 0 0 0 0 0 0 0 0 0 0 0 0 0 127 0" result="hardAlpha"/>
<feOffset dy="4.27667"/>
<feGaussianBlur stdDeviation="5.34584"/>
<feComposite in2="hardAlpha" operator="out"/>
<feColorMatrix type="matrix" values="0 0 0 0 1 0 0 0 0 1 0 0 0 0 1 0 0 0 0.25 0"/>
<feBlend mode="normal" in2="BackgroundImageFix" result="effect1_dropShadow_186_105"/>
<feBlend mode="normal" in="SourceGraphic" in2="effect1_dropShadow_186_105" result="shape"/>
</filter>
<filter id="filter3_d_186_105" x="303.133" y="183.108" width="271.372" height="362.524" filterUnits="userSpaceOnUse" color-interpolation-filters="sRGB">
<feFlood flood-opacity="0" result="BackgroundImageFix"/>
<feColorMatrix in="SourceAlpha" type="matrix" values="0 0 0 0 0 0 0 0 0 0 0 0 0 0 0 0 0 0 127 0" result="hardAlpha"/>
<feOffset dy="4.27667"/>
<feGaussianBlur stdDeviation="5.34584"/>
<feComposite in2="hardAlpha" operator="out"/>
<feColorMatrix type="matrix" values="0 0 0 0 1 0 0 0 0 1 0 0 0 0 1 0 0 0 0.25 0"/>
<feBlend mode="normal" in2="BackgroundImageFix" result="effect1_dropShadow_186_105"/>
<feBlend mode="normal" in="SourceGraphic" in2="effect1_dropShadow_186_105" result="shape"/>
</filter>
<filter id="filter4_d_186_105" x="318.551" y="454.263" width="236.758" height="226.488" filterUnits="userSpaceOnUse" color-interpolation-filters="sRGB">
<feFlood flood-opacity="0" result="BackgroundImageFix"/>
<feColorMatrix in="SourceAlpha" type="matrix" values="0 0 0 0 0 0 0 0 0 0 0 0 0 0 0 0 0 0 127 0" result="hardAlpha"/>
<feOffset dy="4.27667"/>
<feGaussianBlur stdDeviation="5.34584"/>
<feComposite in2="hardAlpha" operator="out"/>
<feColorMatrix type="matrix" values="0 0 0 0 1 0 0 0 0 1 0 0 0 0 1 0 0 0 0.25 0"/>
<feBlend mode="normal" in2="BackgroundImageFix" result="effect1_dropShadow_186_105"/>
<feBlend mode="normal" in="SourceGraphic" in2="effect1_dropShadow_186_105" result="shape"/>
</filter>
<filter id="filter5_d_186_105" x="331.523" y="458.578" width="236.758" height="226.488" filterUnits="userSpaceOnUse" color-interpolation-filters="sRGB">
<feFlood flood-opacity="0" result="BackgroundImageFix"/>
<feColorMatrix in="SourceAlpha" type="matrix" values="0 0 0 0 0 0 0 0 0 0 0 0 0 0 0 0 0 0 127 0" result="hardAlpha"/>
<feOffset dy="4.27667"/>
<feGaussianBlur stdDeviation="5.34584"/>
<feComposite in2="hardAlpha" operator="out"/>
<feColorMatrix type="matrix" values="0 0 0 0 1 0 0 0 0 1 0 0 0 0 1 0 0 0 0.25 0"/>
<feBlend mode="normal" in2="BackgroundImageFix" result="effect1_dropShadow_186_105"/>
<feBlend mode="normal" in="SourceGraphic" in2="effect1_dropShadow_186_105" result="shape"/>
</filter>
<filter id="filter6_d_186_105" x="246.492" y="464.374" width="208.493" height="226.877" filterUnits="userSpaceOnUse" color-interpolation-filters="sRGB">
<feFlood flood-opacity="0" result="BackgroundImageFix"/>
<feColorMatrix in="SourceAlpha" type="matrix" values="0 0 0 0 0 0 0 0 0 0 0 0 0 0 0 0 0 0 127 0" result="hardAlpha"/>
<feOffset dy="4.27667"/>
<feGaussianBlur stdDeviation="5.34584"/>
<feComposite in2="hardAlpha" operator="out"/>
<feColorMatrix type="matrix" values="0 0 0 0 1 0 0 0 0 1 0 0 0 0 1 0 0 0 0.25 0"/>
<feBlend mode="normal" in2="BackgroundImageFix" result="effect1_dropShadow_186_105"/>
<feBlend mode="normal" in="SourceGraphic" in2="effect1_dropShadow_186_105" result="shape"/>
</filter>
<filter id="filter7_d_186_105" x="248.492" y="480.681" width="208.493" height="226.877" filterUnits="userSpaceOnUse" color-interpolation-filters="sRGB">
<feFlood flood-opacity="0" result="BackgroundImageFix"/>
<feColorMatrix in="SourceAlpha" type="matrix" values="0 0 0 0 0 0 0 0 0 0 0 0 0 0 0 0 0 0 127 0" result="hardAlpha"/>
<feOffset dy="4.27667"/>
<feGaussianBlur stdDeviation="5.34584"/>
<feComposite in2="hardAlpha" operator="out"/>
<feColorMatrix type="matrix" values="0 0 0 0 1 0 0 0 0 1 0 0 0 0 1 0 0 0 0.25 0"/>
<feBlend mode="normal" in2="BackgroundImageFix" result="effect1_dropShadow_186_105"/>
<feBlend mode="normal" in="SourceGraphic" in2="effect1_dropShadow_186_105" result="shape"/>
</filter>
<filter id="filter8_d_186_105" x="138.683" y="454.386" width="176.567" height="226.707" filterUnits="userSpaceOnUse" color-interpolation-filters="sRGB">
<feFlood flood-opacity="0" result="BackgroundImageFix"/>
<feColorMatrix in="SourceAlpha" type="matrix" values="0 0 0 0 0 0 0 0 0 0 0 0 0 0 0 0 0 0 127 0" result="hardAlpha"/>
<feOffset dy="4.27667"/>
<feGaussianBlur stdDeviation="5.34584"/>
<feComposite in2="hardAlpha" operator="out"/>
<feColorMatrix type="matrix" values="0 0 0 0 1 0 0 0 0 1 0 0 0 0 1 0 0 0 0.25 0"/>
<feBlend mode="normal" in2="BackgroundImageFix" result="effect1_dropShadow_186_105"/>
<feBlend mode="normal" in="SourceGraphic" in2="effect1_dropShadow_186_105" result="shape"/>
</filter>
<filter id="filter9_d_186_105" x="118.324" y="450.182" width="185.481" height="236.201" filterUnits="userSpaceOnUse" color-interpolation-filters="sRGB">
<feFlood flood-opacity="0" result="BackgroundImageFix"/>
<feColorMatrix in="SourceAlpha" type="matrix" values="0 0 0 0 0 0 0 0 0 0 0 0 0 0 0 0 0 0 127 0" result="hardAlpha"/>
<feOffset dy="4.27667"/>
<feGaussianBlur stdDeviation="5.34584"/>
<feComposite in2="hardAlpha" operator="out"/>
<feColorMatrix type="matrix" values="0 0 0 0 1 0 0 0 0 1 0 0 0 0 1 0 0 0 0.25 0"/>
<feBlend mode="normal" in2="BackgroundImageFix" result="effect1_dropShadow_186_105"/>
<feBlend mode="normal" in="SourceGraphic" in2="effect1_dropShadow_186_105" result="shape"/>
</filter>
<filter id="filter10_d_186_105" x="215.851" y="351.789" width="192.45" height="192.45" filterUnits="userSpaceOnUse" color-interpolation-filters="sRGB">
<feFlood flood-opacity="0" result="BackgroundImageFix"/>
<feColorMatrix in="SourceAlpha" type="matrix" values="0 0 0 0 0 0 0 0 0 0 0 0 0 0 0 0 0 0 127 0" result="hardAlpha"/>
<feOffset dy="4.27667"/>
<feGaussianBlur stdDeviation="5.34584"/>
<feComposite in2="hardAlpha" operator="out"/>
<feColorMatrix type="matrix" values="0 0 0 0 0 0 0 0 0 0 0 0 0 0 0 0 0 0 0.25 0"/>
<feBlend mode="normal" in2="BackgroundImageFix" result="effect1_dropShadow_186_105"/>
<feBlend mode="normal" in="SourceGraphic" in2="effect1_dropShadow_186_105" result="shape"/>
</filter>
</defs>
</svg>
