<svg width="1245" height="870" viewBox="0 0 1245 870" fill="none" xmlns="http://www.w3.org/2000/svg">
<path d="M84.5983 36.13L92.1583 40.63L93.5683 38.38L85.7683 33.85C86.0683 33.07 86.2783 32.23 86.3983 31.39H93.1183V28.9H86.4283V26.05H83.4283V28.9H76.6483V31.39H83.3683C82.7683 35.05 80.2783 37.81 76.3783 38.38V40.96C79.9483 40.57 82.8283 38.74 84.5983 36.13ZM99.2083 32.17V26.5H96.2383V41.71H99.2083V35.02H102.808V32.17H99.2083ZM88.6183 42.46C82.4983 42.46 77.6383 43.72 77.6383 47.29C77.6383 50.86 82.4983 52.12 88.6183 52.12C94.7683 52.12 99.5983 50.86 99.5983 47.29C99.5983 43.72 94.7683 42.46 88.6183 42.46ZM88.6183 49.75C84.2383 49.75 80.7883 49.06 80.7883 47.29C80.7883 45.52 84.2383 44.83 88.6183 44.83C92.9983 44.83 96.4483 45.52 96.4483 47.29C96.4483 49.06 92.9983 49.75 88.6183 49.75ZM124.226 26.5V31.63H118.946C118.226 28.72 115.376 26.8 111.236 26.8C106.376 26.8 103.316 29.41 103.316 33.13C103.316 36.85 106.376 39.46 111.236 39.46C115.496 39.46 118.376 37.42 119.006 34.39H124.226V39.64H127.196V26.5H124.226ZM111.236 37C108.296 37 106.286 35.53 106.286 33.13C106.286 30.73 108.296 29.26 111.236 29.26C114.176 29.26 116.156 30.73 116.156 33.13C116.156 35.53 114.176 37 111.236 37ZM124.256 43.75H108.596V41.05H105.686V51.79H127.196V41.05H124.256V43.75ZM108.596 49.36V46.12H124.256V49.36H108.596ZM157.891 40.66H160.861V26.5H157.891V29.26H153.421V31.87H157.891V35.26H152.431V37.87H157.891V40.66ZM152.161 29.92V27.13H137.551V29.65H149.161V30.43C149.161 35.02 144.721 37.24 137.551 37.27V39.85C146.401 39.85 152.161 36.88 152.161 29.92ZM150.061 41.5C143.941 41.5 138.901 42.91 138.901 46.81C138.901 50.68 143.941 52.12 150.061 52.12C156.181 52.12 161.221 50.68 161.221 46.81C161.221 42.91 156.181 41.5 150.061 41.5ZM150.061 49.66C145.741 49.66 142.051 48.82 142.051 46.81C142.051 44.8 145.741 43.96 150.061 43.96C154.411 43.96 158.071 44.8 158.071 46.81C158.071 48.82 154.411 49.66 150.061 49.66ZM181.259 28.66H174.059V26.05H171.059V28.66H163.859V30.97H181.259V28.66ZM184.949 26.5V34.27H180.929V36.91H184.949V41.74H187.919V26.5H184.949ZM172.559 41.56C176.729 41.56 179.999 39.91 179.999 36.97C179.999 34.06 176.729 32.38 172.559 32.38C168.389 32.38 165.089 34.06 165.089 36.97C165.089 39.91 168.389 41.56 172.559 41.56ZM172.559 34.6C175.409 34.6 177.179 35.62 177.179 36.97C177.179 38.32 175.409 39.37 172.559 39.37C169.709 39.37 167.909 38.32 167.909 36.97C167.909 35.62 169.709 34.6 172.559 34.6ZM166.109 51.79H187.829V43.18H166.109V51.79ZM169.049 45.55H184.889V49.42H169.049V45.55ZM211.796 52.12H214.796V26.5H211.796V52.12ZM199.706 50.92C204.236 50.92 207.446 47.14 207.446 39.01C207.446 30.88 204.236 27.1 199.706 27.1C195.146 27.1 191.936 30.88 191.936 39.01C191.936 47.14 195.146 50.92 199.706 50.92ZM199.706 48.19C196.976 48.19 194.906 45.52 194.906 39.01C194.906 32.53 196.976 29.83 199.706 29.83C202.376 29.83 204.476 32.53 204.476 39.01C204.476 45.52 202.376 48.19 199.706 48.19ZM240.452 34.39H245.672V39.82H248.642V26.5H245.672V31.63H240.392C239.672 28.75 236.822 26.8 232.682 26.8C227.822 26.8 224.762 29.44 224.762 33.13C224.762 36.85 227.822 39.46 232.682 39.46C236.942 39.46 239.822 37.42 240.452 34.39ZM227.732 33.13C227.732 30.73 229.742 29.26 232.682 29.26C235.622 29.26 237.602 30.73 237.602 33.13C237.602 35.53 235.622 37 232.682 37C229.742 37 227.732 35.53 227.732 33.13ZM251.282 49.84L245.912 45.22C246.332 43.99 246.632 42.58 246.722 41.05L243.872 40.84C243.542 45.79 241.202 48.85 238.562 49.18V51.79C241.112 51.61 243.362 50.11 244.832 47.62L249.452 51.82L251.282 49.84ZM234.812 43.93H229.472V40.93H226.802V51.79H237.512V40.93H234.812V43.93ZM229.472 49.42V46.24H234.812V49.42H229.472ZM253.409 36.43H275.579V33.79H256.409V26.5H253.409V36.43ZM251.579 41.89H277.169V39.25H251.579V41.89ZM253.349 51.82H275.849V49.18H256.379V44.17H253.349V51.82ZM293.825 36.13L301.385 40.63L302.795 38.38L294.995 33.85C295.295 33.07 295.505 32.23 295.625 31.39H302.345V28.9H295.655V26.05H292.655V28.9H285.875V31.39H292.595C291.995 35.05 289.505 37.81 285.605 38.38V40.96C289.175 40.57 292.055 38.74 293.825 36.13ZM308.435 32.17V26.5H305.465V41.71H308.435V35.02H312.035V32.17H308.435ZM297.845 42.46C291.725 42.46 286.865 43.72 286.865 47.29C286.865 50.86 291.725 52.12 297.845 52.12C303.995 52.12 308.825 50.86 308.825 47.29C308.825 43.72 303.995 42.46 297.845 42.46ZM297.845 49.75C293.465 49.75 290.015 49.06 290.015 47.29C290.015 45.52 293.465 44.83 297.845 44.83C302.225 44.83 305.675 45.52 305.675 47.29C305.675 49.06 302.225 49.75 297.845 49.75ZM333.452 26.5V31.63H328.172C327.452 28.72 324.602 26.8 320.462 26.8C315.602 26.8 312.542 29.41 312.542 33.13C312.542 36.85 315.602 39.46 320.462 39.46C324.722 39.46 327.602 37.42 328.232 34.39H333.452V39.64H336.422V26.5H333.452ZM320.462 37C317.522 37 315.512 35.53 315.512 33.13C315.512 30.73 317.522 29.26 320.462 29.26C323.402 29.26 325.382 30.73 325.382 33.13C325.382 35.53 323.402 37 320.462 37ZM333.482 43.75H317.822V41.05H314.912V51.79H336.422V41.05H333.482V43.75ZM317.822 49.36V46.12H333.482V49.36H317.822ZM358.358 37.18L369.548 42.97L370.838 40.54L359.648 34.9C359.978 34.03 360.218 33.13 360.368 32.17H370.148V29.44H360.218V26.17H357.158V29.44H347.348V32.17H357.218C356.348 36.7 352.058 39.7 346.688 40.12V42.85C351.698 42.55 355.958 40.51 358.358 37.18ZM360.218 48.13V42.25H357.248V48.13H345.968V50.89H371.558V48.13H360.218ZM387.305 48.1V42.34H396.905V27.25H393.965V31.84H377.645V27.25H374.705V42.34H384.275V48.1H373.025V50.89H398.615V48.1H387.305ZM377.645 34.51H393.965V39.67H377.645V34.51ZM426.873 36.88H423.273V26.5H420.303V52.12H423.273V39.73H426.873V36.88ZM410.643 30.16H417.093V27.43H400.983V30.16H407.643C407.553 39.67 404.913 46.81 400.383 47.65V50.59C404.253 50.14 407.253 46.96 408.993 41.65L415.743 50.38L418.083 48.61L409.863 38.29C410.343 35.89 410.613 33.16 410.643 30.16ZM441.42 48.13V41.92H451.35V39.16H431.85V30.19H451.05V27.43H428.82V41.92H438.39V48.13H427.14V50.89H452.73V48.13H441.42ZM684.364 52.12H687.364V26.5H684.364V52.12ZM672.274 50.92C676.804 50.92 680.014 47.14 680.014 39.01C680.014 30.88 676.804 27.1 672.274 27.1C667.714 27.1 664.504 30.88 664.504 39.01C664.504 47.14 667.714 50.92 672.274 50.92ZM672.274 48.19C669.544 48.19 667.474 45.52 667.474 39.01C667.474 32.53 669.544 29.83 672.274 29.83C674.944 29.83 677.044 32.53 677.044 39.01C677.044 45.52 674.944 48.19 672.274 48.19ZM29.0407 69.5H26.0707V83.24H29.0407V69.5ZM23.9407 81.89V79.58C22.1707 80.33 19.0507 80.6 15.5407 80.6H15.4207V78.05H21.6907V75.83H9.45072V72.2H21.3907V69.98H6.57072V78.05H12.4807V80.6H5.07072V82.88H15.4507C19.1107 82.88 22.3207 82.61 23.9407 81.89ZM10.2607 92.57V90.77H29.0407V84.62H7.29072V86.84H26.1307V88.64H7.35072V94.79H29.7007V92.57H10.2607ZM51.2463 76.76L62.2863 83.06L63.6663 80.57L52.6863 74.48C53.4063 73.04 53.9463 71.45 54.2463 69.8L51.1863 69.32C50.0763 75.38 44.8563 80.3 39.3363 80.27V83.09C44.0163 83.06 48.3963 80.63 51.2463 76.76ZM64.3263 85.79H38.7363V88.55H49.9863V95.72H53.0163V88.55H64.3263V85.79ZM96.312 69.5H93.342V83.75H96.312V69.5ZM88.812 76.43C88.812 72.5 85.692 69.77 80.802 69.77C75.882 69.77 72.762 72.5 72.762 76.43C72.762 80.39 75.882 83.09 80.802 83.09C85.692 83.09 88.812 80.39 88.812 76.43ZM75.732 76.43C75.732 73.79 77.802 72.23 80.802 72.23C83.772 72.23 85.842 73.79 85.842 76.43C85.842 79.07 83.772 80.63 80.802 80.63C77.802 80.63 75.732 79.07 75.732 76.43ZM98.382 92.81L92.862 88.52C93.282 87.41 93.552 86.24 93.672 84.95L90.792 84.53C90.522 88.13 88.512 91.19 86.112 91.94L82.182 88.7C82.662 87.56 82.992 86.3 83.142 84.92L80.262 84.53C79.932 88.49 77.442 91.82 74.622 92.09V94.79C77.082 94.61 79.362 93.2 80.952 90.95L85.302 94.79C87.822 94.64 90.132 93.17 91.692 90.8L96.612 94.91L98.382 92.81ZM113.739 91.13V84.92H123.669V82.16H104.169V73.19H123.369V70.43H101.139V84.92H110.709V91.13H99.4594V93.89H125.049V91.13H113.739ZM140.767 83.63V81.11H150.637V78.8H131.287V76.49H150.277V69.8H128.377V72.11H147.367V74.3H128.377V81.11H137.827V83.63H126.517V86H152.107V83.63H140.767ZM128.077 90.62H147.307V95.15H150.307V88.22H128.077V90.62ZM477.371 79.88H473.921V69.5H471.041V95.12H473.921V82.73H477.371V79.88ZM451.151 73.13H455.621V76.49C455.621 84.26 454.541 89.42 451.151 89.87V92.63C456.611 92.39 458.501 85.85 458.501 76.22V70.43H451.151V73.13ZM459.821 73.13H464.231V76.88C464.231 85.4 462.611 90.35 459.011 90.77V93.53C464.651 93.26 467.111 86.9 467.111 76.61V70.43H459.821V73.13ZM498.579 69.5V95.12H501.549V69.5H498.579ZM488.589 73.16H495.159V70.43H478.809V73.16H485.589C485.469 82.67 482.769 89.81 478.209 90.65V93.59C482.079 93.14 485.139 89.96 486.909 84.59L493.809 93.38L496.149 91.61L487.779 81.26C488.259 78.86 488.559 76.13 488.589 73.16ZM532.424 69.5V75.41H527.474V77.99H532.424V85.1H535.394V69.5H532.424ZM520.304 78.98L527.654 84.14L529.244 81.95L521.384 76.52C521.744 75.35 521.984 74.06 522.044 72.71H528.494V70.16H512.144V72.71H519.044C518.744 77.57 516.104 81.02 511.814 81.65V84.35C515.564 83.96 518.534 81.98 520.304 78.98ZM513.374 89.09H532.364V95.12H535.394V86.51H513.374V89.09ZM559.062 78.89H562.062V69.8H540.132V72.38H559.062V78.89ZM538.362 83.06H563.952V80.45H538.362V83.06ZM559.152 95.15H562.152V86.24H539.922V88.82H559.152V95.15ZM592.967 69.5V95.12H595.937V69.5H592.967ZM582.977 73.16H589.547V70.43H573.197V73.16H579.977C579.857 82.67 577.157 89.81 572.597 90.65V93.59C576.467 93.14 579.527 89.96 581.297 84.59L588.197 93.38L590.537 91.61L582.167 81.26C582.647 78.86 582.947 76.13 582.977 73.16ZM612.465 85.58V87.98H620.235V89.57H623.205V69.5H620.235V85.58H612.465ZM608.205 79.55C612.675 79.55 615.795 77.78 615.795 74.54C615.795 71.33 612.675 69.56 608.205 69.56C603.765 69.56 600.615 71.33 600.615 74.54C600.615 77.78 603.765 79.55 608.205 79.55ZM608.205 71.9C610.905 71.9 612.885 72.77 612.885 74.54C612.885 76.31 610.905 77.21 608.205 77.21C605.505 77.21 603.525 76.31 603.525 74.54C603.525 72.77 605.505 71.9 608.205 71.9ZM606.165 88.4H609.135V83.81H609.585C613.245 83.81 616.455 83.51 618.075 82.79V80.33C616.305 81.08 613.185 81.35 609.675 81.35H599.085V83.81H606.165V88.4ZM604.425 92.27V87.02H601.455V94.79H623.865V92.27H604.425ZM633.882 69.44H630.942V73.49H625.572V76.16H639.252V73.49H633.882V69.44ZM648.012 69.5V79.82H643.902V69.65H641.142V94.67H643.902V82.61H648.012V95.12H650.772V69.5H648.012ZM632.532 78.17C629.112 78.17 626.592 80.93 626.592 86.03C626.592 91.13 629.112 93.89 632.532 93.89C635.982 93.89 638.502 91.13 638.502 86.03C638.502 80.93 635.982 78.17 632.532 78.17ZM632.532 91.28C630.702 91.28 629.352 89.39 629.352 86.03C629.352 82.67 630.702 80.78 632.532 80.78C634.392 80.78 635.772 82.67 635.772 86.03C635.772 89.39 634.392 91.28 632.532 91.28ZM654.88 85.55H677.41V82.79H657.91V73.19H677.11V70.43H654.88V85.55ZM653.2 93.89H678.79V91.1H653.2V93.89ZM701.197 69.5V83.66H704.167V69.5H701.197ZM681.427 75.53V83.3H690.997C694.627 83.3 697.627 82.85 699.187 82.16V79.73C697.537 80.48 694.597 80.9 691.117 80.9H684.367V77.87H696.577V70.13H681.367V72.53H693.637V75.53H681.427ZM701.227 87.41H685.387V85.07H682.447V94.79H704.167V85.07H701.227V87.41ZM685.387 92.39V89.75H701.227V92.39H685.387ZM728.254 95.15L731.224 95.12V69.5H728.254V95.15ZM708.784 93.59H719.254C721.714 93.59 724.324 93.11 725.884 92.33V89.6C724.324 90.35 721.684 90.86 719.254 90.86H711.814V70.28H708.784V93.59ZM761.162 79.88H757.562V69.5H754.592V95.12H757.562V82.73H761.162V79.88ZM738.602 90.89V73.13H750.362V70.43H735.572V93.59H745.592C748.052 93.59 750.812 93.14 752.372 92.36V89.66C750.812 90.41 748.172 90.89 745.742 90.89H738.602Z" fill="white"/>
<path d="M487.596 36.88H484.626V26.5H481.836V52.12H484.626V39.73H487.596V36.88ZM467.136 36.22H464.166V27.25H461.466V50.59H469.716V27.25H467.136V36.22ZM476.766 36.22H473.796V27.25H471.216V50.59H479.436V27.25H476.766V36.22ZM464.166 47.98V38.8H467.136V47.98H464.166ZM473.796 47.98V38.8H476.766V47.98H473.796ZM489.573 43.81H512.163V41.14H492.513V36.88H511.773V27.43H489.573V30.1H508.833V34.27H489.573V43.81ZM487.863 50.89H513.453V48.16H487.863V50.89ZM535.711 44.32H538.801V27.4H516.481V30.19H535.711V44.32ZM527.521 48.1V36.67H524.461V48.1H514.921V50.89H540.511V48.1H527.521ZM569.616 26.5V52.12H572.586V26.5H569.616ZM557.406 34.81L564.786 39.82L566.406 37.57L558.606 32.38C559.206 30.73 559.536 28.9 559.566 27.04L556.596 26.86C556.446 31.84 553.956 36.55 549.246 37.27V40C552.906 39.64 555.666 37.66 557.406 34.81ZM548.586 42.49V45.19H555.876V52.12H558.846V45.19H559.086C562.596 45.19 565.626 44.89 567.456 44.2V41.5C565.626 42.22 562.506 42.49 559.056 42.49H548.586ZM588.424 37.42C594.634 37.42 599.794 35.68 599.794 31.87C599.794 28.09 594.634 26.35 588.424 26.35C582.214 26.35 577.054 28.09 577.054 31.87C577.054 35.68 582.214 37.42 588.424 37.42ZM588.424 28.75C592.894 28.75 596.644 29.8 596.644 31.87C596.644 33.97 592.894 35.02 588.424 35.02C583.954 35.02 580.204 33.97 580.204 31.87C580.204 29.8 583.954 28.75 588.424 28.75ZM575.644 39.64V42.16H586.924V46.57H589.924V42.16H601.234V39.64H575.644ZM580.444 44.53H577.414V51.82H599.914V49.27H580.444V44.53ZM617.889 36.13L625.449 40.63L626.859 38.38L619.059 33.85C619.359 33.07 619.569 32.23 619.689 31.39H626.409V28.9H619.719V26.05H616.719V28.9H609.939V31.39H616.659C616.059 35.05 613.569 37.81 609.669 38.38V40.96C613.239 40.57 616.119 38.74 617.889 36.13ZM632.499 32.17V26.5H629.529V41.71H632.499V35.02H636.099V32.17H632.499ZM621.909 42.46C615.789 42.46 610.929 43.72 610.929 47.29C610.929 50.86 615.789 52.12 621.909 52.12C628.059 52.12 632.889 50.86 632.889 47.29C632.889 43.72 628.059 42.46 621.909 42.46ZM621.909 49.75C617.529 49.75 614.079 49.06 614.079 47.29C614.079 45.52 617.529 44.83 621.909 44.83C626.289 44.83 629.739 45.52 629.739 47.29C629.739 49.06 626.289 49.75 621.909 49.75ZM657.517 26.5V31.63H652.237C651.517 28.72 648.667 26.8 644.527 26.8C639.667 26.8 636.607 29.41 636.607 33.13C636.607 36.85 639.667 39.46 644.527 39.46C648.787 39.46 651.667 37.42 652.297 34.39H657.517V39.64H660.487V26.5H657.517ZM644.527 37C641.587 37 639.577 35.53 639.577 33.13C639.577 30.73 641.587 29.26 644.527 29.26C647.467 29.26 649.447 30.73 649.447 33.13C649.447 35.53 647.467 37 644.527 37ZM657.547 43.75H641.887V41.05H638.977V51.79H660.487V41.05H657.547V43.75ZM641.887 49.36V46.12H657.547V49.36H641.887Z" fill="#8FD7ED"/>
<path d="M186.972 79.88H183.372V69.5H180.402V95.12H183.372V82.73H186.972V79.88ZM161.112 73.16H172.032V76.67C172.032 85.25 168.072 90.68 161.112 90.71V93.53C169.812 93.53 175.062 86.81 175.062 76.61V70.43H161.112V73.16ZM204.88 77.45H209.05V84.47H211.87V69.5H209.05V74.72H204.88V69.65H202.06V83.63H204.88V77.45ZM199.12 70.13H188.02V82.64H199.12V70.13ZM196.36 80.15H190.78V72.62H196.36V80.15ZM200.8 84.98C194.68 84.98 189.34 86.27 189.34 90.05C189.34 93.83 194.68 95.12 200.8 95.12C206.92 95.12 212.26 93.83 212.26 90.05C212.26 86.27 206.92 84.98 200.8 84.98ZM200.8 92.69C196.6 92.69 192.49 92 192.49 90.05C192.49 88.1 196.6 87.38 200.8 87.38C205 87.38 209.11 88.1 209.11 90.05C209.11 92 205 92.69 200.8 92.69ZM244.095 74.39V69.5H241.125V83.66H244.095V77.21H247.695V74.39H244.095ZM229.635 77.54L237.195 82.55L238.725 80.36L230.775 75.2C231.375 73.58 231.705 71.81 231.705 69.92L228.735 69.74C228.675 75.14 225.825 79.58 220.965 80.45V83.15C224.775 82.64 227.775 80.54 229.635 77.54ZM233.505 84.5C227.385 84.5 222.525 85.97 222.525 89.81C222.525 93.65 227.385 95.12 233.505 95.12C239.655 95.12 244.485 93.65 244.485 89.81C244.485 85.97 239.655 84.5 233.505 84.5ZM233.505 92.66C229.155 92.66 225.705 91.79 225.705 89.81C225.705 87.86 229.155 86.96 233.505 86.96C237.885 86.96 241.305 87.86 241.305 89.81C241.305 91.79 237.885 92.66 233.505 92.66ZM274.753 74.75H271.153V69.5H268.183V83.42H271.153V77.6H274.753V74.75ZM266.323 81.05V78.53C264.673 79.25 261.733 79.67 258.253 79.67H251.833V72.65H264.493V70.13H248.863V82.19H258.073C261.703 82.19 264.763 81.74 266.323 81.05ZM249.733 94.79H271.153V84.83H249.733V94.79ZM252.703 87.35H268.183V92.27H252.703V87.35ZM298.81 69.95H295.87V73.55H279.73V69.95H276.79V83.09H298.81V69.95ZM279.73 80.45V76.19H295.87V80.45H279.73ZM300.61 85.82H275.02V88.58H286.27V95.72H289.33V88.58H300.61V85.82ZM323.198 69.5V79.94H318.458V82.73H323.198V95.12H326.198V69.5H323.198ZM306.398 90.86V83.18H316.628V80.45H306.398V73.16H318.068V70.43H303.428V93.59H313.238C315.698 93.59 318.308 93.14 319.868 92.36V89.63C318.308 90.38 315.668 90.86 313.238 90.86H306.398ZM350.023 91.1V85.64C356.143 85.22 360.073 82.19 360.073 77.84C360.073 73.1 355.483 69.95 348.523 69.95C341.563 69.95 336.973 73.1 336.973 77.84C336.973 82.19 340.903 85.22 346.993 85.64V91.1H335.743V93.89H361.333V91.1H350.023ZM340.123 77.84C340.123 74.72 343.483 72.65 348.523 72.65C353.593 72.65 356.953 74.72 356.953 77.84C356.953 80.93 353.593 83 348.523 83C343.483 83 340.123 80.93 340.123 77.84ZM386.891 78.2H382.361V72.23H386.621V69.8H364.541V72.23H368.801V78.2H364.271V80.63H386.891V78.2ZM371.771 72.23H379.391V78.2H371.771V72.23ZM362.801 83.24V85.76H388.391V83.24H362.801ZM367.601 87.89H364.571V94.82H387.071V92.3H367.601V87.89ZM423.256 79.64H419.716V69.5H416.746V95.12H419.716V82.49H423.256V79.64ZM409.066 86.81H412.066V70.49H397.396V73.25H409.066V86.81ZM403.936 90.8V79.94H400.936V90.8H396.466V93.59H406.246C409.756 93.59 412.786 93.26 414.616 92.51V89.72C412.786 90.5 409.666 90.8 406.216 90.8H403.936ZM439.694 74.33V76.91H444.674V83.9H447.644V69.5H444.674V74.33H439.694ZM432.554 78.08L440.084 82.91L441.554 80.69L433.664 75.71C433.964 74.75 434.174 73.76 434.234 72.71H440.714V70.16H424.364V72.71H431.264C430.904 76.88 428.264 79.91 424.034 80.48V83.15C427.814 82.79 430.784 80.87 432.554 78.08ZM436.784 84.74C430.574 84.74 425.714 86.18 425.714 89.93C425.714 93.68 430.574 95.12 436.784 95.12C442.994 95.12 447.854 93.68 447.854 89.93C447.854 86.18 442.994 84.74 436.784 84.74ZM436.784 92.69C432.374 92.69 428.864 91.82 428.864 89.93C428.864 88.04 432.374 87.17 436.784 87.17C441.194 87.17 444.704 88.04 444.704 89.93C444.704 91.82 441.194 92.69 436.784 92.69Z" fill="#91D6EE"/>
<path d="M37.365 42.68C33.205 42.68 31.125 40.9733 31.125 37.56C31.125 34.04 32.5917 30.4667 35.525 26.84C38.4583 23.2133 41.7917 21.4 45.525 21.4C46.2717 21.4 47.0717 21.56 47.925 21.88C48.7783 22.1467 49.205 22.68 49.205 23.48C49.205 24.28 48.9117 24.8933 48.325 25.32C47.7917 25.7467 47.1517 26.1733 46.405 26.6C45.6583 26.9733 44.9117 27.4267 44.165 27.96C43.4717 28.4933 42.9383 29.2667 42.565 30.28C44.3783 31.4533 45.285 33.32 45.285 35.88C45.285 37.64 44.4317 39.2133 42.725 40.6C41.0717 41.9867 39.285 42.68 37.365 42.68ZM59.445 29.48C61.2583 30.6533 62.165 32.4933 62.165 35C62.165 37.4533 61.2317 39.48 59.365 41.08C57.4983 42.68 55.2583 43.48 52.645 43.48C51.205 43.48 49.925 43.08 48.805 42.28C47.7383 41.48 47.205 40.12 47.205 38.2C47.205 34.1467 48.7783 30.2 51.925 26.36C55.0717 22.52 58.565 20.6 62.405 20.6C63.1517 20.6 63.9517 20.76 64.805 21.08C65.6583 21.3467 66.085 21.88 66.085 22.68C66.085 23.48 65.7917 24.0933 65.205 24.52C64.6717 24.9467 64.0317 25.3733 63.285 25.8C62.5383 26.1733 61.7917 26.6267 61.045 27.16C60.3517 27.6933 59.8183 28.4667 59.445 29.48Z" fill="white"/>
<path d="M795.635 72.32C799.795 72.32 801.875 74.0267 801.875 77.44C801.875 80.96 800.408 84.5333 797.475 88.16C794.542 91.7867 791.208 93.6 787.475 93.6C786.728 93.6 785.928 93.44 785.075 93.12C784.222 92.8533 783.795 92.32 783.795 91.52C783.795 90.72 784.088 90.1067 784.675 89.68C785.208 89.2533 785.848 88.8267 786.595 88.4C787.342 88.0267 788.088 87.5733 788.835 87.04C789.528 86.5067 790.062 85.7333 790.435 84.72C788.622 83.5467 787.715 81.68 787.715 79.12C787.715 77.36 788.568 75.7867 790.275 74.4C791.928 73.0133 793.715 72.32 795.635 72.32ZM773.555 85.52C771.742 84.3467 770.835 82.5067 770.835 80C770.835 77.5467 771.768 75.52 773.635 73.92C775.502 72.32 777.742 71.52 780.355 71.52C781.795 71.52 783.075 71.92 784.195 72.72C785.262 73.52 785.795 74.88 785.795 76.8C785.795 80.8533 784.222 84.8 781.075 88.64C777.928 92.48 774.435 94.4 770.595 94.4C769.848 94.4 769.048 94.24 768.195 93.92C767.342 93.6533 766.915 93.12 766.915 92.32C766.915 91.52 767.208 90.9067 767.795 90.48C768.328 90.0533 768.968 89.6267 769.715 89.2C770.462 88.8267 771.208 88.3733 771.955 87.84C772.648 87.3067 773.182 86.5333 773.555 85.52Z" fill="white"/>
<path d="M234.23 371.725C231.678 371.725 229.654 372.945 229.654 374.984C229.654 377.105 230.985 378.117 233.439 378.575C235.45 378.949 236.212 379.309 236.212 380.211C236.212 380.945 235.45 381.458 234.424 381.458C232.982 381.458 232.039 380.738 231.9 379.656H229.308C229.418 382.069 231.457 383.58 234.243 383.58C236.767 383.58 238.805 382.263 238.805 380.1C238.805 378.408 237.918 377.119 235.311 376.578C233.107 376.12 232.233 375.829 232.233 374.984C232.233 374.304 232.885 373.833 234.063 373.833C235.269 373.833 236.004 374.429 236.157 375.413H238.763C238.639 373.264 236.753 371.725 234.23 371.725ZM248.541 372.003H238.669V374.235H242.343V383.303H244.866V374.235H248.541V372.003ZM249.063 383.303H257.59V381.112H251.586V378.685H256.98V376.495H251.586V374.193H257.465V372.003H249.063V383.303ZM258.454 383.303H260.977V380.294H262.793C265.733 380.294 267.452 378.658 267.452 376.134C267.452 373.639 265.733 372.003 262.793 372.003H258.454V383.303ZM260.977 378.062V374.235H262.683C264.083 374.235 264.929 374.886 264.929 376.134C264.929 377.396 264.083 378.062 262.683 378.062H260.977ZM274.916 371.698C272.448 371.698 270.59 373.68 270.59 377.646C270.59 381.597 272.448 383.58 274.916 383.58C277.384 383.58 279.242 381.597 279.242 377.646C279.242 373.68 277.384 371.698 274.916 371.698ZM274.916 373.902C276.025 373.902 276.857 375.067 276.857 377.646C276.857 380.211 276.025 381.375 274.916 381.375C273.807 381.375 272.975 380.211 272.975 377.646C272.975 375.067 273.807 373.902 274.916 373.902ZM283.888 372.003H279.382V374.193H281.379V383.303H283.888V372.003Z" fill="white"/>
<path d="M599.496 595.106C596.944 595.106 594.92 596.326 594.92 598.364C594.92 600.486 596.251 601.498 598.705 601.955C600.716 602.33 601.478 602.69 601.478 603.591C601.478 604.326 600.716 604.839 599.69 604.839C598.248 604.839 597.305 604.118 597.166 603.037H594.574C594.684 605.449 596.723 606.961 599.509 606.961C602.033 606.961 604.071 605.644 604.071 603.481C604.071 601.789 603.184 600.5 600.577 599.959C598.373 599.501 597.499 599.21 597.499 598.364C597.499 597.685 598.151 597.214 599.329 597.214C600.536 597.214 601.27 597.81 601.423 598.794H604.029C603.905 596.645 602.019 595.106 599.496 595.106ZM613.807 595.383H603.935V597.616H607.609V606.683H610.132V597.616H613.807V595.383ZM614.329 606.683H622.856V604.493H616.852V602.066H622.246V599.876H616.852V597.574H622.731V595.383H614.329V606.683ZM623.72 606.683H626.243V603.675H628.06C630.999 603.675 632.718 602.039 632.718 599.515C632.718 597.019 630.999 595.383 628.06 595.383H623.72V606.683ZM626.243 601.442V597.616H627.949C629.349 597.616 630.195 598.267 630.195 599.515C630.195 600.777 629.349 601.442 627.949 601.442H626.243ZM640.182 595.078C637.714 595.078 635.856 597.061 635.856 601.026C635.856 604.978 637.714 606.961 640.182 606.961C642.65 606.961 644.508 604.978 644.508 601.026C644.508 597.061 642.65 595.078 640.182 595.078ZM640.182 597.283C641.292 597.283 642.123 598.448 642.123 601.026C642.123 603.591 641.292 604.756 640.182 604.756C639.073 604.756 638.241 603.591 638.241 601.026C638.241 598.448 639.073 597.283 640.182 597.283ZM648.96 606.947C651.331 606.947 653.245 605.297 653.245 602.981C653.245 600.694 651.428 599.155 649.224 599.155C649.099 599.155 648.974 599.182 648.905 599.21L651.47 595.383H648.614L645.702 600C645.036 601.054 644.676 601.9 644.676 602.995C644.676 605.408 646.603 606.947 648.96 606.947ZM648.96 604.812C647.837 604.812 647.13 604.021 647.13 603.009C647.13 601.997 647.837 601.207 648.96 601.207C650.083 601.207 650.79 601.997 650.79 603.009C650.79 604.021 650.083 604.812 648.96 604.812Z" fill="white"/>
<path d="M294.418 595.106C291.867 595.106 289.843 596.326 289.843 598.364C289.843 600.486 291.174 601.498 293.628 601.955C295.638 602.33 296.401 602.69 296.401 603.591C296.401 604.326 295.638 604.839 294.612 604.839C293.17 604.839 292.227 604.118 292.089 603.037H289.496C289.607 605.449 291.645 606.961 294.432 606.961C296.955 606.961 298.993 605.644 298.993 603.481C298.993 601.789 298.106 600.5 295.499 599.959C293.295 599.501 292.421 599.21 292.421 598.364C292.421 597.685 293.073 597.214 294.252 597.214C295.458 597.214 296.193 597.81 296.345 598.794H298.952C298.827 596.645 296.941 595.106 294.418 595.106ZM308.729 595.383H298.857V597.616H302.531V606.683H305.055V597.616H308.729V595.383ZM309.251 606.683H317.778V604.493H311.775V602.066H317.168V599.876H311.775V597.574H317.653V595.383H309.251V606.683ZM318.642 606.683H321.166V603.675H322.982C325.921 603.675 327.641 602.039 327.641 599.515C327.641 597.019 325.921 595.383 322.982 595.383H318.642V606.683ZM321.166 601.442V597.616H322.871C324.271 597.616 325.117 598.267 325.117 599.515C325.117 600.777 324.271 601.442 322.871 601.442H321.166ZM335.105 595.078C332.637 595.078 330.779 597.061 330.779 601.026C330.779 604.978 332.637 606.961 335.105 606.961C337.573 606.961 339.431 604.978 339.431 601.026C339.431 597.061 337.573 595.078 335.105 595.078ZM335.105 597.283C336.214 597.283 337.046 598.448 337.046 601.026C337.046 603.591 336.214 604.756 335.105 604.756C333.995 604.756 333.164 603.591 333.164 601.026C333.164 598.448 333.995 597.283 335.105 597.283ZM347.107 595.383H339.342V597.574H344.167L340.271 606.683H342.906L347.107 596.881V595.383Z" fill="white"/>
<path d="M230.715 407.056H228.404V399.846H224.499V419.581H228.404V410.846H230.715V407.056ZM210.426 403.867H217.612V405.647C217.612 411.424 215.163 414.913 210.426 414.959V418.657C217.266 418.657 221.587 413.665 221.587 405.647V400.309H210.426V403.867ZM246.45 406.756H248.09V411.331H251.741V399.846H248.09V403.197H246.45V399.939H242.845V410.684H246.45V406.756ZM241.504 400.078H232.446V410.291H241.504V400.078ZM237.946 407.126H236.005V403.243H237.946V407.126ZM242.66 411.354C237.484 411.354 233.393 412.464 233.393 415.583C233.393 418.703 237.484 419.812 242.66 419.812C247.836 419.812 251.926 418.703 251.926 415.583C251.926 412.464 247.836 411.354 242.66 411.354ZM242.66 416.739C239.864 416.739 237.553 416.461 237.553 415.583C237.553 414.728 239.864 414.428 242.66 414.428C245.456 414.428 247.767 414.728 247.767 415.583C247.767 416.461 245.456 416.739 242.66 416.739ZM279.337 402.874V399.846H275.432V410.707H279.337V406.594H281.648V402.874H279.337ZM267.783 406.848L272.728 410.107L274.715 407.287L269.354 403.89C269.77 402.712 269.978 401.464 269.978 400.17L266.05 399.939C265.981 403.867 263.924 406.756 260.804 407.126V410.615C263.693 410.453 266.142 409.02 267.783 406.848ZM270.625 410.985C265.657 410.985 261.729 412.117 261.729 415.398C261.729 418.68 265.657 419.812 270.625 419.812C275.594 419.812 279.522 418.68 279.522 415.398C279.522 412.117 275.594 410.985 270.625 410.985ZM270.625 416.692C268.014 416.692 265.934 416.346 265.934 415.398C265.934 414.474 268.014 414.104 270.625 414.104C273.237 414.104 275.316 414.474 275.316 415.398C275.316 416.346 273.237 416.692 270.625 416.692ZM303.876 403.128H301.565V399.846H297.66V410.523H301.565V406.918H303.876V403.128ZM296.736 409.228V406.063C295.696 406.479 293.963 406.71 292.183 406.71H287.377V403.29H295.603V400.078H283.472V409.922H292.022C293.87 409.922 295.719 409.668 296.736 409.228ZM284.142 419.581H301.565V411.216H284.142V419.581ZM288.047 414.428H297.66V416.369H288.047V414.428Z" fill="white"/>
<path d="M584.716 623.227H580.81V637.832H584.716V623.227ZM572.052 623.25C568.193 623.25 565.559 625.607 565.559 629.166C565.559 632.748 568.193 635.082 572.052 635.082C575.911 635.082 578.546 632.748 578.546 629.166C578.546 625.607 575.911 623.25 572.052 623.25ZM572.052 626.509C573.554 626.509 574.663 627.456 574.663 629.166C574.663 630.876 573.554 631.824 572.052 631.824C570.55 631.824 569.441 630.876 569.441 629.166C569.441 627.456 570.55 626.509 572.052 626.509ZM571.266 636.052H567.292V642.962H584.993V639.449H571.266V636.052ZM601.19 625.607H596.799V623.135H592.801V625.607H588.388V629.166H601.19V625.607ZM603.131 623.227V630.784H600.82V634.504H603.131V642.962H607.036V623.227H603.131ZM594.789 629.975C591.23 629.975 589.058 632.632 589.058 636.122C589.058 639.634 591.23 642.269 594.789 642.269C598.347 642.269 600.52 639.634 600.52 636.122C600.52 632.632 598.347 629.975 594.789 629.975ZM594.789 638.918C593.518 638.918 592.778 637.809 592.778 636.122C592.778 634.435 593.518 633.326 594.789 633.326C596.06 633.326 596.799 634.435 596.799 636.122C596.799 637.809 596.06 638.918 594.789 638.918ZM630.928 630.437H628.617V623.227H624.712V642.962H628.617V634.227H630.928V630.437ZM610.639 627.248H617.826V629.028C617.826 634.805 615.376 638.294 610.639 638.34V642.038C617.479 642.038 621.8 637.046 621.8 629.028V623.689H610.639V627.248ZM654.064 623.227V626.462H651.014C650.205 624.475 648.01 623.25 645.052 623.25C641.262 623.25 638.72 625.261 638.72 628.334C638.72 631.431 641.262 633.418 645.052 633.418C648.056 633.418 650.274 632.17 651.06 630.114H654.064V633.441H657.969V623.227H654.064ZM645.052 630.275C643.55 630.275 642.602 629.513 642.602 628.334C642.602 627.156 643.55 626.393 645.052 626.393C646.554 626.393 647.501 627.156 647.501 628.334C647.501 629.513 646.554 630.275 645.052 630.275ZM654.133 635.429H644.382V634.134H640.546V642.962H657.969V634.134H654.133V635.429ZM644.382 639.865V638.456H654.133V639.865H644.382ZM679.828 623.458H662.173V633.742H679.828V623.458ZM675.969 630.183H666.032V627.04H675.969V630.183ZM680.983 635.382H661.018V638.987H668.99V643.424H673.011V638.987H680.983V635.382Z" fill="white"/>
<path d="M246.794 623.227V630.483H245.014V623.32H241.363V642.615H245.014V634.181H246.794V642.962H250.491V623.227H246.794ZM231.126 627.202H236.048V629.721C236.048 635.267 234.107 638.155 231.126 638.386V642.038C235.794 641.968 239.792 637.947 239.792 629.582V623.689H231.126V627.202ZM268.352 623.227V626.278H266.272V623.458H253.701V626.694H258.045C257.653 628.565 255.966 630.437 253.424 630.576V633.996C256.243 633.926 258.6 632.609 260.148 630.807L265.14 633.788L267.011 630.922L261.743 627.918C261.881 627.502 261.951 627.11 261.997 626.694H265.717V629.605H268.352V634.088H272.257V623.227H268.352ZM254.602 642.962H272.257V634.782H254.602V642.962ZM258.508 637.97H268.352V639.773H258.508V637.97ZM300.87 623.227H296.964V633.834H300.87V623.227ZM294.677 623.458H282.429V632.702H294.677V623.458ZM290.817 629.536H286.288V626.624H290.817V629.536ZM301.54 640.05L294.029 638.386L294.237 637.901H300.87V634.758H294.029V633.418H290.055V634.758H283.238V637.901H289.962C288.691 639.218 285.918 639.773 283.03 639.773V642.962C286.311 642.962 289.593 642.384 291.811 640.905L300.546 643.193L301.54 640.05ZM329.574 623.227H325.669V632.887H329.574V623.227ZM316.957 623.25C313.075 623.25 310.603 625.192 310.603 628.034C310.603 630.899 313.075 632.817 316.957 632.817C320.84 632.817 323.312 630.899 323.312 628.034C323.312 625.192 320.84 623.25 316.957 623.25ZM316.957 626.324C318.459 626.324 319.453 626.994 319.453 628.034C319.453 629.074 318.459 629.744 316.957 629.744C315.455 629.744 314.462 629.074 314.462 628.034C314.462 626.994 315.455 626.324 316.957 626.324ZM329.574 633.58H312.128V636.284H325.715V637.069H312.174V642.962H329.782V640.258H316.033V639.473H329.574V633.58ZM339.786 630.807L344.778 633.788L346.65 630.922L341.381 627.918C341.52 627.502 341.589 627.11 341.635 626.694H345.356V629.605H347.99V634.273H351.895V623.227H347.99V626.278H345.91V623.458H333.339V626.694H337.684C337.291 628.565 335.604 630.437 333.062 630.576V633.996C335.881 633.926 338.238 632.609 339.786 630.807ZM343.068 634.55C338.03 634.55 334.056 635.66 334.056 638.872C334.056 642.084 338.03 643.193 343.068 643.193C348.105 643.193 352.08 642.084 352.08 638.872C352.08 635.66 348.105 634.55 343.068 634.55ZM343.068 640.12C340.41 640.12 338.261 639.773 338.261 638.872C338.261 637.994 340.41 637.624 343.068 637.624C345.725 637.624 347.874 637.994 347.874 638.872C347.874 639.773 345.725 640.12 343.068 640.12ZM374.546 623.944H369.947V622.627H365.926V623.944H361.374V626.647H374.546V623.944ZM382.264 627.549H379.999V623.227H376.094V636.815H379.999V631.177H382.264V627.549ZM374.962 636.029V633.187C373.737 633.719 371.703 633.903 369.878 633.903V633.164C372.258 632.817 373.852 631.824 373.852 630.183C373.852 628.149 371.38 627.086 367.983 627.086C364.586 627.086 362.113 628.149 362.113 630.183C362.113 631.824 363.685 632.817 366.042 633.141V633.903H361.42V636.746H369.785C371.75 636.746 373.737 636.561 374.962 636.029ZM365.741 630.183C365.741 629.79 366.62 629.605 367.983 629.605C369.346 629.605 370.224 629.79 370.224 630.183C370.224 630.576 369.346 630.761 367.983 630.761C366.62 630.761 365.741 630.576 365.741 630.183ZM362.483 640.397H376.071V643.193H379.999V637.508H362.483V640.397ZM390.72 630.807L395.711 633.788L397.583 630.922L392.314 627.918C392.453 627.502 392.522 627.11 392.568 626.694H396.289V629.605H398.923V634.273H402.828V623.227H398.923V626.278H396.843V623.458H384.272V626.694H388.617C388.224 628.565 386.537 630.437 383.995 630.576V633.996C386.814 633.926 389.171 632.609 390.72 630.807ZM394.001 634.55C388.963 634.55 384.989 635.66 384.989 638.872C384.989 642.084 388.963 643.193 394.001 643.193C399.039 643.193 403.013 642.084 403.013 638.872C403.013 635.66 399.039 634.55 394.001 634.55ZM394.001 640.12C391.343 640.12 389.194 639.773 389.194 638.872C389.194 637.994 391.343 637.624 394.001 637.624C396.658 637.624 398.807 637.994 398.807 638.872C398.807 639.773 396.658 640.12 394.001 640.12Z" fill="white"/>
<path d="M472.584 402.874V399.846H468.678V410.707H472.584V406.594H474.894V402.874H472.584ZM461.029 406.848L465.975 410.107L467.962 407.287L462.601 403.89C463.017 402.712 463.225 401.464 463.225 400.17L459.296 399.939C459.227 403.867 457.17 406.756 454.051 407.126V410.615C456.939 410.453 459.389 409.02 461.029 406.848ZM463.872 410.985C458.904 410.985 454.975 412.117 454.975 415.398C454.975 418.68 458.904 419.812 463.872 419.812C468.84 419.812 472.769 418.68 472.769 415.398C472.769 412.117 468.84 410.985 463.872 410.985ZM463.872 416.692C461.261 416.692 459.181 416.346 459.181 415.398C459.181 414.474 461.261 414.104 463.872 414.104C466.483 414.104 468.563 414.474 468.563 415.398C468.563 416.346 466.483 416.692 463.872 416.692ZM486.539 411.239V414.312H491.6V415.121H495.505V399.846H491.6V411.239H486.539ZM485.014 406.224H488.896V399.985H477.527V403.174H485.014V406.224ZM481.779 416.277V413.804H484.829V410.245H485.083C487.048 410.245 489.243 410.06 490.468 409.529V406.409C489.243 406.918 487.186 407.079 485.361 407.079H476.279V410.245H480.947V412.718H477.85V419.581H495.782V416.277H481.779ZM523.748 399.846H519.935V401.325H509.998V399.846H506.186V408.605H523.748V399.846ZM509.998 405.67V404.191H519.935V405.67H509.998ZM504.984 409.737V412.926H513.003V415.283H516.931V412.926H524.95V409.737H504.984ZM510.114 414.035H506.139V419.581H524.025V416.369H510.114V414.035ZM542.464 399.846V402.273H538.905V405.808H542.464V411.817H546.369V399.846H542.464ZM533.96 407.611L538.743 411.308L541.054 408.697L535.554 404.537C536.04 403.174 536.294 401.695 536.294 400.17L532.365 399.939C532.296 404.214 530.193 407.588 527.143 407.957V411.539C529.939 411.378 532.319 409.852 533.96 407.611ZM528.622 415.861H542.394V419.812H546.369V412.51H528.622V415.861Z" fill="white"/>
<path d="M888.141 623.227H884.236V637.832H888.141V623.227ZM875.478 623.25C871.619 623.25 868.984 625.607 868.984 629.166C868.984 632.748 871.619 635.082 875.478 635.082C879.337 635.082 881.971 632.748 881.971 629.166C881.971 625.607 879.337 623.25 875.478 623.25ZM875.478 626.509C876.98 626.509 878.089 627.456 878.089 629.166C878.089 630.876 876.98 631.824 875.478 631.824C873.976 631.824 872.867 630.876 872.867 629.166C872.867 627.456 873.976 626.509 875.478 626.509ZM874.692 636.052H870.718V642.962H888.419V639.449H874.692V636.052ZM907.273 623.227V642.962H910.924V623.227H907.273ZM902.305 630.807H900.548V634.481H902.305V642.615H905.91V623.32H902.305V630.807ZM895.303 638.71V634.435H899.555V631.107H895.303V627.017H900.364V623.689H891.629V642.038H896.389C898.03 642.038 900.156 641.83 901.334 641.344V638.063C900.133 638.502 898.284 638.71 896.736 638.71H895.303ZM932.598 623.227H928.692V642.962H932.598V623.227ZM925.827 623.689H914.342V627.202H921.945V631.084H914.388V642.038H922.384C924.348 642.038 926.451 641.691 927.653 641.09V637.578C926.451 638.132 924.417 638.525 922.546 638.525H918.271V634.55H925.827V623.689ZM951.013 623.227V630.668H948.356C947.847 625.7 945.583 623.458 942.348 623.458C938.673 623.458 936.224 626.37 936.224 632.864C936.224 639.357 938.673 642.269 942.348 642.269C945.744 642.269 948.055 639.796 948.402 634.319H951.013V642.962H954.918V623.227H951.013ZM942.348 638.687C941.053 638.687 940.083 637.3 940.083 632.864C940.083 628.45 941.053 627.04 942.348 627.04C943.618 627.04 944.589 628.45 944.589 632.864C944.589 637.3 943.618 638.687 942.348 638.687ZM983.531 623.227H979.626V633.834H983.531V623.227ZM977.338 623.458H965.09V632.702H977.338V623.458ZM973.479 629.536H968.95V626.624H973.479V629.536ZM984.201 640.05L976.691 638.386L976.899 637.901H983.531V634.758H976.691V633.418H972.716V634.758H965.899V637.901H972.624C971.353 639.218 968.58 639.773 965.691 639.773V642.962C968.973 642.962 972.254 642.384 974.472 640.905L983.207 643.193L984.201 640.05ZM873.122 657.227V667.441H877.027V657.227H873.122ZM865.126 664.53L870.326 667.326L872.082 664.437L866.813 661.733C866.906 661.364 866.998 661.017 867.044 660.67H871.412V657.458H858.656V660.67H863.07C862.608 662.334 860.921 663.998 858.379 664.137V667.534C861.198 667.464 863.578 666.216 865.126 664.53ZM873.191 669.429H863.208V668.134H859.372V676.962H877.027V668.134H873.191V669.429ZM863.208 673.865V672.456H873.191V673.865H863.208ZM899.255 657.227H895.35V676.962H899.255V657.227ZM892.3 657.689H880.93V661.248H888.302V663.028C888.302 668.735 885.714 672.294 880.93 672.34V676.038C887.84 676.038 892.3 671.046 892.3 663.028V657.689ZM924.887 657.227V676.962H928.515V657.227H924.887ZM919.849 661.41H917.723V657.689H909.15V661.202H914.003V663.721C914.003 669.267 912.085 672.155 909.15 672.386V676.038C912.016 675.991 914.627 674.42 916.198 671.254H919.849V676.615H923.431V657.32H919.849V661.41ZM917.377 667.626C917.515 666.817 917.631 665.962 917.677 665.038H919.849V667.626H917.377ZM951.945 662.08V658.776H949.634V657.227H945.729V668.966H949.634V666.84H951.945V663.536H949.634V662.08H951.945ZM937.225 668.574C941.015 668.574 943.58 666.24 943.58 662.912C943.58 659.607 941.015 657.25 937.225 657.25C933.435 657.25 930.87 659.607 930.87 662.912C930.87 666.24 933.435 668.574 937.225 668.574ZM937.225 660.462C938.681 660.462 939.697 661.387 939.697 662.912C939.697 664.437 938.681 665.361 937.225 665.361C935.746 665.361 934.752 664.437 934.752 662.912C934.752 661.387 935.746 660.462 937.225 660.462ZM932.349 673.01H945.659V677.193H949.634V669.66H932.349V673.01ZM970.829 664.738H968.68V668.412H970.829V673.912L966.438 666.817C966.6 665.639 966.669 664.345 966.692 662.958H969.558V659.469H966.692V657.158H962.995V659.469H960.106V662.958H962.995C962.926 668.504 961.724 672.086 959.806 672.317V676.038C962.302 675.945 964.15 674.42 965.306 671.555L967.801 675.806L970.829 674.073V676.615H974.434V657.32H970.829V664.738ZM975.797 657.227V676.962H979.448V657.227H975.797ZM997.378 666.887H1001.21V657.227H997.378V658.521H995.067V661.687H997.378V662.82H994.305V665.985H997.378V666.887ZM994.143 660.023V657.458H982.496V660.601H990.215V660.809C990.215 662.542 987.095 663.675 982.496 663.721V666.887C989.082 666.887 994.143 665.153 994.143 660.023ZM987.442 674.258V673.473H1001.21V667.58H983.536V670.284H997.355V671.069H983.582V676.962H1001.42V674.258H987.442Z" fill="white"/>
<path d="M223.758 856.606V853.833C228.149 853.278 230.991 850.875 230.991 847.594C230.991 843.85 227.271 841.239 221.771 841.239C216.271 841.239 212.551 843.85 212.551 847.594C212.551 850.875 215.393 853.278 219.784 853.833V856.606H211.788V860.257H231.754V856.606H223.758ZM216.687 847.594C216.687 845.883 218.767 844.751 221.771 844.751C224.775 844.751 226.855 845.883 226.855 847.594C226.855 849.28 224.775 850.436 221.771 850.436C218.767 850.436 216.687 849.28 216.687 847.594ZM252.965 847.016H249.961V844.289H252.757V841.216H235.241V844.289H238.037V847.016H235.033V850.089H252.965V847.016ZM241.943 844.289H246.056V847.016H241.943V844.289ZM234.016 851.268V854.48H253.982V851.268H234.016ZM239.146 855.381H235.172V860.95H253.058V857.738H239.146V855.381ZM275.362 845.421V848.818H277.996V855.843H281.901V841.216H277.996V845.421H275.362ZM269.769 849.719L274.576 853.163L276.771 850.39L271.318 846.623C271.502 846.022 271.618 845.398 271.664 844.774H275.916V841.447H263.345V844.774H267.736C267.389 847.293 265.725 849.581 263.068 849.789V853.324C265.887 853.255 268.244 851.776 269.769 849.719ZM268.221 857.461V854.041H264.246V860.95H282.179V857.461H268.221ZM306.354 854.688H310.352V841.678H292.443V845.26H306.354V854.688ZM304.367 856.675V849.812H300.438V856.675H298.382V849.812H294.453V856.675H291.426V860.257H311.392V856.675H304.367ZM323.637 849.535C328.837 849.535 332.696 848.217 332.696 845.213C332.696 842.209 328.837 840.892 323.637 840.892C318.438 840.892 314.579 842.209 314.579 845.213C314.579 848.217 318.438 849.535 323.637 849.535ZM323.637 843.873C326.595 843.873 328.536 844.358 328.536 845.213C328.536 846.091 326.595 846.554 323.637 846.554C320.679 846.554 318.738 846.091 318.738 845.213C318.738 844.358 320.679 843.873 323.637 843.873ZM333.62 853.324V850.228H313.654V853.324H317.999V854.803H314.717V857.877H328.513V861.181H332.465V854.803H329.276V853.324H333.62ZM325.44 854.803H321.835V853.324H325.44V854.803Z" fill="white"/>
<path d="M715.044 399.846V402.897H712.964V400.078H700.393V403.313H704.738C704.345 405.184 702.658 407.056 700.116 407.195V410.615C702.935 410.546 705.292 409.228 706.841 407.426L711.832 410.407L713.704 407.542L708.435 404.537C708.574 404.122 708.643 403.729 708.689 403.313H712.41V406.224H715.044V410.707H718.949V399.846H715.044ZM701.295 419.581H718.949V411.401H701.295V419.581ZM705.2 414.59H715.044V416.392H705.2V414.59ZM733.945 415.283V412.186H741.062V408.628H738.058V403.89H740.854V400.309H723.107V403.89H725.903V408.628H722.899V412.186H730.016V415.283H721.998V418.888H741.963V415.283H733.945ZM729.808 403.89H734.153V408.628H729.808V403.89ZM765.977 414.474H769.883V399.846H765.977V402.411H762.419V405.993H765.977V414.474ZM757.497 407.911L762.164 411.793L764.568 409.136L759.045 404.769C759.553 403.336 759.807 401.764 759.807 400.17L755.879 399.939C755.81 404.353 753.73 408.004 750.656 408.373V412.001C753.476 411.84 755.856 410.245 757.497 407.911ZM756.202 416.092V412.672H752.228V419.581H770.16V416.092H756.202ZM780.002 407.426L784.993 410.407L786.865 407.542L781.597 404.537C781.735 404.122 781.805 403.729 781.851 403.313H785.571V406.224H788.206V410.892H792.111V399.846H788.206V402.897H786.126V400.078H773.555V403.313H777.899C777.506 405.184 775.819 407.056 773.278 407.195V410.615C776.097 410.546 778.454 409.228 780.002 407.426ZM783.283 411.17C778.246 411.17 774.271 412.279 774.271 415.491C774.271 418.703 778.246 419.812 783.283 419.812C788.321 419.812 792.296 418.703 792.296 415.491C792.296 412.279 788.321 411.17 783.283 411.17ZM783.283 416.739C780.626 416.739 778.477 416.392 778.477 415.491C778.477 414.613 780.626 414.243 783.283 414.243C785.941 414.243 788.09 414.613 788.09 415.491C788.09 416.392 785.941 416.739 783.283 416.739Z" fill="white"/>
<path d="M965.562 402.433H963.252V395.223H959.346V414.958H963.252V406.223H965.562V402.433ZM945.273 399.244H952.46V401.024C952.46 406.801 950.011 410.29 945.273 410.336V414.034C952.113 414.034 956.435 409.042 956.435 401.024V395.686H945.273V399.244ZM981.297 402.133H982.938V406.708H986.589V395.223H982.938V398.574H981.297V395.316H977.692V406.061H981.297V402.133ZM976.352 395.455H967.294V405.668H976.352V395.455ZM972.793 402.503H970.852V398.62H972.793V402.503ZM977.507 406.731C972.331 406.731 968.241 407.841 968.241 410.96C968.241 414.08 972.331 415.189 977.507 415.189C982.684 415.189 986.774 414.08 986.774 410.96C986.774 407.841 982.684 406.731 977.507 406.731ZM977.507 412.116C974.711 412.116 972.401 411.838 972.401 410.96C972.401 410.105 974.711 409.805 977.507 409.805C980.304 409.805 982.614 410.105 982.614 410.96C982.614 411.838 980.304 412.116 977.507 412.116ZM1011.67 395.223V414.958H1015.29V395.223H1011.67ZM1006.63 399.406H1004.5V395.686H995.929V399.198H1000.78V401.717C1000.78 407.263 998.864 410.151 995.929 410.383V414.034C998.795 413.987 1001.41 412.416 1002.98 409.25H1006.63V414.611H1010.21V395.316H1006.63V399.406ZM1004.16 405.622C1004.29 404.813 1004.41 403.958 1004.46 403.034H1006.63V405.622H1004.16ZM1038.72 400.076V396.772H1036.41V395.223H1032.51V406.962H1036.41V404.836H1038.72V401.532H1036.41V400.076H1038.72ZM1024 406.57C1027.79 406.57 1030.36 404.236 1030.36 400.908C1030.36 397.604 1027.79 395.247 1024 395.247C1020.21 395.247 1017.65 397.604 1017.65 400.908C1017.65 404.236 1020.21 406.57 1024 406.57ZM1024 398.459C1025.46 398.459 1026.48 399.383 1026.48 400.908C1026.48 402.433 1025.46 403.358 1024 403.358C1022.52 403.358 1021.53 402.433 1021.53 400.908C1021.53 399.383 1022.52 398.459 1024 398.459ZM1019.13 411.006H1032.44V415.189H1036.41V407.656H1019.13V411.006Z" fill="white"/>
<path d="M523.987 856.606V853.833C528.378 853.278 531.22 850.875 531.22 847.594C531.22 843.85 527.5 841.239 522 841.239C516.5 841.239 512.78 843.85 512.78 847.594C512.78 850.875 515.622 853.278 520.013 853.833V856.606H512.017V860.257H531.983V856.606H523.987ZM516.916 847.594C516.916 845.883 518.996 844.751 522 844.751C525.004 844.751 527.084 845.883 527.084 847.594C527.084 849.28 525.004 850.436 522 850.436C518.996 850.436 516.916 849.28 516.916 847.594ZM553.194 847.016H550.19V844.289H552.986V841.216H535.47V844.289H538.266V847.016H535.262V850.089H553.194V847.016ZM542.172 844.289H546.285V847.016H542.172V844.289ZM534.246 851.268V854.48H554.211V851.268H534.246ZM539.376 855.381H535.401V860.95H553.287V857.738H539.376V855.381Z" fill="white"/>
<path d="M477.033 371.725C474.481 371.725 472.457 372.945 472.457 374.984C472.457 377.105 473.788 378.117 476.242 378.575C478.253 378.949 479.015 379.309 479.015 380.211C479.015 380.945 478.253 381.458 477.227 381.458C475.785 381.458 474.842 380.738 474.703 379.656H472.111C472.221 382.069 474.26 383.58 477.046 383.58C479.57 383.58 481.608 382.263 481.608 380.1C481.608 378.408 480.721 377.119 478.114 376.578C475.91 376.12 475.036 375.829 475.036 374.984C475.036 374.304 475.688 373.833 476.866 373.833C478.072 373.833 478.807 374.429 478.96 375.413H481.566C481.442 373.264 479.556 371.725 477.033 371.725ZM491.344 372.003H481.472V374.235H485.146V383.303H487.669V374.235H491.344V372.003ZM491.866 383.303H500.393V381.112H494.389V378.685H499.783V376.495H494.389V374.193H500.268V372.003H491.866V383.303ZM501.257 383.303H503.78V380.294H505.596C508.536 380.294 510.255 378.658 510.255 376.134C510.255 373.639 508.536 372.003 505.596 372.003H501.257V383.303ZM503.78 378.062V374.235H505.486C506.886 374.235 507.732 374.886 507.732 376.134C507.732 377.396 506.886 378.062 505.486 378.062H503.78ZM517.719 371.698C515.251 371.698 513.393 373.68 513.393 377.646C513.393 381.597 515.251 383.58 517.719 383.58C520.187 383.58 522.045 381.597 522.045 377.646C522.045 373.68 520.187 371.698 517.719 371.698ZM517.719 373.902C518.828 373.902 519.66 375.067 519.66 377.646C519.66 380.211 518.828 381.375 517.719 381.375C516.61 381.375 515.778 380.211 515.778 377.646C515.778 375.067 516.61 373.902 517.719 373.902ZM526.234 371.698C523.849 371.698 522.171 373.361 522.171 375.58H524.653C524.653 374.72 525.208 373.888 526.234 373.888C527.329 373.888 527.787 374.443 527.787 375.275C527.787 375.912 527.468 376.647 526.109 378.048L522.407 381.861V383.303H530.49V381.167H526.095L527.717 379.49C529.7 377.438 530.269 376.425 530.269 375.247C530.269 373.195 528.771 371.698 526.234 371.698Z" fill="white"/>
<path d="M905.296 595.106C902.745 595.106 900.721 596.326 900.721 598.364C900.721 600.486 902.052 601.498 904.506 601.955C906.517 602.33 907.279 602.69 907.279 603.591C907.279 604.326 906.517 604.839 905.491 604.839C904.049 604.839 903.106 604.118 902.967 603.037H900.374C900.485 605.449 902.523 606.961 905.31 606.961C907.834 606.961 909.872 605.644 909.872 603.481C909.872 601.789 908.985 600.5 906.378 599.959C904.173 599.501 903.3 599.21 903.3 598.364C903.3 597.685 903.952 597.214 905.13 597.214C906.336 597.214 907.071 597.81 907.224 598.794H909.83C909.705 596.645 907.82 595.106 905.296 595.106ZM919.607 595.383H909.735V597.616H913.41V606.683H915.933V597.616H919.607V595.383ZM920.13 606.683H928.657V604.493H922.653V602.066H928.047V599.876H922.653V597.574H928.532V595.383H920.13V606.683ZM929.521 606.683H932.044V603.675H933.86C936.8 603.675 938.519 602.039 938.519 599.515C938.519 597.019 936.8 595.383 933.86 595.383H929.521V606.683ZM932.044 601.442V597.616H933.749C935.15 597.616 935.996 598.267 935.996 599.515C935.996 600.777 935.15 601.442 933.749 601.442H932.044ZM945.983 595.078C943.515 595.078 941.657 597.061 941.657 601.026C941.657 604.978 943.515 606.961 945.983 606.961C948.451 606.961 950.309 604.978 950.309 601.026C950.309 597.061 948.451 595.078 945.983 595.078ZM945.983 597.283C947.092 597.283 947.924 598.448 947.924 601.026C947.924 603.591 947.092 604.756 945.983 604.756C944.874 604.756 944.042 603.591 944.042 601.026C944.042 598.448 944.874 597.283 945.983 597.283ZM954.622 606.947C956.952 606.947 958.726 605.394 958.726 603.009C958.726 600.611 957.229 599.182 955.011 599.182C954.29 599.182 953.68 599.363 953.194 599.654L953.319 597.532H958.172V595.383H951.031L950.699 601.983H952.986C953.291 601.567 953.79 601.221 954.581 601.221C955.662 601.221 956.272 601.955 956.272 603.009C956.272 604.049 955.648 604.812 954.622 604.812C953.583 604.812 953.07 604.285 952.972 603.384H950.491C950.671 605.56 952.168 606.947 954.622 606.947Z" fill="white"/>
<path d="M248.171 813.094C245.62 813.094 243.596 814.315 243.596 816.353C243.596 818.474 244.927 819.486 247.381 819.944C249.391 820.318 250.154 820.679 250.154 821.58C250.154 822.315 249.391 822.828 248.365 822.828C246.923 822.828 245.98 822.107 245.842 821.025H243.249C243.36 823.438 245.398 824.949 248.185 824.949C250.708 824.949 252.747 823.632 252.747 821.469C252.747 819.777 251.859 818.488 249.253 817.947C247.048 817.49 246.175 817.198 246.175 816.353C246.175 815.673 246.826 815.202 248.005 815.202C249.211 815.202 249.946 815.798 250.098 816.782H252.705C252.58 814.633 250.695 813.094 248.171 813.094ZM262.482 813.372H252.61V815.604H256.284V824.672H258.808V815.604H262.482V813.372ZM263.004 824.672H271.531V822.481H265.528V820.055H270.921V817.864H265.528V815.562H271.407V813.372H263.004V824.672ZM272.395 824.672H274.919V821.663H276.735C279.674 821.663 281.394 820.027 281.394 817.503C281.394 815.008 279.674 813.372 276.735 813.372H272.395V824.672ZM274.919 819.431V815.604H276.624C278.024 815.604 278.87 816.256 278.87 817.503C278.87 818.765 278.024 819.431 276.624 819.431H274.919ZM288.858 813.067C286.39 813.067 284.532 815.049 284.532 819.015C284.532 822.966 286.39 824.949 288.858 824.949C291.326 824.949 293.184 822.966 293.184 819.015C293.184 815.049 291.326 813.067 288.858 813.067ZM288.858 815.271C289.967 815.271 290.799 816.436 290.799 819.015C290.799 821.58 289.967 822.744 288.858 822.744C287.749 822.744 286.917 821.58 286.917 819.015C286.917 816.436 287.749 815.271 288.858 815.271ZM301.92 821.594C301.92 820.027 300.645 819.029 299.632 818.821C300.492 818.557 301.504 817.587 301.504 816.297C301.504 814.55 299.937 813.067 297.622 813.067C295.32 813.067 293.712 814.522 293.712 816.297C293.712 817.587 294.738 818.557 295.612 818.821C294.613 819.029 293.324 820.027 293.324 821.594C293.324 823.646 295.223 824.949 297.622 824.949C300.021 824.949 301.92 823.646 301.92 821.594ZM299.147 816.394C299.147 817.157 298.495 817.684 297.622 817.684C296.776 817.684 296.097 817.129 296.097 816.339C296.097 815.618 296.748 815.119 297.622 815.119C298.523 815.119 299.147 815.673 299.147 816.394ZM299.494 821.441C299.494 822.259 298.731 822.869 297.622 822.869C296.513 822.869 295.75 822.259 295.75 821.441C295.75 820.595 296.54 819.971 297.622 819.971C298.703 819.971 299.494 820.595 299.494 821.441Z" fill="white"/>
<path d="M722.711 371.725C720.16 371.725 718.135 372.945 718.135 374.984C718.135 377.105 719.466 378.117 721.92 378.575C723.931 378.949 724.693 379.309 724.693 380.211C724.693 380.945 723.931 381.458 722.905 381.458C721.463 381.458 720.52 380.738 720.381 379.656H717.789C717.9 382.069 719.938 383.58 722.725 383.58C725.248 383.58 727.286 382.263 727.286 380.1C727.286 378.408 726.399 377.119 723.792 376.578C721.588 376.12 720.714 375.829 720.714 374.984C720.714 374.304 721.366 373.833 722.544 373.833C723.751 373.833 724.485 374.429 724.638 375.413H727.245C727.12 373.264 725.234 371.725 722.711 371.725ZM737.022 372.003H727.15V374.235H730.824V383.303H733.347V374.235H737.022V372.003ZM737.544 383.303H746.071V381.112H740.067V378.685H745.461V376.495H740.067V374.193H745.946V372.003H737.544V383.303ZM746.935 383.303H749.458V380.294H751.275C754.214 380.294 755.933 378.658 755.933 376.134C755.933 373.639 754.214 372.003 751.275 372.003H746.935V383.303ZM749.458 378.062V374.235H751.164C752.564 374.235 753.41 374.886 753.41 376.134C753.41 377.396 752.564 378.062 751.164 378.062H749.458ZM763.397 371.698C760.929 371.698 759.072 373.68 759.072 377.646C759.072 381.597 760.929 383.58 763.397 383.58C765.865 383.58 767.723 381.597 767.723 377.646C767.723 373.68 765.865 371.698 763.397 371.698ZM763.397 373.902C764.507 373.902 765.339 375.067 765.339 377.646C765.339 380.211 764.507 381.375 763.397 381.375C762.288 381.375 761.456 380.211 761.456 377.646C761.456 375.067 762.288 373.902 763.397 373.902ZM771.967 371.698C769.652 371.698 768.03 373.25 768.03 375.399H770.512C770.512 374.595 770.969 373.805 771.954 373.805C772.896 373.805 773.451 374.318 773.451 375.15C773.451 376.01 772.841 376.564 771.815 376.564H770.692V378.616H771.815C772.993 378.616 773.784 379.115 773.784 380.058C773.784 380.89 773.09 381.458 772.051 381.458C770.997 381.458 770.428 380.918 770.331 380.017H767.849C768.03 382.193 769.569 383.58 772.051 383.58C774.394 383.58 776.238 382.221 776.238 380.044C776.238 378.588 775.073 377.687 774.033 377.521C774.976 377.354 775.933 376.398 775.933 375.094C775.933 373.07 774.311 371.698 771.967 371.698Z" fill="white"/>
<path d="M967.552 367.104C965 367.104 962.976 368.324 962.976 370.362C962.976 372.484 964.307 373.496 966.761 373.953C968.772 374.328 969.534 374.688 969.534 375.59C969.534 376.324 968.772 376.837 967.746 376.837C966.304 376.837 965.361 376.116 965.222 375.035H962.63C962.74 377.447 964.779 378.959 967.566 378.959C970.089 378.959 972.127 377.642 972.127 375.479C972.127 373.787 971.24 372.498 968.633 371.957C966.429 371.499 965.555 371.208 965.555 370.362C965.555 369.683 966.207 369.212 967.385 369.212C968.592 369.212 969.326 369.808 969.479 370.792H972.085C971.961 368.643 970.075 367.104 967.552 367.104ZM981.863 367.381H971.991V369.614H975.665V378.681H978.188V369.614H981.863V367.381ZM982.385 378.681H990.912V376.491H984.908V374.064H990.302V371.874H984.908V369.572H990.787V367.381H982.385V378.681ZM991.776 378.681H994.299V375.673H996.116C999.055 375.673 1000.77 374.037 1000.77 371.513C1000.77 369.018 999.055 367.381 996.116 367.381H991.776V378.681ZM994.299 373.44V369.614H996.005C997.405 369.614 998.251 370.265 998.251 371.513C998.251 372.775 997.405 373.44 996.005 373.44H994.299ZM1008.24 367.076C1005.77 367.076 1003.91 369.059 1003.91 373.025C1003.91 376.976 1005.77 378.959 1008.24 378.959C1010.71 378.959 1012.56 376.976 1012.56 373.025C1012.56 369.059 1010.71 367.076 1008.24 367.076ZM1008.24 369.281C1009.35 369.281 1010.18 370.446 1010.18 373.025C1010.18 375.59 1009.35 376.754 1008.24 376.754C1007.13 376.754 1006.3 375.59 1006.3 373.025C1006.3 370.446 1007.13 369.281 1008.24 369.281ZM1017.7 378.681H1020.08V376.408H1021.56V374.328H1020.08V367.381H1016.99L1012.62 374.328V376.408H1017.7V378.681ZM1015.03 374.328L1017.7 369.974V374.328H1015.03Z" fill="white"/>
<path d="M508.601 813.094C506.05 813.094 504.026 814.315 504.026 816.353C504.026 818.474 505.357 819.486 507.811 819.944C509.821 820.318 510.584 820.679 510.584 821.58C510.584 822.315 509.821 822.828 508.795 822.828C507.353 822.828 506.41 822.107 506.272 821.025H503.679C503.79 823.438 505.828 824.949 508.615 824.949C511.138 824.949 513.177 823.632 513.177 821.469C513.177 819.777 512.289 818.488 509.683 817.947C507.478 817.49 506.605 817.198 506.605 816.353C506.605 815.673 507.256 815.202 508.435 815.202C509.641 815.202 510.376 815.798 510.528 816.782H513.135C513.01 814.633 511.125 813.094 508.601 813.094ZM522.912 813.372H513.04V815.604H516.714V824.672H519.238V815.604H522.912V813.372ZM523.434 824.672H531.961V822.481H525.958V820.055H531.351V817.864H525.958V815.562H531.837V813.372H523.434V824.672ZM532.825 824.672H535.349V821.663H537.165C540.104 821.663 541.824 820.027 541.824 817.503C541.824 815.008 540.104 813.372 537.165 813.372H532.825V824.672ZM535.349 819.431V815.604H537.054C538.454 815.604 539.3 816.256 539.3 817.503C539.3 818.765 538.454 819.431 537.054 819.431H535.349ZM549.288 813.067C546.82 813.067 544.962 815.049 544.962 819.015C544.962 822.966 546.82 824.949 549.288 824.949C551.756 824.949 553.614 822.966 553.614 819.015C553.614 815.049 551.756 813.067 549.288 813.067ZM549.288 815.271C550.397 815.271 551.229 816.436 551.229 819.015C551.229 821.58 550.397 822.744 549.288 822.744C548.179 822.744 547.347 821.58 547.347 819.015C547.347 816.436 548.179 815.271 549.288 815.271ZM555.376 824.672H558.232L561.144 820.055C561.809 819.001 562.17 818.155 562.17 817.06C562.17 814.647 560.243 813.108 557.885 813.108C555.528 813.108 553.601 814.661 553.601 817.074C553.601 819.361 555.418 820.9 557.622 820.9C557.747 820.9 557.872 820.873 557.941 820.845L555.376 824.672ZM557.885 818.848C556.762 818.848 556.055 818.058 556.055 817.046C556.055 816.034 556.762 815.243 557.885 815.243C559.009 815.243 559.716 816.034 559.716 817.046C559.716 818.058 559.009 818.848 557.885 818.848Z" fill="white"/>
<path d="M2 346H1220.58C1233.34 346 1243.69 356.346 1243.69 369.108V546.272C1243.69 559.035 1233.34 569.381 1220.58 569.381H25.1084C12.346 569.381 2 579.727 2 592.489V769.653C2 782.416 12.123 792.762 24.8854 792.762C117.622 792.762 463.796 792.762 533 792.762" stroke="white" stroke-width="2.31084"/>
<circle cx="12.2433" cy="347.189" r="9.24334" fill="white"/>
<circle cx="12.245" cy="347.188" r="6.93251" fill="black"/>
<circle cx="257.193" cy="346.421" r="9.24334" fill="white"/>
<circle cx="257.194" cy="346.421" r="6.93251" fill="black"/>
<circle cx="623.845" cy="569.802" r="9.24334" fill="white"/>
<circle cx="623.847" cy="569.802" r="6.93251" fill="black"/>
<circle cx="318.044" cy="569.802" r="9.24334" fill="white"/>
<circle cx="318.046" cy="569.802" r="6.93251" fill="black"/>
<circle cx="502.138" cy="346.421" r="9.24334" fill="white"/>
<circle cx="502.14" cy="346.421" r="6.93251" fill="black"/>
<circle cx="929.646" cy="569.802" r="9.24334" fill="white"/>
<circle cx="929.647" cy="569.802" r="6.93251" fill="black"/>
<circle cx="272.595" cy="793.183" r="9.24334" fill="white"/>
<circle cx="272.597" cy="793.182" r="6.93251" fill="black"/>
<circle cx="747.087" cy="346.421" r="9.24334" fill="white"/>
<circle cx="747.089" cy="346.421" r="6.93251" fill="black"/>
<circle cx="992.04" cy="347.189" r="9.24334" fill="white"/>
<circle cx="992.042" cy="347.188" r="6.93251" fill="black"/>
<circle cx="532.954" cy="793.183" r="9.24334" fill="white"/>
<circle cx="532.956" cy="793.182" r="6.93251" fill="black"/>
<path d="M995 281.484V269H976.25C975.003 269 974 269.982 974 271.203V313.797C974 315.018 975.003 316 976.25 316H1007.75C1009 316 1010 315.018 1010 313.797V283.688H997.25C996.013 283.688 995 282.696 995 281.484ZM1001 303.148C1001 303.754 1000.49 304.25 999.875 304.25H984.125C983.506 304.25 983 303.754 983 303.148V302.414C983 301.808 983.506 301.312 984.125 301.312H999.875C1000.49 301.312 1001 301.808 1001 302.414V303.148ZM1001 297.273C1001 297.879 1000.49 298.375 999.875 298.375H984.125C983.506 298.375 983 297.879 983 297.273V296.539C983 295.933 983.506 295.438 984.125 295.438H999.875C1000.49 295.438 1001 295.933 1001 296.539V297.273ZM1001 290.664V291.398C1001 292.004 1000.49 292.5 999.875 292.5H984.125C983.506 292.5 983 292.004 983 291.398V290.664C983 290.058 983.506 289.562 984.125 289.562H999.875C1000.49 289.562 1001 290.058 1001 290.664ZM1010 280.19V280.75H998V269H998.572C999.172 269 999.744 269.229 1000.17 269.643L1009.34 278.639C1009.77 279.052 1010 279.612 1010 280.19Z" fill="white"/>
<path d="M519.889 271H484.111C481.3 271 479 273.35 479 276.222V312.778C479 315.65 481.3 318 484.111 318H519.889C522.7 318 525 315.65 525 312.778V276.222C525 273.35 522.7 271 519.889 271ZM494.333 307.556H489.222V289.278H494.333V307.556ZM504.556 307.556H499.444V281.444H504.556V307.556ZM514.778 307.556H509.667V297.111H514.778V307.556Z" fill="white"/>
<path d="M310.667 512.4H305.444V517.6H310.667V512.4ZM321.111 512.4H315.889V517.6H321.111V512.4ZM331.556 512.4H326.333V517.6H331.556V512.4ZM336.778 494.2H334.167V489H328.944V494.2H308.056V489H302.833V494.2H300.222C297.324 494.2 295.026 496.54 295.026 499.4L295 535.8C295 538.66 297.324 541 300.222 541H336.778C339.65 541 342 538.66 342 535.8V499.4C342 496.54 339.65 494.2 336.778 494.2ZM336.778 535.8H300.222V507.2H336.778V535.8Z" fill="white"/>
<path d="M551.778 713H510V738.556C510 744.203 514.674 748.778 520.444 748.778H536.111C541.882 748.778 546.556 744.203 546.556 738.556V730.889H551.778C554.676 730.889 557 728.589 557 725.778V718.111C557 715.274 554.676 713 551.778 713ZM551.778 725.778H546.556V718.111H551.778V725.778ZM510 753.889H551.778V759H510V753.889Z" fill="white"/>
<path d="M954.993 529.513L941.253 515.772H938.686L932.102 522.357V524.924L945.842 538.664C946.853 539.675 948.486 539.675 949.497 538.664L954.993 533.168C956.004 532.183 956.004 530.524 954.993 529.513Z" fill="white"/>
<path d="M943.769 508.825L947.424 505.169L952.92 510.665C955.953 507.632 955.953 502.707 952.92 499.673L943.743 490.496L940.087 494.151V486.841L938.272 485L929.095 494.177L930.936 496.018H938.272L934.617 499.673L937.365 502.421L929.873 509.914L919.166 499.207V495.525L911.337 487.696L904 495.033L911.855 502.888H915.511L926.217 513.595L924.014 515.799H918.518L904.778 529.539C903.767 530.55 903.767 532.183 904.778 533.194L910.274 538.69C911.285 539.701 912.918 539.701 913.929 538.69L927.669 524.95V519.454L941.02 506.103L943.769 508.825Z" fill="white"/>
<path d="M772.576 284.27L769.854 272.941C769.284 270.607 767.262 269 764.903 269H728.893C726.56 269 724.512 270.633 723.967 272.941L721.245 284.27C720.623 286.914 721.193 289.61 722.853 291.736C723.06 292.021 723.345 292.229 723.579 292.488V310.48C723.579 313.331 725.912 315.664 728.764 315.664H765.058C767.91 315.664 770.243 313.331 770.243 310.48V292.488C770.476 292.254 770.762 292.021 770.969 291.762C772.628 289.636 773.224 286.914 772.576 284.27ZM764.825 274.159L767.547 285.488C767.806 286.577 767.573 287.666 766.899 288.521C766.536 288.988 765.758 289.74 764.462 289.74C762.88 289.74 761.506 288.469 761.325 286.784L759.821 274.185L764.825 274.159ZM749.503 274.185H754.585L755.984 285.903C756.114 286.914 755.803 287.925 755.129 288.677C754.559 289.351 753.729 289.74 752.666 289.74C750.929 289.74 749.503 288.21 749.503 286.344V274.185ZM737.811 285.903L739.237 274.185H744.318V286.344C744.318 288.21 742.892 289.74 740.974 289.74C740.093 289.74 739.289 289.351 738.667 288.677C738.019 287.925 737.708 286.914 737.811 285.903ZM726.275 285.488L728.893 274.185H734L732.497 286.784C732.289 288.469 730.941 289.74 729.36 289.74C728.089 289.74 727.286 288.988 726.949 288.521C726.249 287.692 726.015 286.577 726.275 285.488ZM728.764 310.48V294.847C728.971 294.873 729.152 294.925 729.36 294.925C731.615 294.925 733.663 293.991 735.167 292.462C736.722 294.017 738.796 294.925 741.156 294.925C743.411 294.925 745.433 293.991 746.937 292.514C748.466 293.991 750.54 294.925 752.873 294.925C755.051 294.925 757.125 294.017 758.681 292.462C760.184 293.991 762.232 294.925 764.488 294.925C764.695 294.925 764.877 294.873 765.084 294.847V310.48H728.764Z" fill="white"/>
<path d="M257.109 295.61C261.577 295.61 265.524 296.679 268.73 298.077C271.69 299.393 273.554 302.353 273.554 305.56V310H240.664V305.587C240.664 302.353 242.528 299.393 245.488 298.104C248.695 296.679 252.641 295.61 257.109 295.61ZM235.182 296.295C238.197 296.295 240.664 293.829 240.664 290.814C240.664 287.799 238.197 285.332 235.182 285.332C232.167 285.332 229.7 287.799 229.7 290.814C229.7 293.829 232.167 296.295 235.182 296.295ZM238.279 299.31C237.265 299.146 236.251 299.036 235.182 299.036C232.469 299.036 229.892 299.612 227.563 300.626C225.534 301.503 224.219 303.476 224.219 305.697V310H236.553V305.587C236.553 303.312 237.183 301.174 238.279 299.31ZM279.036 296.295C282.051 296.295 284.518 293.829 284.518 290.814C284.518 287.799 282.051 285.332 279.036 285.332C276.021 285.332 273.554 287.799 273.554 290.814C273.554 293.829 276.021 296.295 279.036 296.295ZM289.999 305.697C289.999 303.476 288.684 301.503 286.656 300.626C284.326 299.612 281.749 299.036 279.036 299.036C277.967 299.036 276.953 299.146 275.939 299.31C277.035 301.174 277.666 303.312 277.666 305.587V310H289.999V305.697ZM257.109 277.109C261.659 277.109 265.332 280.782 265.332 285.332C265.332 289.882 261.659 293.555 257.109 293.555C252.559 293.555 248.887 289.882 248.887 285.332C248.887 280.782 252.559 277.109 257.109 277.109Z" fill="white"/>
<path d="M261.674 724.259C258.811 724.259 256.489 721.937 256.489 719.074C256.489 716.21 258.811 713.889 261.674 713.889C264.538 713.889 266.859 716.21 266.859 719.074C266.859 721.937 264.538 724.259 261.674 724.259Z" fill="white"/>
<path d="M251.59 729.729C252.601 728.718 254.338 726.851 257.708 726.851C258.252 726.851 261.389 726.851 264.293 726.851C271.422 726.825 277.229 721.018 277.229 713.889H282.414C282.414 722.081 276.944 729.029 269.452 731.284V765.738H264.267V750.183H259.082V765.738H253.897V734.758L243.657 744.998L240.001 741.343L251.59 729.729Z" fill="white"/>
<mask id="path-53-inside-1_181_819" fill="white">
<rect x="271.754" y="710" width="34.9984" height="34.3502" rx="2"/>
</mask>
<rect x="271.754" y="710" width="34.9984" height="34.3502" rx="2" stroke="white" stroke-width="6" mask="url(#path-53-inside-1_181_819)"/>
<path d="M282.125 755.368L289.443 744.354C289.645 744.05 290.095 744.058 290.286 744.37L297.032 755.368" stroke="white" stroke-width="3"/>
<line x1="285" y1="735.5" x2="302" y2="735.5" stroke="white" stroke-width="3"/>
<line x1="282" y1="724.5" x2="302" y2="724.5" stroke="white" stroke-width="3"/>
<line x1="284" y1="718.5" x2="302" y2="718.5" stroke="white" stroke-width="3"/>
<line x1="277" y1="729.5" x2="302" y2="729.5" stroke="white" stroke-width="3"/>
<line x1="277" y1="735.5" x2="284" y2="735.5" stroke="white" stroke-width="3"/>
<path d="M610.074 489C612.925 489 615.259 491.333 615.259 494.185C615.259 497.037 612.925 499.37 610.074 499.37C607.222 499.37 604.889 497.037 604.889 494.185C604.889 491.333 607.222 489 610.074 489Z" fill="white"/>
<path d="M613.988 501.962H606.185C603.333 501.962 601 504.296 601 507.147V520.758C601 521.832 601.871 522.702 602.944 522.702V522.702C604.018 522.702 604.889 523.573 604.889 524.646V535.849C604.889 538.611 607.127 540.849 609.889 540.849H610.259C613.02 540.849 615.259 538.611 615.259 535.849V522.702V507.471V507.471C615.259 507.292 615.404 507.147 615.583 507.147H626.925C628.356 507.147 629.517 505.987 629.517 504.555V504.555V504.555C629.517 503.123 628.356 501.962 626.925 501.962H613.988Z" fill="white"/>
<path d="M633.408 503.259C643.233 504.234 650.907 512.524 650.907 522.606C650.907 533.345 642.202 542.05 631.463 542.05C627.373 542.05 623.577 540.787 620.445 538.629" stroke="white" stroke-width="3"/>
<path d="M623.665 520.539L623.491 520.372L623.317 520.539L621.565 522.232L621.378 522.412L621.565 522.592L628.576 529.363L628.75 529.531L628.923 529.363L643.948 514.853L644.134 514.673L643.948 514.493L642.195 512.801L642.021 512.633L641.848 512.801L628.75 525.45L623.665 520.539Z" fill="white" stroke="white" stroke-width="0.5"/>
</svg>
