<svg width="1009" height="153" viewBox="0 0 1009 153" fill="none" xmlns="http://www.w3.org/2000/svg">
<path d="M295.048 115.56V118.17H300.028V128.55H302.998V109.5H300.028V115.56H295.048ZM287.908 119.19L295.138 124.68L296.818 122.52L288.958 116.67C289.318 115.44 289.558 114.12 289.618 112.74H296.068V110.16H279.718V112.74H286.618C286.348 117.87 283.678 121.56 279.388 122.16V124.89C283.168 124.5 286.168 122.4 287.908 119.19ZM284.218 132.12V126.63H281.188V134.79H303.538V132.12H284.218ZM326.636 118.5H329.636V109.8H307.706V112.38H326.636V118.5ZM331.526 122.52V119.97H305.936V122.52H317.216V126.66H307.496V129.21H326.726V135.15H329.726V126.66H320.216V122.52H331.526ZM351.871 117.81L363.301 122.94L364.531 120.45L353.371 115.5C353.761 114.69 354.061 113.79 354.241 112.86H363.691V110.16H341.071V112.86H351.091C350.011 117.12 345.661 119.85 340.441 120.27V123.03C345.061 122.73 349.291 120.87 351.871 117.81ZM365.191 125.79H339.601V128.55H350.851V135.72H353.851V128.55H365.191V125.79ZM386.369 131.16V124.2C389.279 122.88 390.989 120.6 390.989 117.75C390.989 113.01 386.429 109.95 379.439 109.95C372.449 109.95 367.889 113.01 367.889 117.75C367.889 120.63 369.599 122.88 372.539 124.23V131.16H366.659V133.89H392.249V131.16H386.369ZM371.039 117.75C371.039 114.63 374.399 112.65 379.439 112.65C384.479 112.65 387.869 114.63 387.869 117.75C387.869 120.81 384.479 122.82 379.439 122.82C374.399 122.82 371.039 120.81 371.039 117.75ZM375.509 125.16C376.709 125.4 378.029 125.52 379.439 125.52C380.879 125.52 382.199 125.4 383.399 125.16V131.16H375.509V125.16ZM414.656 109.5V135.12H417.626V109.5H414.656ZM404.666 113.16H411.236V110.43H394.886V113.16H401.666C401.546 122.67 398.846 129.81 394.286 130.65V133.59C398.156 133.14 401.216 129.96 402.986 124.59L409.886 133.38L412.226 131.61L403.856 121.26C404.336 118.86 404.636 116.13 404.666 113.16ZM441.954 109.5V112.23H437.424L437.604 114.87H441.954V118.89H437.604L437.424 121.53H441.954V124.8H444.894V109.5H441.954ZM436.734 116.88C436.734 112.8 433.704 109.77 428.874 109.77C424.014 109.77 420.984 112.8 420.984 116.88C420.984 120.96 424.014 123.99 428.874 123.99C433.704 123.99 436.734 120.96 436.734 116.88ZM423.954 116.88C423.954 114.03 425.934 112.26 428.874 112.26C431.784 112.26 433.764 114.03 433.764 116.88C433.764 119.73 431.724 121.5 428.874 121.5C425.934 121.5 423.954 119.73 423.954 116.88ZM423.174 128.79H441.864V135.12H444.894V126.21H423.174V128.79ZM481.229 119.88H477.629V109.5H474.659V135.12H477.629V122.73H481.229V119.88ZM455.369 113.16H466.289V116.67C466.289 125.25 462.329 130.68 455.369 130.71V133.53C464.069 133.53 469.319 126.81 469.319 116.61V110.43H455.369V113.16ZM499.137 117.45H503.307V124.47H506.127V109.5H503.307V114.72H499.137V109.65H496.317V123.63H499.137V117.45ZM493.377 110.13H482.277V122.64H493.377V110.13ZM490.617 120.15H485.037V112.62H490.617V120.15ZM495.057 124.98C488.937 124.98 483.597 126.27 483.597 130.05C483.597 133.83 488.937 135.12 495.057 135.12C501.177 135.12 506.517 133.83 506.517 130.05C506.517 126.27 501.177 124.98 495.057 124.98ZM495.057 132.69C490.857 132.69 486.747 132 486.747 130.05C486.747 128.1 490.857 127.38 495.057 127.38C499.257 127.38 503.367 128.1 503.367 130.05C503.367 132 499.257 132.69 495.057 132.69ZM529.704 109.5V114.33H524.724V116.91H529.704V123.66H532.674V109.5H529.704ZM517.584 118.08L525.114 122.91L526.584 120.69L518.694 115.71C519.024 114.78 519.204 113.76 519.264 112.71H525.744V110.16H509.394V112.71H516.294C515.934 116.88 513.294 119.91 509.064 120.48V123.15C512.844 122.79 515.844 120.9 517.584 118.08ZM510.864 134.79H532.674V125.07H510.864V134.79ZM513.834 127.56H529.704V132.27H513.834V127.56Z" fill="#8FD7ED"/>
<path d="M548.392 118.74C554.572 118.74 559.642 117.48 559.642 114.06C559.642 110.67 554.572 109.41 548.392 109.41C542.212 109.41 537.142 110.67 537.142 114.06C537.142 117.48 542.212 118.74 548.392 118.74ZM548.392 116.46C543.922 116.46 540.202 115.77 540.202 114.06C540.202 112.38 543.922 111.66 548.392 111.66C552.862 111.66 556.582 112.38 556.582 114.06C556.582 115.77 552.862 116.46 548.392 116.46ZM535.612 122.64H561.202V120.33H535.612V122.64ZM537.382 134.82H559.882V132.6H540.292V130.8H559.432V124.68H537.322V126.9H556.522V128.7H537.382V134.82ZM586.497 111.39H579.357V108.78H576.297V111.39H569.367V113.61H586.497V111.39ZM596.067 116.34H592.527V109.5H589.557V127.08H592.527V119.1H596.067V116.34ZM587.427 125.55V123.24C585.837 123.93 582.717 124.23 579.327 124.26V122.43C583.047 122.16 585.267 120.75 585.267 118.62C585.267 116.25 582.477 114.75 577.887 114.75C573.297 114.75 570.507 116.25 570.507 118.62C570.507 120.75 572.697 122.13 576.387 122.43V124.26H569.277V126.54H578.907C582.537 126.54 585.807 126.24 587.427 125.55ZM573.297 118.62C573.297 117.63 574.827 116.91 577.887 116.91C580.917 116.91 582.447 117.63 582.447 118.62C582.447 119.64 580.917 120.39 577.887 120.39C574.827 120.39 573.297 119.64 573.297 118.62ZM570.927 130.77H589.557V135.12H592.527V128.46H570.927V130.77ZM617.275 128.52H620.245V109.5H617.275V128.52ZM604.705 124.65C609.715 124.65 612.805 121.5 612.805 117.21C612.805 112.92 609.715 109.77 604.705 109.77C599.695 109.77 596.575 112.92 596.575 117.21C596.575 121.5 599.695 124.65 604.705 124.65ZM604.705 122.13C601.645 122.13 599.545 120.24 599.545 117.21C599.545 114.18 601.645 112.26 604.705 112.26C607.735 112.26 609.835 114.18 609.835 117.21C609.835 120.24 607.735 122.13 604.705 122.13ZM598.825 134.79H620.935V132.09H601.855V126.42H598.825V134.79ZM631.132 109.44H628.192V113.49H622.822V116.16H636.502V113.49H631.132V109.44ZM645.262 109.5V119.82H641.152V109.65H638.392V134.67H641.152V122.61H645.262V135.12H648.022V109.5H645.262ZM629.782 118.17C626.362 118.17 623.842 120.93 623.842 126.03C623.842 131.13 626.362 133.89 629.782 133.89C633.232 133.89 635.752 131.13 635.752 126.03C635.752 120.93 633.232 118.17 629.782 118.17ZM629.782 131.28C627.952 131.28 626.602 129.39 626.602 126.03C626.602 122.67 627.952 120.78 629.782 120.78C631.642 120.78 633.022 122.67 633.022 126.03C633.022 129.39 631.642 131.28 629.782 131.28ZM664.729 131.1V125.34H674.329V110.25H671.389V114.84H655.069V110.25H652.129V125.34H661.699V131.1H650.449V133.89H676.039V131.1H664.729ZM655.069 117.51H671.389V122.67H655.069V117.51ZM699.317 109.5V135.12H702.137V109.5H699.317ZM692.867 118.26H688.817V121.08H692.867V134.67H695.687V109.65H692.867V118.26ZM686.027 110.25L683.177 110.13C683.147 121.56 681.767 129.27 677.717 130.59V133.59C681.137 132.87 683.387 129.99 684.677 124.86L689.177 133.26L691.667 131.94L685.457 120.66C685.817 117.69 686.027 114.24 686.027 110.25ZM724.274 131.16V124.2C727.184 122.88 728.894 120.6 728.894 117.75C728.894 113.01 724.334 109.95 717.344 109.95C710.354 109.95 705.794 113.01 705.794 117.75C705.794 120.63 707.504 122.88 710.444 124.23V131.16H704.564V133.89H730.154V131.16H724.274ZM708.944 117.75C708.944 114.63 712.304 112.65 717.344 112.65C722.384 112.65 725.774 114.63 725.774 117.75C725.774 120.81 722.384 122.82 717.344 122.82C712.304 122.82 708.944 120.81 708.944 117.75ZM713.414 125.16C714.614 125.4 715.934 125.52 717.344 125.52C718.784 125.52 720.104 125.4 721.304 125.16V131.16H713.414V125.16Z" fill="white"/>
<path d="M72.6439 20.5V17.29C75.1639 16.54 76.7839 15.22 76.7839 13.24C76.7839 9.76 71.6839 8.35 65.4739 8.35C59.2639 8.35 54.1639 9.76 54.1639 13.24C54.1639 15.22 55.7839 16.54 58.3039 17.29V20.5H52.6939V22.9H78.2839V20.5H72.6439ZM57.3139 13.24C57.3139 11.47 61.0039 10.69 65.4739 10.69C69.9439 10.69 73.6339 11.47 73.6339 13.24C73.6339 15.04 69.9439 15.82 65.4739 15.82C61.0039 15.82 57.3139 15.04 57.3139 13.24ZM61.2439 17.92C62.5639 18.07 63.9739 18.16 65.4739 18.16C66.9739 18.16 68.3839 18.07 69.7039 17.92V20.5H61.2439V17.92ZM54.4639 33.82H76.4839V25.12H54.4639V33.82ZM57.4339 27.49H73.5439V31.45H57.4339V27.49ZM106.541 18.64H103.001V8.5H100.031V34.12H103.001V21.49H106.541V18.64ZM92.3514 25.81H95.3514V9.49H80.6814V12.25H92.3514V25.81ZM87.2214 29.8V18.94H84.2214V29.8H79.7514V32.59H89.5314C93.0414 32.59 96.0714 32.26 97.9014 31.51V28.72C96.0714 29.5 92.9514 29.8 89.5014 29.8H87.2214ZM130.727 10.66H123.527V8.05H120.527V10.66H113.327V12.97H130.727V10.66ZM140.207 14.71H136.607V8.5H133.637V23.77H136.607V17.53H140.207V14.71ZM122.027 23.56C126.257 23.56 129.527 21.88 129.527 19C129.527 16.03 126.257 14.32 122.027 14.32C117.767 14.32 114.497 16.03 114.497 19C114.497 21.88 117.767 23.56 122.027 23.56ZM122.027 16.51C124.877 16.51 126.707 17.56 126.707 19C126.707 20.38 124.877 21.37 122.027 21.37C119.147 21.37 117.347 20.38 117.347 19C117.347 17.56 119.147 16.51 122.027 16.51ZM115.187 33.79H136.607V25.18H115.187V33.79ZM118.127 27.55H133.667V31.42H118.127V27.55ZM162.554 8.5V34.12H165.254V8.5H162.554ZM157.064 18.52H153.914C153.944 17.68 153.944 16.84 153.944 15.94V9.43H148.154V11.95H151.214V16.24C151.214 24.46 150.284 29.41 147.224 29.95V32.53C151.484 32.05 153.254 28.09 153.764 21.25H157.064V33.67H159.764V8.65H157.064V18.52ZM146.894 9.43H140.744V11.95H144.164L144.194 15.85C144.254 23.11 143.624 28.51 140.744 29.05V31.63C145.814 31.03 146.984 24.91 146.924 15.58L146.894 9.43ZM441.253 8.44H438.223V12.55H431.443V15.19H448.063V12.55H441.253V8.44ZM457.663 18.88H454.063V8.5H451.093V34.12H454.063V21.73H457.663V18.88ZM439.753 17.23C435.583 17.23 432.613 20.35 432.613 25.06C432.613 29.77 435.583 32.89 439.753 32.89C443.923 32.89 446.863 29.77 446.863 25.06C446.863 20.35 443.923 17.23 439.753 17.23ZM439.753 30.31C437.353 30.31 435.493 28.33 435.493 25.06C435.493 21.79 437.353 19.81 439.753 19.81C442.123 19.81 443.983 21.79 443.983 25.06C443.983 28.33 442.123 30.31 439.753 30.31ZM478.721 26.32H481.811V9.4H459.491V12.19H478.721V26.32ZM470.531 30.1V18.67H467.471V30.1H457.931V32.89H483.521V30.1H470.531ZM515.506 8.5H512.536V22.75H515.506V8.5ZM508.006 15.43C508.006 11.5 504.886 8.77 499.996 8.77C495.076 8.77 491.956 11.5 491.956 15.43C491.956 19.39 495.076 22.09 499.996 22.09C504.886 22.09 508.006 19.39 508.006 15.43ZM494.926 15.43C494.926 12.79 496.996 11.23 499.996 11.23C502.966 11.23 505.036 12.79 505.036 15.43C505.036 18.07 502.966 19.63 499.996 19.63C496.996 19.63 494.926 18.07 494.926 15.43ZM517.576 31.81L512.056 27.52C512.476 26.41 512.746 25.24 512.866 23.95L509.986 23.53C509.716 27.13 507.706 30.19 505.306 30.94L501.376 27.7C501.856 26.56 502.186 25.3 502.336 23.92L499.456 23.53C499.126 27.49 496.636 30.82 493.816 31.09V33.79C496.276 33.61 498.556 32.2 500.146 29.95L504.496 33.79C507.016 33.64 509.326 32.17 510.886 29.8L515.806 33.91L517.576 31.81ZM520.484 18.43H542.654V15.79H523.484V8.5H520.484V18.43ZM518.654 23.89H544.244V21.25H518.654V23.89ZM520.424 33.82H542.924V31.18H523.454V26.17H520.424V33.82ZM579.109 18.88H575.509V8.5H572.539V34.12H575.509V21.73H579.109V18.88ZM553.249 12.16H564.169V15.67C564.169 24.25 560.209 29.68 553.249 29.71V32.53C561.949 32.53 567.199 25.81 567.199 15.61V9.43H553.249V12.16ZM597.017 16.45H601.187V23.47H604.007V8.5H601.187V13.72H597.017V8.65H594.197V22.63H597.017V16.45ZM591.257 9.13H580.157V21.64H591.257V9.13ZM588.497 19.15H582.917V11.62H588.497V19.15ZM592.937 23.98C586.817 23.98 581.477 25.27 581.477 29.05C581.477 32.83 586.817 34.12 592.937 34.12C599.057 34.12 604.397 32.83 604.397 29.05C604.397 25.27 599.057 23.98 592.937 23.98ZM592.937 31.69C588.737 31.69 584.627 31 584.627 29.05C584.627 27.1 588.737 26.38 592.937 26.38C597.137 26.38 601.247 27.1 601.247 29.05C601.247 31 597.137 31.69 592.937 31.69ZM627.584 8.5V13.33H622.604V15.91H627.584V22.66H630.554V8.5H627.584ZM615.464 17.08L622.994 21.91L624.464 19.69L616.574 14.71C616.904 13.78 617.084 12.76 617.144 11.71H623.624V9.16H607.274V11.71H614.174C613.814 15.88 611.174 18.91 606.944 19.48V22.15C610.724 21.79 613.724 19.9 615.464 17.08ZM608.744 33.79H630.554V24.07H608.744V33.79ZM611.714 26.56H627.584V31.27H611.714V26.56ZM646.272 17.74C652.452 17.74 657.522 16.48 657.522 13.06C657.522 9.67 652.452 8.41 646.272 8.41C640.092 8.41 635.022 9.67 635.022 13.06C635.022 16.48 640.092 17.74 646.272 17.74ZM646.272 15.46C641.802 15.46 638.082 14.77 638.082 13.06C638.082 11.38 641.802 10.66 646.272 10.66C650.742 10.66 654.462 11.38 654.462 13.06C654.462 14.77 650.742 15.46 646.272 15.46ZM633.492 21.64H659.082V19.33H633.492V21.64ZM635.262 33.82H657.762V31.6H638.172V29.8H657.312V23.68H635.202V25.9H654.402V27.7H635.262V33.82ZM688.307 8.5V14.14H682.517C682.637 13.45 682.727 12.7 682.727 11.92V9.13H667.967V11.65H679.727V12.43C679.727 17.05 675.197 19.24 667.967 19.27V21.85C674.357 21.85 679.187 20.32 681.407 16.87H688.307V22.42H691.277V8.5H688.307ZM669.467 33.79H691.277V23.83H669.467V33.79ZM672.437 26.35H688.307V31.27H672.437V26.35ZM716.025 8.5V14.29H711.675V8.65H708.855V24.01H711.675V17.08H716.025V24.28H718.845V8.5H716.025ZM701.055 17.86L706.035 23.26L708.075 21.43L701.985 14.98C702.405 13.15 702.615 11.11 702.615 8.89L699.765 8.8C699.765 14.98 698.235 19.75 694.215 20.8V23.56C697.485 22.99 699.705 20.95 701.055 17.86ZM696.405 28.24H715.905V34.12H718.845V25.69H696.405V28.24ZM729.012 8.44H726.072V12.49H720.702V15.16H734.382V12.49H729.012V8.44ZM743.142 8.5V18.82H739.032V8.65H736.272V33.67H739.032V21.61H743.142V34.12H745.902V8.5H743.142ZM727.662 17.17C724.242 17.17 721.722 19.93 721.722 25.03C721.722 30.13 724.242 32.89 727.662 32.89C731.112 32.89 733.632 30.13 733.632 25.03C733.632 19.93 731.112 17.17 727.662 17.17ZM727.662 30.28C725.832 30.28 724.482 28.39 724.482 25.03C724.482 21.67 725.832 19.78 727.662 19.78C729.522 19.78 730.902 21.67 730.902 25.03C730.902 28.39 729.522 30.28 727.662 30.28ZM769.218 30.1V24.34H778.818V9.25H775.878V13.84H759.558V9.25H756.618V24.34H766.188V30.1H754.938V32.89H780.528V30.1H769.218ZM759.558 16.51H775.878V21.67H759.558V16.51ZM805.905 8.5H802.935V21.04H805.905V8.5ZM791.025 15.88L799.005 20.38L800.445 18.13L792.315 13.66C792.945 12.22 793.275 10.6 793.275 8.92L790.305 8.74C790.275 13.39 787.245 17.29 782.385 18.16V20.8C786.105 20.32 789.105 18.49 791.025 15.88ZM787.155 31.45V29.23H805.905V22.45H784.155V24.79H802.965V27.01H784.215V33.79H806.535V31.45H787.155ZM828.171 15.76L839.211 22.06L840.591 19.57L829.611 13.48C830.331 12.04 830.871 10.45 831.171 8.8L828.111 8.32C827.001 14.38 821.781 19.3 816.261 19.27V22.09C820.941 22.06 825.321 19.63 828.171 15.76ZM841.251 24.79H815.661V27.55H826.911V34.72H829.941V27.55H841.251V24.79ZM873.236 8.5H870.266V22.75H873.236V8.5ZM865.736 15.43C865.736 11.5 862.616 8.77 857.726 8.77C852.806 8.77 849.686 11.5 849.686 15.43C849.686 19.39 852.806 22.09 857.726 22.09C862.616 22.09 865.736 19.39 865.736 15.43ZM852.656 15.43C852.656 12.79 854.726 11.23 857.726 11.23C860.696 11.23 862.766 12.79 862.766 15.43C862.766 18.07 860.696 19.63 857.726 19.63C854.726 19.63 852.656 18.07 852.656 15.43ZM875.306 31.81L869.786 27.52C870.206 26.41 870.476 25.24 870.596 23.95L867.716 23.53C867.446 27.13 865.436 30.19 863.036 30.94L859.106 27.7C859.586 26.56 859.916 25.3 860.066 23.92L857.186 23.53C856.856 27.49 854.366 30.82 851.546 31.09V33.79C854.006 33.61 856.286 32.2 857.876 29.95L862.226 33.79C864.746 33.64 867.056 32.17 868.616 29.8L873.536 33.91L875.306 31.81ZM900.174 17.8L901.164 15.55L890.544 11.35C891.114 10.45 891.534 9.46 891.744 8.41L888.774 7.9C887.784 12.28 882.264 15.13 877.314 15.31V17.77C881.664 17.68 886.134 16.03 888.954 13.27L900.174 17.8ZM876.384 19.78V22.15H901.974V19.78H876.384ZM897.264 26.47H881.094V24.07H878.154V33.82H900.174V24.07H897.264V26.47ZM881.094 31.48V28.78H897.264V31.48H881.094ZM924.381 34.15L927.351 34.12V8.5H924.381V34.15ZM904.911 32.59H915.381C917.841 32.59 920.451 32.11 922.011 31.33V28.6C920.451 29.35 917.811 29.86 915.381 29.86H907.941V9.28H904.911V32.59ZM957.289 18.88H953.689V8.5H950.719V34.12H953.689V21.73H957.289V18.88ZM934.729 29.89V12.13H946.489V9.43H931.699V32.59H941.719C944.179 32.59 946.939 32.14 948.499 31.36V28.66C946.939 29.41 944.299 29.89 941.869 29.89H934.729Z" fill="white"/>
<path d="M195.29 22.9H198.26V8.5H195.29V12.67H189.11V15.31H195.29V22.9ZM182.72 16.84L190.04 21.88L191.69 19.78L183.89 14.44C184.52 12.76 184.85 10.9 184.85 8.92L181.88 8.74C181.82 14.2 179 18.79 174.2 19.69V22.39C177.95 21.88 180.89 19.81 182.72 16.84ZM187.4 23.74C181.19 23.74 176.33 25.18 176.33 28.93C176.33 32.68 181.19 34.12 187.4 34.12C193.61 34.12 198.47 32.68 198.47 28.93C198.47 25.18 193.61 23.74 187.4 23.74ZM187.4 31.69C182.99 31.69 179.48 30.82 179.48 28.93C179.48 27.04 182.99 26.17 187.4 26.17C191.81 26.17 195.32 27.04 195.32 28.93C195.32 30.82 191.81 31.69 187.4 31.69ZM224.387 13.39V8.5H221.417V22.66H224.387V16.21H227.987V13.39H224.387ZM210.167 16.93L217.577 21.58L219.047 19.36L211.247 14.56C211.517 13.66 211.697 12.7 211.757 11.71H218.237V9.16H201.887V11.71H208.787C208.397 15.79 205.787 18.91 201.557 19.48V22.15C205.397 21.76 208.427 19.78 210.167 16.93ZM213.797 23.5C207.677 23.5 202.817 24.97 202.817 28.81C202.817 32.65 207.677 34.12 213.797 34.12C219.947 34.12 224.777 32.65 224.777 28.81C224.777 24.97 219.947 23.5 213.797 23.5ZM213.797 31.66C209.447 31.66 205.997 30.79 205.997 28.81C205.997 26.86 209.447 25.96 213.797 25.96C218.177 25.96 221.597 26.86 221.597 28.81C221.597 30.79 218.177 31.66 213.797 31.66ZM238.635 8.44H235.605V12.55H228.825V15.19H245.445V12.55H238.635V8.44ZM255.045 18.88H251.445V8.5H248.475V34.12H251.445V21.73H255.045V18.88ZM237.135 17.23C232.965 17.23 229.995 20.35 229.995 25.06C229.995 29.77 232.965 32.89 237.135 32.89C241.305 32.89 244.245 29.77 244.245 25.06C244.245 20.35 241.305 17.23 237.135 17.23ZM237.135 30.31C234.735 30.31 232.875 28.33 232.875 25.06C232.875 21.79 234.735 19.81 237.135 19.81C239.505 19.81 241.365 21.79 241.365 25.06C241.365 28.33 239.505 30.31 237.135 30.31ZM276.462 8.5V14.8H272.112V17.59H276.462V23.5H272.112V26.29H276.462V34.12H279.432V8.5H276.462ZM256.662 32.59H270.702V9.43H256.662V32.59ZM259.602 12.19H267.762V29.83H259.602V12.19ZM301.488 15.76L312.528 22.06L313.908 19.57L302.928 13.48C303.648 12.04 304.188 10.45 304.488 8.8L301.428 8.32C300.318 14.38 295.098 19.3 289.578 19.27V22.09C294.258 22.06 298.638 19.63 301.488 15.76ZM314.568 24.79H288.978V27.55H300.228V34.72H303.258V27.55H314.568V24.79ZM336.975 23.8H339.945V8.5H336.975V23.8ZM324.405 22.99C329.295 22.99 332.445 19.96 332.445 15.88C332.445 11.8 329.295 8.77 324.405 8.77C319.485 8.77 316.335 11.8 316.335 15.88C316.335 19.96 319.485 22.99 324.405 22.99ZM324.405 20.5C321.435 20.5 319.305 18.73 319.305 15.88C319.305 13.03 321.435 11.26 324.405 11.26C327.345 11.26 329.475 13.03 329.475 15.88C329.475 18.73 327.345 20.5 324.405 20.5ZM336.945 34.12H339.945V25.21H318.285V27.79H336.945V34.12ZM355.873 17.74C362.053 17.74 367.123 16.48 367.123 13.06C367.123 9.67 362.053 8.41 355.873 8.41C349.693 8.41 344.623 9.67 344.623 13.06C344.623 16.48 349.693 17.74 355.873 17.74ZM355.873 15.46C351.403 15.46 347.683 14.77 347.683 13.06C347.683 11.38 351.403 10.66 355.873 10.66C360.343 10.66 364.063 11.38 364.063 13.06C364.063 14.77 360.343 15.46 355.873 15.46ZM343.093 21.64H368.683V19.33H343.093V21.64ZM344.863 33.82H367.363V31.6H347.773V29.8H366.913V23.68H344.803V25.9H364.003V27.7H344.863V33.82ZM385.338 18.13L392.898 22.63L394.308 20.38L386.508 15.85C386.808 15.07 387.018 14.23 387.138 13.39H393.858V10.9H387.168V8.05H384.168V10.9H377.388V13.39H384.108C383.508 17.05 381.018 19.81 377.118 20.38V22.96C380.688 22.57 383.568 20.74 385.338 18.13ZM399.948 14.17V8.5H396.978V23.71H399.948V17.02H403.548V14.17H399.948ZM389.358 24.46C383.238 24.46 378.378 25.72 378.378 29.29C378.378 32.86 383.238 34.12 389.358 34.12C395.508 34.12 400.338 32.86 400.338 29.29C400.338 25.72 395.508 24.46 389.358 24.46ZM389.358 31.75C384.978 31.75 381.528 31.06 381.528 29.29C381.528 27.52 384.978 26.83 389.358 26.83C393.738 26.83 397.188 27.52 397.188 29.29C397.188 31.06 393.738 31.75 389.358 31.75ZM427.726 18.22L428.386 16.03L417.616 13.3C417.856 12.91 418.036 12.49 418.156 12.04H427.876V9.82H418.126V7.48H415.096V9.82H405.316V12.04H415.036C413.896 14.65 408.946 15.82 404.836 15.94V18.19C408.886 18.1 413.326 17.11 415.936 15.13L427.726 18.22ZM429.406 22V19.72H403.816V22H415.096V24.16H405.526V26.32H424.726V27.94H405.586V33.82H428.086V31.66H408.496V30.01H427.636V24.16H418.096V22H429.406Z" fill="#8FD7ED"/>
<path d="M6.24 32.08C2.08 32.08 0 30.3733 0 26.96C0 23.44 1.46667 19.8667 4.4 16.24C7.33333 12.6133 10.6667 10.8 14.4 10.8C15.1467 10.8 15.9467 10.96 16.8 11.28C17.6533 11.5467 18.08 12.08 18.08 12.88C18.08 13.68 17.7867 14.2933 17.2 14.72C16.6667 15.1467 16.0267 15.5733 15.28 16C14.5333 16.3733 13.7867 16.8267 13.04 17.36C12.3467 17.8933 11.8133 18.6667 11.44 19.68C13.2533 20.8533 14.16 22.72 14.16 25.28C14.16 27.04 13.3067 28.6133 11.6 30C9.94667 31.3867 8.16 32.08 6.24 32.08ZM28.32 18.88C30.1333 20.0533 31.04 21.8933 31.04 24.4C31.04 26.8533 30.1067 28.88 28.24 30.48C26.3733 32.08 24.1333 32.88 21.52 32.88C20.08 32.88 18.8 32.48 17.68 31.68C16.6133 30.88 16.08 29.52 16.08 27.6C16.08 23.5467 17.6533 19.6 20.8 15.76C23.9467 11.92 27.44 10 31.28 10C32.0267 10 32.8267 10.16 33.68 10.48C34.5333 10.7467 34.96 11.28 34.96 12.08C34.96 12.88 34.6667 13.4933 34.08 13.92C33.5467 14.3467 32.9067 14.7733 32.16 15.2C31.4133 15.5733 30.6667 16.0267 29.92 16.56C29.2267 17.0933 28.6933 17.8667 28.32 18.88Z" fill="white"/>
<path d="M1002.64 10.92C1006.8 10.92 1008.88 12.6267 1008.88 16.04C1008.88 19.56 1007.41 23.1333 1004.47 26.76C1001.54 30.3867 998.208 32.2 994.475 32.2C993.728 32.2 992.928 32.04 992.075 31.72C991.222 31.4533 990.795 30.92 990.795 30.12C990.795 29.32 991.088 28.7067 991.675 28.28C992.208 27.8533 992.848 27.4267 993.595 27C994.342 26.6267 995.088 26.1733 995.835 25.64C996.528 25.1067 997.062 24.3333 997.435 23.32C995.622 22.1467 994.715 20.28 994.715 17.72C994.715 15.96 995.568 14.3867 997.275 13C998.928 11.6133 1000.72 10.92 1002.64 10.92ZM980.555 24.12C978.742 22.9467 977.835 21.1067 977.835 18.6C977.835 16.1467 978.768 14.12 980.635 12.52C982.502 10.92 984.742 10.12 987.355 10.12C988.795 10.12 990.075 10.52 991.195 11.32C992.262 12.12 992.795 13.48 992.795 15.4C992.795 19.4533 991.222 23.4 988.075 27.24C984.928 31.08 981.435 33 977.595 33C976.848 33 976.048 32.84 975.195 32.52C974.342 32.2533 973.915 31.72 973.915 30.92C973.915 30.12 974.208 29.5067 974.795 29.08C975.328 28.6533 975.968 28.2267 976.715 27.8C977.462 27.4267 978.208 26.9733 978.955 26.44C979.648 25.9067 980.182 25.1333 980.555 24.12Z" fill="white"/>
<rect x="241.5" y="91.5" width="527" height="61" rx="1.5" stroke="white"/>
</svg>
