<svg width="174" height="77" viewBox="0 0 174 77" fill="none" xmlns="http://www.w3.org/2000/svg">
<path d="M95.4717 43V32.728L96.1757 33.272H93.0877V31.32H97.7277V43H95.4717ZM103.837 43.304C102.919 43.304 102.13 43.1227 101.469 42.76C100.818 42.3973 100.317 41.9173 99.9646 41.32C99.6233 40.712 99.4526 40.0507 99.4526 39.336H101.645C101.645 39.7413 101.735 40.0987 101.917 40.408C102.109 40.7173 102.37 40.9627 102.701 41.144C103.031 41.3147 103.415 41.4 103.853 41.4C104.311 41.4 104.706 41.304 105.037 41.112C105.367 40.92 105.618 40.6587 105.789 40.328C105.97 39.9973 106.061 39.6187 106.061 39.192C106.061 38.776 105.97 38.4027 105.789 38.072C105.618 37.7307 105.367 37.464 105.037 37.272C104.717 37.0693 104.327 36.968 103.869 36.968C103.485 36.968 103.122 37.0427 102.781 37.192C102.439 37.3413 102.173 37.5387 101.981 37.784H99.8846L100.477 31.32H107.245V33.256H101.469L102.269 32.632L101.885 36.664L101.341 36.504C101.65 36.152 102.029 35.8587 102.477 35.624C102.925 35.3893 103.49 35.272 104.173 35.272C105.037 35.272 105.773 35.448 106.381 35.8C106.989 36.152 107.453 36.6213 107.773 37.208C108.093 37.784 108.253 38.4133 108.253 39.096V39.304C108.253 39.9973 108.082 40.648 107.741 41.256C107.399 41.864 106.898 42.36 106.237 42.744C105.586 43.1173 104.786 43.304 103.837 43.304ZM108.824 40.584V38.12L113.4 31L115.112 32.168L111.08 38.472L111.272 38.792H118.44V40.584H108.824ZM114.936 43V34.632H117.032V43H114.936ZM118.778 40.584V38.12L123.354 31L125.066 32.168L121.034 38.472L121.226 38.792H128.394V40.584H118.778ZM124.89 43V34.632H126.986V43H124.89ZM128.94 39.48V37.528H135.42V39.48H128.94ZM138.553 43V32.728L139.257 33.272H136.169V31.32H140.809V43H138.553ZM142.79 43V40.76C142.79 40.2693 142.865 39.8427 143.014 39.48C143.174 39.1173 143.43 38.7973 143.782 38.52C144.145 38.232 144.619 37.96 145.206 37.704L147.19 36.824C147.681 36.6 148.054 36.328 148.31 36.008C148.577 35.6773 148.71 35.256 148.71 34.744C148.71 34.1787 148.539 33.7307 148.198 33.4C147.867 33.0587 147.393 32.888 146.774 32.888C146.155 32.888 145.675 33.0587 145.334 33.4C145.003 33.7413 144.838 34.216 144.838 34.824H142.646C142.646 34.0987 142.801 33.448 143.11 32.872C143.419 32.2853 143.878 31.8267 144.486 31.496C145.094 31.1547 145.857 30.984 146.774 30.984C147.691 30.984 148.454 31.1493 149.062 31.48C149.67 31.8107 150.129 32.2533 150.438 32.808C150.747 33.352 150.902 33.96 150.902 34.632V34.84C150.902 35.7147 150.657 36.4453 150.166 37.032C149.675 37.608 148.955 38.1093 148.006 38.536L146.022 39.416C145.649 39.576 145.387 39.7467 145.238 39.928C145.089 40.0987 145.014 40.3333 145.014 40.632V41.656L144.47 41.064H150.95V43H142.79ZM157.205 43.304C156.288 43.304 155.509 43.1547 154.869 42.856C154.229 42.5467 153.706 42.1307 153.301 41.608C152.896 41.0747 152.597 40.4667 152.405 39.784C152.224 39.0907 152.133 38.3653 152.133 37.608V36.712C152.133 35.6347 152.314 34.664 152.677 33.8C153.04 32.936 153.594 32.2533 154.341 31.752C155.088 31.24 156.042 30.984 157.205 30.984C158.357 30.984 159.306 31.24 160.053 31.752C160.8 32.2533 161.349 32.936 161.701 33.8C162.064 34.664 162.245 35.6347 162.245 36.712V37.608C162.245 38.3653 162.149 39.0907 161.957 39.784C161.776 40.4667 161.482 41.0747 161.077 41.608C160.682 42.1307 160.165 42.5467 159.525 42.856C158.885 43.1547 158.112 43.304 157.205 43.304ZM157.205 41.224C158.154 41.224 158.853 40.8987 159.301 40.248C159.749 39.5867 159.973 38.5627 159.973 37.176C159.973 35.704 159.744 34.6533 159.285 34.024C158.826 33.384 158.133 33.064 157.205 33.064C156.266 33.064 155.562 33.384 155.093 34.024C154.634 34.6533 154.405 35.6933 154.405 37.144C154.405 38.5413 154.634 39.5707 155.093 40.232C155.552 40.8933 156.256 41.224 157.205 41.224ZM163.203 40.584V38.12L167.779 31L169.491 32.168L165.459 38.472L165.651 38.792H172.819V40.584H163.203ZM169.315 43V34.632H171.411V43H169.315Z" fill="white"/>
<path d="M28.8887 36.4062C31.4782 41.2126 35.6502 45.1358 40.7394 47.5985L44.6956 43.862C45.1811 43.4035 45.9005 43.2506 46.5299 43.4544C48.5439 44.0828 50.7198 44.4225 52.9497 44.4225C53.9388 44.4225 54.748 45.1868 54.748 46.1209V52.0482C54.748 52.9823 53.9388 53.7466 52.9497 53.7466C36.0638 53.7466 22.3789 40.8219 22.3789 24.8742C22.3789 23.9401 23.1881 23.1758 24.1772 23.1758H30.4712C31.4602 23.1758 32.2695 23.9401 32.2695 24.8742C32.2695 26.9971 32.6291 29.0352 33.2945 30.9374C33.4923 31.5318 33.3484 32.1942 32.8449 32.6697L28.8887 36.4062Z" fill="white"/>
<path d="M76.0011 38.0512C76.0011 58.5697 59.3673 75.2033 38.8485 75.2033C18.3298 75.2033 1.69602 58.5697 1.69602 38.0512C1.69602 17.5327 18.3298 0.899142 38.8485 0.899142C59.3673 0.899142 76.0011 17.5327 76.0011 38.0512Z" stroke="white" stroke-width="1.79828"/>
</svg>
