<svg width="257" height="77" viewBox="0 0 257 77" fill="none" xmlns="http://www.w3.org/2000/svg">
<path d="M96.864 44.288C96.256 44.288 95.696 44.176 95.184 43.952C94.672 43.728 94.2293 43.4133 93.856 43.008C93.4827 42.6027 93.1947 42.1333 92.992 41.6C92.7893 41.056 92.688 40.4693 92.688 39.84V39.504C92.688 38.8853 92.784 38.304 92.976 37.76C93.1787 37.216 93.456 36.7413 93.808 36.336C94.1707 35.9307 94.6027 35.616 95.104 35.392C95.616 35.1573 96.1813 35.04 96.8 35.04C97.4827 35.04 98.08 35.1893 98.592 35.488C99.1147 35.776 99.5307 36.2133 99.84 36.8C100.149 37.3867 100.32 38.1227 100.352 39.008L99.696 38.24V32.32H101.92V44H100.16V40.304H100.544C100.512 41.1893 100.331 41.9307 100 42.528C99.6693 43.1147 99.232 43.5573 98.688 43.856C98.1547 44.144 97.5467 44.288 96.864 44.288ZM97.36 42.416C97.7973 42.416 98.1973 42.32 98.56 42.128C98.9227 41.9253 99.2107 41.6373 99.424 41.264C99.648 40.88 99.76 40.432 99.76 39.92V39.28C99.76 38.768 99.648 38.3413 99.424 38C99.2 37.648 98.9067 37.3813 98.544 37.2C98.1813 37.008 97.7867 36.912 97.36 36.912C96.88 36.912 96.4533 37.0293 96.08 37.264C95.7173 37.488 95.4293 37.808 95.216 38.224C95.0133 38.64 94.912 39.1253 94.912 39.68C94.912 40.2347 95.0187 40.72 95.232 41.136C95.4453 41.5413 95.7333 41.856 96.096 42.08C96.4693 42.304 96.8907 42.416 97.36 42.416ZM103.811 44V35.312H105.571V39.04H105.411C105.411 38.1547 105.529 37.4187 105.763 36.832C105.998 36.2347 106.345 35.7867 106.803 35.488C107.273 35.1893 107.854 35.04 108.548 35.04H108.643C109.678 35.04 110.462 35.376 110.995 36.048C111.529 36.7093 111.795 37.7013 111.795 39.024V44H109.571V38.832C109.571 38.2987 109.417 37.8667 109.108 37.536C108.809 37.2053 108.393 37.04 107.859 37.04C107.315 37.04 106.873 37.2107 106.531 37.552C106.201 37.8827 106.035 38.3307 106.035 38.896V44H103.811ZM113.754 44V35.104C113.754 34.112 114.026 33.3813 114.57 32.912C115.125 32.432 115.941 32.192 117.018 32.192H118.106V33.904H116.858C116.528 33.904 116.272 33.9947 116.09 34.176C115.92 34.3467 115.834 34.592 115.834 34.912V44H113.754ZM112.666 37.088V35.456H118.25V37.088H112.666ZM122.888 31.984C123.752 31.984 124.483 32.1333 125.08 32.432C125.688 32.72 126.179 33.12 126.552 33.632C126.926 34.144 127.198 34.7413 127.368 35.424C127.539 36.096 127.624 36.8107 127.624 37.568V38.272C127.624 40.1813 127.139 41.632 126.168 42.624C125.208 43.6053 123.795 44.096 121.928 44.096C121.523 44.096 121.144 44.0853 120.792 44.064C120.44 44.0427 120.088 44.0107 119.736 43.968V42.064C120.088 42.1067 120.446 42.1387 120.808 42.16C121.182 42.1813 121.582 42.192 122.008 42.192C122.904 42.192 123.608 42.0373 124.12 41.728C124.632 41.4187 124.995 40.9653 125.208 40.368C125.432 39.7707 125.544 39.0293 125.544 38.144V37.104L126.056 36.368C126.046 37.1893 125.88 37.872 125.56 38.416C125.251 38.9493 124.819 39.3547 124.264 39.632C123.71 39.8987 123.075 40.032 122.36 40.032C121.528 40.032 120.819 39.8667 120.232 39.536C119.646 39.2053 119.192 38.7467 118.872 38.16C118.563 37.5733 118.408 36.8907 118.408 36.112C118.408 35.3013 118.59 34.5867 118.952 33.968C119.315 33.3387 119.827 32.8533 120.488 32.512C121.16 32.16 121.96 31.984 122.888 31.984ZM122.936 33.888C122.435 33.888 122.008 33.984 121.656 34.176C121.304 34.3573 121.038 34.6133 120.856 34.944C120.675 35.2747 120.584 35.6533 120.584 36.08C120.584 36.5173 120.67 36.9013 120.84 37.232C121.022 37.5627 121.283 37.8187 121.624 38C121.966 38.1813 122.376 38.272 122.856 38.272C123.315 38.272 123.731 38.192 124.104 38.032C124.488 37.8613 124.787 37.616 125 37.296C125.224 36.9653 125.336 36.56 125.336 36.08C125.336 35.664 125.246 35.2907 125.064 34.96C124.894 34.6293 124.627 34.368 124.264 34.176C123.912 33.984 123.47 33.888 122.936 33.888ZM134.004 44.304C133.087 44.304 132.308 44.1547 131.668 43.856C131.028 43.5467 130.505 43.1307 130.1 42.608C129.695 42.0747 129.396 41.4667 129.204 40.784C129.023 40.0907 128.932 39.3653 128.932 38.608V37.712C128.932 36.6347 129.113 35.664 129.476 34.8C129.839 33.936 130.393 33.2533 131.14 32.752C131.887 32.24 132.841 31.984 134.004 31.984C135.156 31.984 136.105 32.24 136.852 32.752C137.599 33.2533 138.148 33.936 138.5 34.8C138.863 35.664 139.044 36.6347 139.044 37.712V38.608C139.044 39.3653 138.948 40.0907 138.756 40.784C138.575 41.4667 138.281 42.0747 137.876 42.608C137.481 43.1307 136.964 43.5467 136.324 43.856C135.684 44.1547 134.911 44.304 134.004 44.304ZM134.004 42.224C134.953 42.224 135.652 41.8987 136.1 41.248C136.548 40.5867 136.772 39.5627 136.772 38.176C136.772 36.704 136.543 35.6533 136.084 35.024C135.625 34.384 134.932 34.064 134.004 34.064C133.065 34.064 132.361 34.384 131.892 35.024C131.433 35.6533 131.204 36.6933 131.204 38.144C131.204 39.5413 131.433 40.5707 131.892 41.232C132.351 41.8933 133.055 42.224 134.004 42.224ZM144.562 44.304C143.644 44.304 142.855 44.1227 142.194 43.76C141.543 43.3973 141.042 42.9173 140.69 42.32C140.348 41.712 140.178 41.0507 140.178 40.336H142.37C142.37 40.7413 142.46 41.0987 142.642 41.408C142.834 41.7173 143.095 41.9627 143.426 42.144C143.756 42.3147 144.14 42.4 144.578 42.4C145.036 42.4 145.431 42.304 145.762 42.112C146.092 41.92 146.343 41.6587 146.514 41.328C146.695 40.9973 146.786 40.6187 146.786 40.192C146.786 39.776 146.695 39.4027 146.514 39.072C146.343 38.7307 146.092 38.464 145.762 38.272C145.442 38.0693 145.052 37.968 144.594 37.968C144.21 37.968 143.847 38.0427 143.506 38.192C143.164 38.3413 142.898 38.5387 142.706 38.784H140.61L141.202 32.32H147.97V34.256H142.194L142.994 33.632L142.61 37.664L142.066 37.504C142.375 37.152 142.754 36.8587 143.202 36.624C143.65 36.3893 144.215 36.272 144.898 36.272C145.762 36.272 146.498 36.448 147.106 36.8C147.714 37.152 148.178 37.6213 148.498 38.208C148.818 38.784 148.978 39.4133 148.978 40.096V40.304C148.978 40.9973 148.807 41.648 148.466 42.256C148.124 42.864 147.623 43.36 146.962 43.744C146.311 44.1173 145.511 44.304 144.562 44.304ZM154.093 31.984C154.957 31.984 155.688 32.1333 156.285 32.432C156.893 32.72 157.384 33.12 157.757 33.632C158.131 34.144 158.403 34.7413 158.573 35.424C158.744 36.096 158.829 36.8107 158.829 37.568V38.272C158.829 40.1813 158.344 41.632 157.373 42.624C156.413 43.6053 155 44.096 153.133 44.096C152.728 44.096 152.349 44.0853 151.997 44.064C151.645 44.0427 151.293 44.0107 150.941 43.968V42.064C151.293 42.1067 151.651 42.1387 152.013 42.16C152.387 42.1813 152.787 42.192 153.213 42.192C154.109 42.192 154.813 42.0373 155.325 41.728C155.837 41.4187 156.2 40.9653 156.413 40.368C156.637 39.7707 156.749 39.0293 156.749 38.144V37.104L157.261 36.368C157.251 37.1893 157.085 37.872 156.765 38.416C156.456 38.9493 156.024 39.3547 155.469 39.632C154.915 39.8987 154.28 40.032 153.565 40.032C152.733 40.032 152.024 39.8667 151.437 39.536C150.851 39.2053 150.397 38.7467 150.077 38.16C149.768 37.5733 149.613 36.8907 149.613 36.112C149.613 35.3013 149.795 34.5867 150.157 33.968C150.52 33.3387 151.032 32.8533 151.693 32.512C152.365 32.16 153.165 31.984 154.093 31.984ZM154.141 33.888C153.64 33.888 153.213 33.984 152.861 34.176C152.509 34.3573 152.243 34.6133 152.061 34.944C151.88 35.2747 151.789 35.6533 151.789 36.08C151.789 36.5173 151.875 36.9013 152.045 37.232C152.227 37.5627 152.488 37.8187 152.829 38C153.171 38.1813 153.581 38.272 154.061 38.272C154.52 38.272 154.936 38.192 155.309 38.032C155.693 37.8613 155.992 37.616 156.205 37.296C156.429 36.9653 156.541 36.56 156.541 36.08C156.541 35.664 156.451 35.2907 156.269 34.96C156.099 34.6293 155.832 34.368 155.469 34.176C155.117 33.984 154.675 33.888 154.141 33.888ZM168.201 47.92C167.028 47.92 165.94 47.7333 164.937 47.36C163.945 46.9867 163.081 46.4533 162.345 45.76C161.609 45.0667 161.038 44.2347 160.633 43.264C160.228 42.2827 160.025 41.1893 160.025 39.984C160.025 38.8107 160.217 37.7387 160.601 36.768C160.996 35.7867 161.556 34.944 162.281 34.24C163.006 33.5253 163.876 32.976 164.889 32.592C165.902 32.1973 167.033 32 168.281 32C169.369 32 170.388 32.1547 171.337 32.464C172.297 32.7733 173.14 33.232 173.865 33.84C174.601 34.4373 175.177 35.1787 175.593 36.064C176.009 36.9493 176.217 37.9733 176.217 39.136C176.217 40.0747 176.073 40.9067 175.785 41.632C175.508 42.3573 175.102 42.9333 174.569 43.36C174.046 43.776 173.412 43.984 172.665 43.984C172.142 43.984 171.684 43.8773 171.289 43.664C170.905 43.44 170.606 43.1307 170.393 42.736C170.18 42.3307 170.073 41.8613 170.073 41.328V40.416H170.585C170.553 41.1733 170.398 41.808 170.121 42.32C169.844 42.832 169.47 43.2213 169.001 43.488C168.542 43.744 168.025 43.872 167.449 43.872C166.788 43.872 166.19 43.712 165.657 43.392C165.134 43.072 164.718 42.6293 164.409 42.064C164.1 41.488 163.945 40.832 163.945 40.096V39.84C163.945 39.0933 164.094 38.4427 164.393 37.888C164.702 37.3333 165.118 36.9067 165.641 36.608C166.164 36.2987 166.756 36.144 167.417 36.144C168.025 36.144 168.564 36.2773 169.033 36.544C169.502 36.8107 169.876 37.1947 170.153 37.696C170.441 38.1867 170.601 38.7787 170.633 39.472H170.217V36.416H171.849V41.216C171.849 41.4613 171.886 41.664 171.961 41.824C172.036 41.984 172.142 42.1067 172.281 42.192C172.42 42.2773 172.58 42.32 172.761 42.32C173.092 42.32 173.38 42.192 173.625 41.936C173.87 41.68 174.062 41.3227 174.201 40.864C174.35 40.3947 174.425 39.84 174.425 39.2C174.425 38.2507 174.265 37.4293 173.945 36.736C173.625 36.0427 173.177 35.472 172.601 35.024C172.036 34.5653 171.38 34.2293 170.633 34.016C169.897 33.792 169.118 33.68 168.297 33.68C167.294 33.68 166.393 33.8347 165.593 34.144C164.793 34.4427 164.11 34.8747 163.545 35.44C162.99 35.9947 162.564 36.6613 162.265 37.44C161.966 38.208 161.817 39.0613 161.817 40C161.817 41.2587 162.089 42.3573 162.633 43.296C163.177 44.224 163.929 44.9387 164.889 45.44C165.849 45.952 166.953 46.208 168.201 46.208C168.553 46.208 168.91 46.1867 169.273 46.144C169.636 46.1013 169.972 46.048 170.281 45.984V47.712C169.972 47.776 169.636 47.824 169.273 47.856C168.91 47.8987 168.553 47.92 168.201 47.92ZM167.849 42.224C168.212 42.224 168.542 42.144 168.841 41.984C169.15 41.8133 169.39 41.568 169.561 41.248C169.742 40.9173 169.833 40.528 169.833 40.08V39.728C169.833 39.3013 169.742 38.9493 169.561 38.672C169.38 38.384 169.14 38.1653 168.841 38.016C168.542 37.8667 168.212 37.792 167.849 37.792C167.444 37.792 167.092 37.8827 166.793 38.064C166.494 38.2453 166.265 38.5013 166.105 38.832C165.945 39.152 165.865 39.5307 165.865 39.968C165.865 40.3947 165.945 40.7787 166.105 41.12C166.265 41.4613 166.489 41.7333 166.777 41.936C167.076 42.128 167.433 42.224 167.849 42.224ZM177.785 44V35.312H179.545V39.04H179.385C179.385 38.1547 179.502 37.4187 179.737 36.832C179.971 36.2347 180.318 35.7867 180.777 35.488C181.246 35.1893 181.827 35.04 182.521 35.04H182.617C183.651 35.04 184.435 35.376 184.969 36.048C185.502 36.7093 185.769 37.7013 185.769 39.024V44H183.545V38.832C183.545 38.2987 183.39 37.8667 183.081 37.536C182.782 37.2053 182.366 37.04 181.833 37.04C181.289 37.04 180.846 37.2107 180.505 37.552C180.174 37.8827 180.009 38.3307 180.009 38.896V44H177.785ZM192.784 44V41.424H192.416V38.56C192.416 38.0587 192.293 37.6853 192.048 37.44C191.802 37.1947 191.424 37.072 190.912 37.072C190.645 37.072 190.325 37.0773 189.952 37.088C189.578 37.0987 189.2 37.1147 188.816 37.136C188.442 37.1467 188.106 37.1627 187.808 37.184V35.296C188.053 35.2747 188.33 35.2533 188.64 35.232C188.949 35.2107 189.264 35.2 189.584 35.2C189.914 35.1893 190.224 35.184 190.512 35.184C191.408 35.184 192.149 35.3013 192.736 35.536C193.333 35.7707 193.781 36.1387 194.08 36.64C194.389 37.1413 194.544 37.7973 194.544 38.608V44H192.784ZM189.984 44.224C189.354 44.224 188.8 44.112 188.32 43.888C187.85 43.664 187.482 43.344 187.216 42.928C186.96 42.512 186.832 42.0107 186.832 41.424C186.832 40.784 186.986 40.2613 187.296 39.856C187.616 39.4507 188.058 39.1467 188.624 38.944C189.2 38.7413 189.872 38.64 190.64 38.64H192.656V39.968H190.608C190.096 39.968 189.701 40.096 189.424 40.352C189.157 40.5973 189.024 40.9173 189.024 41.312C189.024 41.7067 189.157 42.0267 189.424 42.272C189.701 42.5173 190.096 42.64 190.608 42.64C190.917 42.64 191.2 42.5867 191.456 42.48C191.722 42.3627 191.941 42.1707 192.112 41.904C192.293 41.6267 192.394 41.2533 192.416 40.784L192.96 41.408C192.906 42.016 192.757 42.528 192.512 42.944C192.277 43.36 191.946 43.68 191.52 43.904C191.104 44.1173 190.592 44.224 189.984 44.224ZM197.92 44L195.2 35.312H197.488L200.096 44H197.92ZM198.576 44V42.176H200.928V44H198.576ZM199.456 44L201.696 35.312H203.84L201.488 44H199.456ZM208.581 44.304C207.834 44.304 207.178 44.176 206.613 43.92C206.058 43.664 205.594 43.3227 205.221 42.896C204.858 42.4587 204.581 41.9733 204.389 41.44C204.207 40.9067 204.117 40.3627 204.117 39.808V39.504C204.117 38.928 204.207 38.3733 204.389 37.84C204.581 37.296 204.858 36.816 205.221 36.4C205.594 35.9733 206.053 35.6373 206.597 35.392C207.141 35.136 207.77 35.008 208.485 35.008C209.423 35.008 210.207 35.216 210.837 35.632C211.477 36.0373 211.957 36.576 212.277 37.248C212.597 37.9093 212.757 38.624 212.757 39.392V40.192H205.061V38.832H211.365L210.677 39.504C210.677 38.9493 210.597 38.4747 210.437 38.08C210.277 37.6853 210.031 37.3813 209.701 37.168C209.381 36.9547 208.975 36.848 208.485 36.848C207.994 36.848 207.578 36.96 207.237 37.184C206.895 37.408 206.634 37.7333 206.453 38.16C206.282 38.576 206.197 39.0773 206.197 39.664C206.197 40.208 206.282 40.6933 206.453 41.12C206.623 41.536 206.885 41.8667 207.237 42.112C207.589 42.3467 208.037 42.464 208.581 42.464C209.125 42.464 209.567 42.3573 209.909 42.144C210.25 41.92 210.469 41.648 210.565 41.328H212.613C212.485 41.9253 212.239 42.448 211.877 42.896C211.514 43.344 211.05 43.6907 210.485 43.936C209.93 44.1813 209.295 44.304 208.581 44.304ZM213.975 44V35.312H215.735V38.992H215.687C215.687 37.744 215.953 36.8 216.487 36.16C217.02 35.52 217.804 35.2 218.839 35.2H219.159V37.136H218.551C217.804 37.136 217.223 37.3387 216.807 37.744C216.401 38.1387 216.199 38.7147 216.199 39.472V44H213.975ZM218.701 44V41.44H221.197V44H218.701ZM226.379 44.304C225.621 44.304 224.965 44.176 224.411 43.92C223.867 43.664 223.408 43.3227 223.035 42.896C222.672 42.4693 222.4 41.9893 222.219 41.456C222.037 40.9227 221.947 40.3787 221.947 39.824V39.52C221.947 38.9333 222.037 38.3733 222.219 37.84C222.411 37.296 222.693 36.816 223.067 36.4C223.44 35.9733 223.899 35.6373 224.443 35.392C224.997 35.136 225.637 35.008 226.363 35.008C227.12 35.008 227.797 35.1573 228.395 35.456C228.992 35.744 229.467 36.1493 229.819 36.672C230.181 37.1947 230.384 37.8027 230.427 38.496H228.267C228.213 38.048 228.021 37.6747 227.691 37.376C227.371 37.0773 226.928 36.928 226.363 36.928C225.872 36.928 225.461 37.0453 225.131 37.28C224.811 37.5147 224.571 37.84 224.411 38.256C224.251 38.6613 224.171 39.1307 224.171 39.664C224.171 40.176 224.245 40.64 224.395 41.056C224.555 41.472 224.795 41.7973 225.115 42.032C225.445 42.2667 225.867 42.384 226.379 42.384C226.763 42.384 227.093 42.3147 227.371 42.176C227.648 42.0373 227.867 41.8453 228.027 41.6C228.197 41.3547 228.304 41.0773 228.347 40.768H230.507C230.464 41.472 230.256 42.0907 229.883 42.624C229.52 43.1467 229.035 43.5573 228.427 43.856C227.829 44.1547 227.147 44.304 226.379 44.304ZM235.824 44.304C235.056 44.304 234.379 44.1813 233.792 43.936C233.206 43.6907 232.71 43.36 232.304 42.944C231.899 42.5173 231.59 42.0373 231.376 41.504C231.174 40.9707 231.072 40.416 231.072 39.84V39.504C231.072 38.9067 231.179 38.3413 231.392 37.808C231.616 37.264 231.931 36.784 232.336 36.368C232.752 35.9413 233.254 35.6107 233.84 35.376C234.427 35.1307 235.088 35.008 235.824 35.008C236.56 35.008 237.222 35.1307 237.808 35.376C238.395 35.6107 238.891 35.9413 239.296 36.368C239.712 36.784 240.027 37.264 240.24 37.808C240.454 38.3413 240.56 38.9067 240.56 39.504V39.84C240.56 40.416 240.454 40.9707 240.24 41.504C240.038 42.0373 239.734 42.5173 239.328 42.944C238.923 43.36 238.427 43.6907 237.84 43.936C237.254 44.1813 236.582 44.304 235.824 44.304ZM235.824 42.4C236.368 42.4 236.827 42.2827 237.2 42.048C237.574 41.8027 237.856 41.4773 238.048 41.072C238.24 40.656 238.336 40.1867 238.336 39.664C238.336 39.1307 238.235 38.6613 238.032 38.256C237.84 37.84 237.552 37.5147 237.168 37.28C236.795 37.0347 236.347 36.912 235.824 36.912C235.302 36.912 234.848 37.0347 234.464 37.28C234.091 37.5147 233.803 37.84 233.6 38.256C233.398 38.6613 233.296 39.1307 233.296 39.664C233.296 40.1867 233.392 40.656 233.584 41.072C233.787 41.4773 234.075 41.8027 234.448 42.048C234.822 42.2827 235.28 42.4 235.824 42.4ZM241.868 44V35.312H243.628V39.04H243.468C243.468 38.1653 243.58 37.4347 243.804 36.848C244.028 36.2507 244.358 35.8027 244.796 35.504C245.244 35.1947 245.798 35.04 246.46 35.04H246.556C247.228 35.04 247.782 35.1947 248.22 35.504C248.668 35.8027 248.998 36.2507 249.212 36.848C249.436 37.4347 249.548 38.1653 249.548 39.04H248.988C248.988 38.1653 249.1 37.4347 249.324 36.848C249.558 36.2507 249.894 35.8027 250.332 35.504C250.78 35.1947 251.334 35.04 251.996 35.04H252.092C252.764 35.04 253.324 35.1947 253.772 35.504C254.22 35.8027 254.556 36.2507 254.78 36.848C255.014 37.4347 255.132 38.1653 255.132 39.04V44H252.908V38.832C252.908 38.288 252.769 37.856 252.492 37.536C252.214 37.2053 251.82 37.04 251.308 37.04C250.796 37.04 250.385 37.2107 250.076 37.552C249.766 37.8827 249.612 38.3307 249.612 38.896V44H247.388V38.832C247.388 38.288 247.249 37.856 246.972 37.536C246.694 37.2053 246.3 37.04 245.788 37.04C245.276 37.04 244.865 37.2107 244.556 37.552C244.246 37.8827 244.092 38.3307 244.092 38.896V44H241.868Z" fill="white"/>
<path d="M52.4043 25.9746H23.6317C21.6536 25.9746 20.0531 27.4919 20.0531 29.3464L20.0352 49.5771C20.0352 51.4316 21.6536 52.9489 23.6317 52.9489H52.4043C54.3824 52.9489 56.0008 51.4316 56.0008 49.5771V29.3464C56.0008 27.4919 54.3824 25.9746 52.4043 25.9746ZM52.4043 49.5771H23.6317V32.7182L38.018 41.1476L52.4043 32.7182V49.5771ZM38.018 37.7758L23.6317 29.3464H52.4043L38.018 37.7758Z" fill="white"/>
<circle cx="38.3051" cy="38.85" r="37.1521" stroke="white" stroke-width="1.79828"/>
</svg>
