<svg width="299" height="77" viewBox="0 0 299 77" fill="none" xmlns="http://www.w3.org/2000/svg">
<path d="M103.318 24.656V26.016H100.07V27.712H103.318V29.12H105.43V20.64H103.318V22.976H100.678C100.742 22.544 100.774 22.096 100.774 21.632H94.0219V23.328H98.4699C98.1979 25.328 96.5819 26.912 93.2219 27.808L94.0379 29.472C97.2859 28.56 99.3499 26.976 100.262 24.656H103.318ZM100.566 33.664C98.7419 33.664 97.6699 33.2 97.6699 32.304C97.6699 31.408 98.7419 30.944 100.566 30.944C102.374 30.944 103.446 31.408 103.446 32.304C103.446 33.2 102.374 33.664 100.566 33.664ZM100.566 29.312C97.5579 29.312 95.5899 30.464 95.5899 32.304C95.5899 34.144 97.5579 35.296 100.566 35.296C103.558 35.296 105.526 34.144 105.526 32.304C105.526 30.464 103.558 29.312 100.566 29.312ZM108.005 22.16V23.84H112.917C112.613 27.104 110.981 29.408 107.221 31.216L108.325 32.88C113.557 30.352 115.077 26.672 115.077 22.16H108.005ZM117.333 20.624V35.36H119.461V20.624H117.333ZM136.929 25.872C133.585 25.408 131.889 23.488 131.889 21.776V21.072H129.633V21.776C129.633 23.504 127.953 25.408 124.592 25.872L125.392 27.568C127.969 27.184 129.825 25.984 130.769 24.4C131.713 25.984 133.553 27.184 136.129 27.568L136.929 25.872ZM137.409 28.656H124.096V30.368H129.649V35.392H131.76V30.368H137.409V28.656ZM145.679 29.2V30.64H148.447V31.808H150.559V20.64H148.447V29.2H145.679ZM142.847 22.672C143.823 22.672 144.511 23.056 144.511 23.776C144.511 24.496 143.823 24.864 142.847 24.864C141.855 24.864 141.167 24.496 141.167 23.776C141.167 23.056 141.855 22.672 142.847 22.672ZM142.847 26.4C144.991 26.4 146.511 25.344 146.511 23.776C146.511 22.208 144.991 21.136 142.847 21.136C140.687 21.136 139.183 22.208 139.183 23.776C139.183 25.344 140.687 26.4 142.847 26.4ZM142.063 33.44V31.424H144.095V28.64C145.279 28.544 146.463 28.416 147.615 28.224L147.471 26.72C144.367 27.12 140.783 27.152 138.095 27.168L138.367 28.848C139.471 28.848 140.703 28.832 141.999 28.768V30.736H139.951V35.12H150.879V33.44H142.063ZM157.95 21.776H155.838V23.92C155.838 26.784 154.622 29.632 152.046 30.736L153.31 32.48C155.07 31.648 156.27 30.064 156.926 28.096C157.582 29.904 158.718 31.36 160.414 32.128L161.614 30.416C159.118 29.344 157.95 26.656 157.95 23.92V21.776ZM162.334 20.624V35.408H164.446V20.624H162.334ZM172.618 23.168H174.106V26.176C173.61 26.192 173.114 26.208 172.618 26.224V23.168ZM177.802 25.92C177.258 25.968 176.698 26.016 176.122 26.064V23.168H177.29V21.536H169.434V23.168H170.586V26.256C170.058 26.256 169.53 26.256 169.05 26.256L169.258 27.92C171.786 27.92 175.018 27.872 177.914 27.408L177.802 25.92ZM173.114 32.736H180.73V28.784H171.002V30.4H178.65V31.232H171.018V35.264H181.162V33.632H173.114V32.736ZM180.73 23.536V20.656H178.618V28.192H180.73V25.248H182.666V23.536H180.73ZM191.561 25.504C189.881 25.856 188.345 25.968 185.817 25.984V23.056H190.313V21.408H183.721V27.648H184.953C188.089 27.648 189.865 27.568 191.769 27.152L191.561 25.504ZM187.193 32.624H194.809V28.56H185.081V30.224H192.729V31.088H185.097V35.2H195.241V33.552H187.193V32.624ZM194.809 23.424V20.624H192.697V27.952H194.809V25.136H196.761V23.424H194.809ZM210.615 27.76H208.679C209.047 25.696 209.047 24.192 209.047 22.816V21.488H198.823V23.184H206.983C206.983 24.448 206.951 25.888 206.583 27.76H197.303V29.456H202.807V35.376H204.951V29.456H210.615V27.76ZM222.963 22.256H219.699V20.704H217.587V22.256H214.291V23.92H222.963V22.256ZM217.043 27.264C217.043 26.512 217.683 26.096 218.643 26.096C219.603 26.096 220.243 26.512 220.243 27.264C220.243 28.048 219.603 28.464 218.643 28.464C217.683 28.464 217.043 28.048 217.043 27.264ZM219.699 29.936C221.235 29.616 222.243 28.624 222.243 27.264C222.243 25.616 220.755 24.496 218.643 24.496C216.531 24.496 215.043 25.616 215.043 27.264C215.043 28.624 216.051 29.616 217.587 29.936V31.184C216.291 31.216 215.075 31.216 214.019 31.216L214.275 32.928C216.771 32.928 220.083 32.928 223.187 32.32L223.027 30.8C221.971 30.96 220.835 31.04 219.699 31.104V29.936ZM227.731 26.64H225.891V20.64H223.779V35.376H225.891V28.384H227.731V26.64ZM230.434 25.024C230.434 23.888 231.25 23.216 232.37 23.216C233.474 23.216 234.306 23.888 234.306 25.024C234.306 26.144 233.474 26.816 232.37 26.816C231.25 26.816 230.434 26.144 230.434 25.024ZM236.354 25.024C236.354 22.928 234.626 21.44 232.37 21.44C230.098 21.44 228.37 22.928 228.37 25.024C228.37 27.088 230.098 28.592 232.37 28.592C234.626 28.592 236.354 27.088 236.354 25.024ZM235.042 33.728C233.154 33.728 232.146 33.328 232.146 32.464C232.146 31.616 233.154 31.2 235.042 31.2C236.914 31.2 237.922 31.616 237.922 32.464C237.922 33.328 236.914 33.728 235.042 33.728ZM235.042 29.552C231.986 29.552 230.05 30.64 230.05 32.464C230.05 34.304 231.986 35.376 235.042 35.376C238.082 35.376 240.018 34.304 240.018 32.464C240.018 30.64 238.082 29.552 235.042 29.552ZM241.746 24.176V22.448H239.858V20.64H237.746V29.232H239.858V27.376H241.746V25.648H239.858V24.176H241.746ZM250.049 32.032V29.84H254.513V28.144H245.969V26.496H254.177V21.584H243.857V23.264H252.097V24.848H243.873V29.84H247.937V32.032H242.337V33.76H255.681V32.032H250.049ZM261.501 34V23.728L262.205 24.272H259.117V22.32H263.757V34H261.501ZM267.001 34L271.369 24.4L271.225 24.192H265.305V22.32H273.817V24.048L269.385 34H267.001ZM265.305 26.064V22.32H267.145V26.064H265.305ZM274.405 30.48V28.528H280.885V30.48H274.405ZM282.098 34V31.76C282.098 31.2693 282.173 30.8427 282.322 30.48C282.482 30.1173 282.738 29.7973 283.09 29.52C283.453 29.232 283.927 28.96 284.514 28.704L286.498 27.824C286.989 27.6 287.362 27.328 287.618 27.008C287.885 26.6773 288.018 26.256 288.018 25.744C288.018 25.1787 287.847 24.7307 287.506 24.4C287.175 24.0587 286.701 23.888 286.082 23.888C285.463 23.888 284.983 24.0587 284.642 24.4C284.311 24.7413 284.146 25.216 284.146 25.824H281.954C281.954 25.0987 282.109 24.448 282.418 23.872C282.727 23.2853 283.186 22.8267 283.794 22.496C284.402 22.1547 285.165 21.984 286.082 21.984C286.999 21.984 287.762 22.1493 288.37 22.48C288.978 22.8107 289.437 23.2533 289.746 23.808C290.055 24.352 290.21 24.96 290.21 25.632V25.84C290.21 26.7147 289.965 27.4453 289.474 28.032C288.983 28.608 288.263 29.1093 287.314 29.536L285.33 30.416C284.957 30.576 284.695 30.7467 284.546 30.928C284.397 31.0987 284.322 31.3333 284.322 31.632V32.656L283.778 32.064H290.258V34H282.098ZM292.385 36.656L290.657 36L292.289 31.36L294.145 32.048L292.385 36.656ZM95.3819 54V43.728L96.0859 44.272H92.9979V42.32H97.6379V54H95.3819ZM100.451 47.296C103.155 47.104 104.995 46.352 105.923 45.184C106.835 46.352 108.675 47.104 111.379 47.296L112.003 45.728C108.851 45.536 107.411 44.624 107.139 43.616H111.299V41.968H106.963V40.672H104.851V41.968H100.531V43.616H104.691C104.419 44.624 102.979 45.536 99.8268 45.728L100.451 47.296ZM105.891 53.824C103.891 53.824 102.915 53.536 102.915 52.88C102.915 52.208 103.891 51.936 105.891 51.936C107.891 51.936 108.867 52.208 108.867 52.88C108.867 53.536 107.891 53.824 105.891 53.824ZM105.891 50.384C102.675 50.384 100.787 51.264 100.787 52.88C100.787 54.496 102.675 55.376 105.891 55.376C109.107 55.376 111.011 54.496 111.011 52.88C111.011 51.264 109.107 50.384 105.891 50.384ZM99.2668 47.904V49.568H112.579V47.904H99.2668ZM118.431 54V43.728L119.135 44.272H116.047V42.32H120.687V54H118.431ZM127.692 54.304C126.774 54.304 125.996 54.1547 125.356 53.856C124.716 53.5467 124.193 53.1307 123.788 52.608C123.382 52.0747 123.084 51.4667 122.892 50.784C122.71 50.0907 122.62 49.3653 122.62 48.608V47.712C122.62 46.6347 122.801 45.664 123.164 44.8C123.526 43.936 124.081 43.2533 124.828 42.752C125.574 42.24 126.529 41.984 127.692 41.984C128.844 41.984 129.793 42.24 130.54 42.752C131.286 43.2533 131.836 43.936 132.188 44.8C132.55 45.664 132.732 46.6347 132.732 47.712V48.608C132.732 49.3653 132.636 50.0907 132.444 50.784C132.262 51.4667 131.969 52.0747 131.564 52.608C131.169 53.1307 130.652 53.5467 130.012 53.856C129.372 54.1547 128.598 54.304 127.692 54.304ZM127.692 52.224C128.641 52.224 129.34 51.8987 129.788 51.248C130.236 50.5867 130.46 49.5627 130.46 48.176C130.46 46.704 130.23 45.6533 129.772 45.024C129.313 44.384 128.62 44.064 127.692 44.064C126.753 44.064 126.049 44.384 125.58 45.024C125.121 45.6533 124.892 46.6933 124.892 48.144C124.892 49.5413 125.121 50.5707 125.58 51.232C126.038 51.8933 126.742 52.224 127.692 52.224ZM136.041 54V43.728L136.745 44.272H133.657V42.32H138.297V54H136.041ZM152.662 42.48H147.622V40.784H145.51V42.48H140.502V44.16H152.662V42.48ZM143.734 47.664C143.734 46.832 144.726 46.416 146.55 46.416C148.406 46.416 149.398 46.832 149.398 47.664C149.398 48.512 148.406 48.896 146.55 48.896C144.726 48.896 143.734 48.512 143.734 47.664ZM147.622 52.192V50.496C150.07 50.256 151.558 49.248 151.558 47.664C151.558 45.856 149.638 44.784 146.55 44.784C143.494 44.784 141.558 45.856 141.558 47.664C141.558 49.248 143.062 50.272 145.51 50.496V52.192H139.926V53.904H153.286V52.192H147.622ZM156.821 56.912C156.298 56.2613 155.84 55.5573 155.445 54.8C155.05 54.0427 154.746 53.2053 154.533 52.288C154.32 51.36 154.213 50.32 154.213 49.168C154.213 48.0053 154.325 46.9707 154.549 46.064C154.773 45.1467 155.088 44.3253 155.493 43.6C155.898 42.864 156.357 42.192 156.869 41.584H159.349C158.773 42.288 158.261 43.024 157.813 43.792C157.365 44.56 157.018 45.3867 156.773 46.272C156.528 47.1573 156.405 48.1227 156.405 49.168C156.405 50.2027 156.506 51.168 156.709 52.064C156.922 52.96 157.248 53.808 157.685 54.608C158.122 55.408 158.677 56.176 159.349 56.912H156.821ZM168.336 42.256H165.072V40.704H162.96V42.256H159.664V43.92H168.336V42.256ZM162.416 47.264C162.416 46.512 163.056 46.096 164.016 46.096C164.976 46.096 165.616 46.512 165.616 47.264C165.616 48.048 164.976 48.464 164.016 48.464C163.056 48.464 162.416 48.048 162.416 47.264ZM165.072 49.936C166.608 49.616 167.616 48.624 167.616 47.264C167.616 45.616 166.128 44.496 164.016 44.496C161.904 44.496 160.416 45.616 160.416 47.264C160.416 48.624 161.424 49.616 162.96 49.936V51.184C161.664 51.216 160.448 51.216 159.392 51.216L159.648 52.928C162.144 52.928 165.456 52.928 168.56 52.32L168.4 50.8C167.344 50.96 166.208 51.04 165.072 51.104V49.936ZM173.104 46.64H171.264V40.64H169.152V55.376H171.264V48.384H173.104V46.64ZM179.167 41.776H177.039V43.904C177.039 46.704 175.919 49.568 173.423 50.72L174.735 52.416C176.383 51.584 177.487 50.048 178.127 48.16C178.735 49.936 179.807 51.376 181.423 52.16L182.671 50.48C180.239 49.392 179.167 46.688 179.167 43.904V41.776ZM183.887 40.624V45.248H181.055V46.944H183.887V55.408H185.999V40.624H183.887ZM194.334 53.792C192.366 53.792 191.358 53.456 191.358 52.688C191.358 51.92 192.366 51.568 194.334 51.568C196.302 51.568 197.31 51.92 197.31 52.688C197.31 53.456 196.302 53.792 194.334 53.792ZM194.334 49.968C191.15 49.968 189.23 50.944 189.23 52.688C189.23 54.416 191.15 55.392 194.334 55.392C197.518 55.392 199.454 54.416 199.454 52.688C199.454 50.944 197.518 49.968 194.334 49.968ZM195.438 47.568V46.352H199.534V44.672H191.438V42.944H199.454V41.264H189.342V46.352H193.326V47.568H187.726V49.248H201.054V47.568H195.438ZM203.789 56.912C204.311 56.2613 204.77 55.5573 205.165 54.8C205.559 54.0427 205.863 53.2053 206.077 52.288C206.29 51.36 206.397 50.32 206.397 49.168C206.397 48.0053 206.285 46.9707 206.061 46.064C205.837 45.1467 205.522 44.3253 205.117 43.6C204.711 42.864 204.253 42.192 203.741 41.584H201.261C201.837 42.288 202.349 43.024 202.797 43.792C203.245 44.56 203.591 45.3867 203.837 46.272C204.082 47.1573 204.205 48.1227 204.205 49.168C204.205 50.2027 204.098 51.168 203.885 52.064C203.682 52.96 203.362 53.808 202.925 54.608C202.487 55.408 201.933 56.176 201.261 56.912H203.789Z" fill="white"/>
<path d="M37.5717 22.3789C31.1094 22.3789 25.8828 27.7261 25.8828 34.3375C25.8828 43.3064 37.5717 56.5463 37.5717 56.5463C37.5717 56.5463 49.2605 43.3064 49.2605 34.3375C49.2605 27.7261 44.0339 22.3789 37.5717 22.3789ZM37.5717 38.6084C35.2673 38.6084 33.3971 36.695 33.3971 34.3375C33.3971 31.9799 35.2673 30.0666 37.5717 30.0666C39.876 30.0666 41.7462 31.9799 41.7462 34.3375C41.7462 36.695 39.876 38.6084 37.5717 38.6084Z" fill="white"/>
<path d="M75.9112 38.85C75.9112 59.3685 59.2775 76.0021 38.7587 76.0021C18.2399 76.0021 1.60617 59.3685 1.60617 38.85C1.60617 18.3315 18.2399 1.69797 38.7587 1.69797C59.2775 1.69797 75.9112 18.3315 75.9112 38.85Z" stroke="white" stroke-width="1.79828"/>
</svg>
