<svg width="945" height="67" viewBox="0 0 945 67" fill="none" xmlns="http://www.w3.org/2000/svg">
<line x1="301.899" y1="16.0645" x2="301.899" y2="58.0645" stroke="white" stroke-width="1.79828"/>
<line x1="644.899" y1="16.0645" x2="644.899" y2="58.0645" stroke="white" stroke-width="1.79828"/>
<path d="M775.796 20.6641V21.841H772.985V23.3086H775.796V24.5271H777.624V17.1889H775.796V19.2103H773.512C773.567 18.8365 773.595 18.4488 773.595 18.0473H767.752V19.5149H771.601C771.365 21.2456 769.967 22.6164 767.059 23.3917L767.766 24.8317C770.576 24.0425 772.362 22.6717 773.152 20.6641H775.796ZM773.415 28.4592C771.836 28.4592 770.909 28.0577 770.909 27.2824C770.909 26.507 771.836 26.1055 773.415 26.1055C774.979 26.1055 775.907 26.507 775.907 27.2824C775.907 28.0577 774.979 28.4592 773.415 28.4592ZM773.415 24.6932C770.812 24.6932 769.109 25.6901 769.109 27.2824C769.109 28.8746 770.812 29.8715 773.415 29.8715C776.004 29.8715 777.707 28.8746 777.707 27.2824C777.707 25.6901 776.004 24.6932 773.415 24.6932ZM779.852 18.5042V19.958H784.102C783.839 22.7825 782.427 24.7763 779.173 26.3409L780.129 27.7808C784.656 25.5932 785.972 22.4087 785.972 18.5042H779.852ZM787.924 17.175V29.9269H789.765V17.175H787.924ZM804.881 21.7164C801.987 21.3149 800.52 19.6534 800.52 18.1719V17.5627H798.568V18.1719C798.568 19.6672 797.114 21.3149 794.206 21.7164L794.898 23.184C797.128 22.8517 798.734 21.8133 799.551 20.4426C800.368 21.8133 801.96 22.8517 804.189 23.184L804.881 21.7164ZM805.297 24.1255H793.777V25.607H798.581V29.9546H800.409V25.607H805.297V24.1255ZM812.454 24.5963V25.8424H814.849V26.8531H816.677V17.1889H814.849V24.5963H812.454ZM810.003 18.9473C810.848 18.9473 811.443 19.2796 811.443 19.9026C811.443 20.5257 810.848 20.8441 810.003 20.8441C809.145 20.8441 808.549 20.5257 808.549 19.9026C808.549 19.2796 809.145 18.9473 810.003 18.9473ZM810.003 22.1733C811.858 22.1733 813.174 21.2595 813.174 19.9026C813.174 18.5457 811.858 17.6181 810.003 17.6181C808.134 17.6181 806.832 18.5457 806.832 19.9026C806.832 21.2595 808.134 22.1733 810.003 22.1733ZM809.325 28.2654V26.5208H811.083V24.1117C812.108 24.0286 813.132 23.9179 814.129 23.7517L814.004 22.4502C811.318 22.7964 808.217 22.824 805.891 22.8379L806.126 24.2917C807.082 24.2917 808.148 24.2778 809.269 24.2225V25.9255H807.497V29.7192H816.954V28.2654H809.325ZM823.072 18.1719H821.245V20.0272C821.245 22.5056 820.192 24.9701 817.963 25.9255L819.057 27.4347C820.58 26.7147 821.619 25.344 822.186 23.6409C822.754 25.2055 823.737 26.4655 825.205 27.1301L826.243 25.6486C824.083 24.7209 823.072 22.3948 823.072 20.0272V18.1719ZM826.866 17.175V29.9684H828.694V17.175H826.866ZM835.765 19.3765H837.053V21.9795C836.624 21.9933 836.194 22.0072 835.765 22.021V19.3765ZM840.251 21.7579C839.78 21.7995 839.296 21.841 838.797 21.8825V19.3765H839.808V17.9642H833.01V19.3765H834.007V22.0487C833.55 22.0487 833.093 22.0487 832.678 22.0487L832.858 23.4886C835.045 23.4886 837.842 23.4471 840.348 23.0456L840.251 21.7579ZM836.194 27.6562H842.785V24.2363H834.367V25.6347H840.985V26.3547H834.381V29.8438H843.159V28.4315H836.194V27.6562ZM842.785 19.6949V17.2027H840.957V23.724H842.785V21.1764H844.46V19.6949H842.785ZM852.157 21.3979C850.704 21.7025 849.374 21.7995 847.187 21.8133V19.2796H851.077V17.8534H845.373V23.2533H846.439C849.153 23.2533 850.69 23.184 852.337 22.824L852.157 21.3979ZM848.378 27.5593H854.968V24.0425H846.55V25.4824H853.168V26.2301H846.564V29.7884H855.342V28.3623H848.378V27.5593ZM854.968 19.598V17.175H853.14V23.5163H854.968V21.0795H856.657V19.598H854.968ZM868.647 23.3502H866.971C867.29 21.5641 867.29 20.2626 867.29 19.0719V17.9227H858.442V19.3903H865.504C865.504 20.4841 865.476 21.7302 865.157 23.3502H857.127V24.8178H861.89V29.9407H863.745V24.8178H868.647V23.3502ZM879.332 18.5873H876.507V17.2442H874.68V18.5873H871.828V20.0272H879.332V18.5873ZM874.209 22.921C874.209 22.2702 874.763 21.9102 875.594 21.9102C876.424 21.9102 876.978 22.2702 876.978 22.921C876.978 23.5994 876.424 23.9594 875.594 23.9594C874.763 23.9594 874.209 23.5994 874.209 22.921ZM876.507 25.2332C877.837 24.9563 878.709 24.0978 878.709 22.921C878.709 21.4949 877.421 20.5257 875.594 20.5257C873.766 20.5257 872.478 21.4949 872.478 22.921C872.478 24.0978 873.351 24.9563 874.68 25.2332V26.3132C873.558 26.3409 872.506 26.3409 871.592 26.3409L871.814 27.8223C873.974 27.8223 876.84 27.8223 879.526 27.2962L879.387 25.9809C878.473 26.1193 877.49 26.1885 876.507 26.2439V25.2332ZM883.458 22.381H881.866V17.1889H880.038V29.9407H881.866V23.8902H883.458V22.381ZM885.797 20.9826C885.797 19.9995 886.503 19.418 887.472 19.418C888.427 19.418 889.147 19.9995 889.147 20.9826C889.147 21.9518 888.427 22.5333 887.472 22.5333C886.503 22.5333 885.797 21.9518 885.797 20.9826ZM890.92 20.9826C890.92 19.1688 889.424 17.8811 887.472 17.8811C885.506 17.8811 884.011 19.1688 884.011 20.9826C884.011 22.7687 885.506 24.0702 887.472 24.0702C889.424 24.0702 890.92 22.7687 890.92 20.9826ZM889.784 28.5146C888.15 28.5146 887.278 28.1685 887.278 27.4208C887.278 26.687 888.15 26.327 889.784 26.327C891.404 26.327 892.276 26.687 892.276 27.4208C892.276 28.1685 891.404 28.5146 889.784 28.5146ZM889.784 24.9009C887.14 24.9009 885.464 25.8424 885.464 27.4208C885.464 29.0131 887.14 29.9407 889.784 29.9407C892.415 29.9407 894.09 29.0131 894.09 27.4208C894.09 25.8424 892.415 24.9009 889.784 24.9009ZM895.586 20.2487V18.7534H893.952V17.1889H892.124V24.624H893.952V23.0179H895.586V21.5226H893.952V20.2487H895.586ZM902.77 27.047V25.1501H906.633V23.6825H899.24V22.2564H906.343V18.0057H897.412V19.4595H904.543V20.8303H897.426V25.1501H900.943V27.047H896.097V28.5423H907.644V27.047H902.77ZM912.68 28.75V19.8611L913.29 20.3318H910.617V18.6426H914.633V28.75H912.68ZM917.441 28.75L921.22 20.4426L921.096 20.2626H915.973V18.6426H923.339V20.138L919.504 28.75H917.441ZM915.973 21.8825V18.6426H917.565V21.8825H915.973ZM923.847 25.7039V24.0148H929.455V25.7039H923.847ZM930.505 28.75V26.8116C930.505 26.387 930.569 26.0178 930.698 25.7039C930.837 25.3901 931.058 25.1132 931.363 24.8732C931.677 24.624 932.088 24.3886 932.595 24.1671L934.312 23.4056C934.737 23.2117 935.06 22.9763 935.281 22.6994C935.512 22.4133 935.627 22.0487 935.627 21.6056C935.627 21.1164 935.48 20.7287 935.184 20.4426C934.898 20.1472 934.487 19.9995 933.952 19.9995C933.417 19.9995 933.001 20.1472 932.706 20.4426C932.42 20.738 932.277 21.1487 932.277 21.6749H930.38C930.38 21.0472 930.514 20.4841 930.781 19.9857C931.049 19.478 931.446 19.0811 931.972 18.795C932.498 18.4996 933.158 18.3519 933.952 18.3519C934.746 18.3519 935.406 18.495 935.932 18.7811C936.458 19.0673 936.855 19.4503 937.123 19.9303C937.39 20.4011 937.524 20.9272 937.524 21.5087V21.6887C937.524 22.4456 937.312 23.0779 936.887 23.5856C936.463 24.084 935.84 24.5178 935.018 24.8871L933.301 25.6486C932.978 25.787 932.752 25.9347 932.623 26.0916C932.494 26.2393 932.429 26.4424 932.429 26.7008V27.587L931.958 27.0747H937.566V28.75H930.505ZM939.407 31.0484L937.911 30.4807L939.324 26.4655L940.93 27.0608L939.407 31.0484ZM768.929 45.75V36.8611L769.538 37.3318H766.866V35.6426H770.881V45.75H768.929ZM773.315 39.9487C775.655 39.7825 777.247 39.1318 778.05 38.121C778.839 39.1318 780.432 39.7825 782.772 39.9487L783.312 38.5918C780.584 38.4256 779.338 37.6364 779.103 36.7641H782.702V35.338H778.95V34.2165H777.123V35.338H773.384V36.7641H776.984C776.749 37.6364 775.503 38.4256 772.775 38.5918L773.315 39.9487ZM778.023 45.5977C776.292 45.5977 775.447 45.3485 775.447 44.7808C775.447 44.1993 776.292 43.9639 778.023 43.9639C779.753 43.9639 780.598 44.1993 780.598 44.7808C780.598 45.3485 779.753 45.5977 778.023 45.5977ZM778.023 42.6209C775.24 42.6209 773.606 43.3824 773.606 44.7808C773.606 46.1792 775.24 46.9407 778.023 46.9407C780.806 46.9407 782.453 46.1792 782.453 44.7808C782.453 43.3824 780.806 42.6209 778.023 42.6209ZM772.29 40.4748V41.9147H783.81V40.4748H772.29ZM788.874 45.75V36.8611L789.483 37.3318H786.811V35.6426H790.826V45.75H788.874ZM796.888 46.0131C796.094 46.0131 795.42 45.8838 794.866 45.6254C794.313 45.3577 793.86 44.9977 793.51 44.5454C793.159 44.0839 792.9 43.5578 792.734 42.967C792.577 42.367 792.499 41.7394 792.499 41.084V40.3086C792.499 39.3764 792.656 38.5364 792.97 37.7887C793.283 37.0411 793.763 36.4503 794.41 36.0165C795.056 35.5734 795.882 35.3519 796.888 35.3519C797.885 35.3519 798.706 35.5734 799.352 36.0165C799.999 36.4503 800.474 37.0411 800.779 37.7887C801.092 38.5364 801.249 39.3764 801.249 40.3086V41.084C801.249 41.7394 801.166 42.367 801 42.967C800.843 43.5578 800.589 44.0839 800.239 44.5454C799.897 44.9977 799.449 45.3577 798.896 45.6254C798.342 45.8838 797.673 46.0131 796.888 46.0131ZM796.888 44.2131C797.709 44.2131 798.314 43.9316 798.702 43.3685C799.089 42.7963 799.283 41.9101 799.283 40.7102C799.283 39.4364 799.085 38.5272 798.688 37.9826C798.291 37.4287 797.691 37.1518 796.888 37.1518C796.076 37.1518 795.466 37.4287 795.06 37.9826C794.663 38.5272 794.465 39.4271 794.465 40.6825C794.465 41.8917 794.663 42.7824 795.06 43.3547C795.457 43.927 796.066 44.2131 796.888 44.2131ZM804.113 45.75V36.8611L804.723 37.3318H802.05V35.6426H806.066V45.75H804.113ZM818.496 35.7811H814.135V34.3135H812.307V35.7811H807.974V37.2349H818.496V35.7811ZM810.771 40.2671C810.771 39.5471 811.629 39.1871 813.207 39.1871C814.813 39.1871 815.672 39.5471 815.672 40.2671C815.672 41.0009 814.813 41.3332 813.207 41.3332C811.629 41.3332 810.771 41.0009 810.771 40.2671ZM814.135 44.1854V42.7178C816.253 42.5101 817.541 41.6378 817.541 40.2671C817.541 38.7025 815.88 37.7749 813.207 37.7749C810.563 37.7749 808.888 38.7025 808.888 40.2671C808.888 41.6378 810.189 42.524 812.307 42.7178V44.1854H807.475V45.6669H819.036V44.1854H814.135ZM822.095 48.2699C821.643 47.7069 821.246 47.0976 820.904 46.4423C820.563 45.7869 820.3 45.0623 820.115 44.2685C819.931 43.4655 819.838 42.5655 819.838 41.5686C819.838 40.5625 819.935 39.6671 820.129 38.8825C820.323 38.0887 820.595 37.378 820.946 36.7503C821.297 36.1134 821.694 35.5319 822.137 35.0057H824.283C823.784 35.615 823.341 36.2519 822.954 36.9165C822.566 37.581 822.266 38.2964 822.054 39.0625C821.841 39.8287 821.735 40.664 821.735 41.5686C821.735 42.464 821.823 43.2993 821.998 44.0747C822.183 44.85 822.464 45.5839 822.843 46.2761C823.221 46.9684 823.701 47.633 824.283 48.2699H822.095ZM832.06 35.5873H829.236V34.2442H827.408V35.5873H824.556V37.0272H832.06V35.5873ZM826.937 39.921C826.937 39.2702 827.491 38.9102 828.322 38.9102C829.153 38.9102 829.706 39.2702 829.706 39.921C829.706 40.5994 829.153 40.9594 828.322 40.9594C827.491 40.9594 826.937 40.5994 826.937 39.921ZM829.236 42.2332C830.565 41.9563 831.437 41.0978 831.437 39.921C831.437 38.4949 830.15 37.5257 828.322 37.5257C826.494 37.5257 825.207 38.4949 825.207 39.921C825.207 41.0978 826.079 41.9563 827.408 42.2332V43.3132C826.287 43.3409 825.234 43.3409 824.32 43.3409L824.542 44.8223C826.702 44.8223 829.568 44.8223 832.254 44.2962L832.116 42.9809C831.202 43.1193 830.219 43.1885 829.236 43.2439V42.2332ZM836.186 39.381H834.594V34.1889H832.766V46.9407H834.594V40.8902H836.186V39.381ZM841.433 35.1719H839.591V37.0134C839.591 39.4364 838.622 41.9147 836.462 42.9116L837.597 44.3793C839.024 43.6593 839.979 42.3301 840.533 40.6963C841.059 42.2332 841.986 43.4793 843.385 44.1577L844.465 42.7039C842.36 41.7624 841.433 39.4225 841.433 37.0134V35.1719ZM845.517 34.175V38.1764H843.066V39.6441H845.517V46.9684H847.345V34.175H845.517ZM854.557 45.57C852.854 45.57 851.982 45.2792 851.982 44.6147C851.982 43.9501 852.854 43.6455 854.557 43.6455C856.26 43.6455 857.133 43.9501 857.133 44.6147C857.133 45.2792 856.26 45.57 854.557 45.57ZM854.557 42.2609C851.802 42.2609 850.141 43.1055 850.141 44.6147C850.141 46.11 851.802 46.9546 854.557 46.9546C857.313 46.9546 858.988 46.11 858.988 44.6147C858.988 43.1055 857.313 42.2609 854.557 42.2609ZM855.513 40.184V39.1318H859.057V37.678H852.051V36.1826H858.988V34.7288H850.237V39.1318H853.685V40.184H848.839V41.6378H860.372V40.184H855.513ZM862.739 48.2699C863.191 47.7069 863.588 47.0976 863.93 46.4423C864.271 45.7869 864.534 45.0623 864.719 44.2685C864.904 43.4655 864.996 42.5655 864.996 41.5686C864.996 40.5625 864.899 39.6671 864.705 38.8825C864.511 38.0887 864.239 37.378 863.888 36.7503C863.537 36.1134 863.141 35.5319 862.697 35.0057H860.551C861.05 35.615 861.493 36.2519 861.881 36.9165C862.268 37.581 862.568 38.2964 862.781 39.0625C862.993 39.8287 863.099 40.664 863.099 41.5686C863.099 42.464 863.007 43.2993 862.822 44.0747C862.647 44.85 862.37 45.5839 861.991 46.2761C861.613 46.9684 861.133 47.633 860.551 48.2699H862.739Z" fill="white"/>
<path d="M718.9 18.6738C713.308 18.6738 708.785 23.3011 708.785 29.0223C708.785 36.7836 718.9 48.2408 718.9 48.2408C718.9 48.2408 729.015 36.7836 729.015 29.0223C729.015 23.3011 724.492 18.6738 718.9 18.6738ZM718.9 32.7181C716.906 32.7181 715.288 31.0624 715.288 29.0223C715.288 26.9821 716.906 25.3264 718.9 25.3264C720.894 25.3264 722.513 26.9821 722.513 29.0223C722.513 31.0624 720.894 32.7181 718.9 32.7181Z" fill="white"/>
<path d="M752.078 32.9278C752.078 50.6836 737.684 65.0775 719.928 65.0775C702.172 65.0775 687.778 50.6836 687.778 32.9278C687.778 15.172 702.172 0.778077 719.928 0.778077C737.684 0.778077 752.078 15.172 752.078 32.9278Z" stroke="white" stroke-width="1.55615"/>
<path d="M427.822 37.6535C427.296 37.6535 426.812 37.5566 426.369 37.3628C425.926 37.1689 425.542 36.8966 425.219 36.5459C424.896 36.1951 424.647 35.789 424.472 35.3274C424.296 34.8567 424.209 34.349 424.209 33.8044V33.5137C424.209 32.9783 424.292 32.4752 424.458 32.0045C424.633 31.5337 424.873 31.123 425.178 30.7722C425.492 30.4215 425.866 30.1492 426.299 29.9553C426.742 29.7522 427.232 29.6507 427.767 29.6507C428.358 29.6507 428.875 29.7799 429.318 30.0384C429.77 30.2876 430.13 30.6661 430.398 31.1737C430.665 31.6814 430.813 32.3183 430.841 33.0844L430.273 32.4198V27.2969H432.198V37.4043H430.675V34.2059H431.007C430.979 34.9721 430.822 35.6136 430.536 36.1305C430.25 36.6382 429.872 37.0212 429.401 37.2797C428.939 37.5289 428.413 37.6535 427.822 37.6535ZM428.252 36.0336C428.63 36.0336 428.976 35.9505 429.29 35.7844C429.604 35.609 429.853 35.3598 430.038 35.0367C430.232 34.7044 430.328 34.3167 430.328 33.8736V33.3198C430.328 32.8768 430.232 32.5075 430.038 32.2122C429.844 31.9076 429.59 31.6768 429.276 31.5199C428.962 31.3537 428.621 31.2707 428.252 31.2707C427.836 31.2707 427.467 31.3722 427.144 31.5753C426.83 31.7691 426.581 32.046 426.396 32.406C426.221 32.766 426.133 33.186 426.133 33.666C426.133 34.1459 426.226 34.5659 426.41 34.9259C426.595 35.2767 426.844 35.549 427.158 35.7428C427.481 35.9367 427.845 36.0336 428.252 36.0336ZM433.834 37.4043V29.8861H435.357V33.1121H435.219C435.219 32.346 435.321 31.7091 435.524 31.2014C435.727 30.6845 436.027 30.2968 436.424 30.0384C436.83 29.7799 437.333 29.6507 437.933 29.6507H438.016C438.911 29.6507 439.59 29.9415 440.051 30.523C440.513 31.0953 440.743 31.9537 440.743 33.0983V37.4043H438.819V32.9321C438.819 32.4706 438.685 32.0968 438.417 31.8106C438.159 31.5245 437.799 31.3814 437.337 31.3814C436.867 31.3814 436.484 31.5291 436.188 31.8245C435.902 32.1106 435.759 32.4983 435.759 32.9875V37.4043H433.834ZM442.439 37.4043V29.7061C442.439 28.8477 442.674 28.2154 443.145 27.8092C443.625 27.3939 444.331 27.1862 445.263 27.1862H446.205V28.6677H445.125C444.839 28.6677 444.617 28.7461 444.46 28.903C444.312 29.0507 444.239 29.263 444.239 29.5399V37.4043H442.439ZM441.497 31.423V30.0107H446.329V31.423H441.497ZM450.343 27.0062C451.09 27.0062 451.723 27.1354 452.239 27.3939C452.766 27.6431 453.19 27.9892 453.513 28.4323C453.836 28.8754 454.072 29.3923 454.219 29.983C454.367 30.5645 454.441 31.183 454.441 31.8383V32.4475C454.441 34.0998 454.021 35.3551 453.181 36.2136C452.35 37.0628 451.127 37.4874 449.512 37.4874C449.161 37.4874 448.833 37.4781 448.529 37.4597C448.224 37.4412 447.92 37.4135 447.615 37.3766V35.729C447.92 35.7659 448.229 35.7936 448.543 35.812C448.866 35.8305 449.212 35.8397 449.581 35.8397C450.356 35.8397 450.966 35.7059 451.409 35.4382C451.852 35.1705 452.166 34.7782 452.35 34.2613C452.544 33.7444 452.641 33.1029 452.641 32.3368V31.4368L453.084 30.7999C453.075 31.5106 452.932 32.1014 452.655 32.5722C452.387 33.0337 452.013 33.3844 451.533 33.6244C451.053 33.8552 450.504 33.9706 449.886 33.9706C449.166 33.9706 448.552 33.8275 448.044 33.5414C447.537 33.2552 447.144 32.8583 446.867 32.3506C446.6 31.8429 446.466 31.2522 446.466 30.5784C446.466 29.8769 446.623 29.2584 446.937 28.7231C447.25 28.1785 447.693 27.7585 448.266 27.4631C448.847 27.1585 449.54 27.0062 450.343 27.0062ZM450.384 28.6538C449.95 28.6538 449.581 28.7369 449.276 28.903C448.972 29.06 448.741 29.2815 448.584 29.5676C448.427 29.8538 448.349 30.1815 448.349 30.5507C448.349 30.9291 448.423 31.2614 448.57 31.5476C448.727 31.8337 448.953 32.0552 449.249 32.2122C449.544 32.3691 449.9 32.4475 450.315 32.4475C450.712 32.4475 451.072 32.3783 451.395 32.2399C451.727 32.0922 451.986 31.8799 452.17 31.603C452.364 31.3168 452.461 30.9661 452.461 30.5507C452.461 30.1907 452.383 29.8676 452.226 29.5815C452.078 29.2953 451.847 29.0692 451.533 28.903C451.229 28.7369 450.846 28.6538 450.384 28.6538ZM459.962 37.6674C459.168 37.6674 458.494 37.5381 457.94 37.2797C457.386 37.012 456.934 36.652 456.583 36.1997C456.233 35.7382 455.974 35.2121 455.808 34.6213C455.651 34.0213 455.573 33.3937 455.573 32.7383V31.9629C455.573 31.0307 455.73 30.1907 456.043 29.443C456.357 28.6954 456.837 28.1046 457.483 27.6708C458.129 27.2277 458.956 27.0062 459.962 27.0062C460.959 27.0062 461.78 27.2277 462.426 27.6708C463.072 28.1046 463.548 28.6954 463.852 29.443C464.166 30.1907 464.323 31.0307 464.323 31.9629V32.7383C464.323 33.3937 464.24 34.0213 464.074 34.6213C463.917 35.2121 463.663 35.7382 463.312 36.1997C462.971 36.652 462.523 37.012 461.969 37.2797C461.415 37.5381 460.746 37.6674 459.962 37.6674ZM459.962 35.8674C460.783 35.8674 461.388 35.5859 461.775 35.0228C462.163 34.4506 462.357 33.5644 462.357 32.3645C462.357 31.0907 462.159 30.1815 461.762 29.6369C461.365 29.083 460.765 28.8061 459.962 28.8061C459.149 28.8061 458.54 29.083 458.134 29.6369C457.737 30.1815 457.539 31.0814 457.539 32.3368C457.539 33.546 457.737 34.4367 458.134 35.009C458.531 35.5813 459.14 35.8674 459.962 35.8674ZM469.098 37.6674C468.304 37.6674 467.621 37.5104 467.049 37.1966C466.486 36.8828 466.052 36.4674 465.747 35.9505C465.452 35.4244 465.304 34.8521 465.304 34.2336H467.201C467.201 34.5844 467.279 34.8936 467.436 35.1613C467.603 35.429 467.829 35.6413 468.115 35.7982C468.401 35.9459 468.733 36.0197 469.112 36.0197C469.509 36.0197 469.85 35.9367 470.136 35.7705C470.422 35.6044 470.639 35.3782 470.787 35.0921C470.944 34.8059 471.022 34.4782 471.022 34.109C471.022 33.749 470.944 33.426 470.787 33.1398C470.639 32.8445 470.422 32.6137 470.136 32.4475C469.859 32.2722 469.522 32.1845 469.126 32.1845C468.793 32.1845 468.479 32.2491 468.184 32.3783C467.889 32.5075 467.658 32.6783 467.492 32.8906H465.678L466.19 27.2969H472.047V28.9723H467.049L467.741 28.4323L467.409 31.9214L466.938 31.7829C467.206 31.4783 467.533 31.2245 467.921 31.0214C468.309 30.8184 468.798 30.7168 469.389 30.7168C470.136 30.7168 470.773 30.8691 471.299 31.1737C471.825 31.4783 472.227 31.8845 472.504 32.3922C472.781 32.8906 472.919 33.4352 472.919 34.0259V34.2059C472.919 34.8059 472.772 35.369 472.476 35.8951C472.181 36.4213 471.747 36.8505 471.175 37.1828C470.612 37.5058 469.919 37.6674 469.098 37.6674ZM477.346 27.0062C478.094 27.0062 478.726 27.1354 479.243 27.3939C479.769 27.6431 480.194 27.9892 480.517 28.4323C480.84 28.8754 481.075 29.3923 481.223 29.983C481.37 30.5645 481.444 31.183 481.444 31.8383V32.4475C481.444 34.0998 481.024 35.3551 480.184 36.2136C479.354 37.0628 478.131 37.4874 476.515 37.4874C476.165 37.4874 475.837 37.4781 475.532 37.4597C475.228 37.4412 474.923 37.4135 474.618 37.3766V35.729C474.923 35.7659 475.232 35.7936 475.546 35.812C475.869 35.8305 476.215 35.8397 476.584 35.8397C477.36 35.8397 477.969 35.7059 478.412 35.4382C478.855 35.1705 479.169 34.7782 479.354 34.2613C479.547 33.7444 479.644 33.1029 479.644 32.3368V31.4368L480.087 30.7999C480.078 31.5106 479.935 32.1014 479.658 32.5722C479.391 33.0337 479.017 33.3844 478.537 33.6244C478.057 33.8552 477.508 33.9706 476.889 33.9706C476.169 33.9706 475.555 33.8275 475.048 33.5414C474.54 33.2552 474.148 32.8583 473.871 32.3506C473.603 31.8429 473.469 31.2522 473.469 30.5784C473.469 29.8769 473.626 29.2584 473.94 28.7231C474.254 28.1785 474.697 27.7585 475.269 27.4631C475.851 27.1585 476.543 27.0062 477.346 27.0062ZM477.388 28.6538C476.954 28.6538 476.584 28.7369 476.28 28.903C475.975 29.06 475.745 29.2815 475.588 29.5676C475.431 29.8538 475.352 30.1815 475.352 30.5507C475.352 30.9291 475.426 31.2614 475.574 31.5476C475.731 31.8337 475.957 32.0552 476.252 32.2122C476.548 32.3691 476.903 32.4475 477.318 32.4475C477.715 32.4475 478.075 32.3783 478.398 32.2399C478.731 32.0922 478.989 31.8799 479.174 31.603C479.367 31.3168 479.464 30.9661 479.464 30.5507C479.464 30.1907 479.386 29.8676 479.229 29.5815C479.081 29.2953 478.851 29.0692 478.537 28.903C478.232 28.7369 477.849 28.6538 477.388 28.6538ZM489.554 40.7965C488.539 40.7965 487.597 40.635 486.73 40.3119C485.871 39.9888 485.124 39.5273 484.487 38.9273C483.85 38.3273 483.356 37.6074 483.005 36.7674C482.654 35.9182 482.479 34.9721 482.479 33.929C482.479 32.9137 482.645 31.986 482.978 31.146C483.319 30.2968 483.804 29.5676 484.431 28.9584C485.059 28.34 485.811 27.8646 486.688 27.5323C487.565 27.1908 488.543 27.02 489.623 27.02C490.565 27.02 491.446 27.1539 492.268 27.4216C493.099 27.6892 493.828 28.0861 494.456 28.6123C495.093 29.1292 495.591 29.7707 495.951 30.5368C496.311 31.303 496.491 32.1891 496.491 33.1952C496.491 34.0075 496.366 34.7275 496.117 35.3551C495.877 35.9828 495.526 36.4813 495.065 36.8505C494.613 37.2105 494.063 37.3905 493.417 37.3905C492.965 37.3905 492.568 37.2981 492.226 37.1135C491.894 36.9197 491.636 36.652 491.451 36.3105C491.266 35.9597 491.174 35.5536 491.174 35.0921V34.3029H491.617C491.59 34.9582 491.456 35.5074 491.216 35.9505C490.976 36.3936 490.653 36.7305 490.247 36.9612C489.85 37.1828 489.402 37.2935 488.903 37.2935C488.331 37.2935 487.814 37.1551 487.353 36.8782C486.9 36.6012 486.54 36.2182 486.273 35.729C486.005 35.2305 485.871 34.6629 485.871 34.0259V33.8044C485.871 33.1583 486 32.5952 486.259 32.1152C486.527 31.6353 486.887 31.266 487.339 31.0076C487.791 30.7399 488.303 30.6061 488.876 30.6061C489.402 30.6061 489.868 30.7214 490.274 30.9522C490.68 31.183 491.003 31.5153 491.243 31.9491C491.493 32.3737 491.631 32.886 491.659 33.486H491.299V30.8414H492.711V34.9951C492.711 35.2074 492.743 35.3828 492.808 35.5213C492.873 35.6597 492.965 35.7659 493.085 35.8397C493.205 35.9136 493.343 35.9505 493.5 35.9505C493.786 35.9505 494.036 35.8397 494.248 35.6182C494.46 35.3967 494.626 35.0875 494.746 34.6905C494.876 34.2844 494.94 33.8044 494.94 33.2506C494.94 32.4291 494.802 31.7183 494.525 31.1184C494.248 30.5184 493.86 30.0245 493.362 29.6369C492.873 29.24 492.305 28.9492 491.659 28.7646C491.022 28.5707 490.348 28.4738 489.637 28.4738C488.77 28.4738 487.99 28.6077 487.297 28.8754C486.605 29.1338 486.014 29.5076 485.525 29.9969C485.045 30.4768 484.676 31.0537 484.417 31.7276C484.159 32.3922 484.03 33.1306 484.03 33.9429C484.03 35.0321 484.265 35.9828 484.736 36.7951C485.207 37.5981 485.857 38.2166 486.688 38.6504C487.519 39.0935 488.474 39.315 489.554 39.315C489.859 39.315 490.168 39.2965 490.482 39.2596C490.796 39.2227 491.086 39.1765 491.354 39.1212V40.6165C491.086 40.6719 490.796 40.7134 490.482 40.7411C490.168 40.778 489.859 40.7965 489.554 40.7965ZM489.25 35.8674C489.563 35.8674 489.85 35.7982 490.108 35.6597C490.376 35.5121 490.583 35.2998 490.731 35.0228C490.888 34.7367 490.966 34.3998 490.966 34.0121V33.7075C490.966 33.3383 490.888 33.0337 490.731 32.7937C490.574 32.5445 490.367 32.3552 490.108 32.226C489.85 32.0968 489.563 32.0322 489.25 32.0322C488.899 32.0322 488.594 32.1106 488.336 32.2675C488.077 32.4245 487.879 32.646 487.74 32.9321C487.602 33.2091 487.533 33.5367 487.533 33.9152C487.533 34.2844 487.602 34.6167 487.74 34.9121C487.879 35.2074 488.073 35.4428 488.322 35.6182C488.58 35.7844 488.89 35.8674 489.25 35.8674ZM497.847 37.4043V29.8861H499.37V33.1121H499.232C499.232 32.346 499.334 31.7091 499.537 31.2014C499.74 30.6845 500.04 30.2968 500.437 30.0384C500.843 29.7799 501.346 29.6507 501.946 29.6507H502.029C502.924 29.6507 503.603 29.9415 504.064 30.523C504.526 31.0953 504.756 31.9537 504.756 33.0983V37.4043H502.832V32.9321C502.832 32.4706 502.698 32.0968 502.43 31.8106C502.172 31.5245 501.812 31.3814 501.35 31.3814C500.88 31.3814 500.497 31.5291 500.201 31.8245C499.915 32.1106 499.772 32.4983 499.772 32.9875V37.4043H497.847ZM510.827 37.4043V35.1751H510.508V32.6968C510.508 32.2629 510.402 31.9399 510.19 31.7276C509.978 31.5153 509.65 31.4091 509.207 31.4091C508.976 31.4091 508.699 31.4137 508.376 31.423C508.053 31.4322 507.726 31.446 507.393 31.4645C507.07 31.4737 506.779 31.4876 506.521 31.506V29.8722C506.733 29.8538 506.973 29.8353 507.241 29.8169C507.509 29.7984 507.781 29.7892 508.058 29.7892C508.344 29.7799 508.612 29.7753 508.861 29.7753C509.636 29.7753 510.278 29.8769 510.785 30.0799C511.302 30.283 511.69 30.6014 511.948 31.0353C512.216 31.4691 512.35 32.0368 512.35 32.7383V37.4043H510.827ZM508.404 37.5981C507.859 37.5981 507.379 37.5012 506.964 37.3074C506.558 37.1135 506.239 36.8366 506.009 36.4766C505.787 36.1166 505.676 35.6828 505.676 35.1751C505.676 34.6213 505.81 34.169 506.078 33.8183C506.355 33.4675 506.738 33.2044 507.227 33.0291C507.726 32.8537 508.307 32.766 508.972 32.766H510.716V33.9152H508.944C508.501 33.9152 508.159 34.0259 507.919 34.2475C507.689 34.4598 507.573 34.7367 507.573 35.0782C507.573 35.4197 507.689 35.6967 507.919 35.909C508.159 36.1213 508.501 36.2274 508.944 36.2274C509.212 36.2274 509.456 36.1813 509.678 36.089C509.909 35.9874 510.098 35.8213 510.245 35.5905C510.402 35.3505 510.49 35.0275 510.508 34.6213L510.979 35.1613C510.933 35.6874 510.804 36.1305 510.592 36.4905C510.388 36.8505 510.102 37.1274 509.733 37.3212C509.373 37.5058 508.93 37.5981 508.404 37.5981ZM515.272 37.4043L512.918 29.8861H514.898L517.155 37.4043H515.272ZM515.84 37.4043V35.8259H517.875V37.4043H515.84ZM516.601 37.4043L518.54 29.8861H520.395L518.36 37.4043H516.601ZM524.497 37.6674C523.851 37.6674 523.283 37.5566 522.794 37.3351C522.314 37.1135 521.913 36.8182 521.589 36.4489C521.276 36.0705 521.036 35.6505 520.869 35.189C520.713 34.7275 520.634 34.2567 520.634 33.7767V33.5137C520.634 33.0152 520.713 32.5352 520.869 32.0737C521.036 31.603 521.276 31.1876 521.589 30.8276C521.913 30.4584 522.309 30.1676 522.78 29.9553C523.251 29.7338 523.796 29.623 524.414 29.623C525.226 29.623 525.905 29.803 526.449 30.163C527.003 30.5138 527.419 30.9799 527.695 31.5614C527.972 32.1337 528.111 32.7521 528.111 33.4167V34.109H521.451V32.9321H526.906L526.311 33.5137C526.311 33.0337 526.242 32.6229 526.103 32.2814C525.965 31.9399 525.752 31.6768 525.466 31.4922C525.189 31.3076 524.839 31.2153 524.414 31.2153C523.989 31.2153 523.629 31.3122 523.334 31.506C523.039 31.6999 522.813 31.9814 522.656 32.3506C522.508 32.7106 522.434 33.1444 522.434 33.6521C522.434 34.1229 522.508 34.5429 522.656 34.9121C522.803 35.2721 523.029 35.5582 523.334 35.7705C523.639 35.9736 524.026 36.0751 524.497 36.0751C524.968 36.0751 525.351 35.9828 525.646 35.7982C525.942 35.6044 526.131 35.369 526.214 35.0921H527.986C527.875 35.609 527.663 36.0613 527.349 36.4489C527.035 36.8366 526.634 37.1366 526.145 37.3489C525.665 37.5612 525.116 37.6674 524.497 37.6674ZM529.165 37.4043V29.8861H530.688V33.0706H530.646C530.646 31.9906 530.877 31.1737 531.338 30.6199C531.8 30.0661 532.478 29.7892 533.374 29.7892H533.651V31.4645H533.125C532.478 31.4645 531.975 31.6399 531.615 31.9906C531.265 32.3322 531.089 32.8306 531.089 33.486V37.4043H529.165ZM533.255 37.4043V35.189H535.415V37.4043H533.255ZM539.899 37.6674C539.243 37.6674 538.676 37.5566 538.196 37.3351C537.725 37.1135 537.328 36.8182 537.005 36.4489C536.691 36.0797 536.456 35.6644 536.299 35.2028C536.142 34.7413 536.063 34.2706 536.063 33.7906V33.5275C536.063 33.0198 536.142 32.5352 536.299 32.0737C536.465 31.603 536.71 31.1876 537.033 30.8276C537.356 30.4584 537.753 30.1676 538.223 29.9553C538.703 29.7338 539.257 29.623 539.885 29.623C540.54 29.623 541.126 29.7522 541.643 30.0107C542.16 30.2599 542.571 30.6107 542.875 31.063C543.189 31.5153 543.365 32.0414 543.402 32.6414H541.532C541.486 32.2537 541.32 31.9306 541.034 31.6722C540.757 31.4137 540.374 31.2845 539.885 31.2845C539.46 31.2845 539.105 31.386 538.819 31.5891C538.542 31.7922 538.334 32.0737 538.196 32.4337C538.057 32.7845 537.988 33.1906 537.988 33.6521C537.988 34.0952 538.053 34.4967 538.182 34.8567C538.32 35.2167 538.528 35.4982 538.805 35.7013C539.091 35.9043 539.456 36.0059 539.899 36.0059C540.231 36.0059 540.517 35.9459 540.757 35.8259C540.997 35.7059 541.186 35.5397 541.325 35.3274C541.472 35.1151 541.565 34.8752 541.602 34.6075H543.471C543.434 35.2167 543.254 35.752 542.931 36.2136C542.617 36.6659 542.197 37.0212 541.671 37.2797C541.154 37.5381 540.563 37.6674 539.899 37.6674ZM548.072 37.6674C547.408 37.6674 546.822 37.5612 546.314 37.3489C545.806 37.1366 545.377 36.8505 545.026 36.4905C544.676 36.1213 544.408 35.7059 544.223 35.2444C544.048 34.7828 543.96 34.3029 543.96 33.8044V33.5137C543.96 32.9968 544.053 32.5075 544.237 32.046C544.431 31.5753 544.703 31.1599 545.054 30.7999C545.414 30.4307 545.848 30.1445 546.356 29.9415C546.863 29.7292 547.436 29.623 548.072 29.623C548.709 29.623 549.282 29.7292 549.789 29.9415C550.297 30.1445 550.726 30.4307 551.077 30.7999C551.437 31.1599 551.709 31.5753 551.894 32.046C552.078 32.5075 552.171 32.9968 552.171 33.5137V33.8044C552.171 34.3029 552.078 34.7828 551.894 35.2444C551.719 35.7059 551.455 36.1213 551.105 36.4905C550.754 36.8505 550.325 37.1366 549.817 37.3489C549.309 37.5612 548.728 37.6674 548.072 37.6674ZM548.072 36.0197C548.543 36.0197 548.94 35.9182 549.263 35.7151C549.586 35.5028 549.831 35.2213 549.997 34.8705C550.163 34.5105 550.246 34.1044 550.246 33.6521C550.246 33.1906 550.159 32.7845 549.983 32.4337C549.817 32.0737 549.568 31.7922 549.236 31.5891C548.912 31.3768 548.525 31.2707 548.072 31.2707C547.62 31.2707 547.228 31.3768 546.896 31.5891C546.573 31.7922 546.323 32.0737 546.148 32.4337C545.973 32.7845 545.885 33.1906 545.885 33.6521C545.885 34.1044 545.968 34.5105 546.134 34.8705C546.309 35.2213 546.559 35.5028 546.882 35.7151C547.205 35.9182 547.602 36.0197 548.072 36.0197ZM553.302 37.4043V29.8861H554.825V33.1121H554.687C554.687 32.3552 554.784 31.723 554.977 31.2153C555.171 30.6984 555.457 30.3107 555.836 30.0522C556.224 29.7846 556.704 29.6507 557.276 29.6507H557.359C557.94 29.6507 558.42 29.7846 558.799 30.0522C559.187 30.3107 559.473 30.6984 559.657 31.2153C559.851 31.723 559.948 32.3552 559.948 33.1121H559.463C559.463 32.3552 559.56 31.723 559.754 31.2153C559.957 30.6984 560.248 30.3107 560.627 30.0522C561.014 29.7846 561.494 29.6507 562.066 29.6507H562.15C562.731 29.6507 563.216 29.7846 563.603 30.0522C563.991 30.3107 564.282 30.6984 564.476 31.2153C564.679 31.723 564.78 32.3552 564.78 33.1121V37.4043H562.856V32.9321C562.856 32.4614 562.736 32.0876 562.496 31.8106C562.256 31.5245 561.914 31.3814 561.471 31.3814C561.028 31.3814 560.673 31.5291 560.405 31.8245C560.137 32.1106 560.003 32.4983 560.003 32.9875V37.4043H558.079V32.9321C558.079 32.4614 557.959 32.0876 557.719 31.8106C557.479 31.5245 557.137 31.3814 556.694 31.3814C556.251 31.3814 555.896 31.5291 555.628 31.8245C555.361 32.1106 555.227 32.4983 555.227 32.9875V37.4043H553.302Z" fill="white"/>
<path d="M389.347 21.7852H364.448C362.736 21.7852 361.351 23.0982 361.351 24.7029L361.336 42.2097C361.336 43.8145 362.736 45.1275 364.448 45.1275H389.347C391.058 45.1275 392.459 43.8145 392.459 42.2097V24.7029C392.459 23.0982 391.058 21.7852 389.347 21.7852ZM389.347 42.2097H364.448V27.6207L376.897 34.9152L389.347 27.6207V42.2097ZM376.897 31.9974L364.448 24.7029H389.347L376.897 31.9974Z" fill="white"/>
<circle cx="377.147" cy="32.9278" r="32.1497" stroke="white" stroke-width="1.55615"/>
<path d="M81.9286 37.4043V28.5154L82.5378 28.9861H79.8656V27.2969H83.8809V37.4043H81.9286ZM89.1672 37.6674C88.3734 37.6674 87.6904 37.5104 87.1181 37.1966C86.555 36.8828 86.1212 36.4674 85.8166 35.9505C85.5212 35.4244 85.3735 34.8521 85.3735 34.2336H87.2704C87.2704 34.5844 87.3488 34.8936 87.5057 35.1613C87.6719 35.429 87.898 35.6413 88.1842 35.7982C88.4703 35.9459 88.8026 36.0197 89.1811 36.0197C89.578 36.0197 89.9195 35.9367 90.2057 35.7705C90.4918 35.6044 90.7087 35.3782 90.8564 35.0921C91.0133 34.8059 91.0918 34.4782 91.0918 34.109C91.0918 33.749 91.0133 33.426 90.8564 33.1398C90.7087 32.8445 90.4918 32.6137 90.2057 32.4475C89.9287 32.2722 89.5918 32.1845 89.1949 32.1845C88.8626 32.1845 88.5488 32.2491 88.2534 32.3783C87.958 32.5075 87.7273 32.6783 87.5611 32.8906H85.7473L86.2596 27.2969H92.1164V28.9723H87.1181L87.8104 28.4323L87.4781 31.9214L87.0073 31.7829C87.275 31.4783 87.6027 31.2245 87.9903 31.0214C88.378 30.8184 88.8672 30.7168 89.458 30.7168C90.2057 30.7168 90.8426 30.8691 91.3687 31.1737C91.8948 31.4783 92.2964 31.8845 92.5733 32.3922C92.8502 32.8906 92.9886 33.4352 92.9886 34.0259V34.2059C92.9886 34.8059 92.841 35.369 92.5456 35.8951C92.2502 36.4213 91.8164 36.8505 91.2441 37.1828C90.681 37.5058 89.9887 37.6674 89.1672 37.6674ZM93.4832 35.3136V33.1814L97.4431 27.02L98.9245 28.0308L95.4354 33.486L95.6016 33.7629H101.804V35.3136H93.4832ZM98.7722 37.4043V30.163H100.586V37.4043H98.7722ZM102.097 35.3136V33.1814L106.057 27.02L107.538 28.0308L104.049 33.486L104.215 33.7629H110.418V35.3136H102.097ZM107.386 37.4043V30.163H109.2V37.4043H107.386ZM110.89 34.3582V32.6691H116.498V34.3582H110.89ZM119.209 37.4043V28.5154L119.818 28.9861H117.146V27.2969H121.161V37.4043H119.209ZM122.876 37.4043V35.4659C122.876 35.0413 122.94 34.6721 123.069 34.3582C123.208 34.0444 123.429 33.7675 123.734 33.5275C124.048 33.2783 124.459 33.0429 124.966 32.8214L126.683 32.0599C127.108 31.866 127.431 31.6306 127.652 31.3537C127.883 31.0676 127.999 30.703 127.999 30.2599C127.999 29.7707 127.851 29.383 127.555 29.0969C127.269 28.8015 126.859 28.6538 126.323 28.6538C125.788 28.6538 125.372 28.8015 125.077 29.0969C124.791 29.3923 124.648 29.803 124.648 30.3292H122.751C122.751 29.7015 122.885 29.1384 123.153 28.64C123.42 28.1323 123.817 27.7354 124.343 27.4492C124.869 27.1539 125.529 27.0062 126.323 27.0062C127.117 27.0062 127.777 27.1493 128.303 27.4354C128.829 27.7215 129.226 28.1046 129.494 28.5846C129.762 29.0553 129.895 29.5815 129.895 30.163V30.343C129.895 31.0999 129.683 31.7322 129.258 32.2399C128.834 32.7383 128.211 33.1721 127.389 33.5414L125.672 34.3029C125.349 34.4413 125.123 34.589 124.994 34.7459C124.865 34.8936 124.8 35.0967 124.8 35.3551V36.2413L124.329 35.729H129.937V37.4043H122.876ZM135.35 37.6674C134.556 37.6674 133.882 37.5381 133.328 37.2797C132.775 37.012 132.322 36.652 131.972 36.1997C131.621 35.7382 131.362 35.2121 131.196 34.6213C131.039 34.0213 130.961 33.3937 130.961 32.7383V31.9629C130.961 31.0307 131.118 30.1907 131.432 29.443C131.745 28.6954 132.225 28.1046 132.872 27.6708C133.518 27.2277 134.344 27.0062 135.35 27.0062C136.347 27.0062 137.168 27.2277 137.814 27.6708C138.461 28.1046 138.936 28.6954 139.241 29.443C139.554 30.1907 139.711 31.0307 139.711 31.9629V32.7383C139.711 33.3937 139.628 34.0213 139.462 34.6213C139.305 35.2121 139.051 35.7382 138.701 36.1997C138.359 36.652 137.911 37.012 137.358 37.2797C136.804 37.5381 136.135 37.6674 135.35 37.6674ZM135.35 35.8674C136.171 35.8674 136.776 35.5859 137.164 35.0228C137.551 34.4506 137.745 33.5644 137.745 32.3645C137.745 31.0907 137.547 30.1815 137.15 29.6369C136.753 29.083 136.153 28.8061 135.35 28.8061C134.538 28.8061 133.928 29.083 133.522 29.6369C133.125 30.1815 132.927 31.0814 132.927 32.3368C132.927 33.546 133.125 34.4367 133.522 35.009C133.919 35.5813 134.528 35.8674 135.35 35.8674ZM140.54 35.3136V33.1814L144.5 27.02L145.981 28.0308L142.492 33.486L142.659 33.7629H148.861V35.3136H140.54ZM145.829 37.4043V30.163H147.643V37.4043H145.829Z" fill="white"/>
<path d="M24.3091 31.6775C26.5499 35.8367 30.1602 39.2318 34.5641 41.3628L37.9877 38.1295C38.4078 37.7327 39.0303 37.6004 39.5749 37.7767C41.3178 38.3205 43.2008 38.6145 45.1304 38.6145C45.9863 38.6145 46.6866 39.2758 46.6866 40.0842V45.2134C46.6866 46.0218 45.9863 46.6831 45.1304 46.6831C30.5181 46.6831 18.6758 35.4987 18.6758 21.6982C18.6758 20.8899 19.3761 20.2285 20.2319 20.2285H25.6785C26.5344 20.2285 27.2346 20.8899 27.2346 21.6982C27.2346 23.5353 27.5459 25.299 28.1216 26.9451C28.2928 27.4594 28.1683 28.0326 27.7326 28.4441L24.3091 31.6775Z" fill="white"/>
<path d="M65.0784 33.1016C65.0784 50.8574 50.6843 65.2514 32.9282 65.2514C15.1722 65.2514 0.778077 50.8574 0.778077 33.1016C0.778077 15.3458 15.1722 0.951905 32.9282 0.951905C50.6843 0.951905 65.0784 15.3458 65.0784 33.1016Z" stroke="white" stroke-width="1.55615"/>
</svg>
