<?xml version="1.0" encoding="UTF-8"?><svg xmlns="http://www.w3.org/2000/svg" viewBox="0 0 841.89 595.28"><defs><style>.c{fill:#fff;}</style></defs><g id="a"><path d="M656.93,226.99c0,129.57-207.99,351.39-207.99,351.39,0,0-207.99-219.79-207.99-347.96S334.07,24.81,448.94,24.81s207.99,87.31,207.99,202.17Z"/></g><g id="b"><path d="M470.77,369.69c-1.18-.13-2.34-.21-3.52-.37-1.84-.26-3.12-1.96-2.86-3.79,.26-1.84,1.96-3.14,3.79-2.86,31.69,4.44,60.9-4.04,84.46-24.53,29.59-25.73,47.96-69.11,47.96-113.23,0-82.47-67.1-149.57-149.57-149.57s-144.57,62.51-149.23,140.65c-1.24,3.78-3.03,7.31-4.74,10.92-2.1,4.42-4.12,8.89-5.72,13.52-1.29,3.75-2.26,7.63-2.79,11.56-8.01,21.55-6.33,45.47,1.38,65.2,2.52,5.21,5.21,10.48,8.03,15.78,2.78,4.29,5.87,8.19,9.23,11.57,1.57-5.9,3.1-11.13,4.36-15.42l.53-1.8c.52-1.78,2.37-2.8,4.17-2.28,1.78,.52,2.8,2.39,2.27,4.17l-.53,1.81c-1.93,6.54-4.51,15.28-6.84,25.38,43.48,73.37,106.18,147.59,125.14,169.47,1.23-.82,1.98-1.58,2.31-2.2,.87-1.91,1.09-12.48,1.32-22.69,.37-17.38,.89-41.17,4.3-64.22,4.16-28.12,18.32-53.44,26.54-67.07Z"/><path class="c" d="M454.03,76.5c-79.03,0-144.57,62.51-149.23,140.65-1.24,3.78-3.03,7.31-4.74,10.92-2.1,4.42-4.12,8.89-5.72,13.52-1.29,3.75-2.26,7.63-2.79,11.56-12.36,33.23-1.67,72.14,18.64,92.55,1.57-5.9,3.1-11.13,4.36-15.42l.53-1.8c.52-1.78,2.37-2.8,4.17-2.28,1.78,.52,2.8,2.39,2.27,4.17l-.53,1.81c-2.13,7.23-5.06,17.15-7.57,28.61,14.54,23.51,73.74,116.87,126.35,165.89,.95-.69,1.55-1.33,1.83-1.86,.87-1.91,1.09-12.48,1.32-22.69,.37-17.38,.89-41.17,4.3-64.22,4.16-28.12,18.32-53.44,26.54-67.07-1.18-.13-2.34-.21-3.52-.37-1.84-.26-3.12-1.96-2.86-3.79,.26-1.84,1.96-3.14,3.79-2.86,31.69,4.44,60.9-4.04,84.46-24.53,29.59-25.73,47.96-69.11,47.96-113.23,0-82.47-67.1-149.57-149.57-149.57Z"/><path d="M379.44,166c4.96-.08,8.91-4.17,8.83-9.13-.08-4.96-4.17-8.91-9.13-8.83-4.96,.08-8.91,4.17-8.83,9.13,.08,4.96,4.17,8.91,9.13,8.83Z"/><path d="M493.95,209.67c5.55-.09,9.98-4.67,9.88-10.22-.09-5.55-4.67-9.98-10.22-9.88-5.55,.09-9.98,4.67-9.88,10.22,.09,5.55,4.67,9.98,10.22,9.88Z"/><path d="M382.54,231.05c-4.18-19.47,4.77-42.13,9.13-50.17,6.96-1.75,72.81,22.94,78.34,29.33-8.87,24.47-21.62,41.41-35.91,47.72-7.99,3.52-16.6,3.77-25.62,.79-.37,1.08-.77,2.12-1.17,3.14,4.53,1.51,8.97,2.3,13.3,2.3,5.11,0,10.07-1.05,14.85-3.16,15.14-6.68,28.54-24.32,37.72-49.67l.19-.52c.69-1.9,0-3.91-15.44-10.96-.64-.29-64.98-28.21-69.03-20.91-4.36,7.87-13.58,30.85-9.94,51.24,1.21,.28,2.4,.57,3.58,.86Z"/><path d="M454.03,70.46c-84.23,0-153.84,67.95-156.19,151.93,2.05-1.5,4.36-2.45,6.84-2.89,3.81-78.92,69.76-142.32,149.35-142.32s149.57,67.1,149.57,149.57c0,44.11-18.38,87.5-47.96,113.23-23.56,20.49-52.77,28.98-84.46,24.53-1.84-.27-3.53,1.03-3.79,2.86-.26,1.84,1.02,3.54,2.86,3.79,1.18,.17,2.35,.24,3.52,.37,.93-1.55,1.81-2.98,2.56-4.21,2.05,.37,4.18,.63,6.32,.67,.21,.82,.1,1.72-.39,2.51-.31,.51-.67,1.09-1.02,1.66,2.07,.11,4.14,.22,6.18,.22,27.03,0,51.87-9.3,72.61-27.34,31.01-26.97,50.27-72.3,50.27-118.3,0-86.18-70.11-156.29-156.29-156.29Z"/><path d="M323.16,272.38c-.79,20.26,5.39,38.97,16.21,46.96,.6,.44,1.3,.66,1.99,.66,1.03,0,2.05-.47,2.71-1.37,1.1-1.49,.78-3.6-.71-4.7-7.94-5.86-12.91-19.57-13.5-35.06-2.55-1.93-4.79-4.09-6.7-6.49Z"/><path d="M311.7,355.99c.1-.7,.23-1.41,.39-2.11,.34-1.45,.89-2.89,1.53-4.27-1.18-1.01-2.32-2.1-3.45-3.23-20.48-20.59-31.21-59.99-18.36-93.4-1.71-3.12-2.73-6.44-2.98-9.85-19.32,38.82-6.04,87.93,19.45,110.73,.53,.47,1.05,.95,1.59,1.4,.53,.45,1.17,.66,1.82,.72Z"/><path d="M405.98,297.26c9.67-5.88,22.43-4.06,28.02,2.11,1.79,1.97,7.46,9.13,5.56,18.46-1.33,6.52-6.21,12.78-14.18,18.53,.68,.89,1.29,1.84,1.84,2.84,8.8-6.28,14.1-13.2,15.63-20.7,2.22-10.88-4.31-19.12-6.36-21.39-7.14-7.88-23.29-9.87-34.67-1.06,.27,.06,.54,.11,.8,.17,1.16,.28,2.28,.64,3.36,1.03Z"/><path d="M385.65,351.41c-13.56,.61-23.25-4.59-28.59-11.42-6.26-8.02-6.68-18.12-1.04-25.14,3.85-4.79,9.03-7.07,15.35-6.77,9.45,.44,18.23,6.46,19.56,8.47,.51,.77,1.55,.98,2.33,.47,.77-.51,.99-1.55,.48-2.33-1.82-2.75-9.3-7.61-17.6-9.34-1.07,.74-2.13,1.52-3.18,2.38-.72,.59-1.78,.48-2.37-.24-.58-.72-.48-1.78,.24-2.36,.18-.15,.35-.27,.53-.41-7.34-.29-13.5,2.48-17.96,8.03-6.63,8.26-6.23,20.04,1.02,29.31,5.6,7.17,15.45,12.81,29.07,12.81,.47,0,.96-.03,1.43-.04,.22-1.17,.47-2.3,.74-3.41Z"/><path d="M370.58,307.49c.59,.72,1.65,.82,2.37,.24,1.05-.86,2.12-1.64,3.18-2.38,8.44-5.85,17.26-7.88,25.7-5.85,9.14,2.2,15.81,8.69,17.43,12.38,.28,.63,.89,1,1.54,1,.23,0,.46-.05,.68-.14,.85-.37,1.24-1.36,.86-2.21-1.73-3.94-7.78-10.17-16.35-13.26-1.09-.39-2.2-.75-3.36-1.03-.26-.06-.53-.12-.8-.17-7.28-1.55-18.21-1.11-30.46,8.66-.18,.14-.35,.26-.53,.41-.72,.59-.82,1.65-.24,2.36Z"/><path d="M452.36,374.16c-1.84-.3-3.56,.94-3.86,2.77-.14,.88-.41,1.94-.78,3.12-2.22,7.11-8.46,18.82-18.2,25.21-6.28,4.12-12.99,5.33-19.92,3.58-13.61-3.42-20.38-25.63-19.06-45.12,.84-12.38,5.45-27.25,15.7-28.39,5.6-.63,9.84,.67,12.9,3.97,7.43,8.02,7.05,26.74,4.47,40.33-.34,1.82,.85,3.58,2.67,3.93,.37,.07,.72,.04,1.07-.01,1.4-.19,2.58-1.21,2.85-2.66,.93-4.9,4.67-27.81-3-41.67-.55-1-1.17-1.94-1.84-2.84-.42-.56-.83-1.13-1.3-1.64-4.54-4.91-10.8-6.96-18.58-6.08-9.43,1.05-16.56,9.49-19.85,22.76-.27,1.1-.52,2.24-.74,3.41-.5,2.66-.87,5.47-1.07,8.45-1.53,22.49,6.27,47.6,24.12,52.1,2.64,.66,5.24,.99,7.81,.99,6.04,0,11.88-1.83,17.44-5.48,12.78-8.39,20.51-24.26,21.92-32.86,.3-1.83-.94-3.56-2.77-3.86Z"/><path d="M301.36,236.99c-2.22,5.21-.71,11.17,3.93,15.57,3.03,2.87,6.77,4.45,10.07,4.45,.2,0,.39-.05,.59-.06-.25-1.07-.46-2.17-.64-3.29-2.41,0-5.33-1.29-7.7-3.53-1.37-1.3-5.64-5.98-3.15-11.81,1.18-2.78,3.17-4.29,5.75-4.36,1.91-.05,3.62,.67,4.82,1.52,.13-1.22,.26-2.44,.43-3.7-1.64-.81-3.53-1.27-5.35-1.19-3.93,.11-7.04,2.38-8.74,6.4Z"/><path d="M329.86,278.87c6.2,4.68,14.3,7.96,24.31,9.86,4.79,.91,9.29,1.37,13.49,1.36,19.02,0,32.12-9.36,39.65-28.23,.41-1.02,.8-2.06,1.17-3.14,1.49-4.27,2.74-8.94,3.72-14.09,.39-2.03-.95-4.7-13.8-9.05-4.55-1.54-9.95-3.07-15.86-4.53-1.18-.29-2.36-.58-3.58-.86-4.21-.98-8.63-1.91-13.17-2.77-12.44-2.36-24.27-3.9-33.33-4.34-6.97-.34-10.92,.03-13.19,.73-1.68,.52-2.43,1.23-2.76,1.99-.09,.21-.16,.43-.2,.65h0c-.35,1.83-.61,3.59-.86,5.33-.18,1.26-.31,2.48-.43,3.7-.69,6.68-.6,12.74,.29,18.19,.18,1.12,.39,2.22,.64,3.29,.57,2.43,1.29,4.74,2.21,6.91,.45,1.06,.96,2.07,1.49,3.06,1.03,1.92,2.16,3.77,3.5,5.46,1.91,2.41,4.15,4.57,6.7,6.49Zm-10.28-51.59c2.31-1.73,19.55-1.5,45.6,3.44,26.45,5.02,42.65,11.23,43.73,13.28-4.06,21.42-14.07,49.02-54.11,41.43-39.88-7.57-39.25-36.75-35.22-58.15Z"/><polygon class="c" points="316.52 225.79 309.58 221.42 300.36 223.61 292.39 232.58 291.49 245.75 294.92 251.67 301.88 233.39 308.16 228.82 316.52 225.79"/><path d="M297.25,259.99c5.19,4.91,11.71,7.6,17.63,7.6,1.66,0,3.26-.24,4.78-.67-.53-.99-1.04-2-1.49-3.06-5.72,1.38-12.99-.99-18.61-6.31-7.2-6.82-9.31-16.01-5.64-24.61,3.94-9.25,10.32-10.47,14.01-10.37,3.56,.1,6.81,1.56,8.6,3.23,.34-.76,1.09-1.47,2.76-1.99-2.46-2.6-6.81-4.47-11.27-4.6-1.15-.02-2.25,.1-3.34,.29-2.47,.44-4.78,1.4-6.84,2.89-2.9,2.11-5.31,5.22-7.02,9.23-1.62,3.8-2.25,7.7-1.97,11.51,.25,3.41,1.27,6.73,2.98,9.85,1.37,2.49,3.15,4.86,5.41,7.01Z"/></g></svg>